G04*
G04 #@! TF.GenerationSoftware,Altium Limited,Altium Designer,20.1.8 (145)*
G04*
G04 Layer_Color=65535*
%FSAX25Y25*%
%MOIN*%
G70*
G04*
G04 #@! TF.SameCoordinates,26FBE6AE-7016-430B-9DB3-2072F7DBF2B3*
G04*
G04*
G04 #@! TF.FilePolarity,Positive*
G04*
G01*
G75*
%ADD10C,0.00787*%
%ADD11C,0.00394*%
%ADD12C,0.00500*%
%ADD13C,0.01000*%
%ADD14C,0.00800*%
%ADD15C,0.01200*%
%ADD16C,0.00600*%
G36*
X0217340Y0049688D02*
X0217345Y0049693D01*
X0217355Y0049702D01*
X0217379Y0049712D01*
X0217404Y0049731D01*
X0217438Y0049751D01*
X0217477Y0049770D01*
X0217525Y0049795D01*
X0217574Y0049814D01*
X0217579Y0049819D01*
X0217598Y0049824D01*
X0217627Y0049834D01*
X0217666Y0049843D01*
X0217715Y0049853D01*
X0217768Y0049863D01*
X0217826Y0049872D01*
X0217890D01*
X0217895D01*
X0217909D01*
X0217929D01*
X0217958Y0049867D01*
X0217992Y0049863D01*
X0218031Y0049858D01*
X0218123Y0049838D01*
X0218225Y0049804D01*
X0218278Y0049785D01*
X0218332Y0049756D01*
X0218385Y0049722D01*
X0218439Y0049688D01*
X0218487Y0049644D01*
X0218536Y0049595D01*
X0218541Y0049591D01*
X0218546Y0049581D01*
X0218555Y0049566D01*
X0218575Y0049547D01*
X0218589Y0049518D01*
X0218609Y0049484D01*
X0218633Y0049445D01*
X0218653Y0049396D01*
X0218677Y0049347D01*
X0218696Y0049289D01*
X0218721Y0049226D01*
X0218735Y0049158D01*
X0218750Y0049085D01*
X0218764Y0049007D01*
X0218769Y0048925D01*
X0218774Y0048837D01*
Y0048794D01*
X0218769Y0048764D01*
Y0048730D01*
X0218764Y0048691D01*
X0218755Y0048609D01*
Y0048604D01*
X0218759Y0048599D01*
X0218779Y0048565D01*
X0218808Y0048526D01*
X0218852Y0048478D01*
X0218905Y0048424D01*
X0218964Y0048385D01*
X0219032Y0048351D01*
X0219071Y0048346D01*
X0219110Y0048342D01*
X0219114D01*
X0219129D01*
X0219148Y0048346D01*
X0219173Y0048351D01*
X0219197Y0048366D01*
X0219226Y0048380D01*
X0219250Y0048405D01*
X0219275Y0048434D01*
Y0048439D01*
X0219284Y0048453D01*
X0219289Y0048473D01*
X0219299Y0048507D01*
X0219309Y0048551D01*
X0219318Y0048604D01*
X0219323Y0048672D01*
X0219328Y0048750D01*
Y0049284D01*
X0219333Y0049314D01*
Y0049352D01*
X0219338Y0049391D01*
X0219353Y0049493D01*
X0219372Y0049600D01*
X0219406Y0049712D01*
X0219455Y0049824D01*
X0219518Y0049921D01*
Y0049926D01*
X0219527Y0049931D01*
X0219552Y0049960D01*
X0219596Y0049999D01*
X0219659Y0050042D01*
X0219731Y0050086D01*
X0219829Y0050125D01*
X0219936Y0050154D01*
X0219999Y0050159D01*
X0220062Y0050164D01*
X0220067D01*
X0220081D01*
X0220106D01*
X0220135Y0050159D01*
X0220174Y0050154D01*
X0220217Y0050144D01*
X0220320Y0050120D01*
X0220373Y0050101D01*
X0220431Y0050072D01*
X0220490Y0050042D01*
X0220548Y0050008D01*
X0220606Y0049965D01*
X0220660Y0049916D01*
X0220708Y0049858D01*
X0220757Y0049795D01*
X0220762Y0049790D01*
X0220767Y0049780D01*
X0220781Y0049756D01*
X0220796Y0049727D01*
X0220815Y0049688D01*
X0220835Y0049644D01*
X0220854Y0049586D01*
X0220879Y0049527D01*
X0220903Y0049454D01*
X0220922Y0049377D01*
X0220942Y0049289D01*
X0220961Y0049192D01*
X0220976Y0049090D01*
X0220990Y0048978D01*
X0220995Y0048857D01*
X0221000Y0048730D01*
Y0048677D01*
X0220995Y0048643D01*
Y0048594D01*
X0220990Y0048546D01*
X0220981Y0048487D01*
X0220976Y0048424D01*
X0220951Y0048293D01*
X0220913Y0048152D01*
X0220864Y0048021D01*
X0220830Y0047958D01*
X0220796Y0047899D01*
X0220791Y0047894D01*
X0220786Y0047885D01*
X0220776Y0047870D01*
X0220757Y0047855D01*
X0220713Y0047807D01*
X0220650Y0047753D01*
X0220567Y0047700D01*
X0220470Y0047651D01*
X0220417Y0047637D01*
X0220358Y0047622D01*
X0220295Y0047613D01*
X0220227Y0047608D01*
X0220222D01*
X0220217D01*
X0220203D01*
X0220183Y0047613D01*
X0220140Y0047617D01*
X0220081Y0047627D01*
X0220013Y0047646D01*
X0219940Y0047676D01*
X0219868Y0047714D01*
X0219795Y0047768D01*
X0219785Y0047778D01*
X0219766Y0047797D01*
X0219736Y0047836D01*
X0219697Y0047885D01*
X0219659Y0047948D01*
X0219615Y0048026D01*
X0219581Y0048118D01*
X0219552Y0048220D01*
X0219547Y0048215D01*
X0219542Y0048201D01*
X0219532Y0048181D01*
X0219513Y0048157D01*
X0219469Y0048098D01*
X0219406Y0048040D01*
X0219401Y0048035D01*
X0219387Y0048030D01*
X0219367Y0048016D01*
X0219338Y0048006D01*
X0219304Y0047992D01*
X0219265Y0047977D01*
X0219221Y0047972D01*
X0219173Y0047967D01*
X0219168D01*
X0219148D01*
X0219119Y0047972D01*
X0219085Y0047977D01*
X0219041Y0047987D01*
X0218998Y0048001D01*
X0218954Y0048021D01*
X0218910Y0048045D01*
X0218905Y0048050D01*
X0218891Y0048060D01*
X0218866Y0048079D01*
X0218837Y0048108D01*
X0218803Y0048142D01*
X0218764Y0048191D01*
X0218725Y0048239D01*
X0218687Y0048303D01*
X0218682Y0048293D01*
X0218667Y0048269D01*
X0218648Y0048230D01*
X0218619Y0048181D01*
X0218575Y0048123D01*
X0218526Y0048065D01*
X0218463Y0048006D01*
X0218390Y0047953D01*
X0218385D01*
X0218380Y0047948D01*
X0218351Y0047933D01*
X0218308Y0047909D01*
X0218249Y0047890D01*
X0218181Y0047865D01*
X0218099Y0047841D01*
X0218006Y0047826D01*
X0217909Y0047822D01*
X0217904D01*
X0217890D01*
X0217865D01*
X0217836Y0047826D01*
X0217797Y0047831D01*
X0217754Y0047836D01*
X0217652Y0047855D01*
X0217540Y0047885D01*
X0217423Y0047933D01*
X0217370Y0047967D01*
X0217311Y0048001D01*
X0217263Y0048040D01*
X0217214Y0048089D01*
X0217209Y0048094D01*
X0217204Y0048103D01*
X0217190Y0048118D01*
X0217175Y0048137D01*
X0217156Y0048166D01*
X0217136Y0048201D01*
X0217112Y0048239D01*
X0217088Y0048288D01*
X0217068Y0048342D01*
X0217044Y0048395D01*
X0217024Y0048463D01*
X0217005Y0048531D01*
X0216990Y0048604D01*
X0216976Y0048687D01*
X0216971Y0048769D01*
X0216966Y0048862D01*
Y0048939D01*
X0216971Y0048993D01*
X0216976Y0049051D01*
X0216986Y0049114D01*
X0217015Y0049250D01*
Y0050198D01*
X0217282D01*
X0217340Y0049688D01*
D02*
G37*
G36*
X0219766Y0046723D02*
X0219396Y0046665D01*
Y0046641D01*
X0219406Y0046636D01*
X0219430Y0046616D01*
X0219464Y0046587D01*
X0219513Y0046548D01*
X0219561Y0046499D01*
X0219615Y0046436D01*
X0219664Y0046368D01*
X0219707Y0046286D01*
Y0046281D01*
X0219712Y0046276D01*
X0219717Y0046261D01*
X0219722Y0046247D01*
X0219741Y0046198D01*
X0219761Y0046135D01*
X0219780Y0046057D01*
X0219800Y0045970D01*
X0219809Y0045873D01*
X0219814Y0045766D01*
Y0045717D01*
X0219809Y0045683D01*
X0219804Y0045644D01*
X0219800Y0045596D01*
X0219795Y0045542D01*
X0219785Y0045484D01*
X0219756Y0045362D01*
X0219712Y0045236D01*
X0219688Y0045178D01*
X0219654Y0045119D01*
X0219620Y0045061D01*
X0219576Y0045012D01*
X0219571Y0045008D01*
X0219566Y0045003D01*
X0219552Y0044988D01*
X0219532Y0044973D01*
X0219503Y0044954D01*
X0219474Y0044935D01*
X0219435Y0044910D01*
X0219391Y0044891D01*
X0219343Y0044867D01*
X0219284Y0044842D01*
X0219226Y0044823D01*
X0219153Y0044803D01*
X0219080Y0044789D01*
X0218998Y0044774D01*
X0218910Y0044769D01*
X0218818Y0044765D01*
X0217015D01*
Y0045187D01*
X0218798D01*
X0218803D01*
X0218813D01*
X0218832D01*
X0218852Y0045192D01*
X0218881D01*
X0218915Y0045197D01*
X0218988Y0045207D01*
X0219066Y0045226D01*
X0219153Y0045250D01*
X0219231Y0045289D01*
X0219299Y0045338D01*
X0219304Y0045348D01*
X0219323Y0045367D01*
X0219353Y0045406D01*
X0219382Y0045455D01*
X0219411Y0045523D01*
X0219440Y0045605D01*
X0219459Y0045707D01*
X0219464Y0045819D01*
Y0045863D01*
X0219459Y0045892D01*
Y0045926D01*
X0219450Y0045965D01*
X0219435Y0046062D01*
X0219406Y0046164D01*
X0219367Y0046266D01*
X0219309Y0046368D01*
X0219270Y0046412D01*
X0219231Y0046451D01*
X0219226D01*
X0219221Y0046461D01*
X0219207Y0046470D01*
X0219187Y0046480D01*
X0219158Y0046499D01*
X0219129Y0046514D01*
X0219090Y0046534D01*
X0219046Y0046553D01*
X0218998Y0046568D01*
X0218939Y0046587D01*
X0218876Y0046606D01*
X0218808Y0046621D01*
X0218730Y0046631D01*
X0218648Y0046641D01*
X0218560Y0046650D01*
X0218463D01*
X0217015D01*
Y0047068D01*
X0219766D01*
Y0046723D01*
D02*
G37*
G36*
X0218502Y0044065D02*
X0218560Y0044060D01*
X0218623Y0044055D01*
X0218696Y0044045D01*
X0218774Y0044031D01*
X0218944Y0043997D01*
X0219032Y0043972D01*
X0219119Y0043938D01*
X0219202Y0043904D01*
X0219289Y0043865D01*
X0219367Y0043817D01*
X0219440Y0043763D01*
X0219445Y0043758D01*
X0219455Y0043749D01*
X0219474Y0043734D01*
X0219498Y0043710D01*
X0219527Y0043676D01*
X0219557Y0043642D01*
X0219591Y0043598D01*
X0219625Y0043545D01*
X0219664Y0043491D01*
X0219697Y0043428D01*
X0219727Y0043360D01*
X0219756Y0043282D01*
X0219780Y0043205D01*
X0219800Y0043117D01*
X0219809Y0043025D01*
X0219814Y0042927D01*
Y0042884D01*
X0219809Y0042830D01*
X0219800Y0042762D01*
X0219790Y0042689D01*
X0219775Y0042602D01*
X0219751Y0042519D01*
X0219717Y0042432D01*
X0219712Y0042422D01*
X0219697Y0042398D01*
X0219673Y0042354D01*
X0219644Y0042305D01*
X0219600Y0042247D01*
X0219547Y0042184D01*
X0219484Y0042121D01*
X0219411Y0042062D01*
Y0042033D01*
X0219766Y0041946D01*
Y0041644D01*
X0215863D01*
Y0042062D01*
X0216811D01*
X0216815D01*
X0216825D01*
X0216840D01*
X0216864D01*
X0216893D01*
X0216927D01*
X0217000D01*
X0217093Y0042057D01*
X0217190Y0042053D01*
X0217287Y0042048D01*
X0217384Y0042043D01*
Y0042062D01*
X0217379Y0042067D01*
X0217365Y0042077D01*
X0217345Y0042092D01*
X0217321Y0042116D01*
X0217287Y0042150D01*
X0217253Y0042184D01*
X0217214Y0042228D01*
X0217175Y0042281D01*
X0217141Y0042339D01*
X0217102Y0042403D01*
X0217068Y0042471D01*
X0217034Y0042548D01*
X0217010Y0042636D01*
X0216990Y0042728D01*
X0216976Y0042825D01*
X0216971Y0042927D01*
Y0042981D01*
X0216976Y0043015D01*
X0216981Y0043064D01*
X0216990Y0043112D01*
X0217000Y0043170D01*
X0217020Y0043234D01*
X0217039Y0043302D01*
X0217063Y0043370D01*
X0217093Y0043438D01*
X0217127Y0043511D01*
X0217170Y0043579D01*
X0217224Y0043647D01*
X0217277Y0043710D01*
X0217345Y0043768D01*
X0217350Y0043773D01*
X0217365Y0043783D01*
X0217384Y0043797D01*
X0217413Y0043817D01*
X0217452Y0043836D01*
X0217496Y0043865D01*
X0217554Y0043890D01*
X0217613Y0043919D01*
X0217686Y0043948D01*
X0217763Y0043972D01*
X0217851Y0044001D01*
X0217943Y0044021D01*
X0218045Y0044040D01*
X0218152Y0044055D01*
X0218269Y0044065D01*
X0218390Y0044069D01*
X0218400D01*
X0218419D01*
X0218453D01*
X0218502Y0044065D01*
D02*
G37*
G36*
X0218468Y0039044D02*
X0218473D01*
X0218487D01*
X0218516Y0039049D01*
X0218546D01*
X0218589Y0039054D01*
X0218633Y0039059D01*
X0218687Y0039069D01*
X0218740Y0039078D01*
X0218862Y0039107D01*
X0218983Y0039151D01*
X0219100Y0039209D01*
X0219153Y0039248D01*
X0219202Y0039287D01*
X0219207Y0039292D01*
X0219212Y0039297D01*
X0219226Y0039312D01*
X0219241Y0039331D01*
X0219260Y0039355D01*
X0219280Y0039384D01*
X0219304Y0039419D01*
X0219323Y0039457D01*
X0219348Y0039501D01*
X0219372Y0039550D01*
X0219411Y0039661D01*
X0219440Y0039793D01*
X0219445Y0039861D01*
X0219450Y0039939D01*
Y0039982D01*
X0219445Y0040016D01*
Y0040055D01*
X0219440Y0040104D01*
X0219435Y0040157D01*
X0219425Y0040216D01*
X0219416Y0040279D01*
X0219406Y0040352D01*
X0219372Y0040497D01*
X0219328Y0040658D01*
X0219265Y0040818D01*
X0219639D01*
X0219644Y0040808D01*
X0219654Y0040779D01*
X0219668Y0040740D01*
X0219688Y0040682D01*
X0219712Y0040619D01*
X0219731Y0040551D01*
X0219756Y0040473D01*
X0219770Y0040400D01*
Y0040391D01*
X0219775Y0040366D01*
X0219785Y0040323D01*
X0219790Y0040269D01*
X0219800Y0040201D01*
X0219809Y0040118D01*
X0219814Y0040026D01*
Y0039900D01*
X0219809Y0039866D01*
Y0039822D01*
X0219804Y0039773D01*
X0219795Y0039715D01*
X0219785Y0039647D01*
X0219766Y0039574D01*
X0219746Y0039501D01*
X0219722Y0039423D01*
X0219693Y0039341D01*
X0219659Y0039263D01*
X0219615Y0039180D01*
X0219566Y0039103D01*
X0219508Y0039030D01*
X0219445Y0038962D01*
X0219440Y0038957D01*
X0219425Y0038947D01*
X0219406Y0038928D01*
X0219377Y0038908D01*
X0219338Y0038879D01*
X0219294Y0038850D01*
X0219241Y0038821D01*
X0219178Y0038787D01*
X0219110Y0038753D01*
X0219032Y0038723D01*
X0218944Y0038694D01*
X0218852Y0038665D01*
X0218755Y0038646D01*
X0218648Y0038626D01*
X0218536Y0038617D01*
X0218414Y0038612D01*
X0218405D01*
X0218385D01*
X0218351D01*
X0218303Y0038617D01*
X0218249Y0038622D01*
X0218181Y0038631D01*
X0218113Y0038641D01*
X0218031Y0038651D01*
X0217865Y0038690D01*
X0217778Y0038719D01*
X0217690Y0038748D01*
X0217603Y0038787D01*
X0217515Y0038831D01*
X0217438Y0038879D01*
X0217360Y0038937D01*
X0217355Y0038942D01*
X0217340Y0038952D01*
X0217321Y0038971D01*
X0217297Y0038996D01*
X0217267Y0039030D01*
X0217233Y0039074D01*
X0217199Y0039117D01*
X0217161Y0039171D01*
X0217127Y0039229D01*
X0217093Y0039297D01*
X0217058Y0039370D01*
X0217029Y0039448D01*
X0217000Y0039530D01*
X0216981Y0039623D01*
X0216971Y0039715D01*
X0216966Y0039817D01*
Y0039866D01*
X0216971Y0039904D01*
X0216976Y0039948D01*
X0216986Y0039997D01*
X0216995Y0040050D01*
X0217010Y0040113D01*
X0217029Y0040177D01*
X0217049Y0040245D01*
X0217078Y0040313D01*
X0217112Y0040381D01*
X0217151Y0040449D01*
X0217199Y0040512D01*
X0217248Y0040575D01*
X0217311Y0040633D01*
X0217316Y0040638D01*
X0217326Y0040648D01*
X0217345Y0040663D01*
X0217374Y0040682D01*
X0217408Y0040702D01*
X0217447Y0040731D01*
X0217496Y0040755D01*
X0217549Y0040784D01*
X0217613Y0040813D01*
X0217681Y0040838D01*
X0217754Y0040867D01*
X0217831Y0040886D01*
X0217919Y0040906D01*
X0218006Y0040920D01*
X0218103Y0040930D01*
X0218205Y0040935D01*
X0218468D01*
Y0039044D01*
D02*
G37*
G36*
X0217987Y0038004D02*
X0218050Y0037999D01*
X0218123Y0037995D01*
X0218210Y0037985D01*
X0218308Y0037965D01*
X0218414Y0037946D01*
X0218526Y0037922D01*
X0218638Y0037888D01*
X0218755Y0037849D01*
X0218871Y0037800D01*
X0218983Y0037742D01*
X0219090Y0037679D01*
X0219192Y0037601D01*
X0219289Y0037513D01*
X0219294Y0037508D01*
X0219309Y0037489D01*
X0219333Y0037460D01*
X0219362Y0037421D01*
X0219401Y0037372D01*
X0219440Y0037309D01*
X0219484Y0037236D01*
X0219527Y0037154D01*
X0219571Y0037057D01*
X0219615Y0036950D01*
X0219654Y0036833D01*
X0219693Y0036707D01*
X0219722Y0036571D01*
X0219746Y0036420D01*
X0219761Y0036264D01*
X0219766Y0036094D01*
Y0035078D01*
X0216096D01*
Y0036245D01*
X0216101Y0036289D01*
Y0036347D01*
X0216111Y0036420D01*
X0216121Y0036503D01*
X0216135Y0036595D01*
X0216155Y0036692D01*
X0216179Y0036799D01*
X0216213Y0036906D01*
X0216252Y0037018D01*
X0216296Y0037125D01*
X0216354Y0037236D01*
X0216417Y0037338D01*
X0216490Y0037440D01*
X0216572Y0037533D01*
X0216577Y0037538D01*
X0216597Y0037552D01*
X0216621Y0037577D01*
X0216660Y0037606D01*
X0216709Y0037645D01*
X0216767Y0037683D01*
X0216835Y0037727D01*
X0216918Y0037771D01*
X0217005Y0037815D01*
X0217107Y0037859D01*
X0217214Y0037897D01*
X0217331Y0037936D01*
X0217462Y0037965D01*
X0217598Y0037990D01*
X0217744Y0038004D01*
X0217899Y0038009D01*
X0217904D01*
X0217909D01*
X0217938D01*
X0217987Y0038004D01*
D02*
G37*
G36*
X0219766Y0032663D02*
X0218653Y0031895D01*
X0219766Y0031118D01*
Y0030646D01*
X0218361Y0031652D01*
X0217015Y0030695D01*
Y0031171D01*
X0218069Y0031895D01*
X0217015Y0032614D01*
Y0033086D01*
X0218361Y0032129D01*
X0219766Y0033134D01*
Y0032663D01*
D02*
G37*
G36*
X0218468Y0028386D02*
X0218473D01*
X0218487D01*
X0218516Y0028391D01*
X0218546D01*
X0218589Y0028396D01*
X0218633Y0028401D01*
X0218687Y0028411D01*
X0218740Y0028420D01*
X0218862Y0028449D01*
X0218983Y0028493D01*
X0219100Y0028552D01*
X0219153Y0028590D01*
X0219202Y0028629D01*
X0219207Y0028634D01*
X0219212Y0028639D01*
X0219226Y0028654D01*
X0219241Y0028673D01*
X0219260Y0028697D01*
X0219280Y0028727D01*
X0219304Y0028760D01*
X0219323Y0028799D01*
X0219348Y0028843D01*
X0219372Y0028892D01*
X0219411Y0029004D01*
X0219440Y0029135D01*
X0219445Y0029203D01*
X0219450Y0029281D01*
Y0029324D01*
X0219445Y0029358D01*
Y0029397D01*
X0219440Y0029446D01*
X0219435Y0029499D01*
X0219425Y0029558D01*
X0219416Y0029621D01*
X0219406Y0029694D01*
X0219372Y0029840D01*
X0219328Y0030000D01*
X0219265Y0030160D01*
X0219639D01*
X0219644Y0030150D01*
X0219654Y0030121D01*
X0219668Y0030082D01*
X0219688Y0030024D01*
X0219712Y0029961D01*
X0219731Y0029893D01*
X0219756Y0029815D01*
X0219770Y0029742D01*
Y0029732D01*
X0219775Y0029708D01*
X0219785Y0029664D01*
X0219790Y0029611D01*
X0219800Y0029543D01*
X0219809Y0029460D01*
X0219814Y0029368D01*
Y0029242D01*
X0219809Y0029208D01*
Y0029164D01*
X0219804Y0029115D01*
X0219795Y0029057D01*
X0219785Y0028989D01*
X0219766Y0028916D01*
X0219746Y0028843D01*
X0219722Y0028765D01*
X0219693Y0028683D01*
X0219659Y0028605D01*
X0219615Y0028522D01*
X0219566Y0028445D01*
X0219508Y0028372D01*
X0219445Y0028304D01*
X0219440Y0028299D01*
X0219425Y0028289D01*
X0219406Y0028270D01*
X0219377Y0028250D01*
X0219338Y0028221D01*
X0219294Y0028192D01*
X0219241Y0028163D01*
X0219178Y0028129D01*
X0219110Y0028095D01*
X0219032Y0028066D01*
X0218944Y0028036D01*
X0218852Y0028007D01*
X0218755Y0027988D01*
X0218648Y0027968D01*
X0218536Y0027959D01*
X0218414Y0027954D01*
X0218405D01*
X0218385D01*
X0218351D01*
X0218303Y0027959D01*
X0218249Y0027964D01*
X0218181Y0027973D01*
X0218113Y0027983D01*
X0218031Y0027993D01*
X0217865Y0028032D01*
X0217778Y0028061D01*
X0217690Y0028090D01*
X0217603Y0028129D01*
X0217515Y0028172D01*
X0217438Y0028221D01*
X0217360Y0028279D01*
X0217355Y0028284D01*
X0217340Y0028294D01*
X0217321Y0028313D01*
X0217297Y0028338D01*
X0217267Y0028372D01*
X0217233Y0028416D01*
X0217199Y0028459D01*
X0217161Y0028513D01*
X0217127Y0028571D01*
X0217093Y0028639D01*
X0217058Y0028712D01*
X0217029Y0028790D01*
X0217000Y0028872D01*
X0216981Y0028965D01*
X0216971Y0029057D01*
X0216966Y0029159D01*
Y0029208D01*
X0216971Y0029247D01*
X0216976Y0029290D01*
X0216986Y0029339D01*
X0216995Y0029392D01*
X0217010Y0029456D01*
X0217029Y0029519D01*
X0217049Y0029587D01*
X0217078Y0029655D01*
X0217112Y0029723D01*
X0217151Y0029791D01*
X0217199Y0029854D01*
X0217248Y0029917D01*
X0217311Y0029976D01*
X0217316Y0029980D01*
X0217326Y0029990D01*
X0217345Y0030005D01*
X0217374Y0030024D01*
X0217408Y0030044D01*
X0217447Y0030073D01*
X0217496Y0030097D01*
X0217549Y0030126D01*
X0217613Y0030155D01*
X0217681Y0030180D01*
X0217754Y0030209D01*
X0217831Y0030228D01*
X0217919Y0030248D01*
X0218006Y0030262D01*
X0218103Y0030272D01*
X0218205Y0030277D01*
X0218468D01*
Y0028386D01*
D02*
G37*
G36*
X0219741Y0027550D02*
X0219746Y0027541D01*
X0219751Y0027526D01*
X0219756Y0027507D01*
X0219766Y0027477D01*
X0219775Y0027444D01*
X0219780Y0027405D01*
X0219790Y0027356D01*
Y0027351D01*
X0219795Y0027332D01*
X0219800Y0027307D01*
Y0027278D01*
X0219809Y0027200D01*
X0219814Y0027123D01*
Y0027089D01*
X0219809Y0027050D01*
X0219800Y0026996D01*
X0219790Y0026938D01*
X0219770Y0026870D01*
X0219746Y0026797D01*
X0219707Y0026724D01*
X0219664Y0026646D01*
X0219610Y0026574D01*
X0219542Y0026506D01*
X0219459Y0026447D01*
X0219367Y0026394D01*
X0219255Y0026355D01*
X0219124Y0026331D01*
X0219056Y0026326D01*
X0218978Y0026321D01*
X0217340D01*
Y0025932D01*
X0217141D01*
X0216966Y0026326D01*
X0216378Y0026501D01*
Y0026739D01*
X0217015D01*
Y0027536D01*
X0217340D01*
Y0026739D01*
X0218959D01*
X0218964D01*
X0218969D01*
X0218998D01*
X0219046Y0026744D01*
X0219100Y0026753D01*
X0219158Y0026768D01*
X0219221Y0026787D01*
X0219284Y0026816D01*
X0219338Y0026855D01*
X0219343Y0026860D01*
X0219357Y0026880D01*
X0219382Y0026904D01*
X0219401Y0026943D01*
X0219425Y0026987D01*
X0219450Y0027045D01*
X0219464Y0027108D01*
X0219469Y0027181D01*
Y0027249D01*
X0219464Y0027317D01*
X0219455Y0027395D01*
Y0027400D01*
X0219450Y0027414D01*
Y0027429D01*
X0219445Y0027453D01*
X0219435Y0027507D01*
X0219421Y0027555D01*
X0219741D01*
Y0027550D01*
D02*
G37*
G36*
X0217384Y0025718D02*
Y0025708D01*
X0217379Y0025689D01*
X0217370Y0025660D01*
X0217365Y0025616D01*
X0217355Y0025572D01*
X0217350Y0025519D01*
X0217345Y0025417D01*
Y0025383D01*
X0217350Y0025359D01*
X0217355Y0025334D01*
X0217360Y0025300D01*
X0217379Y0025218D01*
X0217413Y0025130D01*
X0217462Y0025033D01*
X0217491Y0024984D01*
X0217525Y0024936D01*
X0217569Y0024887D01*
X0217617Y0024843D01*
X0217622Y0024838D01*
X0217632Y0024834D01*
X0217647Y0024824D01*
X0217666Y0024809D01*
X0217690Y0024790D01*
X0217724Y0024770D01*
X0217763Y0024751D01*
X0217802Y0024727D01*
X0217904Y0024683D01*
X0218016Y0024649D01*
X0218147Y0024620D01*
X0218220Y0024615D01*
X0218293Y0024610D01*
X0219766D01*
Y0024192D01*
X0217015D01*
Y0024537D01*
X0217530Y0024586D01*
Y0024605D01*
X0217525D01*
X0217520Y0024610D01*
X0217506Y0024620D01*
X0217486Y0024634D01*
X0217438Y0024664D01*
X0217374Y0024707D01*
X0217306Y0024761D01*
X0217238Y0024824D01*
X0217170Y0024892D01*
X0217112Y0024970D01*
Y0024975D01*
X0217107Y0024980D01*
X0217088Y0025009D01*
X0217063Y0025052D01*
X0217039Y0025111D01*
X0217010Y0025184D01*
X0216990Y0025261D01*
X0216971Y0025354D01*
X0216966Y0025446D01*
Y0025514D01*
X0216971Y0025558D01*
X0216976Y0025606D01*
X0216981Y0025665D01*
X0217000Y0025776D01*
X0217384Y0025718D01*
D02*
G37*
G36*
X0218502Y0023453D02*
X0218555Y0023449D01*
X0218623Y0023439D01*
X0218696Y0023429D01*
X0218774Y0023415D01*
X0218857Y0023400D01*
X0218939Y0023376D01*
X0219027Y0023347D01*
X0219114Y0023317D01*
X0219202Y0023274D01*
X0219284Y0023230D01*
X0219367Y0023176D01*
X0219440Y0023118D01*
X0219445Y0023113D01*
X0219455Y0023103D01*
X0219474Y0023084D01*
X0219498Y0023055D01*
X0219527Y0023021D01*
X0219557Y0022982D01*
X0219591Y0022933D01*
X0219625Y0022875D01*
X0219664Y0022812D01*
X0219697Y0022744D01*
X0219727Y0022666D01*
X0219756Y0022583D01*
X0219780Y0022491D01*
X0219800Y0022399D01*
X0219809Y0022292D01*
X0219814Y0022185D01*
Y0022151D01*
X0219809Y0022122D01*
Y0022093D01*
X0219804Y0022054D01*
X0219795Y0021966D01*
X0219770Y0021864D01*
X0219741Y0021752D01*
X0219702Y0021641D01*
X0219644Y0021529D01*
Y0021524D01*
X0219634Y0021514D01*
X0219625Y0021500D01*
X0219610Y0021480D01*
X0219571Y0021432D01*
X0219518Y0021369D01*
X0219445Y0021300D01*
X0219362Y0021227D01*
X0219260Y0021155D01*
X0219148Y0021091D01*
X0219144D01*
X0219134Y0021087D01*
X0219114Y0021077D01*
X0219090Y0021067D01*
X0219061Y0021057D01*
X0219022Y0021043D01*
X0218978Y0021028D01*
X0218930Y0021014D01*
X0218876Y0020999D01*
X0218818Y0020985D01*
X0218691Y0020960D01*
X0218546Y0020941D01*
X0218390Y0020936D01*
X0218380D01*
X0218361D01*
X0218327D01*
X0218278Y0020941D01*
X0218225Y0020946D01*
X0218157Y0020955D01*
X0218084Y0020965D01*
X0218006Y0020980D01*
X0217924Y0020994D01*
X0217841Y0021019D01*
X0217754Y0021043D01*
X0217666Y0021077D01*
X0217579Y0021116D01*
X0217496Y0021159D01*
X0217418Y0021213D01*
X0217345Y0021271D01*
X0217340Y0021276D01*
X0217331Y0021286D01*
X0217311Y0021305D01*
X0217287Y0021335D01*
X0217258Y0021369D01*
X0217224Y0021407D01*
X0217190Y0021456D01*
X0217156Y0021514D01*
X0217122Y0021577D01*
X0217088Y0021645D01*
X0217054Y0021723D01*
X0217024Y0021806D01*
X0217000Y0021898D01*
X0216981Y0021991D01*
X0216971Y0022097D01*
X0216966Y0022204D01*
Y0022258D01*
X0216971Y0022302D01*
X0216976Y0022350D01*
X0216986Y0022404D01*
X0217000Y0022467D01*
X0217015Y0022535D01*
X0217034Y0022603D01*
X0217058Y0022681D01*
X0217093Y0022754D01*
X0217127Y0022831D01*
X0217170Y0022909D01*
X0217224Y0022982D01*
X0217282Y0023050D01*
X0217350Y0023118D01*
X0217355Y0023123D01*
X0217370Y0023133D01*
X0217389Y0023147D01*
X0217418Y0023171D01*
X0217457Y0023196D01*
X0217506Y0023225D01*
X0217559Y0023259D01*
X0217622Y0023288D01*
X0217695Y0023322D01*
X0217773Y0023351D01*
X0217860Y0023381D01*
X0217953Y0023405D01*
X0218050Y0023429D01*
X0218157Y0023444D01*
X0218269Y0023453D01*
X0218390Y0023458D01*
X0218400D01*
X0218419D01*
X0218453D01*
X0218502Y0023453D01*
D02*
G37*
G36*
X0216626Y0020314D02*
Y0020309D01*
X0216616Y0020294D01*
X0216607Y0020275D01*
X0216597Y0020241D01*
X0216577Y0020202D01*
X0216563Y0020158D01*
X0216543Y0020110D01*
X0216524Y0020051D01*
X0216509Y0019993D01*
X0216490Y0019925D01*
X0216456Y0019784D01*
X0216437Y0019634D01*
X0216427Y0019478D01*
Y0019454D01*
X0216432Y0019420D01*
Y0019381D01*
X0216441Y0019327D01*
X0216446Y0019269D01*
X0216461Y0019206D01*
X0216475Y0019133D01*
X0216500Y0019060D01*
X0216524Y0018982D01*
X0216558Y0018900D01*
X0216597Y0018822D01*
X0216641Y0018744D01*
X0216699Y0018666D01*
X0216757Y0018593D01*
X0216830Y0018525D01*
X0216835Y0018520D01*
X0216850Y0018511D01*
X0216874Y0018491D01*
X0216903Y0018472D01*
X0216947Y0018443D01*
X0216995Y0018414D01*
X0217054Y0018384D01*
X0217117Y0018350D01*
X0217195Y0018316D01*
X0217277Y0018287D01*
X0217370Y0018258D01*
X0217467Y0018229D01*
X0217574Y0018210D01*
X0217686Y0018190D01*
X0217807Y0018180D01*
X0217933Y0018176D01*
X0217943D01*
X0217963D01*
X0218001D01*
X0218050Y0018180D01*
X0218113Y0018185D01*
X0218181Y0018195D01*
X0218259Y0018205D01*
X0218342Y0018219D01*
X0218429Y0018234D01*
X0218521Y0018258D01*
X0218614Y0018282D01*
X0218706Y0018316D01*
X0218798Y0018355D01*
X0218886Y0018399D01*
X0218969Y0018452D01*
X0219046Y0018511D01*
X0219051Y0018516D01*
X0219061Y0018525D01*
X0219080Y0018545D01*
X0219105Y0018574D01*
X0219139Y0018608D01*
X0219168Y0018652D01*
X0219207Y0018700D01*
X0219241Y0018759D01*
X0219275Y0018822D01*
X0219314Y0018895D01*
X0219343Y0018972D01*
X0219372Y0019060D01*
X0219401Y0019152D01*
X0219421Y0019254D01*
X0219430Y0019361D01*
X0219435Y0019473D01*
Y0019541D01*
X0219430Y0019575D01*
X0219425Y0019619D01*
Y0019672D01*
X0219416Y0019726D01*
X0219411Y0019789D01*
X0219401Y0019857D01*
X0219391Y0019930D01*
X0219377Y0020008D01*
X0219343Y0020173D01*
X0219299Y0020353D01*
X0219673D01*
Y0020348D01*
X0219678Y0020333D01*
X0219688Y0020314D01*
X0219693Y0020285D01*
X0219707Y0020246D01*
X0219717Y0020202D01*
X0219731Y0020149D01*
X0219741Y0020090D01*
X0219756Y0020027D01*
X0219770Y0019954D01*
X0219780Y0019876D01*
X0219790Y0019794D01*
X0219800Y0019706D01*
X0219809Y0019609D01*
X0219814Y0019410D01*
Y0019376D01*
X0219809Y0019332D01*
X0219804Y0019279D01*
X0219800Y0019211D01*
X0219790Y0019128D01*
X0219775Y0019040D01*
X0219751Y0018948D01*
X0219727Y0018851D01*
X0219693Y0018749D01*
X0219654Y0018642D01*
X0219605Y0018540D01*
X0219552Y0018438D01*
X0219484Y0018336D01*
X0219411Y0018244D01*
X0219323Y0018156D01*
X0219318Y0018151D01*
X0219299Y0018137D01*
X0219270Y0018117D01*
X0219231Y0018088D01*
X0219182Y0018054D01*
X0219119Y0018020D01*
X0219046Y0017976D01*
X0218964Y0017937D01*
X0218871Y0017898D01*
X0218769Y0017860D01*
X0218653Y0017821D01*
X0218526Y0017787D01*
X0218395Y0017758D01*
X0218249Y0017738D01*
X0218094Y0017724D01*
X0217929Y0017719D01*
X0217924D01*
X0217904D01*
X0217875D01*
X0217831Y0017724D01*
X0217783D01*
X0217729Y0017728D01*
X0217661Y0017738D01*
X0217593Y0017743D01*
X0217515Y0017758D01*
X0217438Y0017772D01*
X0217272Y0017806D01*
X0217102Y0017860D01*
X0217020Y0017889D01*
X0216937Y0017928D01*
X0216932Y0017932D01*
X0216918Y0017937D01*
X0216898Y0017952D01*
X0216864Y0017966D01*
X0216830Y0017991D01*
X0216791Y0018015D01*
X0216694Y0018083D01*
X0216587Y0018171D01*
X0216480Y0018278D01*
X0216373Y0018399D01*
X0216281Y0018540D01*
X0216276Y0018545D01*
X0216271Y0018559D01*
X0216262Y0018579D01*
X0216242Y0018613D01*
X0216228Y0018652D01*
X0216208Y0018696D01*
X0216184Y0018749D01*
X0216164Y0018807D01*
X0216140Y0018875D01*
X0216121Y0018948D01*
X0216101Y0019026D01*
X0216082Y0019109D01*
X0216057Y0019288D01*
X0216053Y0019386D01*
X0216048Y0019483D01*
Y0019541D01*
X0216053Y0019580D01*
Y0019629D01*
X0216057Y0019687D01*
X0216067Y0019755D01*
X0216072Y0019828D01*
X0216087Y0019901D01*
X0216101Y0019983D01*
X0216140Y0020154D01*
X0216189Y0020328D01*
X0216223Y0020411D01*
X0216262Y0020494D01*
X0216626Y0020314D01*
D02*
G37*
G36*
X0219766Y0015138D02*
X0217404D01*
X0217399D01*
X0217384D01*
X0217365D01*
X0217331D01*
X0217292D01*
X0217248D01*
X0217199Y0015143D01*
X0217141D01*
X0217078D01*
X0217010Y0015148D01*
X0216859Y0015153D01*
X0216694Y0015162D01*
X0216519Y0015172D01*
Y0015153D01*
X0219766Y0013899D01*
Y0013554D01*
X0216514Y0012309D01*
Y0012290D01*
X0216519D01*
X0216534D01*
X0216553Y0012295D01*
X0216582D01*
X0216621Y0012300D01*
X0216665D01*
X0216718Y0012305D01*
X0216777Y0012309D01*
X0216840D01*
X0216908Y0012314D01*
X0216986D01*
X0217063Y0012319D01*
X0217243Y0012324D01*
X0217433D01*
X0219766D01*
Y0011930D01*
X0216096D01*
Y0012572D01*
X0219124Y0013733D01*
Y0013753D01*
X0216096Y0014924D01*
Y0015561D01*
X0219766D01*
Y0015138D01*
D02*
G37*
G36*
Y0010832D02*
X0218239Y0009943D01*
Y0009180D01*
X0219766D01*
Y0008752D01*
X0216096D01*
Y0009821D01*
X0216101Y0009870D01*
X0216106Y0009923D01*
X0216111Y0009986D01*
X0216116Y0010059D01*
X0216130Y0010137D01*
X0216159Y0010297D01*
X0216208Y0010463D01*
X0216237Y0010545D01*
X0216271Y0010618D01*
X0216310Y0010691D01*
X0216359Y0010754D01*
X0216364Y0010759D01*
X0216368Y0010769D01*
X0216388Y0010783D01*
X0216407Y0010803D01*
X0216437Y0010827D01*
X0216466Y0010856D01*
X0216505Y0010886D01*
X0216553Y0010915D01*
X0216602Y0010944D01*
X0216660Y0010973D01*
X0216723Y0011002D01*
X0216796Y0011026D01*
X0216869Y0011046D01*
X0216952Y0011060D01*
X0217044Y0011070D01*
X0217136Y0011075D01*
X0217146D01*
X0217170D01*
X0217204Y0011070D01*
X0217253Y0011065D01*
X0217311Y0011051D01*
X0217379Y0011036D01*
X0217452Y0011012D01*
X0217530Y0010983D01*
X0217613Y0010944D01*
X0217695Y0010895D01*
X0217778Y0010837D01*
X0217856Y0010764D01*
X0217933Y0010681D01*
X0218001Y0010584D01*
X0218065Y0010472D01*
X0218118Y0010341D01*
X0219766Y0011333D01*
Y0010832D01*
D02*
G37*
G36*
Y0007809D02*
X0218599Y0007352D01*
Y0005880D01*
X0219766Y0005428D01*
Y0005000D01*
X0216082Y0006448D01*
Y0006808D01*
X0219766Y0008251D01*
Y0007809D01*
D02*
G37*
G36*
X0165266Y0070596D02*
X0163963Y0069629D01*
X0164235Y0069313D01*
X0165266D01*
Y0068900D01*
X0161363D01*
Y0069313D01*
X0163433D01*
X0163438D01*
X0163458D01*
X0163492D01*
X0163535D01*
X0163599Y0069309D01*
X0163667Y0069304D01*
X0163754Y0069299D01*
X0163856Y0069294D01*
Y0069313D01*
X0163851Y0069318D01*
X0163827Y0069333D01*
X0163793Y0069357D01*
X0163749Y0069396D01*
X0163691Y0069440D01*
X0163623Y0069498D01*
X0163545Y0069566D01*
X0163458Y0069644D01*
X0162515Y0070528D01*
Y0071024D01*
X0163691Y0069911D01*
X0165266Y0071102D01*
Y0070596D01*
D02*
G37*
G36*
Y0067632D02*
X0163492D01*
X0163487D01*
X0163477D01*
X0163458D01*
X0163438D01*
X0163409Y0067627D01*
X0163375Y0067622D01*
X0163302Y0067612D01*
X0163219Y0067593D01*
X0163137Y0067569D01*
X0163059Y0067530D01*
X0162991Y0067476D01*
X0162981Y0067471D01*
X0162962Y0067447D01*
X0162938Y0067413D01*
X0162904Y0067360D01*
X0162874Y0067292D01*
X0162845Y0067214D01*
X0162826Y0067112D01*
X0162821Y0067000D01*
Y0066961D01*
X0162826Y0066927D01*
Y0066893D01*
X0162831Y0066854D01*
X0162850Y0066757D01*
X0162879Y0066655D01*
X0162918Y0066548D01*
X0162977Y0066451D01*
X0163015Y0066402D01*
X0163054Y0066363D01*
X0163059D01*
X0163064Y0066354D01*
X0163079Y0066344D01*
X0163098Y0066334D01*
X0163122Y0066320D01*
X0163156Y0066300D01*
X0163195Y0066281D01*
X0163239Y0066266D01*
X0163287Y0066247D01*
X0163346Y0066227D01*
X0163409Y0066213D01*
X0163477Y0066193D01*
X0163555Y0066184D01*
X0163637Y0066174D01*
X0163730Y0066164D01*
X0163827D01*
X0165266D01*
Y0065746D01*
X0162515D01*
Y0066086D01*
X0162894Y0066154D01*
Y0066174D01*
X0162884Y0066179D01*
X0162860Y0066198D01*
X0162821Y0066227D01*
X0162777Y0066266D01*
X0162729Y0066315D01*
X0162675Y0066378D01*
X0162622Y0066446D01*
X0162578Y0066529D01*
Y0066533D01*
X0162573Y0066538D01*
X0162568Y0066553D01*
X0162558Y0066567D01*
X0162544Y0066616D01*
X0162520Y0066679D01*
X0162500Y0066757D01*
X0162486Y0066844D01*
X0162471Y0066942D01*
X0162466Y0067049D01*
Y0067097D01*
X0162471Y0067131D01*
Y0067170D01*
X0162481Y0067219D01*
X0162486Y0067272D01*
X0162495Y0067326D01*
X0162524Y0067447D01*
X0162568Y0067573D01*
X0162597Y0067632D01*
X0162627Y0067690D01*
X0162665Y0067744D01*
X0162709Y0067792D01*
X0162714Y0067797D01*
X0162719Y0067802D01*
X0162733Y0067817D01*
X0162753Y0067831D01*
X0162782Y0067851D01*
X0162811Y0067870D01*
X0162850Y0067894D01*
X0162894Y0067919D01*
X0162943Y0067943D01*
X0163001Y0067967D01*
X0163064Y0067987D01*
X0163132Y0068006D01*
X0163205Y0068021D01*
X0163287Y0068035D01*
X0163375Y0068040D01*
X0163472Y0068045D01*
X0165266D01*
Y0067632D01*
D02*
G37*
G36*
Y0064448D02*
X0162515D01*
Y0064867D01*
X0165266D01*
Y0064448D01*
D02*
G37*
G36*
X0161820Y0064900D02*
X0161849Y0064896D01*
X0161883Y0064886D01*
X0161917Y0064876D01*
X0161951Y0064857D01*
X0161980Y0064833D01*
X0161985Y0064828D01*
X0161990Y0064818D01*
X0162000Y0064803D01*
X0162014Y0064784D01*
X0162039Y0064730D01*
X0162043Y0064696D01*
X0162048Y0064662D01*
Y0064643D01*
X0162043Y0064623D01*
X0162039Y0064599D01*
X0162019Y0064541D01*
X0162004Y0064512D01*
X0161980Y0064483D01*
X0161975Y0064478D01*
X0161966Y0064473D01*
X0161951Y0064463D01*
X0161927Y0064448D01*
X0161898Y0064434D01*
X0161864Y0064424D01*
X0161820Y0064419D01*
X0161771Y0064415D01*
X0161766D01*
X0161747D01*
X0161723Y0064419D01*
X0161694Y0064424D01*
X0161625Y0064444D01*
X0161591Y0064458D01*
X0161562Y0064483D01*
X0161557Y0064487D01*
X0161553Y0064497D01*
X0161543Y0064512D01*
X0161528Y0064531D01*
X0161514Y0064560D01*
X0161504Y0064590D01*
X0161499Y0064623D01*
X0161494Y0064662D01*
Y0064677D01*
X0161499Y0064696D01*
X0161504Y0064721D01*
X0161523Y0064774D01*
X0161538Y0064803D01*
X0161562Y0064833D01*
X0161567Y0064837D01*
X0161577Y0064842D01*
X0161591Y0064857D01*
X0161616Y0064871D01*
X0161645Y0064881D01*
X0161679Y0064896D01*
X0161723Y0064900D01*
X0161771Y0064905D01*
X0161776D01*
X0161795D01*
X0161820Y0064900D01*
D02*
G37*
G36*
X0165266Y0061844D02*
X0161596D01*
Y0062271D01*
X0164882D01*
Y0063890D01*
X0165266D01*
Y0061844D01*
D02*
G37*
G36*
X0164080Y0059900D02*
X0163696D01*
Y0061129D01*
X0164080D01*
Y0059900D01*
D02*
G37*
G36*
X0165309Y0059214D02*
X0165348D01*
X0165397Y0059205D01*
X0165445Y0059200D01*
X0165504Y0059190D01*
X0165620Y0059161D01*
X0165742Y0059117D01*
X0165805Y0059088D01*
X0165863Y0059059D01*
X0165917Y0059020D01*
X0165970Y0058976D01*
X0165975Y0058971D01*
X0165980Y0058966D01*
X0165995Y0058952D01*
X0166009Y0058932D01*
X0166029Y0058908D01*
X0166053Y0058879D01*
X0166077Y0058840D01*
X0166102Y0058801D01*
X0166126Y0058758D01*
X0166150Y0058704D01*
X0166170Y0058651D01*
X0166194Y0058587D01*
X0166208Y0058519D01*
X0166223Y0058451D01*
X0166228Y0058373D01*
X0166233Y0058291D01*
Y0058252D01*
X0166228Y0058208D01*
X0166223Y0058160D01*
X0166218Y0058096D01*
X0166203Y0058038D01*
X0166189Y0057975D01*
X0166165Y0057922D01*
X0165800D01*
Y0057931D01*
X0165810Y0057951D01*
X0165815Y0057990D01*
X0165824Y0058033D01*
X0165834Y0058087D01*
X0165844Y0058150D01*
X0165849Y0058218D01*
X0165854Y0058291D01*
Y0058301D01*
X0165849Y0058330D01*
X0165844Y0058373D01*
X0165834Y0058427D01*
X0165815Y0058490D01*
X0165786Y0058548D01*
X0165752Y0058607D01*
X0165698Y0058660D01*
X0165693Y0058665D01*
X0165669Y0058680D01*
X0165635Y0058704D01*
X0165586Y0058728D01*
X0165528Y0058748D01*
X0165450Y0058772D01*
X0165363Y0058787D01*
X0165266Y0058792D01*
X0161596D01*
Y0059219D01*
X0165232D01*
X0165236D01*
X0165251D01*
X0165275D01*
X0165309Y0059214D01*
D02*
G37*
G36*
X0162884Y0056848D02*
Y0056838D01*
X0162879Y0056818D01*
X0162870Y0056789D01*
X0162865Y0056745D01*
X0162855Y0056702D01*
X0162850Y0056648D01*
X0162845Y0056546D01*
Y0056512D01*
X0162850Y0056488D01*
X0162855Y0056464D01*
X0162860Y0056429D01*
X0162879Y0056347D01*
X0162913Y0056259D01*
X0162962Y0056162D01*
X0162991Y0056114D01*
X0163025Y0056065D01*
X0163069Y0056016D01*
X0163117Y0055973D01*
X0163122Y0055968D01*
X0163132Y0055963D01*
X0163147Y0055953D01*
X0163166Y0055939D01*
X0163190Y0055919D01*
X0163224Y0055900D01*
X0163263Y0055880D01*
X0163302Y0055856D01*
X0163404Y0055812D01*
X0163516Y0055778D01*
X0163647Y0055749D01*
X0163720Y0055744D01*
X0163793Y0055739D01*
X0165266D01*
Y0055322D01*
X0162515D01*
Y0055667D01*
X0163030Y0055715D01*
Y0055735D01*
X0163025D01*
X0163020Y0055739D01*
X0163006Y0055749D01*
X0162986Y0055764D01*
X0162938Y0055793D01*
X0162874Y0055837D01*
X0162806Y0055890D01*
X0162738Y0055953D01*
X0162670Y0056021D01*
X0162612Y0056099D01*
Y0056104D01*
X0162607Y0056109D01*
X0162588Y0056138D01*
X0162563Y0056182D01*
X0162539Y0056240D01*
X0162510Y0056313D01*
X0162490Y0056391D01*
X0162471Y0056483D01*
X0162466Y0056575D01*
Y0056643D01*
X0162471Y0056687D01*
X0162476Y0056736D01*
X0162481Y0056794D01*
X0162500Y0056906D01*
X0162884Y0056848D01*
D02*
G37*
G36*
X0163968Y0052721D02*
X0163973D01*
X0163987D01*
X0164016Y0052726D01*
X0164046D01*
X0164089Y0052731D01*
X0164133Y0052736D01*
X0164187Y0052746D01*
X0164240Y0052755D01*
X0164362Y0052785D01*
X0164483Y0052828D01*
X0164600Y0052887D01*
X0164653Y0052925D01*
X0164702Y0052964D01*
X0164707Y0052969D01*
X0164711Y0052974D01*
X0164726Y0052989D01*
X0164741Y0053008D01*
X0164760Y0053032D01*
X0164780Y0053062D01*
X0164804Y0053096D01*
X0164823Y0053135D01*
X0164848Y0053178D01*
X0164872Y0053227D01*
X0164911Y0053339D01*
X0164940Y0053470D01*
X0164945Y0053538D01*
X0164950Y0053616D01*
Y0053659D01*
X0164945Y0053693D01*
Y0053732D01*
X0164940Y0053781D01*
X0164935Y0053834D01*
X0164925Y0053893D01*
X0164916Y0053956D01*
X0164906Y0054029D01*
X0164872Y0054175D01*
X0164828Y0054335D01*
X0164765Y0054495D01*
X0165139D01*
X0165144Y0054485D01*
X0165154Y0054456D01*
X0165168Y0054418D01*
X0165188Y0054359D01*
X0165212Y0054296D01*
X0165232Y0054228D01*
X0165256Y0054150D01*
X0165270Y0054077D01*
Y0054068D01*
X0165275Y0054043D01*
X0165285Y0054000D01*
X0165290Y0053946D01*
X0165300Y0053878D01*
X0165309Y0053795D01*
X0165314Y0053703D01*
Y0053577D01*
X0165309Y0053543D01*
Y0053499D01*
X0165304Y0053450D01*
X0165295Y0053392D01*
X0165285Y0053324D01*
X0165266Y0053251D01*
X0165246Y0053178D01*
X0165222Y0053100D01*
X0165193Y0053018D01*
X0165159Y0052940D01*
X0165115Y0052857D01*
X0165066Y0052780D01*
X0165008Y0052707D01*
X0164945Y0052639D01*
X0164940Y0052634D01*
X0164925Y0052624D01*
X0164906Y0052605D01*
X0164877Y0052585D01*
X0164838Y0052556D01*
X0164794Y0052527D01*
X0164741Y0052498D01*
X0164678Y0052464D01*
X0164610Y0052430D01*
X0164532Y0052401D01*
X0164444Y0052371D01*
X0164352Y0052342D01*
X0164255Y0052323D01*
X0164148Y0052303D01*
X0164036Y0052294D01*
X0163915Y0052289D01*
X0163905D01*
X0163885D01*
X0163851D01*
X0163803Y0052294D01*
X0163749Y0052298D01*
X0163681Y0052308D01*
X0163613Y0052318D01*
X0163531Y0052328D01*
X0163365Y0052367D01*
X0163278Y0052396D01*
X0163190Y0052425D01*
X0163103Y0052464D01*
X0163015Y0052508D01*
X0162938Y0052556D01*
X0162860Y0052614D01*
X0162855Y0052619D01*
X0162840Y0052629D01*
X0162821Y0052649D01*
X0162797Y0052673D01*
X0162768Y0052707D01*
X0162733Y0052750D01*
X0162699Y0052794D01*
X0162661Y0052848D01*
X0162627Y0052906D01*
X0162593Y0052974D01*
X0162558Y0053047D01*
X0162529Y0053125D01*
X0162500Y0053207D01*
X0162481Y0053300D01*
X0162471Y0053392D01*
X0162466Y0053494D01*
Y0053543D01*
X0162471Y0053582D01*
X0162476Y0053625D01*
X0162486Y0053674D01*
X0162495Y0053727D01*
X0162510Y0053791D01*
X0162529Y0053854D01*
X0162549Y0053922D01*
X0162578Y0053990D01*
X0162612Y0054058D01*
X0162651Y0054126D01*
X0162699Y0054189D01*
X0162748Y0054252D01*
X0162811Y0054311D01*
X0162816Y0054315D01*
X0162826Y0054325D01*
X0162845Y0054340D01*
X0162874Y0054359D01*
X0162908Y0054379D01*
X0162947Y0054408D01*
X0162996Y0054432D01*
X0163049Y0054461D01*
X0163113Y0054490D01*
X0163181Y0054515D01*
X0163253Y0054544D01*
X0163331Y0054563D01*
X0163419Y0054583D01*
X0163506Y0054597D01*
X0163603Y0054607D01*
X0163706Y0054612D01*
X0163968D01*
Y0052721D01*
D02*
G37*
G36*
X0162840Y0051365D02*
X0162845Y0051370D01*
X0162855Y0051380D01*
X0162879Y0051390D01*
X0162904Y0051409D01*
X0162938Y0051429D01*
X0162977Y0051448D01*
X0163025Y0051472D01*
X0163074Y0051492D01*
X0163079Y0051497D01*
X0163098Y0051502D01*
X0163127Y0051511D01*
X0163166Y0051521D01*
X0163215Y0051531D01*
X0163268Y0051540D01*
X0163326Y0051550D01*
X0163390D01*
X0163394D01*
X0163409D01*
X0163428D01*
X0163458Y0051545D01*
X0163492Y0051540D01*
X0163531Y0051535D01*
X0163623Y0051516D01*
X0163725Y0051482D01*
X0163778Y0051463D01*
X0163832Y0051433D01*
X0163885Y0051399D01*
X0163939Y0051365D01*
X0163987Y0051322D01*
X0164036Y0051273D01*
X0164041Y0051268D01*
X0164046Y0051258D01*
X0164055Y0051244D01*
X0164075Y0051224D01*
X0164089Y0051195D01*
X0164109Y0051161D01*
X0164133Y0051122D01*
X0164153Y0051074D01*
X0164177Y0051025D01*
X0164196Y0050967D01*
X0164221Y0050904D01*
X0164235Y0050836D01*
X0164250Y0050763D01*
X0164264Y0050685D01*
X0164269Y0050602D01*
X0164274Y0050515D01*
Y0050471D01*
X0164269Y0050442D01*
Y0050408D01*
X0164264Y0050369D01*
X0164255Y0050287D01*
Y0050282D01*
X0164260Y0050277D01*
X0164279Y0050243D01*
X0164308Y0050204D01*
X0164352Y0050155D01*
X0164405Y0050102D01*
X0164464Y0050063D01*
X0164532Y0050029D01*
X0164571Y0050024D01*
X0164610Y0050019D01*
X0164614D01*
X0164629D01*
X0164648Y0050024D01*
X0164673Y0050029D01*
X0164697Y0050043D01*
X0164726Y0050058D01*
X0164750Y0050082D01*
X0164775Y0050112D01*
Y0050116D01*
X0164784Y0050131D01*
X0164789Y0050150D01*
X0164799Y0050184D01*
X0164809Y0050228D01*
X0164818Y0050282D01*
X0164823Y0050350D01*
X0164828Y0050427D01*
Y0050962D01*
X0164833Y0050991D01*
Y0051030D01*
X0164838Y0051069D01*
X0164852Y0051171D01*
X0164872Y0051278D01*
X0164906Y0051390D01*
X0164954Y0051502D01*
X0165018Y0051599D01*
Y0051604D01*
X0165027Y0051608D01*
X0165052Y0051638D01*
X0165095Y0051676D01*
X0165159Y0051720D01*
X0165232Y0051764D01*
X0165329Y0051803D01*
X0165436Y0051832D01*
X0165499Y0051837D01*
X0165562Y0051842D01*
X0165567D01*
X0165582D01*
X0165606D01*
X0165635Y0051837D01*
X0165674Y0051832D01*
X0165717Y0051822D01*
X0165820Y0051798D01*
X0165873Y0051779D01*
X0165931Y0051749D01*
X0165990Y0051720D01*
X0166048Y0051686D01*
X0166106Y0051642D01*
X0166160Y0051594D01*
X0166208Y0051535D01*
X0166257Y0051472D01*
X0166262Y0051468D01*
X0166267Y0051458D01*
X0166281Y0051433D01*
X0166296Y0051404D01*
X0166315Y0051365D01*
X0166335Y0051322D01*
X0166354Y0051263D01*
X0166378Y0051205D01*
X0166403Y0051132D01*
X0166422Y0051054D01*
X0166442Y0050967D01*
X0166461Y0050870D01*
X0166476Y0050768D01*
X0166490Y0050656D01*
X0166495Y0050534D01*
X0166500Y0050408D01*
Y0050354D01*
X0166495Y0050321D01*
Y0050272D01*
X0166490Y0050223D01*
X0166481Y0050165D01*
X0166476Y0050102D01*
X0166451Y0049971D01*
X0166412Y0049830D01*
X0166364Y0049698D01*
X0166330Y0049635D01*
X0166296Y0049577D01*
X0166291Y0049572D01*
X0166286Y0049562D01*
X0166276Y0049548D01*
X0166257Y0049533D01*
X0166213Y0049485D01*
X0166150Y0049431D01*
X0166068Y0049378D01*
X0165970Y0049329D01*
X0165917Y0049314D01*
X0165858Y0049300D01*
X0165795Y0049290D01*
X0165727Y0049285D01*
X0165722D01*
X0165717D01*
X0165703D01*
X0165683Y0049290D01*
X0165640Y0049295D01*
X0165582Y0049305D01*
X0165513Y0049324D01*
X0165440Y0049353D01*
X0165368Y0049392D01*
X0165295Y0049446D01*
X0165285Y0049455D01*
X0165266Y0049475D01*
X0165236Y0049514D01*
X0165198Y0049562D01*
X0165159Y0049626D01*
X0165115Y0049703D01*
X0165081Y0049796D01*
X0165052Y0049898D01*
X0165047Y0049893D01*
X0165042Y0049878D01*
X0165032Y0049859D01*
X0165013Y0049834D01*
X0164969Y0049776D01*
X0164906Y0049718D01*
X0164901Y0049713D01*
X0164886Y0049708D01*
X0164867Y0049694D01*
X0164838Y0049684D01*
X0164804Y0049669D01*
X0164765Y0049655D01*
X0164721Y0049650D01*
X0164673Y0049645D01*
X0164668D01*
X0164648D01*
X0164619Y0049650D01*
X0164585Y0049655D01*
X0164541Y0049664D01*
X0164498Y0049679D01*
X0164454Y0049698D01*
X0164410Y0049723D01*
X0164405Y0049728D01*
X0164391Y0049737D01*
X0164366Y0049757D01*
X0164337Y0049786D01*
X0164303Y0049820D01*
X0164264Y0049869D01*
X0164225Y0049917D01*
X0164187Y0049980D01*
X0164182Y0049971D01*
X0164167Y0049946D01*
X0164148Y0049907D01*
X0164119Y0049859D01*
X0164075Y0049801D01*
X0164026Y0049742D01*
X0163963Y0049684D01*
X0163890Y0049630D01*
X0163885D01*
X0163881Y0049626D01*
X0163851Y0049611D01*
X0163808Y0049587D01*
X0163749Y0049567D01*
X0163681Y0049543D01*
X0163599Y0049519D01*
X0163506Y0049504D01*
X0163409Y0049499D01*
X0163404D01*
X0163390D01*
X0163365D01*
X0163336Y0049504D01*
X0163297Y0049509D01*
X0163253Y0049514D01*
X0163152Y0049533D01*
X0163040Y0049562D01*
X0162923Y0049611D01*
X0162870Y0049645D01*
X0162811Y0049679D01*
X0162763Y0049718D01*
X0162714Y0049766D01*
X0162709Y0049771D01*
X0162704Y0049781D01*
X0162690Y0049796D01*
X0162675Y0049815D01*
X0162656Y0049844D01*
X0162636Y0049878D01*
X0162612Y0049917D01*
X0162588Y0049966D01*
X0162568Y0050019D01*
X0162544Y0050073D01*
X0162524Y0050141D01*
X0162505Y0050209D01*
X0162490Y0050282D01*
X0162476Y0050364D01*
X0162471Y0050447D01*
X0162466Y0050539D01*
Y0050617D01*
X0162471Y0050670D01*
X0162476Y0050729D01*
X0162486Y0050792D01*
X0162515Y0050928D01*
Y0051876D01*
X0162782D01*
X0162840Y0051365D01*
D02*
G37*
G36*
Y0048551D02*
X0162845Y0048556D01*
X0162855Y0048566D01*
X0162879Y0048576D01*
X0162904Y0048595D01*
X0162938Y0048615D01*
X0162977Y0048634D01*
X0163025Y0048658D01*
X0163074Y0048678D01*
X0163079Y0048683D01*
X0163098Y0048688D01*
X0163127Y0048697D01*
X0163166Y0048707D01*
X0163215Y0048717D01*
X0163268Y0048726D01*
X0163326Y0048736D01*
X0163390D01*
X0163394D01*
X0163409D01*
X0163428D01*
X0163458Y0048731D01*
X0163492Y0048726D01*
X0163531Y0048722D01*
X0163623Y0048702D01*
X0163725Y0048668D01*
X0163778Y0048649D01*
X0163832Y0048619D01*
X0163885Y0048586D01*
X0163939Y0048551D01*
X0163987Y0048508D01*
X0164036Y0048459D01*
X0164041Y0048454D01*
X0164046Y0048445D01*
X0164055Y0048430D01*
X0164075Y0048410D01*
X0164089Y0048381D01*
X0164109Y0048347D01*
X0164133Y0048309D01*
X0164153Y0048260D01*
X0164177Y0048211D01*
X0164196Y0048153D01*
X0164221Y0048090D01*
X0164235Y0048022D01*
X0164250Y0047949D01*
X0164264Y0047871D01*
X0164269Y0047789D01*
X0164274Y0047701D01*
Y0047657D01*
X0164269Y0047628D01*
Y0047594D01*
X0164264Y0047555D01*
X0164255Y0047473D01*
Y0047468D01*
X0164260Y0047463D01*
X0164279Y0047429D01*
X0164308Y0047390D01*
X0164352Y0047341D01*
X0164405Y0047288D01*
X0164464Y0047249D01*
X0164532Y0047215D01*
X0164571Y0047210D01*
X0164610Y0047205D01*
X0164614D01*
X0164629D01*
X0164648Y0047210D01*
X0164673Y0047215D01*
X0164697Y0047230D01*
X0164726Y0047244D01*
X0164750Y0047268D01*
X0164775Y0047298D01*
Y0047302D01*
X0164784Y0047317D01*
X0164789Y0047337D01*
X0164799Y0047370D01*
X0164809Y0047414D01*
X0164818Y0047468D01*
X0164823Y0047536D01*
X0164828Y0047613D01*
Y0048148D01*
X0164833Y0048177D01*
Y0048216D01*
X0164838Y0048255D01*
X0164852Y0048357D01*
X0164872Y0048464D01*
X0164906Y0048576D01*
X0164954Y0048688D01*
X0165018Y0048785D01*
Y0048790D01*
X0165027Y0048794D01*
X0165052Y0048824D01*
X0165095Y0048862D01*
X0165159Y0048906D01*
X0165232Y0048950D01*
X0165329Y0048989D01*
X0165436Y0049018D01*
X0165499Y0049023D01*
X0165562Y0049028D01*
X0165567D01*
X0165582D01*
X0165606D01*
X0165635Y0049023D01*
X0165674Y0049018D01*
X0165717Y0049008D01*
X0165820Y0048984D01*
X0165873Y0048965D01*
X0165931Y0048935D01*
X0165990Y0048906D01*
X0166048Y0048872D01*
X0166106Y0048829D01*
X0166160Y0048780D01*
X0166208Y0048722D01*
X0166257Y0048658D01*
X0166262Y0048654D01*
X0166267Y0048644D01*
X0166281Y0048619D01*
X0166296Y0048590D01*
X0166315Y0048551D01*
X0166335Y0048508D01*
X0166354Y0048449D01*
X0166378Y0048391D01*
X0166403Y0048318D01*
X0166422Y0048240D01*
X0166442Y0048153D01*
X0166461Y0048056D01*
X0166476Y0047954D01*
X0166490Y0047842D01*
X0166495Y0047720D01*
X0166500Y0047594D01*
Y0047541D01*
X0166495Y0047507D01*
Y0047458D01*
X0166490Y0047409D01*
X0166481Y0047351D01*
X0166476Y0047288D01*
X0166451Y0047157D01*
X0166412Y0047016D01*
X0166364Y0046885D01*
X0166330Y0046821D01*
X0166296Y0046763D01*
X0166291Y0046758D01*
X0166286Y0046748D01*
X0166276Y0046734D01*
X0166257Y0046719D01*
X0166213Y0046671D01*
X0166150Y0046617D01*
X0166068Y0046564D01*
X0165970Y0046515D01*
X0165917Y0046501D01*
X0165858Y0046486D01*
X0165795Y0046476D01*
X0165727Y0046471D01*
X0165722D01*
X0165717D01*
X0165703D01*
X0165683Y0046476D01*
X0165640Y0046481D01*
X0165582Y0046491D01*
X0165513Y0046510D01*
X0165440Y0046539D01*
X0165368Y0046578D01*
X0165295Y0046632D01*
X0165285Y0046641D01*
X0165266Y0046661D01*
X0165236Y0046700D01*
X0165198Y0046748D01*
X0165159Y0046812D01*
X0165115Y0046889D01*
X0165081Y0046982D01*
X0165052Y0047084D01*
X0165047Y0047079D01*
X0165042Y0047064D01*
X0165032Y0047045D01*
X0165013Y0047021D01*
X0164969Y0046962D01*
X0164906Y0046904D01*
X0164901Y0046899D01*
X0164886Y0046894D01*
X0164867Y0046880D01*
X0164838Y0046870D01*
X0164804Y0046855D01*
X0164765Y0046841D01*
X0164721Y0046836D01*
X0164673Y0046831D01*
X0164668D01*
X0164648D01*
X0164619Y0046836D01*
X0164585Y0046841D01*
X0164541Y0046850D01*
X0164498Y0046865D01*
X0164454Y0046885D01*
X0164410Y0046909D01*
X0164405Y0046914D01*
X0164391Y0046923D01*
X0164366Y0046943D01*
X0164337Y0046972D01*
X0164303Y0047006D01*
X0164264Y0047055D01*
X0164225Y0047103D01*
X0164187Y0047166D01*
X0164182Y0047157D01*
X0164167Y0047132D01*
X0164148Y0047093D01*
X0164119Y0047045D01*
X0164075Y0046987D01*
X0164026Y0046928D01*
X0163963Y0046870D01*
X0163890Y0046817D01*
X0163885D01*
X0163881Y0046812D01*
X0163851Y0046797D01*
X0163808Y0046773D01*
X0163749Y0046753D01*
X0163681Y0046729D01*
X0163599Y0046705D01*
X0163506Y0046690D01*
X0163409Y0046685D01*
X0163404D01*
X0163390D01*
X0163365D01*
X0163336Y0046690D01*
X0163297Y0046695D01*
X0163253Y0046700D01*
X0163152Y0046719D01*
X0163040Y0046748D01*
X0162923Y0046797D01*
X0162870Y0046831D01*
X0162811Y0046865D01*
X0162763Y0046904D01*
X0162714Y0046953D01*
X0162709Y0046957D01*
X0162704Y0046967D01*
X0162690Y0046982D01*
X0162675Y0047001D01*
X0162656Y0047030D01*
X0162636Y0047064D01*
X0162612Y0047103D01*
X0162588Y0047152D01*
X0162568Y0047205D01*
X0162544Y0047259D01*
X0162524Y0047327D01*
X0162505Y0047395D01*
X0162490Y0047468D01*
X0162476Y0047550D01*
X0162471Y0047633D01*
X0162466Y0047725D01*
Y0047803D01*
X0162471Y0047857D01*
X0162476Y0047915D01*
X0162486Y0047978D01*
X0162515Y0048114D01*
Y0049062D01*
X0162782D01*
X0162840Y0048551D01*
D02*
G37*
G36*
X0163968Y0044212D02*
X0163973D01*
X0163987D01*
X0164016Y0044216D01*
X0164046D01*
X0164089Y0044221D01*
X0164133Y0044226D01*
X0164187Y0044236D01*
X0164240Y0044245D01*
X0164362Y0044275D01*
X0164483Y0044318D01*
X0164600Y0044377D01*
X0164653Y0044416D01*
X0164702Y0044455D01*
X0164707Y0044459D01*
X0164711Y0044464D01*
X0164726Y0044479D01*
X0164741Y0044498D01*
X0164760Y0044523D01*
X0164780Y0044552D01*
X0164804Y0044586D01*
X0164823Y0044625D01*
X0164848Y0044668D01*
X0164872Y0044717D01*
X0164911Y0044829D01*
X0164940Y0044960D01*
X0164945Y0045028D01*
X0164950Y0045106D01*
Y0045149D01*
X0164945Y0045184D01*
Y0045222D01*
X0164940Y0045271D01*
X0164935Y0045324D01*
X0164925Y0045383D01*
X0164916Y0045446D01*
X0164906Y0045519D01*
X0164872Y0045665D01*
X0164828Y0045825D01*
X0164765Y0045985D01*
X0165139D01*
X0165144Y0045976D01*
X0165154Y0045946D01*
X0165168Y0045908D01*
X0165188Y0045849D01*
X0165212Y0045786D01*
X0165232Y0045718D01*
X0165256Y0045640D01*
X0165270Y0045567D01*
Y0045558D01*
X0165275Y0045533D01*
X0165285Y0045490D01*
X0165290Y0045436D01*
X0165300Y0045368D01*
X0165309Y0045286D01*
X0165314Y0045193D01*
Y0045067D01*
X0165309Y0045033D01*
Y0044989D01*
X0165304Y0044941D01*
X0165295Y0044882D01*
X0165285Y0044814D01*
X0165266Y0044741D01*
X0165246Y0044668D01*
X0165222Y0044591D01*
X0165193Y0044508D01*
X0165159Y0044430D01*
X0165115Y0044348D01*
X0165066Y0044270D01*
X0165008Y0044197D01*
X0164945Y0044129D01*
X0164940Y0044124D01*
X0164925Y0044114D01*
X0164906Y0044095D01*
X0164877Y0044075D01*
X0164838Y0044046D01*
X0164794Y0044017D01*
X0164741Y0043988D01*
X0164678Y0043954D01*
X0164610Y0043920D01*
X0164532Y0043891D01*
X0164444Y0043862D01*
X0164352Y0043832D01*
X0164255Y0043813D01*
X0164148Y0043793D01*
X0164036Y0043784D01*
X0163915Y0043779D01*
X0163905D01*
X0163885D01*
X0163851D01*
X0163803Y0043784D01*
X0163749Y0043789D01*
X0163681Y0043798D01*
X0163613Y0043808D01*
X0163531Y0043818D01*
X0163365Y0043857D01*
X0163278Y0043886D01*
X0163190Y0043915D01*
X0163103Y0043954D01*
X0163015Y0043998D01*
X0162938Y0044046D01*
X0162860Y0044105D01*
X0162855Y0044109D01*
X0162840Y0044119D01*
X0162821Y0044139D01*
X0162797Y0044163D01*
X0162768Y0044197D01*
X0162733Y0044241D01*
X0162699Y0044284D01*
X0162661Y0044338D01*
X0162627Y0044396D01*
X0162593Y0044464D01*
X0162558Y0044537D01*
X0162529Y0044615D01*
X0162500Y0044697D01*
X0162481Y0044790D01*
X0162471Y0044882D01*
X0162466Y0044984D01*
Y0045033D01*
X0162471Y0045072D01*
X0162476Y0045116D01*
X0162486Y0045164D01*
X0162495Y0045217D01*
X0162510Y0045281D01*
X0162529Y0045344D01*
X0162549Y0045412D01*
X0162578Y0045480D01*
X0162612Y0045548D01*
X0162651Y0045616D01*
X0162699Y0045679D01*
X0162748Y0045742D01*
X0162811Y0045801D01*
X0162816Y0045806D01*
X0162826Y0045815D01*
X0162845Y0045830D01*
X0162874Y0045849D01*
X0162908Y0045869D01*
X0162947Y0045898D01*
X0162996Y0045922D01*
X0163049Y0045951D01*
X0163113Y0045981D01*
X0163181Y0046005D01*
X0163253Y0046034D01*
X0163331Y0046053D01*
X0163419Y0046073D01*
X0163506Y0046088D01*
X0163603Y0046097D01*
X0163706Y0046102D01*
X0163968D01*
Y0044212D01*
D02*
G37*
G36*
X0164371Y0043240D02*
X0164415Y0043235D01*
X0164459Y0043225D01*
X0164512Y0043215D01*
X0164566Y0043201D01*
X0164629Y0043181D01*
X0164687Y0043157D01*
X0164750Y0043128D01*
X0164814Y0043094D01*
X0164877Y0043055D01*
X0164935Y0043006D01*
X0164993Y0042953D01*
X0165047Y0042890D01*
X0165052Y0042885D01*
X0165057Y0042875D01*
X0165071Y0042856D01*
X0165091Y0042826D01*
X0165110Y0042792D01*
X0165129Y0042749D01*
X0165154Y0042695D01*
X0165178Y0042642D01*
X0165207Y0042574D01*
X0165232Y0042506D01*
X0165251Y0042428D01*
X0165270Y0042340D01*
X0165290Y0042253D01*
X0165304Y0042156D01*
X0165309Y0042049D01*
X0165314Y0041942D01*
Y0041879D01*
X0165309Y0041835D01*
Y0041781D01*
X0165304Y0041718D01*
X0165300Y0041645D01*
X0165295Y0041572D01*
X0165275Y0041407D01*
X0165246Y0041242D01*
X0165202Y0041082D01*
X0165178Y0041004D01*
X0165149Y0040936D01*
X0164736D01*
Y0040941D01*
X0164741Y0040946D01*
X0164750Y0040975D01*
X0164770Y0041023D01*
X0164789Y0041082D01*
X0164814Y0041155D01*
X0164838Y0041237D01*
X0164862Y0041330D01*
X0164886Y0041427D01*
Y0041441D01*
X0164891Y0041451D01*
X0164896Y0041471D01*
X0164901Y0041524D01*
X0164911Y0041592D01*
X0164920Y0041675D01*
X0164930Y0041762D01*
X0164935Y0041859D01*
X0164940Y0041956D01*
Y0041995D01*
X0164935Y0042024D01*
Y0042063D01*
X0164930Y0042102D01*
X0164920Y0042195D01*
X0164901Y0042297D01*
X0164872Y0042404D01*
X0164833Y0042506D01*
X0164809Y0042549D01*
X0164780Y0042593D01*
Y0042598D01*
X0164770Y0042603D01*
X0164750Y0042627D01*
X0164711Y0042661D01*
X0164663Y0042705D01*
X0164600Y0042744D01*
X0164522Y0042778D01*
X0164435Y0042802D01*
X0164386Y0042812D01*
X0164332D01*
X0164323D01*
X0164298D01*
X0164264Y0042807D01*
X0164221Y0042802D01*
X0164172Y0042792D01*
X0164123Y0042778D01*
X0164070Y0042758D01*
X0164021Y0042734D01*
X0164016Y0042729D01*
X0164002Y0042720D01*
X0163978Y0042700D01*
X0163949Y0042676D01*
X0163915Y0042642D01*
X0163876Y0042598D01*
X0163837Y0042544D01*
X0163798Y0042481D01*
X0163793Y0042472D01*
X0163778Y0042447D01*
X0163759Y0042404D01*
X0163730Y0042345D01*
X0163696Y0042268D01*
X0163652Y0042175D01*
X0163608Y0042063D01*
X0163565Y0041937D01*
Y0041932D01*
X0163555Y0041913D01*
X0163545Y0041888D01*
X0163531Y0041854D01*
X0163516Y0041811D01*
X0163492Y0041762D01*
X0163467Y0041709D01*
X0163443Y0041650D01*
X0163380Y0041534D01*
X0163302Y0041412D01*
X0163219Y0041295D01*
X0163176Y0041247D01*
X0163132Y0041203D01*
X0163127D01*
X0163122Y0041193D01*
X0163108Y0041184D01*
X0163088Y0041169D01*
X0163059Y0041155D01*
X0163030Y0041135D01*
X0162996Y0041116D01*
X0162957Y0041096D01*
X0162860Y0041052D01*
X0162748Y0041019D01*
X0162622Y0040994D01*
X0162549Y0040989D01*
X0162476Y0040984D01*
X0162471D01*
X0162457D01*
X0162437D01*
X0162408Y0040989D01*
X0162369Y0040994D01*
X0162330Y0040999D01*
X0162233Y0041023D01*
X0162126Y0041062D01*
X0162068Y0041087D01*
X0162014Y0041116D01*
X0161956Y0041155D01*
X0161902Y0041198D01*
X0161849Y0041247D01*
X0161800Y0041300D01*
X0161795Y0041305D01*
X0161791Y0041315D01*
X0161776Y0041334D01*
X0161761Y0041359D01*
X0161742Y0041393D01*
X0161723Y0041432D01*
X0161698Y0041475D01*
X0161674Y0041529D01*
X0161650Y0041582D01*
X0161625Y0041650D01*
X0161606Y0041718D01*
X0161586Y0041791D01*
X0161572Y0041874D01*
X0161557Y0041961D01*
X0161553Y0042049D01*
X0161548Y0042146D01*
Y0042200D01*
X0161553Y0042238D01*
Y0042287D01*
X0161557Y0042340D01*
X0161562Y0042408D01*
X0161572Y0042476D01*
X0161582Y0042549D01*
X0161596Y0042632D01*
X0161635Y0042802D01*
X0161684Y0042977D01*
X0161752Y0043152D01*
X0162121Y0043021D01*
Y0043016D01*
X0162111Y0043001D01*
X0162102Y0042977D01*
X0162092Y0042943D01*
X0162077Y0042904D01*
X0162058Y0042856D01*
X0162043Y0042797D01*
X0162024Y0042739D01*
X0162004Y0042676D01*
X0161990Y0042603D01*
X0161956Y0042457D01*
X0161936Y0042297D01*
X0161927Y0042136D01*
Y0042078D01*
X0161932Y0042054D01*
X0161936Y0042020D01*
X0161946Y0041942D01*
X0161966Y0041859D01*
X0161990Y0041772D01*
X0162029Y0041684D01*
X0162077Y0041607D01*
X0162082Y0041597D01*
X0162102Y0041577D01*
X0162136Y0041548D01*
X0162184Y0041514D01*
X0162238Y0041475D01*
X0162311Y0041446D01*
X0162388Y0041427D01*
X0162481Y0041417D01*
X0162490D01*
X0162510D01*
X0162549Y0041422D01*
X0162593Y0041427D01*
X0162641Y0041432D01*
X0162690Y0041446D01*
X0162743Y0041461D01*
X0162792Y0041485D01*
X0162797Y0041490D01*
X0162811Y0041500D01*
X0162836Y0041519D01*
X0162865Y0041543D01*
X0162899Y0041577D01*
X0162938Y0041616D01*
X0162977Y0041665D01*
X0163015Y0041723D01*
X0163020Y0041733D01*
X0163035Y0041752D01*
X0163054Y0041796D01*
X0163083Y0041849D01*
X0163113Y0041922D01*
X0163152Y0042010D01*
X0163195Y0042112D01*
X0163239Y0042233D01*
Y0042238D01*
X0163249Y0042258D01*
X0163258Y0042287D01*
X0163273Y0042326D01*
X0163292Y0042374D01*
X0163317Y0042428D01*
X0163341Y0042486D01*
X0163370Y0042549D01*
X0163438Y0042681D01*
X0163511Y0042812D01*
X0163550Y0042875D01*
X0163594Y0042928D01*
X0163637Y0042982D01*
X0163681Y0043026D01*
X0163686Y0043031D01*
X0163691Y0043035D01*
X0163706Y0043045D01*
X0163725Y0043060D01*
X0163744Y0043074D01*
X0163774Y0043094D01*
X0163846Y0043137D01*
X0163934Y0043176D01*
X0164036Y0043210D01*
X0164157Y0043235D01*
X0164225Y0043244D01*
X0164294D01*
X0164298D01*
X0164313D01*
X0164337D01*
X0164371Y0043240D01*
D02*
G37*
G36*
X0165266Y0037913D02*
Y0037500D01*
X0161596Y0038866D01*
Y0039283D01*
X0165266Y0037913D01*
D02*
G37*
G36*
X0165129Y0035731D02*
X0165134Y0035721D01*
X0165139Y0035706D01*
X0165144Y0035687D01*
X0165154Y0035658D01*
X0165159Y0035629D01*
X0165183Y0035551D01*
X0165202Y0035464D01*
X0165227Y0035361D01*
X0165246Y0035254D01*
X0165266Y0035143D01*
Y0035128D01*
X0165270Y0035114D01*
X0165275Y0035089D01*
Y0035060D01*
X0165280Y0035026D01*
X0165285Y0034987D01*
X0165290Y0034944D01*
X0165300Y0034841D01*
X0165304Y0034725D01*
X0165314Y0034589D01*
Y0034409D01*
X0165309Y0034370D01*
X0165304Y0034312D01*
X0165300Y0034239D01*
X0165290Y0034161D01*
X0165275Y0034069D01*
X0165251Y0033972D01*
X0165227Y0033869D01*
X0165193Y0033762D01*
X0165154Y0033656D01*
X0165105Y0033544D01*
X0165052Y0033437D01*
X0164984Y0033335D01*
X0164911Y0033238D01*
X0164823Y0033145D01*
X0164818Y0033140D01*
X0164799Y0033126D01*
X0164770Y0033101D01*
X0164731Y0033072D01*
X0164682Y0033038D01*
X0164619Y0033000D01*
X0164546Y0032956D01*
X0164464Y0032917D01*
X0164371Y0032873D01*
X0164264Y0032829D01*
X0164153Y0032790D01*
X0164026Y0032757D01*
X0163895Y0032727D01*
X0163749Y0032703D01*
X0163599Y0032688D01*
X0163433Y0032684D01*
X0163428D01*
X0163409D01*
X0163380D01*
X0163336Y0032688D01*
X0163287D01*
X0163229Y0032698D01*
X0163166Y0032703D01*
X0163093Y0032713D01*
X0163020Y0032722D01*
X0162943Y0032742D01*
X0162772Y0032781D01*
X0162602Y0032839D01*
X0162520Y0032873D01*
X0162437Y0032912D01*
X0162432Y0032917D01*
X0162418Y0032922D01*
X0162393Y0032936D01*
X0162364Y0032956D01*
X0162330Y0032980D01*
X0162286Y0033009D01*
X0162243Y0033043D01*
X0162194Y0033082D01*
X0162141Y0033126D01*
X0162087Y0033174D01*
X0162029Y0033228D01*
X0161975Y0033291D01*
X0161868Y0033422D01*
X0161776Y0033573D01*
X0161771Y0033578D01*
X0161766Y0033592D01*
X0161757Y0033617D01*
X0161742Y0033651D01*
X0161723Y0033690D01*
X0161703Y0033743D01*
X0161684Y0033797D01*
X0161659Y0033865D01*
X0161640Y0033933D01*
X0161621Y0034010D01*
X0161601Y0034093D01*
X0161582Y0034185D01*
X0161567Y0034278D01*
X0161557Y0034380D01*
X0161548Y0034482D01*
Y0034647D01*
X0161553Y0034686D01*
Y0034739D01*
X0161557Y0034802D01*
X0161567Y0034871D01*
X0161577Y0034944D01*
X0161586Y0035026D01*
X0161601Y0035114D01*
X0161640Y0035298D01*
X0161694Y0035488D01*
X0161727Y0035585D01*
X0161766Y0035682D01*
X0162141Y0035517D01*
X0162136Y0035512D01*
X0162131Y0035493D01*
X0162121Y0035468D01*
X0162107Y0035429D01*
X0162092Y0035386D01*
X0162073Y0035332D01*
X0162053Y0035274D01*
X0162034Y0035211D01*
X0162014Y0035138D01*
X0161995Y0035065D01*
X0161961Y0034900D01*
X0161936Y0034730D01*
X0161927Y0034647D01*
Y0034530D01*
X0161932Y0034496D01*
Y0034448D01*
X0161941Y0034394D01*
X0161946Y0034326D01*
X0161961Y0034253D01*
X0161975Y0034176D01*
X0162000Y0034093D01*
X0162024Y0034010D01*
X0162058Y0033923D01*
X0162097Y0033835D01*
X0162141Y0033748D01*
X0162199Y0033665D01*
X0162257Y0033583D01*
X0162330Y0033510D01*
X0162335Y0033505D01*
X0162350Y0033495D01*
X0162369Y0033476D01*
X0162403Y0033452D01*
X0162442Y0033422D01*
X0162495Y0033393D01*
X0162549Y0033359D01*
X0162617Y0033325D01*
X0162690Y0033286D01*
X0162772Y0033252D01*
X0162865Y0033223D01*
X0162962Y0033194D01*
X0163069Y0033170D01*
X0163186Y0033150D01*
X0163307Y0033140D01*
X0163433Y0033136D01*
X0163443D01*
X0163467D01*
X0163506Y0033140D01*
X0163555D01*
X0163618Y0033145D01*
X0163691Y0033155D01*
X0163769Y0033165D01*
X0163851Y0033179D01*
X0163944Y0033199D01*
X0164036Y0033223D01*
X0164128Y0033252D01*
X0164221Y0033286D01*
X0164313Y0033330D01*
X0164400Y0033379D01*
X0164483Y0033432D01*
X0164561Y0033495D01*
X0164566Y0033500D01*
X0164575Y0033515D01*
X0164595Y0033534D01*
X0164619Y0033563D01*
X0164648Y0033602D01*
X0164682Y0033646D01*
X0164716Y0033704D01*
X0164750Y0033767D01*
X0164784Y0033835D01*
X0164818Y0033918D01*
X0164852Y0034005D01*
X0164882Y0034098D01*
X0164906Y0034205D01*
X0164925Y0034317D01*
X0164935Y0034438D01*
X0164940Y0034564D01*
Y0034628D01*
X0164935Y0034662D01*
Y0034705D01*
X0164930Y0034749D01*
Y0034798D01*
X0164920Y0034914D01*
X0164901Y0035036D01*
X0164882Y0035172D01*
X0164852Y0035308D01*
X0163725D01*
Y0034487D01*
X0163346D01*
Y0035736D01*
X0165129D01*
Y0035731D01*
D02*
G37*
G36*
X0165266Y0031930D02*
X0164099Y0031473D01*
Y0030001D01*
X0165266Y0029549D01*
Y0029121D01*
X0161582Y0030569D01*
Y0030929D01*
X0165266Y0032372D01*
Y0031930D01*
D02*
G37*
G36*
X0161975Y0027911D02*
X0165266D01*
Y0027483D01*
X0161975D01*
Y0026322D01*
X0161596D01*
Y0029073D01*
X0161975D01*
Y0027911D01*
D02*
G37*
G36*
X0165309Y0025802D02*
X0165348D01*
X0165397Y0025792D01*
X0165445Y0025787D01*
X0165504Y0025778D01*
X0165620Y0025748D01*
X0165742Y0025705D01*
X0165805Y0025675D01*
X0165863Y0025646D01*
X0165917Y0025607D01*
X0165970Y0025564D01*
X0165975Y0025559D01*
X0165980Y0025554D01*
X0165995Y0025539D01*
X0166009Y0025520D01*
X0166029Y0025496D01*
X0166053Y0025466D01*
X0166077Y0025428D01*
X0166102Y0025389D01*
X0166126Y0025345D01*
X0166150Y0025291D01*
X0166170Y0025238D01*
X0166194Y0025175D01*
X0166208Y0025107D01*
X0166223Y0025039D01*
X0166228Y0024961D01*
X0166233Y0024878D01*
Y0024839D01*
X0166228Y0024796D01*
X0166223Y0024747D01*
X0166218Y0024684D01*
X0166203Y0024626D01*
X0166189Y0024563D01*
X0166165Y0024509D01*
X0165800D01*
Y0024519D01*
X0165810Y0024538D01*
X0165815Y0024577D01*
X0165824Y0024621D01*
X0165834Y0024674D01*
X0165844Y0024737D01*
X0165849Y0024805D01*
X0165854Y0024878D01*
Y0024888D01*
X0165849Y0024917D01*
X0165844Y0024961D01*
X0165834Y0025014D01*
X0165815Y0025078D01*
X0165786Y0025136D01*
X0165752Y0025194D01*
X0165698Y0025248D01*
X0165693Y0025253D01*
X0165669Y0025267D01*
X0165635Y0025291D01*
X0165586Y0025316D01*
X0165528Y0025335D01*
X0165450Y0025360D01*
X0165363Y0025374D01*
X0165266Y0025379D01*
X0161596D01*
Y0025807D01*
X0165232D01*
X0165236D01*
X0165251D01*
X0165275D01*
X0165309Y0025802D01*
D02*
G37*
G36*
X0165266Y0022638D02*
X0162904D01*
X0162899D01*
X0162884D01*
X0162865D01*
X0162831D01*
X0162792D01*
X0162748D01*
X0162699Y0022643D01*
X0162641D01*
X0162578D01*
X0162510Y0022648D01*
X0162359Y0022652D01*
X0162194Y0022662D01*
X0162019Y0022672D01*
Y0022652D01*
X0165266Y0021399D01*
Y0021054D01*
X0162014Y0019809D01*
Y0019790D01*
X0162019D01*
X0162034D01*
X0162053Y0019795D01*
X0162082D01*
X0162121Y0019800D01*
X0162165D01*
X0162218Y0019805D01*
X0162277Y0019809D01*
X0162340D01*
X0162408Y0019814D01*
X0162486D01*
X0162563Y0019819D01*
X0162743Y0019824D01*
X0162933D01*
X0165266D01*
Y0019430D01*
X0161596D01*
Y0020072D01*
X0164624Y0021233D01*
Y0021253D01*
X0161596Y0022424D01*
Y0023061D01*
X0165266D01*
Y0022638D01*
D02*
G37*
G36*
Y0018332D02*
X0163740Y0017443D01*
Y0016680D01*
X0165266D01*
Y0016252D01*
X0161596D01*
Y0017321D01*
X0161601Y0017370D01*
X0161606Y0017423D01*
X0161611Y0017486D01*
X0161616Y0017559D01*
X0161630Y0017637D01*
X0161659Y0017797D01*
X0161708Y0017963D01*
X0161737Y0018045D01*
X0161771Y0018118D01*
X0161810Y0018191D01*
X0161859Y0018254D01*
X0161864Y0018259D01*
X0161868Y0018269D01*
X0161888Y0018283D01*
X0161907Y0018303D01*
X0161936Y0018327D01*
X0161966Y0018356D01*
X0162004Y0018385D01*
X0162053Y0018415D01*
X0162102Y0018444D01*
X0162160Y0018473D01*
X0162223Y0018502D01*
X0162296Y0018526D01*
X0162369Y0018546D01*
X0162452Y0018560D01*
X0162544Y0018570D01*
X0162636Y0018575D01*
X0162646D01*
X0162670D01*
X0162704Y0018570D01*
X0162753Y0018565D01*
X0162811Y0018551D01*
X0162879Y0018536D01*
X0162952Y0018512D01*
X0163030Y0018483D01*
X0163113Y0018444D01*
X0163195Y0018395D01*
X0163278Y0018337D01*
X0163356Y0018264D01*
X0163433Y0018181D01*
X0163501Y0018084D01*
X0163565Y0017972D01*
X0163618Y0017841D01*
X0165266Y0018833D01*
Y0018332D01*
D02*
G37*
G36*
Y0015309D02*
X0164099Y0014852D01*
Y0013380D01*
X0165266Y0012928D01*
Y0012500D01*
X0161582Y0013948D01*
Y0014308D01*
X0165266Y0015751D01*
Y0015309D01*
D02*
G37*
G36*
X0047204Y0063091D02*
X0047249D01*
X0047299Y0063087D01*
X0047362Y0063082D01*
X0047425Y0063073D01*
X0047493Y0063064D01*
X0047570Y0063051D01*
X0047727Y0063015D01*
X0047890Y0062969D01*
X0048052Y0062906D01*
X0047930Y0062564D01*
X0047926D01*
X0047912Y0062572D01*
X0047890Y0062582D01*
X0047858Y0062591D01*
X0047822Y0062604D01*
X0047777Y0062622D01*
X0047723Y0062636D01*
X0047669Y0062654D01*
X0047610Y0062672D01*
X0047542Y0062685D01*
X0047407Y0062717D01*
X0047258Y0062735D01*
X0047109Y0062744D01*
X0047055D01*
X0047033Y0062739D01*
X0047001Y0062735D01*
X0046929Y0062726D01*
X0046852Y0062708D01*
X0046771Y0062685D01*
X0046690Y0062649D01*
X0046618Y0062604D01*
X0046609Y0062600D01*
X0046591Y0062582D01*
X0046564Y0062550D01*
X0046532Y0062505D01*
X0046496Y0062455D01*
X0046469Y0062388D01*
X0046451Y0062315D01*
X0046442Y0062230D01*
Y0062221D01*
Y0062203D01*
X0046446Y0062167D01*
X0046451Y0062126D01*
X0046455Y0062081D01*
X0046469Y0062036D01*
X0046483Y0061986D01*
X0046505Y0061941D01*
X0046510Y0061937D01*
X0046519Y0061923D01*
X0046537Y0061901D01*
X0046559Y0061874D01*
X0046591Y0061842D01*
X0046627Y0061806D01*
X0046672Y0061770D01*
X0046726Y0061734D01*
X0046735Y0061729D01*
X0046753Y0061716D01*
X0046794Y0061698D01*
X0046843Y0061671D01*
X0046911Y0061643D01*
X0046992Y0061607D01*
X0047087Y0061567D01*
X0047200Y0061526D01*
X0047204D01*
X0047222Y0061517D01*
X0047249Y0061508D01*
X0047285Y0061495D01*
X0047330Y0061477D01*
X0047380Y0061454D01*
X0047434Y0061431D01*
X0047493Y0061404D01*
X0047615Y0061341D01*
X0047736Y0061274D01*
X0047795Y0061238D01*
X0047845Y0061197D01*
X0047894Y0061156D01*
X0047935Y0061116D01*
X0047939Y0061111D01*
X0047944Y0061107D01*
X0047953Y0061093D01*
X0047966Y0061075D01*
X0047980Y0061057D01*
X0047998Y0061030D01*
X0048039Y0060962D01*
X0048075Y0060881D01*
X0048106Y0060787D01*
X0048129Y0060674D01*
X0048138Y0060611D01*
Y0060548D01*
Y0060543D01*
Y0060530D01*
Y0060507D01*
X0048133Y0060475D01*
X0048129Y0060435D01*
X0048120Y0060394D01*
X0048111Y0060345D01*
X0048097Y0060295D01*
X0048079Y0060236D01*
X0048057Y0060182D01*
X0048030Y0060124D01*
X0047998Y0060065D01*
X0047962Y0060006D01*
X0047917Y0059952D01*
X0047867Y0059898D01*
X0047809Y0059848D01*
X0047804Y0059844D01*
X0047795Y0059839D01*
X0047777Y0059826D01*
X0047750Y0059808D01*
X0047718Y0059790D01*
X0047678Y0059772D01*
X0047628Y0059749D01*
X0047578Y0059727D01*
X0047515Y0059700D01*
X0047452Y0059677D01*
X0047380Y0059659D01*
X0047299Y0059641D01*
X0047218Y0059623D01*
X0047128Y0059610D01*
X0047028Y0059605D01*
X0046929Y0059600D01*
X0046870D01*
X0046830Y0059605D01*
X0046780D01*
X0046722Y0059610D01*
X0046654Y0059614D01*
X0046586Y0059619D01*
X0046433Y0059636D01*
X0046280Y0059664D01*
X0046131Y0059704D01*
X0046059Y0059727D01*
X0045996Y0059754D01*
Y0060137D01*
X0046000D01*
X0046005Y0060133D01*
X0046032Y0060124D01*
X0046077Y0060106D01*
X0046131Y0060088D01*
X0046198Y0060065D01*
X0046275Y0060042D01*
X0046361Y0060020D01*
X0046451Y0059997D01*
X0046464D01*
X0046474Y0059993D01*
X0046492Y0059988D01*
X0046541Y0059984D01*
X0046604Y0059975D01*
X0046681Y0059966D01*
X0046762Y0059957D01*
X0046852Y0059952D01*
X0046943Y0059948D01*
X0046979D01*
X0047006Y0059952D01*
X0047042D01*
X0047078Y0059957D01*
X0047164Y0059966D01*
X0047258Y0059984D01*
X0047357Y0060011D01*
X0047452Y0060047D01*
X0047493Y0060070D01*
X0047533Y0060097D01*
X0047538D01*
X0047542Y0060106D01*
X0047565Y0060124D01*
X0047596Y0060160D01*
X0047637Y0060205D01*
X0047673Y0060263D01*
X0047705Y0060336D01*
X0047727Y0060417D01*
X0047736Y0060462D01*
Y0060511D01*
Y0060520D01*
Y0060543D01*
X0047732Y0060575D01*
X0047727Y0060615D01*
X0047718Y0060660D01*
X0047705Y0060705D01*
X0047687Y0060755D01*
X0047664Y0060800D01*
X0047660Y0060805D01*
X0047651Y0060818D01*
X0047633Y0060841D01*
X0047610Y0060868D01*
X0047578Y0060899D01*
X0047538Y0060935D01*
X0047488Y0060971D01*
X0047430Y0061008D01*
X0047421Y0061012D01*
X0047398Y0061026D01*
X0047357Y0061044D01*
X0047303Y0061071D01*
X0047231Y0061102D01*
X0047146Y0061143D01*
X0047042Y0061184D01*
X0046924Y0061224D01*
X0046920D01*
X0046902Y0061233D01*
X0046880Y0061242D01*
X0046848Y0061256D01*
X0046807Y0061269D01*
X0046762Y0061292D01*
X0046713Y0061314D01*
X0046659Y0061337D01*
X0046550Y0061395D01*
X0046437Y0061468D01*
X0046329Y0061544D01*
X0046284Y0061585D01*
X0046244Y0061625D01*
Y0061630D01*
X0046235Y0061634D01*
X0046226Y0061648D01*
X0046212Y0061666D01*
X0046198Y0061693D01*
X0046180Y0061720D01*
X0046162Y0061752D01*
X0046144Y0061788D01*
X0046104Y0061878D01*
X0046072Y0061982D01*
X0046050Y0062099D01*
X0046045Y0062167D01*
X0046041Y0062234D01*
Y0062239D01*
Y0062252D01*
Y0062270D01*
X0046045Y0062297D01*
X0046050Y0062334D01*
X0046054Y0062370D01*
X0046077Y0062460D01*
X0046113Y0062559D01*
X0046135Y0062613D01*
X0046162Y0062663D01*
X0046198Y0062717D01*
X0046239Y0062766D01*
X0046284Y0062816D01*
X0046334Y0062861D01*
X0046338Y0062866D01*
X0046347Y0062870D01*
X0046365Y0062884D01*
X0046388Y0062897D01*
X0046419Y0062915D01*
X0046455Y0062933D01*
X0046496Y0062956D01*
X0046546Y0062978D01*
X0046595Y0063001D01*
X0046659Y0063024D01*
X0046722Y0063042D01*
X0046789Y0063060D01*
X0046866Y0063073D01*
X0046947Y0063087D01*
X0047028Y0063091D01*
X0047118Y0063096D01*
X0047168D01*
X0047204Y0063091D01*
D02*
G37*
G36*
X0061650D02*
X0061695D01*
X0061749Y0063087D01*
X0061812Y0063078D01*
X0061880Y0063073D01*
X0061947Y0063060D01*
X0062024Y0063046D01*
X0062182Y0063010D01*
X0062344Y0062965D01*
X0062421Y0062933D01*
X0062498Y0062897D01*
X0062331Y0062559D01*
X0062326D01*
X0062313Y0062568D01*
X0062295Y0062577D01*
X0062263Y0062586D01*
X0062227Y0062604D01*
X0062186Y0062618D01*
X0062141Y0062636D01*
X0062087Y0062654D01*
X0062033Y0062667D01*
X0061970Y0062685D01*
X0061839Y0062717D01*
X0061699Y0062735D01*
X0061555Y0062744D01*
X0061532D01*
X0061501Y0062739D01*
X0061465D01*
X0061415Y0062730D01*
X0061361Y0062726D01*
X0061302Y0062712D01*
X0061235Y0062699D01*
X0061167Y0062676D01*
X0061095Y0062654D01*
X0061018Y0062622D01*
X0060946Y0062586D01*
X0060874Y0062546D01*
X0060802Y0062491D01*
X0060734Y0062437D01*
X0060671Y0062370D01*
X0060667Y0062365D01*
X0060658Y0062352D01*
X0060640Y0062329D01*
X0060621Y0062302D01*
X0060594Y0062261D01*
X0060567Y0062216D01*
X0060540Y0062162D01*
X0060509Y0062103D01*
X0060477Y0062031D01*
X0060450Y0061955D01*
X0060423Y0061869D01*
X0060396Y0061779D01*
X0060378Y0061680D01*
X0060360Y0061576D01*
X0060351Y0061463D01*
X0060346Y0061346D01*
Y0061337D01*
Y0061319D01*
Y0061283D01*
X0060351Y0061238D01*
X0060355Y0061179D01*
X0060364Y0061116D01*
X0060373Y0061044D01*
X0060387Y0060967D01*
X0060400Y0060886D01*
X0060423Y0060800D01*
X0060445Y0060714D01*
X0060477Y0060629D01*
X0060513Y0060543D01*
X0060554Y0060462D01*
X0060603Y0060385D01*
X0060658Y0060313D01*
X0060662Y0060308D01*
X0060671Y0060299D01*
X0060689Y0060281D01*
X0060716Y0060259D01*
X0060748Y0060227D01*
X0060788Y0060200D01*
X0060833Y0060164D01*
X0060887Y0060133D01*
X0060946Y0060101D01*
X0061014Y0060065D01*
X0061086Y0060038D01*
X0061167Y0060011D01*
X0061253Y0059984D01*
X0061348Y0059966D01*
X0061447Y0059957D01*
X0061550Y0059952D01*
X0061614D01*
X0061645Y0059957D01*
X0061686Y0059961D01*
X0061735D01*
X0061785Y0059970D01*
X0061844Y0059975D01*
X0061907Y0059984D01*
X0061974Y0059993D01*
X0062047Y0060006D01*
X0062200Y0060038D01*
X0062367Y0060079D01*
Y0059731D01*
X0062362D01*
X0062349Y0059727D01*
X0062331Y0059718D01*
X0062304Y0059713D01*
X0062268Y0059700D01*
X0062227Y0059691D01*
X0062177Y0059677D01*
X0062123Y0059668D01*
X0062065Y0059655D01*
X0061997Y0059641D01*
X0061925Y0059632D01*
X0061848Y0059623D01*
X0061767Y0059614D01*
X0061677Y0059605D01*
X0061492Y0059600D01*
X0061460D01*
X0061420Y0059605D01*
X0061370Y0059610D01*
X0061307Y0059614D01*
X0061230Y0059623D01*
X0061149Y0059636D01*
X0061063Y0059659D01*
X0060973Y0059682D01*
X0060878Y0059713D01*
X0060779Y0059749D01*
X0060685Y0059794D01*
X0060590Y0059844D01*
X0060495Y0059907D01*
X0060409Y0059975D01*
X0060328Y0060056D01*
X0060324Y0060061D01*
X0060310Y0060079D01*
X0060292Y0060106D01*
X0060265Y0060142D01*
X0060234Y0060187D01*
X0060202Y0060245D01*
X0060161Y0060313D01*
X0060125Y0060390D01*
X0060089Y0060475D01*
X0060053Y0060570D01*
X0060017Y0060678D01*
X0059986Y0060796D01*
X0059958Y0060917D01*
X0059940Y0061053D01*
X0059927Y0061197D01*
X0059922Y0061350D01*
Y0061355D01*
Y0061373D01*
Y0061400D01*
X0059927Y0061440D01*
Y0061486D01*
X0059931Y0061535D01*
X0059940Y0061598D01*
X0059945Y0061661D01*
X0059958Y0061734D01*
X0059972Y0061806D01*
X0060004Y0061959D01*
X0060053Y0062117D01*
X0060080Y0062194D01*
X0060116Y0062270D01*
X0060121Y0062275D01*
X0060125Y0062288D01*
X0060139Y0062306D01*
X0060152Y0062338D01*
X0060175Y0062370D01*
X0060198Y0062406D01*
X0060261Y0062496D01*
X0060342Y0062595D01*
X0060441Y0062694D01*
X0060554Y0062793D01*
X0060685Y0062879D01*
X0060689Y0062884D01*
X0060703Y0062888D01*
X0060721Y0062897D01*
X0060752Y0062915D01*
X0060788Y0062929D01*
X0060829Y0062947D01*
X0060878Y0062969D01*
X0060933Y0062988D01*
X0060996Y0063010D01*
X0061063Y0063028D01*
X0061136Y0063046D01*
X0061212Y0063064D01*
X0061379Y0063087D01*
X0061469Y0063091D01*
X0061559Y0063096D01*
X0061614D01*
X0061650Y0063091D01*
D02*
G37*
G36*
X0100612Y0062239D02*
X0100648D01*
X0100693Y0062230D01*
X0100742Y0062225D01*
X0100792Y0062216D01*
X0100905Y0062189D01*
X0101022Y0062149D01*
X0101076Y0062121D01*
X0101130Y0062094D01*
X0101180Y0062058D01*
X0101225Y0062018D01*
X0101230Y0062013D01*
X0101234Y0062009D01*
X0101248Y0061995D01*
X0101261Y0061977D01*
X0101279Y0061950D01*
X0101297Y0061923D01*
X0101320Y0061887D01*
X0101342Y0061846D01*
X0101365Y0061801D01*
X0101387Y0061747D01*
X0101405Y0061689D01*
X0101423Y0061625D01*
X0101437Y0061558D01*
X0101451Y0061481D01*
X0101455Y0061400D01*
X0101460Y0061310D01*
Y0059646D01*
X0101076D01*
Y0061292D01*
Y0061296D01*
Y0061305D01*
Y0061323D01*
Y0061341D01*
X0101072Y0061368D01*
X0101067Y0061400D01*
X0101058Y0061468D01*
X0101040Y0061544D01*
X0101017Y0061621D01*
X0100981Y0061693D01*
X0100932Y0061756D01*
X0100927Y0061765D01*
X0100905Y0061783D01*
X0100873Y0061806D01*
X0100824Y0061837D01*
X0100760Y0061865D01*
X0100688Y0061892D01*
X0100594Y0061910D01*
X0100490Y0061914D01*
X0100454D01*
X0100422Y0061910D01*
X0100391D01*
X0100355Y0061905D01*
X0100264Y0061887D01*
X0100170Y0061860D01*
X0100070Y0061824D01*
X0099980Y0061770D01*
X0099935Y0061734D01*
X0099899Y0061698D01*
Y0061693D01*
X0099890Y0061689D01*
X0099881Y0061675D01*
X0099872Y0061657D01*
X0099858Y0061634D01*
X0099840Y0061603D01*
X0099822Y0061567D01*
X0099809Y0061526D01*
X0099791Y0061481D01*
X0099773Y0061427D01*
X0099759Y0061368D01*
X0099741Y0061305D01*
X0099732Y0061233D01*
X0099723Y0061156D01*
X0099714Y0061071D01*
Y0060980D01*
Y0059646D01*
X0099326D01*
Y0062198D01*
X0099642D01*
X0099705Y0061846D01*
X0099723D01*
X0099728Y0061855D01*
X0099746Y0061878D01*
X0099773Y0061914D01*
X0099809Y0061955D01*
X0099854Y0062000D01*
X0099913Y0062049D01*
X0099976Y0062099D01*
X0100052Y0062140D01*
X0100057D01*
X0100061Y0062144D01*
X0100075Y0062149D01*
X0100088Y0062158D01*
X0100134Y0062171D01*
X0100192Y0062194D01*
X0100264Y0062212D01*
X0100346Y0062225D01*
X0100436Y0062239D01*
X0100535Y0062243D01*
X0100580D01*
X0100612Y0062239D01*
D02*
G37*
G36*
X0050046Y0062239D02*
X0050091Y0062234D01*
X0050140Y0062225D01*
X0050194Y0062216D01*
X0050253Y0062198D01*
X0050312Y0062180D01*
X0050375Y0062158D01*
X0050442Y0062131D01*
X0050506Y0062099D01*
X0050569Y0062058D01*
X0050632Y0062009D01*
X0050690Y0061959D01*
X0050744Y0061896D01*
X0050749Y0061892D01*
X0050758Y0061878D01*
X0050772Y0061860D01*
X0050790Y0061833D01*
X0050808Y0061797D01*
X0050835Y0061752D01*
X0050857Y0061702D01*
X0050884Y0061643D01*
X0050911Y0061580D01*
X0050934Y0061504D01*
X0050961Y0061427D01*
X0050979Y0061337D01*
X0050997Y0061247D01*
X0051011Y0061143D01*
X0051020Y0061035D01*
X0051024Y0060922D01*
Y0060913D01*
Y0060895D01*
Y0060863D01*
X0051020Y0060818D01*
X0051015Y0060764D01*
X0051011Y0060705D01*
X0051002Y0060638D01*
X0050988Y0060566D01*
X0050956Y0060408D01*
X0050934Y0060326D01*
X0050902Y0060245D01*
X0050871Y0060169D01*
X0050835Y0060088D01*
X0050790Y0060015D01*
X0050740Y0059948D01*
X0050735Y0059943D01*
X0050726Y0059934D01*
X0050713Y0059916D01*
X0050690Y0059894D01*
X0050659Y0059866D01*
X0050627Y0059839D01*
X0050587Y0059808D01*
X0050537Y0059776D01*
X0050488Y0059740D01*
X0050429Y0059709D01*
X0050366Y0059682D01*
X0050293Y0059655D01*
X0050221Y0059632D01*
X0050140Y0059614D01*
X0050055Y0059605D01*
X0049964Y0059600D01*
X0049924D01*
X0049874Y0059605D01*
X0049811Y0059614D01*
X0049743Y0059623D01*
X0049662Y0059636D01*
X0049585Y0059659D01*
X0049504Y0059691D01*
X0049495Y0059695D01*
X0049473Y0059709D01*
X0049432Y0059731D01*
X0049387Y0059758D01*
X0049333Y0059799D01*
X0049274Y0059848D01*
X0049216Y0059907D01*
X0049161Y0059975D01*
X0049134D01*
Y0059970D01*
Y0059966D01*
X0049139Y0059952D01*
Y0059939D01*
X0049143Y0059894D01*
X0049148Y0059839D01*
X0049152Y0059772D01*
X0049157Y0059704D01*
X0049161Y0059555D01*
Y0058500D01*
X0048774D01*
Y0062198D01*
X0049089D01*
X0049143Y0061846D01*
X0049161D01*
Y0061851D01*
X0049171Y0061855D01*
X0049189Y0061883D01*
X0049220Y0061919D01*
X0049261Y0061964D01*
X0049310Y0062013D01*
X0049369Y0062063D01*
X0049437Y0062108D01*
X0049509Y0062149D01*
X0049513D01*
X0049518Y0062153D01*
X0049545Y0062162D01*
X0049585Y0062180D01*
X0049640Y0062198D01*
X0049707Y0062212D01*
X0049784Y0062230D01*
X0049870Y0062239D01*
X0049964Y0062243D01*
X0050014D01*
X0050046Y0062239D01*
D02*
G37*
G36*
X0077354Y0062239D02*
X0077399Y0062234D01*
X0077453Y0062230D01*
X0077557Y0062212D01*
X0077502Y0061855D01*
X0077493D01*
X0077475Y0061860D01*
X0077448Y0061869D01*
X0077408Y0061874D01*
X0077367Y0061883D01*
X0077317Y0061887D01*
X0077223Y0061892D01*
X0077191D01*
X0077169Y0061887D01*
X0077146Y0061883D01*
X0077114Y0061878D01*
X0077038Y0061860D01*
X0076957Y0061828D01*
X0076866Y0061783D01*
X0076821Y0061756D01*
X0076776Y0061725D01*
X0076731Y0061684D01*
X0076691Y0061639D01*
X0076686Y0061634D01*
X0076682Y0061625D01*
X0076673Y0061612D01*
X0076659Y0061594D01*
X0076641Y0061571D01*
X0076623Y0061540D01*
X0076605Y0061504D01*
X0076582Y0061468D01*
X0076542Y0061373D01*
X0076510Y0061269D01*
X0076483Y0061147D01*
X0076479Y0061080D01*
X0076474Y0061012D01*
Y0059646D01*
X0076086D01*
Y0062198D01*
X0076406D01*
X0076451Y0061720D01*
X0076470D01*
Y0061725D01*
X0076474Y0061729D01*
X0076483Y0061743D01*
X0076497Y0061761D01*
X0076524Y0061806D01*
X0076564Y0061865D01*
X0076614Y0061928D01*
X0076673Y0061991D01*
X0076736Y0062054D01*
X0076808Y0062108D01*
X0076812D01*
X0076817Y0062112D01*
X0076844Y0062131D01*
X0076885Y0062153D01*
X0076939Y0062176D01*
X0077006Y0062203D01*
X0077078Y0062221D01*
X0077164Y0062239D01*
X0077250Y0062243D01*
X0077313D01*
X0077354Y0062239D01*
D02*
G37*
G36*
X0067197Y0062239D02*
X0067242Y0062234D01*
X0067296Y0062230D01*
X0067400Y0062212D01*
X0067346Y0061855D01*
X0067337D01*
X0067319Y0061860D01*
X0067292Y0061869D01*
X0067251Y0061874D01*
X0067211Y0061883D01*
X0067161Y0061887D01*
X0067066Y0061892D01*
X0067035D01*
X0067012Y0061887D01*
X0066989Y0061883D01*
X0066958Y0061878D01*
X0066881Y0061860D01*
X0066800Y0061828D01*
X0066710Y0061783D01*
X0066665Y0061756D01*
X0066620Y0061725D01*
X0066575Y0061684D01*
X0066534Y0061639D01*
X0066530Y0061634D01*
X0066525Y0061625D01*
X0066516Y0061612D01*
X0066502Y0061594D01*
X0066484Y0061571D01*
X0066466Y0061540D01*
X0066448Y0061504D01*
X0066426Y0061468D01*
X0066385Y0061373D01*
X0066354Y0061269D01*
X0066327Y0061147D01*
X0066322Y0061080D01*
X0066318Y0061012D01*
Y0059645D01*
X0065930D01*
Y0062198D01*
X0066250D01*
X0066295Y0061720D01*
X0066313D01*
Y0061725D01*
X0066318Y0061729D01*
X0066327Y0061743D01*
X0066340Y0061761D01*
X0066367Y0061806D01*
X0066408Y0061865D01*
X0066457Y0061928D01*
X0066516Y0061991D01*
X0066579Y0062054D01*
X0066651Y0062108D01*
X0066656D01*
X0066660Y0062112D01*
X0066687Y0062131D01*
X0066728Y0062153D01*
X0066782Y0062176D01*
X0066850Y0062203D01*
X0066922Y0062221D01*
X0067008Y0062239D01*
X0067093Y0062243D01*
X0067156D01*
X0067197Y0062239D01*
D02*
G37*
G36*
X0055615D02*
X0055660Y0062234D01*
X0055714Y0062230D01*
X0055818Y0062212D01*
X0055764Y0061855D01*
X0055755D01*
X0055737Y0061860D01*
X0055710Y0061869D01*
X0055669Y0061874D01*
X0055629Y0061883D01*
X0055579Y0061887D01*
X0055484Y0061892D01*
X0055453D01*
X0055430Y0061887D01*
X0055408Y0061883D01*
X0055376Y0061878D01*
X0055300Y0061860D01*
X0055218Y0061828D01*
X0055128Y0061783D01*
X0055083Y0061756D01*
X0055038Y0061725D01*
X0054993Y0061684D01*
X0054952Y0061639D01*
X0054948Y0061634D01*
X0054943Y0061625D01*
X0054934Y0061612D01*
X0054921Y0061594D01*
X0054903Y0061571D01*
X0054885Y0061540D01*
X0054867Y0061504D01*
X0054844Y0061468D01*
X0054804Y0061373D01*
X0054772Y0061269D01*
X0054745Y0061147D01*
X0054740Y0061080D01*
X0054736Y0061012D01*
Y0059645D01*
X0054348D01*
Y0062198D01*
X0054668D01*
X0054713Y0061720D01*
X0054731D01*
Y0061725D01*
X0054736Y0061729D01*
X0054745Y0061743D01*
X0054758Y0061761D01*
X0054786Y0061806D01*
X0054826Y0061865D01*
X0054876Y0061928D01*
X0054934Y0061991D01*
X0054997Y0062054D01*
X0055070Y0062108D01*
X0055074D01*
X0055079Y0062112D01*
X0055106Y0062131D01*
X0055146Y0062153D01*
X0055200Y0062176D01*
X0055268Y0062203D01*
X0055340Y0062221D01*
X0055426Y0062239D01*
X0055512Y0062243D01*
X0055575D01*
X0055615Y0062239D01*
D02*
G37*
G36*
X0080479Y0059646D02*
X0080087D01*
X0078869Y0063051D01*
X0079284D01*
X0080068Y0060845D01*
Y0060841D01*
X0080073Y0060827D01*
X0080082Y0060809D01*
X0080091Y0060782D01*
X0080105Y0060746D01*
X0080114Y0060705D01*
X0080132Y0060660D01*
X0080145Y0060611D01*
X0080181Y0060498D01*
X0080217Y0060372D01*
X0080249Y0060241D01*
X0080281Y0060106D01*
Y0060110D01*
X0080285Y0060124D01*
X0080290Y0060142D01*
X0080294Y0060169D01*
X0080303Y0060205D01*
X0080317Y0060245D01*
X0080326Y0060290D01*
X0080339Y0060340D01*
X0080371Y0060457D01*
X0080411Y0060584D01*
X0080452Y0060719D01*
X0080502Y0060859D01*
X0081277Y0063051D01*
X0081706D01*
X0080479Y0059646D01*
D02*
G37*
G36*
X0089341Y0062171D02*
Y0062162D01*
Y0062140D01*
Y0062103D01*
Y0062054D01*
X0089337Y0062004D01*
X0089332Y0061950D01*
X0089328Y0061892D01*
X0089323Y0061842D01*
X0089346D01*
X0089350Y0061851D01*
X0089368Y0061874D01*
X0089391Y0061905D01*
X0089427Y0061946D01*
X0089476Y0061995D01*
X0089530Y0062040D01*
X0089594Y0062090D01*
X0089670Y0062131D01*
X0089675D01*
X0089679Y0062135D01*
X0089693Y0062140D01*
X0089706Y0062149D01*
X0089751Y0062167D01*
X0089810Y0062185D01*
X0089882Y0062203D01*
X0089964Y0062221D01*
X0090054Y0062234D01*
X0090153Y0062239D01*
X0090198D01*
X0090230Y0062234D01*
X0090270D01*
X0090315Y0062225D01*
X0090365Y0062221D01*
X0090415Y0062212D01*
X0090532Y0062185D01*
X0090645Y0062144D01*
X0090703Y0062117D01*
X0090757Y0062090D01*
X0090807Y0062054D01*
X0090852Y0062013D01*
X0090856Y0062009D01*
X0090861Y0062004D01*
X0090874Y0061991D01*
X0090888Y0061973D01*
X0090906Y0061946D01*
X0090924Y0061919D01*
X0090947Y0061883D01*
X0090969Y0061842D01*
X0090992Y0061797D01*
X0091014Y0061743D01*
X0091032Y0061689D01*
X0091050Y0061625D01*
X0091064Y0061553D01*
X0091077Y0061477D01*
X0091082Y0061395D01*
X0091087Y0061310D01*
Y0059646D01*
X0090703D01*
Y0061292D01*
Y0061296D01*
Y0061305D01*
Y0061323D01*
Y0061341D01*
X0090699Y0061368D01*
X0090694Y0061400D01*
X0090685Y0061468D01*
X0090667Y0061544D01*
X0090645Y0061621D01*
X0090608Y0061693D01*
X0090559Y0061756D01*
X0090554Y0061765D01*
X0090532Y0061783D01*
X0090500Y0061806D01*
X0090451Y0061837D01*
X0090387Y0061865D01*
X0090315Y0061892D01*
X0090221Y0061910D01*
X0090117Y0061914D01*
X0090076D01*
X0090049Y0061910D01*
X0090018D01*
X0089977Y0061901D01*
X0089891Y0061887D01*
X0089792Y0061860D01*
X0089697Y0061819D01*
X0089648Y0061797D01*
X0089603Y0061765D01*
X0089562Y0061734D01*
X0089526Y0061693D01*
Y0061689D01*
X0089517Y0061684D01*
X0089508Y0061671D01*
X0089499Y0061652D01*
X0089485Y0061630D01*
X0089467Y0061598D01*
X0089449Y0061562D01*
X0089436Y0061522D01*
X0089418Y0061477D01*
X0089400Y0061422D01*
X0089386Y0061364D01*
X0089368Y0061301D01*
X0089359Y0061229D01*
X0089350Y0061152D01*
X0089341Y0061066D01*
Y0060976D01*
Y0059646D01*
X0088953D01*
Y0063267D01*
X0089341D01*
Y0062171D01*
D02*
G37*
G36*
X0087109Y0063046D02*
X0087140D01*
X0087181Y0063042D01*
X0087221Y0063037D01*
X0087316Y0063019D01*
X0087424Y0062997D01*
X0087542Y0062969D01*
X0087659Y0062929D01*
X0087776Y0062875D01*
X0087893Y0062807D01*
X0088002Y0062730D01*
X0088096Y0062631D01*
X0088137Y0062577D01*
X0088178Y0062518D01*
X0088214Y0062455D01*
X0088241Y0062388D01*
X0088263Y0062311D01*
X0088281Y0062234D01*
X0088290Y0062149D01*
X0088295Y0062058D01*
Y0062054D01*
Y0062036D01*
Y0062009D01*
X0088290Y0061973D01*
X0088286Y0061928D01*
X0088277Y0061878D01*
X0088263Y0061824D01*
X0088250Y0061765D01*
X0088232Y0061702D01*
X0088209Y0061634D01*
X0088182Y0061571D01*
X0088146Y0061504D01*
X0088105Y0061436D01*
X0088060Y0061373D01*
X0088006Y0061314D01*
X0087943Y0061260D01*
X0087938Y0061256D01*
X0087925Y0061247D01*
X0087907Y0061233D01*
X0087880Y0061220D01*
X0087844Y0061197D01*
X0087799Y0061174D01*
X0087745Y0061147D01*
X0087686Y0061125D01*
X0087618Y0061098D01*
X0087542Y0061071D01*
X0087460Y0061048D01*
X0087370Y0061030D01*
X0087271Y0061012D01*
X0087167Y0060999D01*
X0087055Y0060989D01*
X0086937Y0060985D01*
X0086536D01*
Y0059646D01*
X0086139D01*
Y0063051D01*
X0087077D01*
X0087109Y0063046D01*
D02*
G37*
G36*
X0083365Y0059646D02*
X0082991D01*
Y0062072D01*
Y0062076D01*
Y0062085D01*
Y0062103D01*
Y0062121D01*
Y0062149D01*
Y0062180D01*
X0082995Y0062257D01*
Y0062343D01*
X0083000Y0062442D01*
X0083004Y0062541D01*
X0083009Y0062645D01*
X0083000Y0062636D01*
X0082977Y0062613D01*
X0082941Y0062582D01*
X0082896Y0062541D01*
X0082892Y0062537D01*
X0082878Y0062527D01*
X0082869Y0062518D01*
X0082851Y0062505D01*
X0082833Y0062487D01*
X0082806Y0062464D01*
X0082775Y0062437D01*
X0082739Y0062406D01*
X0082693Y0062370D01*
X0082639Y0062329D01*
X0082581Y0062279D01*
X0082513Y0062225D01*
X0082432Y0062162D01*
X0082346Y0062090D01*
X0082139Y0062352D01*
X0083041Y0063051D01*
X0083365D01*
Y0059646D01*
D02*
G37*
G36*
X0056680Y0061346D02*
Y0061341D01*
Y0061323D01*
Y0061292D01*
Y0061251D01*
X0056675Y0061193D01*
X0056671Y0061129D01*
X0056666Y0061048D01*
X0056662Y0060953D01*
X0056680D01*
X0056684Y0060958D01*
X0056698Y0060980D01*
X0056720Y0061012D01*
X0056756Y0061053D01*
X0056797Y0061107D01*
X0056851Y0061170D01*
X0056914Y0061242D01*
X0056986Y0061323D01*
X0057807Y0062198D01*
X0058267D01*
X0057234Y0061107D01*
X0058339Y0059645D01*
X0057870D01*
X0056973Y0060854D01*
X0056680Y0060602D01*
Y0059645D01*
X0056296D01*
Y0063267D01*
X0056680D01*
Y0061346D01*
D02*
G37*
G36*
X0052733Y0062234D02*
X0052770D01*
X0052815Y0062230D01*
X0052860Y0062221D01*
X0052914Y0062212D01*
X0053022Y0062189D01*
X0053135Y0062153D01*
X0053243Y0062103D01*
X0053288Y0062072D01*
X0053333Y0062036D01*
X0053338D01*
X0053342Y0062027D01*
X0053356Y0062013D01*
X0053369Y0061995D01*
X0053383Y0061977D01*
X0053405Y0061950D01*
X0053424Y0061914D01*
X0053446Y0061878D01*
X0053464Y0061837D01*
X0053487Y0061788D01*
X0053505Y0061734D01*
X0053518Y0061675D01*
X0053536Y0061612D01*
X0053545Y0061544D01*
X0053550Y0061468D01*
X0053554Y0061386D01*
Y0059645D01*
X0053266D01*
X0053189Y0060006D01*
X0053171D01*
Y0060002D01*
X0053162Y0059997D01*
X0053139Y0059966D01*
X0053103Y0059925D01*
X0053054Y0059876D01*
X0052995Y0059821D01*
X0052932Y0059767D01*
X0052864Y0059722D01*
X0052792Y0059682D01*
X0052783Y0059677D01*
X0052756Y0059668D01*
X0052715Y0059655D01*
X0052661Y0059641D01*
X0052594Y0059627D01*
X0052512Y0059614D01*
X0052422Y0059605D01*
X0052319Y0059600D01*
X0052282D01*
X0052255Y0059605D01*
X0052224D01*
X0052188Y0059610D01*
X0052102Y0059623D01*
X0052007Y0059650D01*
X0051908Y0059682D01*
X0051809Y0059731D01*
X0051764Y0059758D01*
X0051723Y0059794D01*
X0051719Y0059799D01*
X0051714Y0059803D01*
X0051692Y0059830D01*
X0051656Y0059876D01*
X0051615Y0059939D01*
X0051574Y0060015D01*
X0051543Y0060110D01*
X0051516Y0060223D01*
X0051511Y0060281D01*
X0051507Y0060349D01*
Y0060354D01*
Y0060358D01*
X0051511Y0060381D01*
X0051516Y0060421D01*
X0051525Y0060471D01*
X0051543Y0060530D01*
X0051570Y0060597D01*
X0051610Y0060665D01*
X0051660Y0060742D01*
X0051728Y0060814D01*
X0051764Y0060850D01*
X0051809Y0060886D01*
X0051854Y0060922D01*
X0051908Y0060953D01*
X0051967Y0060985D01*
X0052030Y0061017D01*
X0052097Y0061044D01*
X0052170Y0061071D01*
X0052251Y0061093D01*
X0052337Y0061111D01*
X0052427Y0061129D01*
X0052526Y0061143D01*
X0052630Y0061152D01*
X0052742Y0061156D01*
X0053175Y0061174D01*
Y0061332D01*
Y0061337D01*
Y0061346D01*
Y0061359D01*
Y0061382D01*
X0053171Y0061436D01*
X0053157Y0061499D01*
X0053144Y0061571D01*
X0053121Y0061643D01*
X0053090Y0061716D01*
X0053045Y0061774D01*
X0053040Y0061779D01*
X0053022Y0061797D01*
X0052991Y0061819D01*
X0052945Y0061846D01*
X0052891Y0061874D01*
X0052819Y0061896D01*
X0052733Y0061914D01*
X0052634Y0061919D01*
X0052603D01*
X0052580Y0061914D01*
X0052548D01*
X0052512Y0061910D01*
X0052472Y0061901D01*
X0052422Y0061896D01*
X0052373Y0061883D01*
X0052319Y0061869D01*
X0052197Y0061833D01*
X0052057Y0061788D01*
X0051985Y0061756D01*
X0051913Y0061720D01*
X0051795Y0062018D01*
X0051804Y0062022D01*
X0051827Y0062036D01*
X0051868Y0062054D01*
X0051917Y0062076D01*
X0051976Y0062103D01*
X0052048Y0062131D01*
X0052125Y0062158D01*
X0052206Y0062180D01*
X0052210D01*
X0052215Y0062185D01*
X0052228D01*
X0052246Y0062189D01*
X0052287Y0062198D01*
X0052346Y0062212D01*
X0052413Y0062221D01*
X0052490Y0062230D01*
X0052571Y0062234D01*
X0052657Y0062239D01*
X0052702D01*
X0052733Y0062234D01*
D02*
G37*
G36*
X0097572Y0062239D02*
X0097617Y0062234D01*
X0097667Y0062225D01*
X0097725Y0062212D01*
X0097788Y0062198D01*
X0097852Y0062180D01*
X0097924Y0062158D01*
X0097991Y0062126D01*
X0098063Y0062094D01*
X0098136Y0062054D01*
X0098203Y0062004D01*
X0098266Y0061950D01*
X0098330Y0061887D01*
X0098334Y0061883D01*
X0098343Y0061869D01*
X0098357Y0061851D01*
X0098379Y0061824D01*
X0098402Y0061788D01*
X0098429Y0061743D01*
X0098460Y0061693D01*
X0098487Y0061634D01*
X0098519Y0061567D01*
X0098546Y0061495D01*
X0098573Y0061414D01*
X0098596Y0061328D01*
X0098618Y0061238D01*
X0098632Y0061138D01*
X0098641Y0061035D01*
X0098645Y0060922D01*
Y0060913D01*
Y0060895D01*
Y0060863D01*
X0098641Y0060818D01*
X0098636Y0060769D01*
X0098627Y0060705D01*
X0098618Y0060638D01*
X0098605Y0060566D01*
X0098591Y0060489D01*
X0098569Y0060412D01*
X0098541Y0060331D01*
X0098514Y0060250D01*
X0098474Y0060169D01*
X0098433Y0060092D01*
X0098384Y0060015D01*
X0098330Y0059948D01*
X0098325Y0059943D01*
X0098316Y0059934D01*
X0098298Y0059916D01*
X0098271Y0059894D01*
X0098239Y0059866D01*
X0098203Y0059839D01*
X0098158Y0059808D01*
X0098104Y0059776D01*
X0098045Y0059740D01*
X0097982Y0059709D01*
X0097910Y0059682D01*
X0097833Y0059655D01*
X0097748Y0059632D01*
X0097662Y0059614D01*
X0097563Y0059605D01*
X0097464Y0059601D01*
X0097432D01*
X0097405Y0059605D01*
X0097378D01*
X0097342Y0059610D01*
X0097261Y0059619D01*
X0097166Y0059641D01*
X0097062Y0059668D01*
X0096959Y0059704D01*
X0096855Y0059758D01*
X0096850D01*
X0096841Y0059767D01*
X0096828Y0059776D01*
X0096810Y0059790D01*
X0096765Y0059826D01*
X0096706Y0059876D01*
X0096643Y0059943D01*
X0096575Y0060020D01*
X0096508Y0060115D01*
X0096449Y0060218D01*
Y0060223D01*
X0096444Y0060232D01*
X0096435Y0060250D01*
X0096426Y0060272D01*
X0096417Y0060299D01*
X0096404Y0060336D01*
X0096390Y0060376D01*
X0096377Y0060421D01*
X0096363Y0060471D01*
X0096350Y0060525D01*
X0096327Y0060642D01*
X0096309Y0060778D01*
X0096305Y0060922D01*
Y0060931D01*
Y0060949D01*
Y0060980D01*
X0096309Y0061026D01*
X0096314Y0061075D01*
X0096323Y0061138D01*
X0096332Y0061206D01*
X0096345Y0061278D01*
X0096359Y0061355D01*
X0096381Y0061431D01*
X0096404Y0061513D01*
X0096435Y0061594D01*
X0096471Y0061675D01*
X0096512Y0061752D01*
X0096562Y0061824D01*
X0096616Y0061892D01*
X0096620Y0061896D01*
X0096629Y0061905D01*
X0096647Y0061923D01*
X0096674Y0061946D01*
X0096706Y0061973D01*
X0096742Y0062004D01*
X0096787Y0062036D01*
X0096841Y0062067D01*
X0096900Y0062099D01*
X0096963Y0062131D01*
X0097035Y0062162D01*
X0097112Y0062189D01*
X0097198Y0062212D01*
X0097283Y0062230D01*
X0097382Y0062239D01*
X0097482Y0062243D01*
X0097531D01*
X0097572Y0062239D01*
D02*
G37*
G36*
X0095177Y0062198D02*
X0095917D01*
Y0061896D01*
X0095177D01*
Y0060394D01*
Y0060390D01*
Y0060385D01*
Y0060358D01*
X0095182Y0060313D01*
X0095191Y0060263D01*
X0095204Y0060209D01*
X0095222Y0060151D01*
X0095249Y0060092D01*
X0095285Y0060042D01*
X0095290Y0060038D01*
X0095308Y0060024D01*
X0095330Y0060002D01*
X0095367Y0059984D01*
X0095407Y0059961D01*
X0095461Y0059939D01*
X0095520Y0059925D01*
X0095587Y0059921D01*
X0095651D01*
X0095714Y0059925D01*
X0095786Y0059934D01*
X0095790D01*
X0095804Y0059939D01*
X0095818D01*
X0095840Y0059943D01*
X0095890Y0059952D01*
X0095935Y0059966D01*
Y0059668D01*
X0095930D01*
X0095921Y0059664D01*
X0095908Y0059659D01*
X0095890Y0059655D01*
X0095863Y0059646D01*
X0095831Y0059636D01*
X0095795Y0059632D01*
X0095750Y0059623D01*
X0095745D01*
X0095727Y0059619D01*
X0095705Y0059614D01*
X0095678D01*
X0095605Y0059605D01*
X0095533Y0059601D01*
X0095502D01*
X0095466Y0059605D01*
X0095416Y0059614D01*
X0095362Y0059623D01*
X0095299Y0059641D01*
X0095231Y0059664D01*
X0095164Y0059700D01*
X0095091Y0059740D01*
X0095024Y0059790D01*
X0094961Y0059853D01*
X0094906Y0059930D01*
X0094857Y0060015D01*
X0094821Y0060119D01*
X0094798Y0060241D01*
X0094794Y0060304D01*
X0094789Y0060376D01*
Y0061896D01*
X0094428D01*
Y0062081D01*
X0094794Y0062243D01*
X0094956Y0062789D01*
X0095177D01*
Y0062198D01*
D02*
G37*
G36*
X0093008Y0062239D02*
X0093053Y0062234D01*
X0093102Y0062225D01*
X0093161Y0062212D01*
X0093224Y0062198D01*
X0093287Y0062180D01*
X0093360Y0062158D01*
X0093427Y0062126D01*
X0093499Y0062094D01*
X0093572Y0062054D01*
X0093639Y0062004D01*
X0093702Y0061950D01*
X0093765Y0061887D01*
X0093770Y0061883D01*
X0093779Y0061869D01*
X0093792Y0061851D01*
X0093815Y0061824D01*
X0093838Y0061788D01*
X0093865Y0061743D01*
X0093896Y0061693D01*
X0093923Y0061634D01*
X0093955Y0061567D01*
X0093982Y0061495D01*
X0094009Y0061414D01*
X0094032Y0061328D01*
X0094054Y0061238D01*
X0094068Y0061138D01*
X0094077Y0061035D01*
X0094081Y0060922D01*
Y0060913D01*
Y0060895D01*
Y0060863D01*
X0094077Y0060818D01*
X0094072Y0060769D01*
X0094063Y0060705D01*
X0094054Y0060638D01*
X0094041Y0060566D01*
X0094027Y0060489D01*
X0094004Y0060412D01*
X0093977Y0060331D01*
X0093950Y0060250D01*
X0093910Y0060169D01*
X0093869Y0060092D01*
X0093819Y0060015D01*
X0093765Y0059948D01*
X0093761Y0059943D01*
X0093752Y0059934D01*
X0093734Y0059916D01*
X0093707Y0059894D01*
X0093675Y0059866D01*
X0093639Y0059839D01*
X0093594Y0059808D01*
X0093540Y0059776D01*
X0093481Y0059740D01*
X0093418Y0059709D01*
X0093346Y0059682D01*
X0093269Y0059655D01*
X0093184Y0059632D01*
X0093098Y0059614D01*
X0092999Y0059605D01*
X0092900Y0059601D01*
X0092868D01*
X0092841Y0059605D01*
X0092814D01*
X0092778Y0059610D01*
X0092696Y0059619D01*
X0092602Y0059641D01*
X0092498Y0059668D01*
X0092394Y0059704D01*
X0092291Y0059758D01*
X0092286D01*
X0092277Y0059767D01*
X0092264Y0059776D01*
X0092246Y0059790D01*
X0092200Y0059826D01*
X0092142Y0059876D01*
X0092079Y0059943D01*
X0092011Y0060020D01*
X0091943Y0060115D01*
X0091885Y0060218D01*
Y0060223D01*
X0091880Y0060232D01*
X0091871Y0060250D01*
X0091862Y0060272D01*
X0091853Y0060299D01*
X0091840Y0060336D01*
X0091826Y0060376D01*
X0091813Y0060421D01*
X0091799Y0060471D01*
X0091786Y0060525D01*
X0091763Y0060642D01*
X0091745Y0060778D01*
X0091740Y0060922D01*
Y0060931D01*
Y0060949D01*
Y0060980D01*
X0091745Y0061026D01*
X0091749Y0061075D01*
X0091759Y0061138D01*
X0091768Y0061206D01*
X0091781Y0061278D01*
X0091795Y0061355D01*
X0091817Y0061431D01*
X0091840Y0061513D01*
X0091871Y0061594D01*
X0091907Y0061675D01*
X0091948Y0061752D01*
X0091997Y0061824D01*
X0092052Y0061892D01*
X0092056Y0061896D01*
X0092065Y0061905D01*
X0092083Y0061923D01*
X0092110Y0061946D01*
X0092142Y0061973D01*
X0092178Y0062004D01*
X0092223Y0062036D01*
X0092277Y0062067D01*
X0092336Y0062099D01*
X0092399Y0062131D01*
X0092471Y0062162D01*
X0092548Y0062189D01*
X0092633Y0062212D01*
X0092719Y0062230D01*
X0092818Y0062239D01*
X0092918Y0062243D01*
X0092967D01*
X0093008Y0062239D01*
D02*
G37*
G36*
X0074332Y0062239D02*
X0074377Y0062234D01*
X0074427Y0062225D01*
X0074485Y0062212D01*
X0074548Y0062198D01*
X0074611Y0062180D01*
X0074684Y0062158D01*
X0074751Y0062126D01*
X0074823Y0062094D01*
X0074896Y0062054D01*
X0074963Y0062004D01*
X0075026Y0061950D01*
X0075090Y0061887D01*
X0075094Y0061883D01*
X0075103Y0061869D01*
X0075117Y0061851D01*
X0075139Y0061824D01*
X0075162Y0061788D01*
X0075189Y0061743D01*
X0075220Y0061693D01*
X0075247Y0061634D01*
X0075279Y0061567D01*
X0075306Y0061495D01*
X0075333Y0061414D01*
X0075356Y0061328D01*
X0075378Y0061238D01*
X0075392Y0061138D01*
X0075401Y0061035D01*
X0075405Y0060922D01*
Y0060913D01*
Y0060895D01*
Y0060863D01*
X0075401Y0060818D01*
X0075396Y0060769D01*
X0075387Y0060705D01*
X0075378Y0060638D01*
X0075365Y0060566D01*
X0075351Y0060489D01*
X0075328Y0060412D01*
X0075301Y0060331D01*
X0075274Y0060250D01*
X0075234Y0060169D01*
X0075193Y0060092D01*
X0075144Y0060015D01*
X0075090Y0059948D01*
X0075085Y0059943D01*
X0075076Y0059934D01*
X0075058Y0059916D01*
X0075031Y0059894D01*
X0074999Y0059866D01*
X0074963Y0059839D01*
X0074918Y0059808D01*
X0074864Y0059776D01*
X0074805Y0059740D01*
X0074742Y0059709D01*
X0074670Y0059682D01*
X0074593Y0059655D01*
X0074508Y0059632D01*
X0074422Y0059614D01*
X0074323Y0059605D01*
X0074224Y0059600D01*
X0074192D01*
X0074165Y0059605D01*
X0074138D01*
X0074102Y0059610D01*
X0074021Y0059619D01*
X0073926Y0059641D01*
X0073822Y0059668D01*
X0073719Y0059704D01*
X0073615Y0059758D01*
X0073610D01*
X0073601Y0059767D01*
X0073588Y0059776D01*
X0073570Y0059790D01*
X0073524Y0059826D01*
X0073466Y0059876D01*
X0073403Y0059943D01*
X0073335Y0060020D01*
X0073268Y0060115D01*
X0073209Y0060218D01*
Y0060223D01*
X0073204Y0060232D01*
X0073195Y0060250D01*
X0073186Y0060272D01*
X0073177Y0060299D01*
X0073164Y0060336D01*
X0073150Y0060376D01*
X0073137Y0060421D01*
X0073123Y0060471D01*
X0073110Y0060525D01*
X0073087Y0060642D01*
X0073069Y0060777D01*
X0073065Y0060922D01*
Y0060931D01*
Y0060949D01*
Y0060980D01*
X0073069Y0061026D01*
X0073074Y0061075D01*
X0073083Y0061138D01*
X0073092Y0061206D01*
X0073105Y0061278D01*
X0073119Y0061355D01*
X0073141Y0061431D01*
X0073164Y0061513D01*
X0073195Y0061594D01*
X0073231Y0061675D01*
X0073272Y0061752D01*
X0073322Y0061824D01*
X0073376Y0061892D01*
X0073380Y0061896D01*
X0073389Y0061905D01*
X0073407Y0061923D01*
X0073434Y0061946D01*
X0073466Y0061973D01*
X0073502Y0062004D01*
X0073547Y0062036D01*
X0073601Y0062067D01*
X0073660Y0062099D01*
X0073723Y0062131D01*
X0073795Y0062162D01*
X0073872Y0062189D01*
X0073958Y0062212D01*
X0074043Y0062230D01*
X0074142Y0062239D01*
X0074242Y0062243D01*
X0074291D01*
X0074332Y0062239D01*
D02*
G37*
G36*
X0068938D02*
X0068978Y0062234D01*
X0069024Y0062225D01*
X0069073Y0062216D01*
X0069132Y0062203D01*
X0069190Y0062185D01*
X0069254Y0062167D01*
X0069317Y0062140D01*
X0069380Y0062108D01*
X0069443Y0062072D01*
X0069502Y0062027D01*
X0069560Y0061982D01*
X0069614Y0061923D01*
X0069619Y0061919D01*
X0069628Y0061910D01*
X0069641Y0061892D01*
X0069660Y0061865D01*
X0069678Y0061833D01*
X0069705Y0061797D01*
X0069727Y0061752D01*
X0069754Y0061702D01*
X0069781Y0061643D01*
X0069804Y0061580D01*
X0069831Y0061513D01*
X0069849Y0061440D01*
X0069867Y0061359D01*
X0069880Y0061278D01*
X0069889Y0061188D01*
X0069894Y0061093D01*
Y0060850D01*
X0068140D01*
Y0060845D01*
Y0060832D01*
X0068144Y0060805D01*
Y0060777D01*
X0068149Y0060737D01*
X0068153Y0060696D01*
X0068162Y0060647D01*
X0068171Y0060597D01*
X0068198Y0060484D01*
X0068239Y0060372D01*
X0068293Y0060263D01*
X0068329Y0060214D01*
X0068365Y0060169D01*
X0068370Y0060164D01*
X0068374Y0060160D01*
X0068388Y0060146D01*
X0068406Y0060133D01*
X0068428Y0060115D01*
X0068455Y0060097D01*
X0068487Y0060074D01*
X0068523Y0060056D01*
X0068563Y0060033D01*
X0068609Y0060011D01*
X0068712Y0059975D01*
X0068834Y0059948D01*
X0068897Y0059943D01*
X0068969Y0059939D01*
X0069010D01*
X0069042Y0059943D01*
X0069078D01*
X0069123Y0059948D01*
X0069172Y0059952D01*
X0069226Y0059961D01*
X0069285Y0059970D01*
X0069353Y0059979D01*
X0069488Y0060011D01*
X0069637Y0060051D01*
X0069786Y0060110D01*
Y0059763D01*
X0069777Y0059758D01*
X0069750Y0059749D01*
X0069714Y0059736D01*
X0069660Y0059718D01*
X0069601Y0059695D01*
X0069538Y0059677D01*
X0069466Y0059655D01*
X0069398Y0059641D01*
X0069389D01*
X0069366Y0059636D01*
X0069326Y0059627D01*
X0069276Y0059623D01*
X0069213Y0059614D01*
X0069136Y0059605D01*
X0069051Y0059600D01*
X0068933D01*
X0068902Y0059605D01*
X0068861D01*
X0068816Y0059610D01*
X0068762Y0059619D01*
X0068699Y0059627D01*
X0068631Y0059645D01*
X0068563Y0059664D01*
X0068491Y0059686D01*
X0068415Y0059713D01*
X0068343Y0059745D01*
X0068266Y0059785D01*
X0068194Y0059830D01*
X0068126Y0059885D01*
X0068063Y0059943D01*
X0068058Y0059948D01*
X0068049Y0059961D01*
X0068031Y0059979D01*
X0068013Y0060006D01*
X0067986Y0060042D01*
X0067959Y0060083D01*
X0067932Y0060133D01*
X0067901Y0060191D01*
X0067869Y0060254D01*
X0067842Y0060326D01*
X0067815Y0060408D01*
X0067788Y0060493D01*
X0067770Y0060584D01*
X0067752Y0060683D01*
X0067743Y0060787D01*
X0067738Y0060899D01*
Y0060908D01*
Y0060926D01*
Y0060958D01*
X0067743Y0061003D01*
X0067747Y0061053D01*
X0067756Y0061116D01*
X0067765Y0061179D01*
X0067774Y0061256D01*
X0067810Y0061409D01*
X0067837Y0061490D01*
X0067865Y0061571D01*
X0067901Y0061652D01*
X0067941Y0061734D01*
X0067986Y0061806D01*
X0068040Y0061878D01*
X0068045Y0061883D01*
X0068054Y0061896D01*
X0068072Y0061914D01*
X0068094Y0061937D01*
X0068126Y0061964D01*
X0068167Y0061995D01*
X0068207Y0062027D01*
X0068257Y0062063D01*
X0068311Y0062094D01*
X0068374Y0062126D01*
X0068442Y0062158D01*
X0068514Y0062185D01*
X0068591Y0062212D01*
X0068676Y0062230D01*
X0068762Y0062239D01*
X0068857Y0062243D01*
X0068902D01*
X0068938Y0062239D01*
D02*
G37*
G36*
X0064175D02*
X0064220Y0062234D01*
X0064270Y0062225D01*
X0064329Y0062212D01*
X0064392Y0062198D01*
X0064455Y0062180D01*
X0064527Y0062158D01*
X0064595Y0062126D01*
X0064667Y0062094D01*
X0064739Y0062054D01*
X0064807Y0062004D01*
X0064870Y0061950D01*
X0064933Y0061887D01*
X0064938Y0061883D01*
X0064947Y0061869D01*
X0064960Y0061851D01*
X0064983Y0061824D01*
X0065005Y0061788D01*
X0065032Y0061743D01*
X0065064Y0061693D01*
X0065091Y0061634D01*
X0065122Y0061567D01*
X0065149Y0061495D01*
X0065176Y0061414D01*
X0065199Y0061328D01*
X0065222Y0061238D01*
X0065235Y0061138D01*
X0065244Y0061035D01*
X0065249Y0060922D01*
Y0060913D01*
Y0060895D01*
Y0060863D01*
X0065244Y0060818D01*
X0065240Y0060769D01*
X0065231Y0060705D01*
X0065222Y0060638D01*
X0065208Y0060566D01*
X0065195Y0060489D01*
X0065172Y0060412D01*
X0065145Y0060331D01*
X0065118Y0060250D01*
X0065077Y0060169D01*
X0065037Y0060092D01*
X0064987Y0060015D01*
X0064933Y0059948D01*
X0064929Y0059943D01*
X0064919Y0059934D01*
X0064901Y0059916D01*
X0064874Y0059894D01*
X0064843Y0059866D01*
X0064807Y0059839D01*
X0064762Y0059808D01*
X0064707Y0059776D01*
X0064649Y0059740D01*
X0064586Y0059709D01*
X0064513Y0059682D01*
X0064437Y0059655D01*
X0064351Y0059632D01*
X0064266Y0059614D01*
X0064166Y0059605D01*
X0064067Y0059600D01*
X0064035D01*
X0064008Y0059605D01*
X0063981D01*
X0063945Y0059610D01*
X0063864Y0059619D01*
X0063769Y0059641D01*
X0063666Y0059668D01*
X0063562Y0059704D01*
X0063458Y0059758D01*
X0063454D01*
X0063445Y0059767D01*
X0063431Y0059776D01*
X0063413Y0059790D01*
X0063368Y0059826D01*
X0063309Y0059876D01*
X0063246Y0059943D01*
X0063179Y0060020D01*
X0063111Y0060115D01*
X0063052Y0060218D01*
Y0060223D01*
X0063048Y0060232D01*
X0063039Y0060250D01*
X0063030Y0060272D01*
X0063021Y0060299D01*
X0063007Y0060336D01*
X0062994Y0060376D01*
X0062980Y0060421D01*
X0062967Y0060471D01*
X0062953Y0060525D01*
X0062931Y0060642D01*
X0062912Y0060777D01*
X0062908Y0060922D01*
Y0060931D01*
Y0060949D01*
Y0060980D01*
X0062912Y0061026D01*
X0062917Y0061075D01*
X0062926Y0061138D01*
X0062935Y0061206D01*
X0062949Y0061278D01*
X0062962Y0061355D01*
X0062985Y0061431D01*
X0063007Y0061513D01*
X0063039Y0061594D01*
X0063075Y0061675D01*
X0063115Y0061752D01*
X0063165Y0061824D01*
X0063219Y0061892D01*
X0063224Y0061896D01*
X0063233Y0061905D01*
X0063251Y0061923D01*
X0063278Y0061946D01*
X0063309Y0061973D01*
X0063345Y0062004D01*
X0063391Y0062036D01*
X0063445Y0062067D01*
X0063503Y0062099D01*
X0063566Y0062131D01*
X0063639Y0062162D01*
X0063715Y0062189D01*
X0063801Y0062212D01*
X0063887Y0062230D01*
X0063986Y0062239D01*
X0064085Y0062243D01*
X0064135D01*
X0064175Y0062239D01*
D02*
G37*
G36*
X0102371Y0063046D02*
X0102380Y0063033D01*
X0102398Y0063010D01*
X0102425Y0062978D01*
X0102452Y0062938D01*
X0102483Y0062893D01*
X0102519Y0062839D01*
X0102560Y0062780D01*
X0102601Y0062712D01*
X0102646Y0062640D01*
X0102686Y0062559D01*
X0102731Y0062478D01*
X0102772Y0062388D01*
X0102813Y0062297D01*
X0102885Y0062099D01*
Y0062094D01*
X0102894Y0062076D01*
X0102903Y0062045D01*
X0102912Y0062004D01*
X0102925Y0061955D01*
X0102943Y0061896D01*
X0102957Y0061828D01*
X0102975Y0061756D01*
X0102993Y0061671D01*
X0103006Y0061580D01*
X0103024Y0061486D01*
X0103038Y0061386D01*
X0103056Y0061174D01*
X0103065Y0060949D01*
Y0060940D01*
Y0060922D01*
Y0060890D01*
X0103060Y0060845D01*
Y0060791D01*
X0103056Y0060728D01*
X0103051Y0060656D01*
X0103042Y0060579D01*
X0103033Y0060493D01*
X0103020Y0060403D01*
X0102988Y0060214D01*
X0102943Y0060011D01*
X0102885Y0059812D01*
Y0059808D01*
X0102876Y0059790D01*
X0102867Y0059763D01*
X0102853Y0059722D01*
X0102831Y0059677D01*
X0102808Y0059623D01*
X0102781Y0059564D01*
X0102754Y0059501D01*
X0102718Y0059429D01*
X0102677Y0059357D01*
X0102592Y0059204D01*
X0102488Y0059046D01*
X0102366Y0058892D01*
X0101992D01*
X0101996Y0058897D01*
X0102005Y0058910D01*
X0102023Y0058938D01*
X0102046Y0058969D01*
X0102073Y0059010D01*
X0102104Y0059059D01*
X0102136Y0059118D01*
X0102177Y0059181D01*
X0102217Y0059249D01*
X0102258Y0059325D01*
X0102298Y0059407D01*
X0102339Y0059492D01*
X0102416Y0059673D01*
X0102488Y0059866D01*
Y0059871D01*
X0102497Y0059889D01*
X0102506Y0059921D01*
X0102515Y0059957D01*
X0102528Y0060006D01*
X0102542Y0060065D01*
X0102555Y0060128D01*
X0102573Y0060200D01*
X0102592Y0060281D01*
X0102605Y0060367D01*
X0102619Y0060457D01*
X0102632Y0060548D01*
X0102650Y0060746D01*
X0102659Y0060953D01*
Y0060958D01*
Y0060980D01*
Y0061008D01*
X0102655Y0061053D01*
Y0061102D01*
X0102650Y0061161D01*
X0102646Y0061229D01*
X0102637Y0061305D01*
X0102628Y0061386D01*
X0102619Y0061472D01*
X0102605Y0061562D01*
X0102587Y0061661D01*
X0102546Y0061855D01*
X0102488Y0062058D01*
Y0062063D01*
X0102479Y0062081D01*
X0102470Y0062112D01*
X0102456Y0062149D01*
X0102438Y0062198D01*
X0102416Y0062252D01*
X0102393Y0062315D01*
X0102362Y0062388D01*
X0102330Y0062460D01*
X0102294Y0062537D01*
X0102208Y0062703D01*
X0102104Y0062879D01*
X0101987Y0063051D01*
X0102366D01*
X0102371Y0063046D01*
D02*
G37*
G36*
X0072650Y0063046D02*
X0072641Y0063033D01*
X0072623Y0063006D01*
X0072600Y0062974D01*
X0072573Y0062929D01*
X0072541Y0062879D01*
X0072505Y0062821D01*
X0072465Y0062757D01*
X0072424Y0062685D01*
X0072383Y0062609D01*
X0072343Y0062527D01*
X0072302Y0062442D01*
X0072221Y0062257D01*
X0072149Y0062058D01*
Y0062054D01*
X0072140Y0062036D01*
X0072136Y0062004D01*
X0072122Y0061964D01*
X0072108Y0061919D01*
X0072095Y0061860D01*
X0072081Y0061792D01*
X0072068Y0061720D01*
X0072050Y0061639D01*
X0072036Y0061553D01*
X0072023Y0061463D01*
X0072009Y0061364D01*
X0071991Y0061165D01*
X0071982Y0060953D01*
Y0060949D01*
Y0060931D01*
Y0060899D01*
X0071987Y0060859D01*
Y0060809D01*
X0071991Y0060751D01*
X0071996Y0060683D01*
X0072005Y0060611D01*
X0072014Y0060530D01*
X0072023Y0060444D01*
X0072036Y0060354D01*
X0072054Y0060259D01*
X0072095Y0060065D01*
X0072154Y0059866D01*
Y0059862D01*
X0072162Y0059844D01*
X0072171Y0059812D01*
X0072185Y0059776D01*
X0072203Y0059731D01*
X0072226Y0059677D01*
X0072253Y0059614D01*
X0072280Y0059546D01*
X0072311Y0059474D01*
X0072352Y0059393D01*
X0072433Y0059231D01*
X0072537Y0059059D01*
X0072650Y0058892D01*
X0072275D01*
X0072271Y0058897D01*
X0072262Y0058910D01*
X0072244Y0058933D01*
X0072221Y0058965D01*
X0072190Y0059001D01*
X0072158Y0059046D01*
X0072122Y0059100D01*
X0072081Y0059158D01*
X0072041Y0059222D01*
X0071996Y0059294D01*
X0071955Y0059370D01*
X0071910Y0059452D01*
X0071869Y0059537D01*
X0071829Y0059627D01*
X0071752Y0059817D01*
Y0059821D01*
X0071743Y0059839D01*
X0071734Y0059871D01*
X0071725Y0059907D01*
X0071711Y0059957D01*
X0071698Y0060015D01*
X0071680Y0060083D01*
X0071666Y0060155D01*
X0071648Y0060236D01*
X0071630Y0060326D01*
X0071617Y0060417D01*
X0071603Y0060516D01*
X0071585Y0060728D01*
X0071576Y0060949D01*
Y0060958D01*
Y0060976D01*
Y0061008D01*
X0071581Y0061053D01*
Y0061107D01*
X0071585Y0061174D01*
X0071590Y0061247D01*
X0071599Y0061323D01*
X0071608Y0061409D01*
X0071621Y0061504D01*
X0071653Y0061698D01*
X0071698Y0061901D01*
X0071757Y0062103D01*
Y0062108D01*
X0071766Y0062126D01*
X0071775Y0062158D01*
X0071788Y0062194D01*
X0071811Y0062243D01*
X0071833Y0062297D01*
X0071860Y0062356D01*
X0071887Y0062424D01*
X0071924Y0062496D01*
X0071964Y0062572D01*
X0072050Y0062730D01*
X0072158Y0062893D01*
X0072275Y0063051D01*
X0072654D01*
X0072650Y0063046D01*
D02*
G37*
%LPC*%
G36*
X0217890Y0049459D02*
X0217885D01*
X0217860D01*
X0217831Y0049454D01*
X0217792Y0049450D01*
X0217744Y0049440D01*
X0217690Y0049425D01*
X0217637Y0049406D01*
X0217579Y0049382D01*
X0217520Y0049347D01*
X0217462Y0049309D01*
X0217413Y0049260D01*
X0217365Y0049197D01*
X0217326Y0049129D01*
X0217292Y0049046D01*
X0217272Y0048949D01*
X0217267Y0048842D01*
Y0048794D01*
X0217277Y0048740D01*
X0217287Y0048677D01*
X0217306Y0048604D01*
X0217336Y0048526D01*
X0217374Y0048458D01*
X0217428Y0048390D01*
X0217438Y0048385D01*
X0217457Y0048366D01*
X0217496Y0048342D01*
X0217545Y0048312D01*
X0217613Y0048283D01*
X0217695Y0048259D01*
X0217788Y0048239D01*
X0217899Y0048235D01*
X0217904D01*
X0217914D01*
X0217929D01*
X0217948Y0048239D01*
X0217997Y0048244D01*
X0218060Y0048254D01*
X0218133Y0048273D01*
X0218205Y0048303D01*
X0218273Y0048342D01*
X0218337Y0048395D01*
X0218342Y0048405D01*
X0218361Y0048424D01*
X0218380Y0048463D01*
X0218410Y0048516D01*
X0218434Y0048580D01*
X0218458Y0048657D01*
X0218478Y0048750D01*
X0218482Y0048852D01*
Y0048876D01*
X0218478Y0048910D01*
X0218473Y0048949D01*
X0218463Y0048993D01*
X0218453Y0049046D01*
X0218434Y0049100D01*
X0218410Y0049158D01*
X0218376Y0049211D01*
X0218337Y0049265D01*
X0218288Y0049318D01*
X0218230Y0049367D01*
X0218167Y0049401D01*
X0218084Y0049435D01*
X0217992Y0049454D01*
X0217890Y0049459D01*
D02*
G37*
G36*
X0220096Y0049761D02*
X0220091D01*
X0220086D01*
X0220057D01*
X0220018Y0049756D01*
X0219974Y0049746D01*
X0219921Y0049727D01*
X0219872Y0049702D01*
X0219824Y0049668D01*
X0219785Y0049624D01*
X0219780Y0049620D01*
X0219770Y0049595D01*
X0219761Y0049561D01*
X0219741Y0049508D01*
X0219727Y0049440D01*
X0219722Y0049396D01*
X0219717Y0049347D01*
X0219712Y0049294D01*
X0219707Y0049236D01*
X0219702Y0049172D01*
Y0048560D01*
X0219707Y0048512D01*
X0219717Y0048443D01*
X0219736Y0048375D01*
X0219756Y0048298D01*
X0219790Y0048225D01*
X0219834Y0048162D01*
X0219839Y0048157D01*
X0219858Y0048137D01*
X0219892Y0048113D01*
X0219931Y0048084D01*
X0219989Y0048055D01*
X0220057Y0048030D01*
X0220135Y0048011D01*
X0220222Y0048006D01*
X0220232D01*
X0220261Y0048011D01*
X0220300Y0048016D01*
X0220349Y0048030D01*
X0220402Y0048055D01*
X0220461Y0048084D01*
X0220514Y0048133D01*
X0220563Y0048196D01*
X0220567Y0048205D01*
X0220582Y0048230D01*
X0220602Y0048273D01*
X0220621Y0048337D01*
X0220640Y0048410D01*
X0220660Y0048502D01*
X0220674Y0048614D01*
X0220679Y0048735D01*
Y0048784D01*
X0220674Y0048823D01*
Y0048866D01*
X0220670Y0048915D01*
X0220665Y0048968D01*
X0220660Y0049027D01*
X0220640Y0049153D01*
X0220611Y0049284D01*
X0220572Y0049406D01*
X0220548Y0049459D01*
X0220519Y0049508D01*
Y0049513D01*
X0220509Y0049518D01*
X0220490Y0049547D01*
X0220456Y0049586D01*
X0220407Y0049634D01*
X0220349Y0049683D01*
X0220276Y0049722D01*
X0220188Y0049751D01*
X0220145Y0049756D01*
X0220096Y0049761D01*
D02*
G37*
G36*
X0218482Y0043637D02*
X0218385D01*
X0218380D01*
X0218361D01*
X0218332D01*
X0218298Y0043632D01*
X0218254D01*
X0218201Y0043627D01*
X0218147Y0043622D01*
X0218084Y0043613D01*
X0217958Y0043593D01*
X0217822Y0043559D01*
X0217700Y0043511D01*
X0217642Y0043481D01*
X0217588Y0043448D01*
X0217583D01*
X0217579Y0043438D01*
X0217545Y0043413D01*
X0217506Y0043365D01*
X0217452Y0043302D01*
X0217404Y0043224D01*
X0217365Y0043122D01*
X0217331Y0043000D01*
X0217326Y0042937D01*
X0217321Y0042864D01*
Y0042825D01*
X0217326Y0042796D01*
X0217331Y0042762D01*
X0217336Y0042718D01*
X0217350Y0042631D01*
X0217379Y0042529D01*
X0217423Y0042427D01*
X0217452Y0042378D01*
X0217486Y0042334D01*
X0217525Y0042291D01*
X0217569Y0042252D01*
X0217574D01*
X0217579Y0042242D01*
X0217593Y0042232D01*
X0217617Y0042223D01*
X0217642Y0042208D01*
X0217676Y0042194D01*
X0217715Y0042174D01*
X0217763Y0042160D01*
X0217817Y0042140D01*
X0217875Y0042121D01*
X0217943Y0042106D01*
X0218016Y0042092D01*
X0218099Y0042082D01*
X0218191Y0042072D01*
X0218283Y0042062D01*
X0218390D01*
X0218395D01*
X0218414D01*
X0218444D01*
X0218482Y0042067D01*
X0218531D01*
X0218585Y0042072D01*
X0218648Y0042077D01*
X0218711Y0042087D01*
X0218847Y0042111D01*
X0218983Y0042145D01*
X0219046Y0042164D01*
X0219110Y0042194D01*
X0219168Y0042223D01*
X0219216Y0042257D01*
X0219221Y0042262D01*
X0219226Y0042266D01*
X0219255Y0042296D01*
X0219294Y0042339D01*
X0219318Y0042373D01*
X0219338Y0042407D01*
X0219362Y0042446D01*
X0219387Y0042495D01*
X0219406Y0042544D01*
X0219425Y0042597D01*
X0219440Y0042660D01*
X0219455Y0042728D01*
X0219459Y0042796D01*
X0219464Y0042874D01*
Y0042913D01*
X0219459Y0042937D01*
X0219455Y0042971D01*
X0219450Y0043005D01*
X0219430Y0043088D01*
X0219396Y0043185D01*
X0219372Y0043229D01*
X0219348Y0043277D01*
X0219314Y0043326D01*
X0219280Y0043370D01*
X0219236Y0043409D01*
X0219187Y0043448D01*
X0219182D01*
X0219173Y0043457D01*
X0219158Y0043467D01*
X0219134Y0043477D01*
X0219105Y0043491D01*
X0219071Y0043506D01*
X0219032Y0043525D01*
X0218983Y0043545D01*
X0218930Y0043559D01*
X0218871Y0043579D01*
X0218803Y0043593D01*
X0218730Y0043608D01*
X0218653Y0043618D01*
X0218570Y0043627D01*
X0218482Y0043637D01*
D02*
G37*
G36*
X0218128Y0040488D02*
X0218123D01*
X0218108D01*
X0218089D01*
X0218065Y0040483D01*
X0218031D01*
X0217992Y0040478D01*
X0217909Y0040468D01*
X0217812Y0040444D01*
X0217710Y0040415D01*
X0217617Y0040371D01*
X0217530Y0040313D01*
X0217525D01*
X0217520Y0040303D01*
X0217496Y0040279D01*
X0217462Y0040240D01*
X0217423Y0040186D01*
X0217384Y0040113D01*
X0217350Y0040026D01*
X0217326Y0039929D01*
X0217316Y0039871D01*
Y0039778D01*
X0217321Y0039759D01*
Y0039730D01*
X0217326Y0039696D01*
X0217345Y0039623D01*
X0217370Y0039540D01*
X0217408Y0039448D01*
X0217462Y0039360D01*
X0217496Y0039321D01*
X0217535Y0039282D01*
X0217545Y0039273D01*
X0217559Y0039263D01*
X0217574Y0039253D01*
X0217622Y0039219D01*
X0217690Y0039180D01*
X0217773Y0039141D01*
X0217875Y0039103D01*
X0217992Y0039074D01*
X0218128Y0039054D01*
Y0040488D01*
D02*
G37*
G36*
X0217914Y0037557D02*
X0217904D01*
X0217880D01*
X0217846D01*
X0217797Y0037552D01*
X0217734Y0037547D01*
X0217666Y0037538D01*
X0217588Y0037528D01*
X0217511Y0037513D01*
X0217423Y0037494D01*
X0217331Y0037470D01*
X0217243Y0037440D01*
X0217151Y0037407D01*
X0217063Y0037363D01*
X0216981Y0037314D01*
X0216903Y0037261D01*
X0216830Y0037198D01*
X0216825Y0037193D01*
X0216815Y0037183D01*
X0216796Y0037159D01*
X0216772Y0037130D01*
X0216747Y0037091D01*
X0216714Y0037047D01*
X0216680Y0036993D01*
X0216645Y0036930D01*
X0216611Y0036857D01*
X0216582Y0036779D01*
X0216548Y0036692D01*
X0216524Y0036595D01*
X0216500Y0036493D01*
X0216480Y0036376D01*
X0216471Y0036259D01*
X0216466Y0036128D01*
Y0035506D01*
X0219396D01*
Y0036060D01*
X0219391Y0036099D01*
Y0036153D01*
X0219387Y0036216D01*
X0219377Y0036289D01*
X0219367Y0036371D01*
X0219348Y0036454D01*
X0219328Y0036546D01*
X0219304Y0036643D01*
X0219275Y0036736D01*
X0219236Y0036833D01*
X0219197Y0036925D01*
X0219144Y0037013D01*
X0219090Y0037095D01*
X0219022Y0037173D01*
X0219017Y0037178D01*
X0219003Y0037188D01*
X0218983Y0037207D01*
X0218954Y0037231D01*
X0218915Y0037261D01*
X0218866Y0037295D01*
X0218808Y0037329D01*
X0218745Y0037368D01*
X0218667Y0037402D01*
X0218585Y0037436D01*
X0218497Y0037470D01*
X0218395Y0037499D01*
X0218288Y0037523D01*
X0218172Y0037543D01*
X0218045Y0037552D01*
X0217914Y0037557D01*
D02*
G37*
G36*
X0218128Y0029830D02*
X0218123D01*
X0218108D01*
X0218089D01*
X0218065Y0029825D01*
X0218031D01*
X0217992Y0029820D01*
X0217909Y0029810D01*
X0217812Y0029786D01*
X0217710Y0029757D01*
X0217617Y0029713D01*
X0217530Y0029655D01*
X0217525D01*
X0217520Y0029645D01*
X0217496Y0029621D01*
X0217462Y0029582D01*
X0217423Y0029528D01*
X0217384Y0029456D01*
X0217350Y0029368D01*
X0217326Y0029271D01*
X0217316Y0029212D01*
Y0029120D01*
X0217321Y0029101D01*
Y0029072D01*
X0217326Y0029038D01*
X0217345Y0028965D01*
X0217370Y0028882D01*
X0217408Y0028790D01*
X0217462Y0028702D01*
X0217496Y0028663D01*
X0217535Y0028624D01*
X0217545Y0028615D01*
X0217559Y0028605D01*
X0217574Y0028595D01*
X0217622Y0028561D01*
X0217690Y0028522D01*
X0217773Y0028484D01*
X0217875Y0028445D01*
X0217992Y0028416D01*
X0218128Y0028396D01*
Y0029830D01*
D02*
G37*
G36*
X0218487Y0023026D02*
X0218390D01*
X0218385D01*
X0218366D01*
X0218342D01*
X0218303Y0023021D01*
X0218259D01*
X0218210Y0023016D01*
X0218152Y0023006D01*
X0218094Y0023001D01*
X0217963Y0022972D01*
X0217831Y0022933D01*
X0217705Y0022885D01*
X0217647Y0022851D01*
X0217593Y0022812D01*
X0217588D01*
X0217583Y0022802D01*
X0217569Y0022793D01*
X0217549Y0022773D01*
X0217530Y0022749D01*
X0217506Y0022724D01*
X0217457Y0022656D01*
X0217408Y0022569D01*
X0217365Y0022462D01*
X0217331Y0022336D01*
X0217326Y0022263D01*
X0217321Y0022190D01*
Y0022151D01*
X0217326Y0022122D01*
X0217331Y0022088D01*
X0217336Y0022049D01*
X0217355Y0021961D01*
X0217389Y0021859D01*
X0217438Y0021757D01*
X0217467Y0021709D01*
X0217501Y0021660D01*
X0217545Y0021616D01*
X0217593Y0021573D01*
X0217598D01*
X0217608Y0021563D01*
X0217622Y0021553D01*
X0217642Y0021539D01*
X0217671Y0021524D01*
X0217705Y0021509D01*
X0217744Y0021490D01*
X0217792Y0021471D01*
X0217846Y0021451D01*
X0217904Y0021432D01*
X0217972Y0021417D01*
X0218040Y0021403D01*
X0218118Y0021388D01*
X0218205Y0021378D01*
X0218293Y0021373D01*
X0218390Y0021369D01*
X0218395D01*
X0218414D01*
X0218439D01*
X0218478Y0021373D01*
X0218521D01*
X0218570Y0021378D01*
X0218628Y0021388D01*
X0218687Y0021393D01*
X0218818Y0021422D01*
X0218949Y0021456D01*
X0219080Y0021509D01*
X0219139Y0021539D01*
X0219192Y0021577D01*
X0219197Y0021582D01*
X0219202Y0021587D01*
X0219216Y0021602D01*
X0219236Y0021616D01*
X0219280Y0021665D01*
X0219328Y0021733D01*
X0219377Y0021821D01*
X0219421Y0021927D01*
X0219455Y0022049D01*
X0219459Y0022122D01*
X0219464Y0022195D01*
Y0022234D01*
X0219459Y0022263D01*
X0219455Y0022297D01*
X0219450Y0022336D01*
X0219430Y0022423D01*
X0219396Y0022525D01*
X0219348Y0022627D01*
X0219318Y0022676D01*
X0219280Y0022724D01*
X0219241Y0022773D01*
X0219192Y0022812D01*
X0219187Y0022817D01*
X0219178Y0022822D01*
X0219163Y0022831D01*
X0219144Y0022846D01*
X0219114Y0022861D01*
X0219080Y0022880D01*
X0219037Y0022899D01*
X0218988Y0022919D01*
X0218934Y0022938D01*
X0218876Y0022958D01*
X0218813Y0022977D01*
X0218740Y0022992D01*
X0218662Y0023006D01*
X0218575Y0023016D01*
X0218487Y0023026D01*
D02*
G37*
G36*
X0217224Y0010633D02*
X0217161D01*
X0217156D01*
X0217146D01*
X0217127D01*
X0217102Y0010628D01*
X0217073D01*
X0217034Y0010623D01*
X0216956Y0010608D01*
X0216874Y0010579D01*
X0216786Y0010540D01*
X0216704Y0010492D01*
X0216670Y0010458D01*
X0216636Y0010419D01*
X0216631Y0010409D01*
X0216621Y0010395D01*
X0216611Y0010380D01*
X0216597Y0010356D01*
X0216582Y0010327D01*
X0216568Y0010293D01*
X0216553Y0010254D01*
X0216539Y0010210D01*
X0216524Y0010157D01*
X0216509Y0010103D01*
X0216495Y0010040D01*
X0216485Y0009972D01*
X0216475Y0009899D01*
X0216471Y0009821D01*
Y0009180D01*
X0217875D01*
Y0009806D01*
X0217870Y0009836D01*
Y0009875D01*
X0217865Y0009918D01*
X0217851Y0010016D01*
X0217831Y0010122D01*
X0217802Y0010234D01*
X0217758Y0010336D01*
X0217729Y0010380D01*
X0217700Y0010424D01*
Y0010429D01*
X0217690Y0010434D01*
X0217666Y0010458D01*
X0217622Y0010492D01*
X0217564Y0010531D01*
X0217491Y0010565D01*
X0217399Y0010599D01*
X0217287Y0010623D01*
X0217224Y0010633D01*
D02*
G37*
G36*
X0218215Y0007216D02*
X0217083Y0006793D01*
X0217078D01*
X0217073Y0006788D01*
X0217044Y0006779D01*
X0216995Y0006764D01*
X0216932Y0006740D01*
X0216859Y0006716D01*
X0216767Y0006686D01*
X0216665Y0006652D01*
X0216553Y0006618D01*
X0216558D01*
X0216563D01*
X0216577Y0006613D01*
X0216597Y0006609D01*
X0216645Y0006594D01*
X0216709Y0006579D01*
X0216786Y0006555D01*
X0216879Y0006531D01*
X0216976Y0006497D01*
X0217083Y0006463D01*
X0218215Y0006030D01*
Y0007216D01*
D02*
G37*
G36*
X0163628Y0054165D02*
X0163623D01*
X0163608D01*
X0163589D01*
X0163565Y0054160D01*
X0163531D01*
X0163492Y0054155D01*
X0163409Y0054145D01*
X0163312Y0054121D01*
X0163210Y0054092D01*
X0163117Y0054048D01*
X0163030Y0053990D01*
X0163025D01*
X0163020Y0053980D01*
X0162996Y0053956D01*
X0162962Y0053917D01*
X0162923Y0053864D01*
X0162884Y0053791D01*
X0162850Y0053703D01*
X0162826Y0053606D01*
X0162816Y0053548D01*
Y0053455D01*
X0162821Y0053436D01*
Y0053407D01*
X0162826Y0053373D01*
X0162845Y0053300D01*
X0162870Y0053217D01*
X0162908Y0053125D01*
X0162962Y0053037D01*
X0162996Y0052998D01*
X0163035Y0052960D01*
X0163045Y0052950D01*
X0163059Y0052940D01*
X0163074Y0052930D01*
X0163122Y0052896D01*
X0163190Y0052857D01*
X0163273Y0052819D01*
X0163375Y0052780D01*
X0163492Y0052750D01*
X0163628Y0052731D01*
Y0054165D01*
D02*
G37*
G36*
X0163390Y0051137D02*
X0163385D01*
X0163360D01*
X0163331Y0051132D01*
X0163292Y0051127D01*
X0163244Y0051118D01*
X0163190Y0051103D01*
X0163137Y0051083D01*
X0163079Y0051059D01*
X0163020Y0051025D01*
X0162962Y0050986D01*
X0162913Y0050938D01*
X0162865Y0050875D01*
X0162826Y0050806D01*
X0162792Y0050724D01*
X0162772Y0050627D01*
X0162768Y0050520D01*
Y0050471D01*
X0162777Y0050418D01*
X0162787Y0050354D01*
X0162806Y0050282D01*
X0162836Y0050204D01*
X0162874Y0050136D01*
X0162928Y0050068D01*
X0162938Y0050063D01*
X0162957Y0050043D01*
X0162996Y0050019D01*
X0163045Y0049990D01*
X0163113Y0049961D01*
X0163195Y0049937D01*
X0163287Y0049917D01*
X0163399Y0049912D01*
X0163404D01*
X0163414D01*
X0163428D01*
X0163448Y0049917D01*
X0163496Y0049922D01*
X0163560Y0049932D01*
X0163633Y0049951D01*
X0163706Y0049980D01*
X0163774Y0050019D01*
X0163837Y0050073D01*
X0163842Y0050082D01*
X0163861Y0050102D01*
X0163881Y0050141D01*
X0163910Y0050194D01*
X0163934Y0050257D01*
X0163958Y0050335D01*
X0163978Y0050427D01*
X0163982Y0050529D01*
Y0050554D01*
X0163978Y0050588D01*
X0163973Y0050627D01*
X0163963Y0050670D01*
X0163953Y0050724D01*
X0163934Y0050777D01*
X0163910Y0050836D01*
X0163876Y0050889D01*
X0163837Y0050943D01*
X0163788Y0050996D01*
X0163730Y0051045D01*
X0163667Y0051079D01*
X0163584Y0051113D01*
X0163492Y0051132D01*
X0163390Y0051137D01*
D02*
G37*
G36*
X0165596Y0051438D02*
X0165591D01*
X0165586D01*
X0165557D01*
X0165518Y0051433D01*
X0165474Y0051424D01*
X0165421Y0051404D01*
X0165373Y0051380D01*
X0165324Y0051346D01*
X0165285Y0051302D01*
X0165280Y0051297D01*
X0165270Y0051273D01*
X0165261Y0051239D01*
X0165241Y0051186D01*
X0165227Y0051118D01*
X0165222Y0051074D01*
X0165217Y0051025D01*
X0165212Y0050972D01*
X0165207Y0050913D01*
X0165202Y0050850D01*
Y0050238D01*
X0165207Y0050189D01*
X0165217Y0050121D01*
X0165236Y0050053D01*
X0165256Y0049975D01*
X0165290Y0049903D01*
X0165334Y0049839D01*
X0165339Y0049834D01*
X0165358Y0049815D01*
X0165392Y0049791D01*
X0165431Y0049762D01*
X0165489Y0049733D01*
X0165557Y0049708D01*
X0165635Y0049689D01*
X0165722Y0049684D01*
X0165732D01*
X0165761Y0049689D01*
X0165800Y0049694D01*
X0165849Y0049708D01*
X0165902Y0049733D01*
X0165961Y0049762D01*
X0166014Y0049810D01*
X0166063Y0049873D01*
X0166068Y0049883D01*
X0166082Y0049907D01*
X0166102Y0049951D01*
X0166121Y0050014D01*
X0166140Y0050087D01*
X0166160Y0050180D01*
X0166174Y0050291D01*
X0166179Y0050413D01*
Y0050462D01*
X0166174Y0050500D01*
Y0050544D01*
X0166170Y0050593D01*
X0166165Y0050646D01*
X0166160Y0050704D01*
X0166140Y0050831D01*
X0166111Y0050962D01*
X0166072Y0051083D01*
X0166048Y0051137D01*
X0166019Y0051186D01*
Y0051191D01*
X0166009Y0051195D01*
X0165990Y0051224D01*
X0165956Y0051263D01*
X0165907Y0051312D01*
X0165849Y0051361D01*
X0165776Y0051399D01*
X0165688Y0051429D01*
X0165645Y0051433D01*
X0165596Y0051438D01*
D02*
G37*
G36*
X0163390Y0048323D02*
X0163385D01*
X0163360D01*
X0163331Y0048318D01*
X0163292Y0048313D01*
X0163244Y0048304D01*
X0163190Y0048289D01*
X0163137Y0048270D01*
X0163079Y0048245D01*
X0163020Y0048211D01*
X0162962Y0048172D01*
X0162913Y0048124D01*
X0162865Y0048061D01*
X0162826Y0047993D01*
X0162792Y0047910D01*
X0162772Y0047813D01*
X0162768Y0047706D01*
Y0047657D01*
X0162777Y0047604D01*
X0162787Y0047541D01*
X0162806Y0047468D01*
X0162836Y0047390D01*
X0162874Y0047322D01*
X0162928Y0047254D01*
X0162938Y0047249D01*
X0162957Y0047230D01*
X0162996Y0047205D01*
X0163045Y0047176D01*
X0163113Y0047147D01*
X0163195Y0047123D01*
X0163287Y0047103D01*
X0163399Y0047098D01*
X0163404D01*
X0163414D01*
X0163428D01*
X0163448Y0047103D01*
X0163496Y0047108D01*
X0163560Y0047118D01*
X0163633Y0047137D01*
X0163706Y0047166D01*
X0163774Y0047205D01*
X0163837Y0047259D01*
X0163842Y0047268D01*
X0163861Y0047288D01*
X0163881Y0047327D01*
X0163910Y0047380D01*
X0163934Y0047443D01*
X0163958Y0047521D01*
X0163978Y0047613D01*
X0163982Y0047716D01*
Y0047740D01*
X0163978Y0047774D01*
X0163973Y0047813D01*
X0163963Y0047857D01*
X0163953Y0047910D01*
X0163934Y0047963D01*
X0163910Y0048022D01*
X0163876Y0048075D01*
X0163837Y0048129D01*
X0163788Y0048182D01*
X0163730Y0048231D01*
X0163667Y0048265D01*
X0163584Y0048299D01*
X0163492Y0048318D01*
X0163390Y0048323D01*
D02*
G37*
G36*
X0165596Y0048624D02*
X0165591D01*
X0165586D01*
X0165557D01*
X0165518Y0048619D01*
X0165474Y0048610D01*
X0165421Y0048590D01*
X0165373Y0048566D01*
X0165324Y0048532D01*
X0165285Y0048488D01*
X0165280Y0048483D01*
X0165270Y0048459D01*
X0165261Y0048425D01*
X0165241Y0048372D01*
X0165227Y0048304D01*
X0165222Y0048260D01*
X0165217Y0048211D01*
X0165212Y0048158D01*
X0165207Y0048099D01*
X0165202Y0048036D01*
Y0047424D01*
X0165207Y0047375D01*
X0165217Y0047307D01*
X0165236Y0047239D01*
X0165256Y0047161D01*
X0165290Y0047089D01*
X0165334Y0047025D01*
X0165339Y0047021D01*
X0165358Y0047001D01*
X0165392Y0046977D01*
X0165431Y0046948D01*
X0165489Y0046918D01*
X0165557Y0046894D01*
X0165635Y0046875D01*
X0165722Y0046870D01*
X0165732D01*
X0165761Y0046875D01*
X0165800Y0046880D01*
X0165849Y0046894D01*
X0165902Y0046918D01*
X0165961Y0046948D01*
X0166014Y0046996D01*
X0166063Y0047060D01*
X0166068Y0047069D01*
X0166082Y0047093D01*
X0166102Y0047137D01*
X0166121Y0047200D01*
X0166140Y0047273D01*
X0166160Y0047366D01*
X0166174Y0047477D01*
X0166179Y0047599D01*
Y0047648D01*
X0166174Y0047686D01*
Y0047730D01*
X0166170Y0047779D01*
X0166165Y0047832D01*
X0166160Y0047890D01*
X0166140Y0048017D01*
X0166111Y0048148D01*
X0166072Y0048270D01*
X0166048Y0048323D01*
X0166019Y0048372D01*
Y0048377D01*
X0166009Y0048381D01*
X0165990Y0048410D01*
X0165956Y0048449D01*
X0165907Y0048498D01*
X0165849Y0048547D01*
X0165776Y0048586D01*
X0165688Y0048615D01*
X0165645Y0048619D01*
X0165596Y0048624D01*
D02*
G37*
G36*
X0163628Y0045655D02*
X0163623D01*
X0163608D01*
X0163589D01*
X0163565Y0045650D01*
X0163531D01*
X0163492Y0045645D01*
X0163409Y0045636D01*
X0163312Y0045611D01*
X0163210Y0045582D01*
X0163117Y0045538D01*
X0163030Y0045480D01*
X0163025D01*
X0163020Y0045470D01*
X0162996Y0045446D01*
X0162962Y0045407D01*
X0162923Y0045354D01*
X0162884Y0045281D01*
X0162850Y0045193D01*
X0162826Y0045096D01*
X0162816Y0045038D01*
Y0044945D01*
X0162821Y0044926D01*
Y0044897D01*
X0162826Y0044863D01*
X0162845Y0044790D01*
X0162870Y0044707D01*
X0162908Y0044615D01*
X0162962Y0044527D01*
X0162996Y0044488D01*
X0163035Y0044450D01*
X0163045Y0044440D01*
X0163059Y0044430D01*
X0163074Y0044420D01*
X0163122Y0044387D01*
X0163190Y0044348D01*
X0163273Y0044309D01*
X0163375Y0044270D01*
X0163492Y0044241D01*
X0163628Y0044221D01*
Y0045655D01*
D02*
G37*
G36*
X0163715Y0031337D02*
X0162583Y0030915D01*
X0162578D01*
X0162573Y0030910D01*
X0162544Y0030900D01*
X0162495Y0030885D01*
X0162432Y0030861D01*
X0162359Y0030837D01*
X0162267Y0030808D01*
X0162165Y0030774D01*
X0162053Y0030740D01*
X0162058D01*
X0162063D01*
X0162077Y0030735D01*
X0162097Y0030730D01*
X0162145Y0030715D01*
X0162209Y0030701D01*
X0162286Y0030676D01*
X0162379Y0030652D01*
X0162476Y0030618D01*
X0162583Y0030584D01*
X0163715Y0030152D01*
Y0031337D01*
D02*
G37*
G36*
X0162724Y0018133D02*
X0162661D01*
X0162656D01*
X0162646D01*
X0162627D01*
X0162602Y0018128D01*
X0162573D01*
X0162534Y0018123D01*
X0162457Y0018108D01*
X0162374Y0018079D01*
X0162286Y0018040D01*
X0162204Y0017992D01*
X0162170Y0017958D01*
X0162136Y0017919D01*
X0162131Y0017909D01*
X0162121Y0017895D01*
X0162111Y0017880D01*
X0162097Y0017856D01*
X0162082Y0017827D01*
X0162068Y0017793D01*
X0162053Y0017754D01*
X0162039Y0017710D01*
X0162024Y0017657D01*
X0162009Y0017603D01*
X0161995Y0017540D01*
X0161985Y0017472D01*
X0161975Y0017399D01*
X0161970Y0017321D01*
Y0016680D01*
X0163375D01*
Y0017307D01*
X0163370Y0017336D01*
Y0017375D01*
X0163365Y0017418D01*
X0163351Y0017515D01*
X0163331Y0017622D01*
X0163302Y0017734D01*
X0163258Y0017836D01*
X0163229Y0017880D01*
X0163200Y0017924D01*
Y0017929D01*
X0163190Y0017933D01*
X0163166Y0017958D01*
X0163122Y0017992D01*
X0163064Y0018031D01*
X0162991Y0018065D01*
X0162899Y0018099D01*
X0162787Y0018123D01*
X0162724Y0018133D01*
D02*
G37*
G36*
X0163715Y0014716D02*
X0162583Y0014293D01*
X0162578D01*
X0162573Y0014288D01*
X0162544Y0014279D01*
X0162495Y0014264D01*
X0162432Y0014240D01*
X0162359Y0014216D01*
X0162267Y0014186D01*
X0162165Y0014152D01*
X0162053Y0014118D01*
X0162058D01*
X0162063D01*
X0162077Y0014114D01*
X0162097Y0014109D01*
X0162145Y0014094D01*
X0162209Y0014080D01*
X0162286Y0014055D01*
X0162379Y0014031D01*
X0162476Y0013997D01*
X0162583Y0013963D01*
X0163715Y0013530D01*
Y0014716D01*
D02*
G37*
G36*
X0049906Y0061914D02*
X0049870D01*
X0049843Y0061910D01*
X0049811D01*
X0049775Y0061905D01*
X0049689Y0061887D01*
X0049599Y0061860D01*
X0049504Y0061824D01*
X0049419Y0061770D01*
X0049378Y0061734D01*
X0049342Y0061698D01*
Y0061693D01*
X0049333Y0061689D01*
X0049324Y0061675D01*
X0049315Y0061657D01*
X0049301Y0061634D01*
X0049288Y0061603D01*
X0049270Y0061571D01*
X0049252Y0061531D01*
X0049238Y0061486D01*
X0049220Y0061436D01*
X0049207Y0061377D01*
X0049193Y0061314D01*
X0049180Y0061247D01*
X0049171Y0061174D01*
X0049166Y0061093D01*
X0049161Y0061008D01*
Y0060922D01*
Y0060917D01*
Y0060899D01*
Y0060872D01*
X0049166Y0060836D01*
Y0060791D01*
X0049171Y0060742D01*
X0049175Y0060683D01*
X0049184Y0060624D01*
X0049207Y0060498D01*
X0049238Y0060372D01*
X0049256Y0060313D01*
X0049283Y0060254D01*
X0049310Y0060200D01*
X0049342Y0060155D01*
X0049346Y0060151D01*
X0049351Y0060146D01*
X0049378Y0060119D01*
X0049419Y0060083D01*
X0049450Y0060061D01*
X0049482Y0060042D01*
X0049518Y0060020D01*
X0049563Y0059997D01*
X0049608Y0059979D01*
X0049658Y0059961D01*
X0049716Y0059948D01*
X0049779Y0059934D01*
X0049843Y0059930D01*
X0049915Y0059925D01*
X0049946D01*
X0049969Y0059930D01*
X0049996Y0059934D01*
X0050032Y0059939D01*
X0050104Y0059957D01*
X0050190Y0059988D01*
X0050230Y0060011D01*
X0050275Y0060038D01*
X0050316Y0060070D01*
X0050357Y0060106D01*
X0050397Y0060146D01*
X0050433Y0060191D01*
X0050438Y0060196D01*
X0050442Y0060205D01*
X0050451Y0060218D01*
X0050465Y0060241D01*
X0050478Y0060268D01*
X0050492Y0060299D01*
X0050510Y0060340D01*
X0050528Y0060385D01*
X0050546Y0060435D01*
X0050564Y0060489D01*
X0050578Y0060548D01*
X0050591Y0060615D01*
X0050605Y0060683D01*
X0050614Y0060760D01*
X0050623Y0060841D01*
Y0060926D01*
Y0060931D01*
Y0060949D01*
Y0060971D01*
X0050618Y0061003D01*
Y0061044D01*
X0050614Y0061093D01*
X0050609Y0061143D01*
X0050600Y0061197D01*
X0050578Y0061314D01*
X0050542Y0061436D01*
X0050497Y0061553D01*
X0050465Y0061607D01*
X0050433Y0061657D01*
Y0061661D01*
X0050424Y0061666D01*
X0050415Y0061680D01*
X0050397Y0061698D01*
X0050357Y0061738D01*
X0050298Y0061788D01*
X0050221Y0061833D01*
X0050131Y0061874D01*
X0050081Y0061892D01*
X0050027Y0061905D01*
X0049969Y0061910D01*
X0049906Y0061914D01*
D02*
G37*
G36*
X0087063Y0062708D02*
X0086536D01*
Y0061323D01*
X0086942D01*
X0086978Y0061328D01*
X0087023D01*
X0087068Y0061332D01*
X0087127Y0061337D01*
X0087185Y0061346D01*
X0087307Y0061364D01*
X0087433Y0061395D01*
X0087551Y0061436D01*
X0087605Y0061463D01*
X0087650Y0061490D01*
X0087654D01*
X0087659Y0061499D01*
X0087686Y0061522D01*
X0087726Y0061562D01*
X0087772Y0061621D01*
X0087812Y0061698D01*
X0087835Y0061743D01*
X0087853Y0061792D01*
X0087866Y0061846D01*
X0087880Y0061905D01*
X0087884Y0061968D01*
X0087889Y0062036D01*
Y0062040D01*
Y0062049D01*
Y0062067D01*
X0087884Y0062090D01*
Y0062121D01*
X0087875Y0062153D01*
X0087862Y0062225D01*
X0087835Y0062306D01*
X0087794Y0062392D01*
X0087772Y0062433D01*
X0087740Y0062473D01*
X0087708Y0062509D01*
X0087668Y0062541D01*
X0087663D01*
X0087659Y0062550D01*
X0087645Y0062555D01*
X0087627Y0062568D01*
X0087600Y0062582D01*
X0087573Y0062595D01*
X0087537Y0062609D01*
X0087501Y0062627D01*
X0087451Y0062640D01*
X0087402Y0062654D01*
X0087348Y0062667D01*
X0087284Y0062681D01*
X0087217Y0062694D01*
X0087140Y0062699D01*
X0087063Y0062708D01*
D02*
G37*
G36*
X0053166Y0060899D02*
X0052779Y0060881D01*
X0052760D01*
X0052733Y0060877D01*
X0052702D01*
X0052666Y0060872D01*
X0052621Y0060868D01*
X0052522Y0060859D01*
X0052413Y0060836D01*
X0052305Y0060814D01*
X0052201Y0060777D01*
X0052156Y0060760D01*
X0052116Y0060737D01*
X0052106Y0060732D01*
X0052084Y0060714D01*
X0052052Y0060683D01*
X0052016Y0060642D01*
X0051976Y0060584D01*
X0051944Y0060520D01*
X0051922Y0060439D01*
X0051917Y0060394D01*
X0051913Y0060345D01*
Y0060336D01*
Y0060308D01*
X0051922Y0060272D01*
X0051931Y0060227D01*
X0051944Y0060178D01*
X0051967Y0060124D01*
X0051998Y0060074D01*
X0052039Y0060029D01*
X0052043Y0060024D01*
X0052061Y0060011D01*
X0052093Y0059993D01*
X0052129Y0059975D01*
X0052183Y0059957D01*
X0052242Y0059939D01*
X0052314Y0059925D01*
X0052395Y0059921D01*
X0052431D01*
X0052454Y0059925D01*
X0052485D01*
X0052522Y0059930D01*
X0052603Y0059943D01*
X0052693Y0059970D01*
X0052788Y0060002D01*
X0052878Y0060051D01*
X0052918Y0060079D01*
X0052959Y0060115D01*
X0052963Y0060119D01*
X0052968Y0060124D01*
X0052977Y0060137D01*
X0052991Y0060151D01*
X0053027Y0060196D01*
X0053063Y0060259D01*
X0053099Y0060336D01*
X0053135Y0060430D01*
X0053157Y0060543D01*
X0053166Y0060606D01*
Y0060669D01*
Y0060899D01*
D02*
G37*
G36*
X0097468Y0061914D02*
X0097432D01*
X0097405Y0061910D01*
X0097373Y0061905D01*
X0097337Y0061901D01*
X0097256Y0061883D01*
X0097161Y0061851D01*
X0097067Y0061806D01*
X0097022Y0061779D01*
X0096977Y0061747D01*
X0096936Y0061707D01*
X0096895Y0061661D01*
Y0061657D01*
X0096886Y0061648D01*
X0096877Y0061634D01*
X0096864Y0061616D01*
X0096850Y0061589D01*
X0096837Y0061558D01*
X0096819Y0061522D01*
X0096801Y0061477D01*
X0096783Y0061427D01*
X0096765Y0061373D01*
X0096751Y0061310D01*
X0096737Y0061247D01*
X0096724Y0061174D01*
X0096715Y0061093D01*
X0096710Y0061012D01*
X0096706Y0060922D01*
Y0060917D01*
Y0060899D01*
Y0060877D01*
X0096710Y0060841D01*
Y0060800D01*
X0096715Y0060755D01*
X0096724Y0060701D01*
X0096728Y0060647D01*
X0096755Y0060525D01*
X0096787Y0060403D01*
X0096837Y0060281D01*
X0096864Y0060227D01*
X0096900Y0060178D01*
X0096904Y0060173D01*
X0096909Y0060169D01*
X0096922Y0060155D01*
X0096936Y0060137D01*
X0096981Y0060097D01*
X0097044Y0060051D01*
X0097125Y0060006D01*
X0097225Y0059966D01*
X0097337Y0059934D01*
X0097405Y0059930D01*
X0097473Y0059925D01*
X0097509D01*
X0097536Y0059930D01*
X0097567Y0059934D01*
X0097603Y0059939D01*
X0097685Y0059957D01*
X0097779Y0059988D01*
X0097874Y0060033D01*
X0097919Y0060061D01*
X0097964Y0060097D01*
X0098009Y0060133D01*
X0098045Y0060178D01*
X0098050Y0060182D01*
X0098054Y0060191D01*
X0098063Y0060205D01*
X0098077Y0060223D01*
X0098090Y0060250D01*
X0098109Y0060281D01*
X0098127Y0060322D01*
X0098145Y0060367D01*
X0098163Y0060417D01*
X0098181Y0060471D01*
X0098199Y0060530D01*
X0098212Y0060597D01*
X0098226Y0060669D01*
X0098235Y0060751D01*
X0098244Y0060832D01*
Y0060922D01*
Y0060926D01*
Y0060944D01*
Y0060967D01*
X0098239Y0061003D01*
Y0061044D01*
X0098235Y0061089D01*
X0098226Y0061143D01*
X0098221Y0061197D01*
X0098194Y0061319D01*
X0098158Y0061440D01*
X0098113Y0061558D01*
X0098081Y0061612D01*
X0098045Y0061661D01*
Y0061666D01*
X0098036Y0061671D01*
X0098027Y0061684D01*
X0098009Y0061702D01*
X0097987Y0061720D01*
X0097964Y0061743D01*
X0097901Y0061788D01*
X0097820Y0061833D01*
X0097721Y0061874D01*
X0097603Y0061905D01*
X0097536Y0061910D01*
X0097468Y0061914D01*
D02*
G37*
G36*
X0092904D02*
X0092868D01*
X0092841Y0061910D01*
X0092809Y0061905D01*
X0092773Y0061901D01*
X0092692Y0061883D01*
X0092597Y0061851D01*
X0092503Y0061806D01*
X0092457Y0061779D01*
X0092412Y0061747D01*
X0092372Y0061707D01*
X0092331Y0061661D01*
Y0061657D01*
X0092322Y0061648D01*
X0092313Y0061634D01*
X0092300Y0061616D01*
X0092286Y0061589D01*
X0092273Y0061558D01*
X0092255Y0061522D01*
X0092237Y0061477D01*
X0092219Y0061427D01*
X0092200Y0061373D01*
X0092187Y0061310D01*
X0092173Y0061247D01*
X0092160Y0061174D01*
X0092151Y0061093D01*
X0092146Y0061012D01*
X0092142Y0060922D01*
Y0060917D01*
Y0060899D01*
Y0060877D01*
X0092146Y0060841D01*
Y0060800D01*
X0092151Y0060755D01*
X0092160Y0060701D01*
X0092164Y0060647D01*
X0092191Y0060525D01*
X0092223Y0060403D01*
X0092273Y0060281D01*
X0092300Y0060227D01*
X0092336Y0060178D01*
X0092340Y0060173D01*
X0092345Y0060169D01*
X0092358Y0060155D01*
X0092372Y0060137D01*
X0092417Y0060097D01*
X0092480Y0060051D01*
X0092561Y0060006D01*
X0092660Y0059966D01*
X0092773Y0059934D01*
X0092841Y0059930D01*
X0092909Y0059925D01*
X0092945D01*
X0092972Y0059930D01*
X0093003Y0059934D01*
X0093039Y0059939D01*
X0093120Y0059957D01*
X0093215Y0059988D01*
X0093310Y0060033D01*
X0093355Y0060061D01*
X0093400Y0060097D01*
X0093445Y0060133D01*
X0093481Y0060178D01*
X0093486Y0060182D01*
X0093490Y0060191D01*
X0093499Y0060205D01*
X0093513Y0060223D01*
X0093526Y0060250D01*
X0093544Y0060281D01*
X0093563Y0060322D01*
X0093581Y0060367D01*
X0093599Y0060417D01*
X0093617Y0060471D01*
X0093635Y0060530D01*
X0093648Y0060597D01*
X0093662Y0060669D01*
X0093671Y0060751D01*
X0093680Y0060832D01*
Y0060922D01*
Y0060926D01*
Y0060944D01*
Y0060967D01*
X0093675Y0061003D01*
Y0061044D01*
X0093671Y0061089D01*
X0093662Y0061143D01*
X0093657Y0061197D01*
X0093630Y0061319D01*
X0093594Y0061440D01*
X0093549Y0061558D01*
X0093517Y0061612D01*
X0093481Y0061661D01*
Y0061666D01*
X0093472Y0061671D01*
X0093463Y0061684D01*
X0093445Y0061702D01*
X0093423Y0061720D01*
X0093400Y0061743D01*
X0093337Y0061788D01*
X0093256Y0061833D01*
X0093157Y0061874D01*
X0093039Y0061905D01*
X0092972Y0061910D01*
X0092904Y0061914D01*
D02*
G37*
G36*
X0074228Y0061914D02*
X0074192D01*
X0074165Y0061910D01*
X0074133Y0061905D01*
X0074097Y0061901D01*
X0074016Y0061883D01*
X0073921Y0061851D01*
X0073827Y0061806D01*
X0073782Y0061779D01*
X0073737Y0061747D01*
X0073696Y0061707D01*
X0073655Y0061661D01*
Y0061657D01*
X0073646Y0061648D01*
X0073637Y0061634D01*
X0073624Y0061616D01*
X0073610Y0061589D01*
X0073597Y0061558D01*
X0073579Y0061522D01*
X0073561Y0061477D01*
X0073543Y0061427D01*
X0073524Y0061373D01*
X0073511Y0061310D01*
X0073497Y0061247D01*
X0073484Y0061174D01*
X0073475Y0061093D01*
X0073470Y0061012D01*
X0073466Y0060922D01*
Y0060917D01*
Y0060899D01*
Y0060877D01*
X0073470Y0060841D01*
Y0060800D01*
X0073475Y0060755D01*
X0073484Y0060701D01*
X0073488Y0060647D01*
X0073515Y0060525D01*
X0073547Y0060403D01*
X0073597Y0060281D01*
X0073624Y0060227D01*
X0073660Y0060178D01*
X0073664Y0060173D01*
X0073669Y0060169D01*
X0073682Y0060155D01*
X0073696Y0060137D01*
X0073741Y0060097D01*
X0073804Y0060051D01*
X0073885Y0060006D01*
X0073985Y0059966D01*
X0074097Y0059934D01*
X0074165Y0059930D01*
X0074233Y0059925D01*
X0074269D01*
X0074296Y0059930D01*
X0074327Y0059934D01*
X0074363Y0059939D01*
X0074445Y0059957D01*
X0074539Y0059988D01*
X0074634Y0060033D01*
X0074679Y0060061D01*
X0074724Y0060097D01*
X0074769Y0060133D01*
X0074805Y0060178D01*
X0074810Y0060182D01*
X0074814Y0060191D01*
X0074823Y0060205D01*
X0074837Y0060223D01*
X0074850Y0060250D01*
X0074869Y0060281D01*
X0074887Y0060322D01*
X0074905Y0060367D01*
X0074923Y0060417D01*
X0074941Y0060471D01*
X0074959Y0060530D01*
X0074972Y0060597D01*
X0074986Y0060669D01*
X0074995Y0060751D01*
X0075004Y0060832D01*
Y0060922D01*
Y0060926D01*
Y0060944D01*
Y0060967D01*
X0074999Y0061003D01*
Y0061044D01*
X0074995Y0061089D01*
X0074986Y0061143D01*
X0074981Y0061197D01*
X0074954Y0061319D01*
X0074918Y0061440D01*
X0074873Y0061558D01*
X0074841Y0061612D01*
X0074805Y0061661D01*
Y0061666D01*
X0074796Y0061671D01*
X0074787Y0061684D01*
X0074769Y0061702D01*
X0074747Y0061720D01*
X0074724Y0061743D01*
X0074661Y0061788D01*
X0074580Y0061833D01*
X0074481Y0061874D01*
X0074363Y0061905D01*
X0074296Y0061910D01*
X0074228Y0061914D01*
D02*
G37*
G36*
X0068906Y0061919D02*
X0068821D01*
X0068803Y0061914D01*
X0068775D01*
X0068744Y0061910D01*
X0068676Y0061892D01*
X0068600Y0061869D01*
X0068514Y0061833D01*
X0068433Y0061783D01*
X0068397Y0061752D01*
X0068361Y0061716D01*
X0068352Y0061707D01*
X0068343Y0061693D01*
X0068334Y0061680D01*
X0068302Y0061634D01*
X0068266Y0061571D01*
X0068230Y0061495D01*
X0068194Y0061400D01*
X0068167Y0061292D01*
X0068149Y0061165D01*
X0069479D01*
Y0061170D01*
Y0061184D01*
Y0061202D01*
X0069475Y0061224D01*
Y0061256D01*
X0069470Y0061292D01*
X0069461Y0061368D01*
X0069438Y0061459D01*
X0069411Y0061553D01*
X0069371Y0061639D01*
X0069317Y0061720D01*
Y0061725D01*
X0069308Y0061729D01*
X0069285Y0061752D01*
X0069249Y0061783D01*
X0069199Y0061819D01*
X0069132Y0061855D01*
X0069051Y0061887D01*
X0068960Y0061910D01*
X0068906Y0061919D01*
D02*
G37*
G36*
X0064072Y0061914D02*
X0064035D01*
X0064008Y0061910D01*
X0063977Y0061905D01*
X0063941Y0061901D01*
X0063860Y0061883D01*
X0063765Y0061851D01*
X0063670Y0061806D01*
X0063625Y0061779D01*
X0063580Y0061747D01*
X0063539Y0061707D01*
X0063499Y0061661D01*
Y0061657D01*
X0063490Y0061648D01*
X0063481Y0061634D01*
X0063467Y0061616D01*
X0063454Y0061589D01*
X0063440Y0061558D01*
X0063422Y0061522D01*
X0063404Y0061477D01*
X0063386Y0061427D01*
X0063368Y0061373D01*
X0063354Y0061310D01*
X0063341Y0061247D01*
X0063327Y0061174D01*
X0063318Y0061093D01*
X0063314Y0061012D01*
X0063309Y0060922D01*
Y0060917D01*
Y0060899D01*
Y0060877D01*
X0063314Y0060841D01*
Y0060800D01*
X0063318Y0060755D01*
X0063327Y0060701D01*
X0063332Y0060647D01*
X0063359Y0060525D01*
X0063391Y0060403D01*
X0063440Y0060281D01*
X0063467Y0060227D01*
X0063503Y0060178D01*
X0063508Y0060173D01*
X0063512Y0060169D01*
X0063526Y0060155D01*
X0063539Y0060137D01*
X0063585Y0060097D01*
X0063648Y0060051D01*
X0063729Y0060006D01*
X0063828Y0059966D01*
X0063941Y0059934D01*
X0064008Y0059930D01*
X0064076Y0059925D01*
X0064112D01*
X0064139Y0059930D01*
X0064171Y0059934D01*
X0064207Y0059939D01*
X0064288Y0059957D01*
X0064383Y0059988D01*
X0064477Y0060033D01*
X0064523Y0060061D01*
X0064568Y0060097D01*
X0064613Y0060133D01*
X0064649Y0060178D01*
X0064653Y0060182D01*
X0064658Y0060191D01*
X0064667Y0060205D01*
X0064680Y0060223D01*
X0064694Y0060250D01*
X0064712Y0060281D01*
X0064730Y0060322D01*
X0064748Y0060367D01*
X0064766Y0060417D01*
X0064784Y0060471D01*
X0064802Y0060530D01*
X0064816Y0060597D01*
X0064829Y0060669D01*
X0064838Y0060751D01*
X0064847Y0060832D01*
Y0060922D01*
Y0060926D01*
Y0060944D01*
Y0060967D01*
X0064843Y0061003D01*
Y0061044D01*
X0064838Y0061089D01*
X0064829Y0061143D01*
X0064825Y0061197D01*
X0064798Y0061319D01*
X0064762Y0061440D01*
X0064717Y0061558D01*
X0064685Y0061612D01*
X0064649Y0061661D01*
Y0061666D01*
X0064640Y0061671D01*
X0064631Y0061684D01*
X0064613Y0061702D01*
X0064590Y0061720D01*
X0064568Y0061743D01*
X0064504Y0061788D01*
X0064423Y0061833D01*
X0064324Y0061874D01*
X0064207Y0061905D01*
X0064139Y0061910D01*
X0064072Y0061914D01*
D02*
G37*
%LPD*%
D10*
X0146287Y0021500D02*
G03*
X0146287Y0021500I-0000394J0000000D01*
G01*
X0217232Y0052228D02*
X0247768D01*
X0217232D02*
Y0080772D01*
X0247500D01*
Y0071500D02*
Y0080772D01*
X0247768Y0052228D02*
Y0061500D01*
X0126500Y0014008D02*
Y0136008D01*
X0116500D02*
X0126500D01*
X0116500Y0014008D02*
X0126500D01*
X0116500D02*
Y0136008D01*
X0033500Y0014000D02*
Y0136000D01*
X0023500D02*
X0033500D01*
X0023500Y0014000D02*
X0033500D01*
X0023500D02*
Y0136000D01*
X0239800Y0036063D02*
Y0040000D01*
X0233200Y0036100D02*
Y0040037D01*
X0239800Y0091188D02*
Y0095125D01*
X0233200Y0091225D02*
Y0095162D01*
X0239800Y0105688D02*
Y0109625D01*
X0233200Y0105725D02*
Y0109662D01*
X0205598Y0030138D02*
Y0034862D01*
X0200480Y0032500D02*
X0205598Y0030138D01*
X0200480Y0032500D02*
X0205598Y0034862D01*
X0168500Y0142500D02*
X0205598D01*
X0168500Y0012421D02*
X0205598D01*
X0168500D02*
Y0142500D01*
D11*
X0160465Y0131457D02*
G03*
X0160465Y0131457I-0000197J0000000D01*
G01*
D12*
X0149051Y0029153D02*
X0157949D01*
X0149051Y0020846D02*
X0157949D01*
X0152300Y0012200D02*
X0154700D01*
X0152300Y0019800D02*
X0154700D01*
X0151800Y0053700D02*
X0154200D01*
X0151800Y0061300D02*
X0154200D01*
X0151800Y0111300D02*
X0154200D01*
X0151800Y0118900D02*
X0154200D01*
X0151872Y0080500D02*
X0154272D01*
X0151872Y0072900D02*
X0154272D01*
X0151800Y0092100D02*
X0154200D01*
X0151800Y0099700D02*
X0154200D01*
D13*
X0146300Y0139400D02*
X0157717D01*
X0146291Y0130600D02*
X0157709D01*
X0162600Y0130669D02*
Y0139331D01*
X0205598Y0087500D02*
Y0142500D01*
Y0012421D02*
Y0067500D01*
D14*
X0105000Y0135000D02*
X0115000D01*
Y0015000D02*
Y0135000D01*
X0105000Y0015000D02*
X0115000D01*
X0105000D02*
Y0135000D01*
X0035000D02*
X0045000D01*
Y0015000D02*
Y0135000D01*
X0035000Y0015000D02*
X0045000D01*
X0035000D02*
Y0135000D01*
D15*
X0115000D02*
Y0145000D01*
X0090000D02*
X0115000D01*
X0090000D02*
Y0150000D01*
Y0135000D02*
Y0145000D01*
X0060000D02*
Y0150000D01*
X0105000Y0005000D02*
X0115000Y0015000D01*
X0060000Y0150000D02*
X0090000D01*
X0060000Y0135000D02*
X0090000D01*
X0035000Y0145000D02*
X0060000D01*
Y0135000D02*
Y0145000D01*
X0035000Y0135000D02*
Y0145000D01*
X0045000Y0005000D02*
X0105000D01*
X0035000Y0015000D02*
X0045000Y0005000D01*
D16*
X0138428Y0017100D02*
Y0013900D01*
Y0017100D02*
X0139799D01*
X0140257Y0016947D01*
X0140409Y0016795D01*
X0140561Y0016490D01*
Y0016186D01*
X0140409Y0015881D01*
X0140257Y0015729D01*
X0139799Y0015576D01*
X0138428D01*
X0139495D02*
X0140561Y0013900D01*
X0143105Y0017100D02*
X0141582D01*
X0141430Y0015729D01*
X0141582Y0015881D01*
X0142039Y0016033D01*
X0142496D01*
X0142953Y0015881D01*
X0143258Y0015576D01*
X0143410Y0015119D01*
Y0014814D01*
X0143258Y0014357D01*
X0142953Y0014053D01*
X0142496Y0013900D01*
X0142039D01*
X0141582Y0014053D01*
X0141430Y0014205D01*
X0141277Y0014510D01*
X0138428Y0026600D02*
Y0023400D01*
Y0026600D02*
X0139495D01*
X0139952Y0026447D01*
X0140257Y0026143D01*
X0140409Y0025838D01*
X0140561Y0025381D01*
Y0024619D01*
X0140409Y0024162D01*
X0140257Y0023857D01*
X0139952Y0023553D01*
X0139495Y0023400D01*
X0138428D01*
X0141430Y0025838D02*
Y0025990D01*
X0141582Y0026295D01*
X0141734Y0026447D01*
X0142039Y0026600D01*
X0142648D01*
X0142953Y0026447D01*
X0143105Y0026295D01*
X0143258Y0025990D01*
Y0025686D01*
X0143105Y0025381D01*
X0142801Y0024924D01*
X0141277Y0023400D01*
X0143410D01*
X0218708Y0086100D02*
Y0083662D01*
X0218555Y0083205D01*
X0218403Y0083053D01*
X0218098Y0082900D01*
X0217794D01*
X0217489Y0083053D01*
X0217337Y0083205D01*
X0217184Y0083662D01*
Y0083967D01*
X0221054Y0086100D02*
X0219531Y0083967D01*
X0221816D01*
X0221054Y0086100D02*
Y0082900D01*
X0120784Y0141607D02*
Y0139170D01*
X0120632Y0138713D01*
X0120479Y0138561D01*
X0120175Y0138408D01*
X0119870D01*
X0119565Y0138561D01*
X0119413Y0138713D01*
X0119261Y0139170D01*
Y0139475D01*
X0121911Y0141607D02*
X0123587D01*
X0122673Y0140389D01*
X0123130D01*
X0123435Y0140236D01*
X0123587Y0140084D01*
X0123740Y0139627D01*
Y0139322D01*
X0123587Y0138865D01*
X0123283Y0138561D01*
X0122825Y0138408D01*
X0122368D01*
X0121911Y0138561D01*
X0121759Y0138713D01*
X0121607Y0139018D01*
X0027784Y0141607D02*
Y0139170D01*
X0027632Y0138713D01*
X0027479Y0138561D01*
X0027175Y0138408D01*
X0026870D01*
X0026565Y0138561D01*
X0026413Y0138713D01*
X0026261Y0139170D01*
Y0139475D01*
X0028759Y0140846D02*
Y0140998D01*
X0028911Y0141303D01*
X0029064Y0141455D01*
X0029368Y0141607D01*
X0029978D01*
X0030283Y0141455D01*
X0030435Y0141303D01*
X0030587Y0140998D01*
Y0140693D01*
X0030435Y0140389D01*
X0030130Y0139932D01*
X0028607Y0138408D01*
X0030740D01*
X0241900Y0035234D02*
X0244338D01*
X0244795Y0035082D01*
X0244947Y0034930D01*
X0245100Y0034625D01*
Y0034320D01*
X0244947Y0034016D01*
X0244795Y0033863D01*
X0244338Y0033711D01*
X0244033D01*
X0243576Y0036057D02*
Y0037428D01*
X0243424Y0037885D01*
X0243271Y0038038D01*
X0242967Y0038190D01*
X0242510D01*
X0242205Y0038038D01*
X0242053Y0037885D01*
X0241900Y0037428D01*
Y0036057D01*
X0245100D01*
X0241900Y0039211D02*
Y0040887D01*
X0243119Y0039973D01*
Y0040430D01*
X0243271Y0040734D01*
X0243424Y0040887D01*
X0243881Y0041039D01*
X0244186D01*
X0244643Y0040887D01*
X0244947Y0040582D01*
X0245100Y0040125D01*
Y0039668D01*
X0244947Y0039211D01*
X0244795Y0039059D01*
X0244490Y0038906D01*
X0241900Y0090860D02*
X0244338D01*
X0244795Y0090707D01*
X0244947Y0090555D01*
X0245100Y0090250D01*
Y0089945D01*
X0244947Y0089641D01*
X0244795Y0089488D01*
X0244338Y0089336D01*
X0244033D01*
X0243576Y0091682D02*
Y0093053D01*
X0243424Y0093510D01*
X0243271Y0093663D01*
X0242967Y0093815D01*
X0242510D01*
X0242205Y0093663D01*
X0242053Y0093510D01*
X0241900Y0093053D01*
Y0091682D01*
X0245100D01*
X0242662Y0094683D02*
X0242510D01*
X0242205Y0094836D01*
X0242053Y0094988D01*
X0241900Y0095293D01*
Y0095902D01*
X0242053Y0096207D01*
X0242205Y0096359D01*
X0242510Y0096512D01*
X0242814D01*
X0243119Y0096359D01*
X0243576Y0096055D01*
X0245100Y0094531D01*
Y0096664D01*
X0241900Y0106045D02*
X0244338D01*
X0244795Y0105893D01*
X0244947Y0105740D01*
X0245100Y0105436D01*
Y0105131D01*
X0244947Y0104826D01*
X0244795Y0104674D01*
X0244338Y0104522D01*
X0244033D01*
X0243576Y0106868D02*
Y0108239D01*
X0243424Y0108696D01*
X0243271Y0108848D01*
X0242967Y0109001D01*
X0242510D01*
X0242205Y0108848D01*
X0242053Y0108696D01*
X0241900Y0108239D01*
Y0106868D01*
X0245100D01*
X0242510Y0109717D02*
X0242357Y0110021D01*
X0241900Y0110478D01*
X0245100D01*
X0136651Y0130650D02*
X0139850D01*
X0136651D02*
Y0131716D01*
X0136803Y0132174D01*
X0137108Y0132478D01*
X0137412Y0132631D01*
X0137870Y0132783D01*
X0138631D01*
X0139088Y0132631D01*
X0139393Y0132478D01*
X0139698Y0132174D01*
X0139850Y0131716D01*
Y0130650D01*
X0137260Y0133499D02*
X0137108Y0133804D01*
X0136651Y0134261D01*
X0139850D01*
X0138428Y0058699D02*
Y0055500D01*
Y0058699D02*
X0139799D01*
X0140257Y0058547D01*
X0140409Y0058395D01*
X0140561Y0058090D01*
Y0057785D01*
X0140409Y0057481D01*
X0140257Y0057328D01*
X0139799Y0057176D01*
X0138428D01*
X0139495D02*
X0140561Y0055500D01*
X0142801Y0058699D02*
X0141277Y0056566D01*
X0143562D01*
X0142801Y0058699D02*
Y0055500D01*
X0138428Y0116799D02*
Y0113600D01*
Y0116799D02*
X0139799D01*
X0140257Y0116647D01*
X0140409Y0116495D01*
X0140561Y0116190D01*
Y0115885D01*
X0140409Y0115580D01*
X0140257Y0115428D01*
X0139799Y0115276D01*
X0138428D01*
X0139495D02*
X0140561Y0113600D01*
X0141277Y0116190D02*
X0141582Y0116342D01*
X0142039Y0116799D01*
Y0113600D01*
X0138428Y0078149D02*
Y0074950D01*
Y0078149D02*
X0139799D01*
X0140257Y0077997D01*
X0140409Y0077845D01*
X0140561Y0077540D01*
Y0077235D01*
X0140409Y0076930D01*
X0140257Y0076778D01*
X0139799Y0076626D01*
X0138428D01*
X0139495D02*
X0140561Y0074950D01*
X0141582Y0078149D02*
X0143258D01*
X0142344Y0076930D01*
X0142801D01*
X0143105Y0076778D01*
X0143258Y0076626D01*
X0143410Y0076169D01*
Y0075864D01*
X0143258Y0075407D01*
X0142953Y0075102D01*
X0142496Y0074950D01*
X0142039D01*
X0141582Y0075102D01*
X0141430Y0075255D01*
X0141277Y0075559D01*
X0138428Y0097099D02*
Y0093900D01*
Y0097099D02*
X0139799D01*
X0140257Y0096947D01*
X0140409Y0096795D01*
X0140561Y0096490D01*
Y0096185D01*
X0140409Y0095881D01*
X0140257Y0095728D01*
X0139799Y0095576D01*
X0138428D01*
X0139495D02*
X0140561Y0093900D01*
X0141430Y0096338D02*
Y0096490D01*
X0141582Y0096795D01*
X0141734Y0096947D01*
X0142039Y0097099D01*
X0142648D01*
X0142953Y0096947D01*
X0143105Y0096795D01*
X0143258Y0096490D01*
Y0096185D01*
X0143105Y0095881D01*
X0142801Y0095424D01*
X0141277Y0093900D01*
X0143410D01*
X0170024Y0147699D02*
Y0145262D01*
X0169871Y0144805D01*
X0169719Y0144652D01*
X0169414Y0144500D01*
X0169109D01*
X0168805Y0144652D01*
X0168652Y0144805D01*
X0168500Y0145262D01*
Y0145566D01*
X0170846Y0147090D02*
X0171151Y0147242D01*
X0171608Y0147699D01*
Y0144500D01*
M02*
