G04*
G04 #@! TF.GenerationSoftware,Altium Limited,Altium Designer,20.1.8 (145)*
G04*
G04 Layer_Color=8388736*
%FSAX25Y25*%
%MOIN*%
G70*
G04*
G04 #@! TF.SameCoordinates,26FBE6AE-7016-430B-9DB3-2072F7DBF2B3*
G04*
G04*
G04 #@! TF.FilePolarity,Negative*
G04*
G01*
G75*
G04:AMPARAMS|DCode=17|XSize=45.67mil|YSize=63.78mil|CornerRadius=12.89mil|HoleSize=0mil|Usage=FLASHONLY|Rotation=0.000|XOffset=0mil|YOffset=0mil|HoleType=Round|Shape=RoundedRectangle|*
%AMROUNDEDRECTD17*
21,1,0.04567,0.03799,0,0,0.0*
21,1,0.01988,0.06378,0,0,0.0*
1,1,0.02579,0.00994,-0.01900*
1,1,0.02579,-0.00994,-0.01900*
1,1,0.02579,-0.00994,0.01900*
1,1,0.02579,0.00994,0.01900*
%
%ADD17ROUNDEDRECTD17*%
G04:AMPARAMS|DCode=18|XSize=64.96mil|YSize=57.09mil|CornerRadius=15.75mil|HoleSize=0mil|Usage=FLASHONLY|Rotation=90.000|XOffset=0mil|YOffset=0mil|HoleType=Round|Shape=RoundedRectangle|*
%AMROUNDEDRECTD18*
21,1,0.06496,0.02559,0,0,90.0*
21,1,0.03347,0.05709,0,0,90.0*
1,1,0.03150,0.01280,0.01673*
1,1,0.03150,0.01280,-0.01673*
1,1,0.03150,-0.01280,-0.01673*
1,1,0.03150,-0.01280,0.01673*
%
%ADD18ROUNDEDRECTD18*%
G04:AMPARAMS|DCode=19|XSize=35.04mil|YSize=115.75mil|CornerRadius=10.24mil|HoleSize=0mil|Usage=FLASHONLY|Rotation=90.000|XOffset=0mil|YOffset=0mil|HoleType=Round|Shape=RoundedRectangle|*
%AMROUNDEDRECTD19*
21,1,0.03504,0.09528,0,0,90.0*
21,1,0.01457,0.11575,0,0,90.0*
1,1,0.02047,0.04764,0.00728*
1,1,0.02047,0.04764,-0.00728*
1,1,0.02047,-0.04764,-0.00728*
1,1,0.02047,-0.04764,0.00728*
%
%ADD19ROUNDEDRECTD19*%
G04:AMPARAMS|DCode=20|XSize=37.91mil|YSize=45.91mil|CornerRadius=10.95mil|HoleSize=0mil|Usage=FLASHONLY|Rotation=270.000|XOffset=0mil|YOffset=0mil|HoleType=Round|Shape=RoundedRectangle|*
%AMROUNDEDRECTD20*
21,1,0.03791,0.02400,0,0,270.0*
21,1,0.01600,0.04591,0,0,270.0*
1,1,0.02191,-0.01200,-0.00800*
1,1,0.02191,-0.01200,0.00800*
1,1,0.02191,0.01200,0.00800*
1,1,0.02191,0.01200,-0.00800*
%
%ADD20ROUNDEDRECTD20*%
G04:AMPARAMS|DCode=21|XSize=53.15mil|YSize=62.99mil|CornerRadius=14.76mil|HoleSize=0mil|Usage=FLASHONLY|Rotation=270.000|XOffset=0mil|YOffset=0mil|HoleType=Round|Shape=RoundedRectangle|*
%AMROUNDEDRECTD21*
21,1,0.05315,0.03347,0,0,270.0*
21,1,0.02362,0.06299,0,0,270.0*
1,1,0.02953,-0.01673,-0.01181*
1,1,0.02953,-0.01673,0.01181*
1,1,0.02953,0.01673,0.01181*
1,1,0.02953,0.01673,-0.01181*
%
%ADD21ROUNDEDRECTD21*%
%ADD22C,0.00591*%
%ADD23C,0.06890*%
%ADD24C,0.07087*%
%ADD25R,0.07087X0.07087*%
%ADD26C,0.06890*%
%ADD27R,0.06890X0.06890*%
%ADD28R,0.06890X0.06890*%
G36*
X0238900Y0109000D02*
Y0105200D01*
X0234100D01*
Y0109000D01*
Y0110825D01*
X0238900D01*
Y0109000D01*
D02*
G37*
G36*
Y0094500D02*
Y0090700D01*
X0234100D01*
Y0094500D01*
Y0096325D01*
X0238900D01*
Y0094500D01*
D02*
G37*
G36*
X0076000Y0079200D02*
X0075000Y0078600D01*
X0074000Y0079200D01*
X0075000Y0083800D01*
X0076000Y0079200D01*
D02*
G37*
G36*
X0077200Y0075000D02*
X0081200Y0068700D01*
X0075000Y0072800D01*
X0068900Y0068800D01*
X0072700Y0075000D01*
X0068900Y0081000D01*
X0075000Y0077200D01*
X0081000Y0081100D01*
X0077200Y0075000D01*
D02*
G37*
G36*
X0083600D02*
X0079200Y0074100D01*
X0078600Y0075000D01*
X0079200Y0075900D01*
X0083600Y0075000D01*
D02*
G37*
G36*
X0071400D02*
X0070800Y0074100D01*
X0066200Y0075000D01*
X0070800Y0075900D01*
X0071400Y0075000D01*
D02*
G37*
G36*
X0076000Y0070600D02*
X0075000Y0066200D01*
X0074000Y0070600D01*
X0075000Y0071300D01*
X0076000Y0070600D01*
D02*
G37*
G36*
X0238900Y0039375D02*
Y0035575D01*
X0234100D01*
Y0039375D01*
Y0041200D01*
X0238900D01*
Y0039375D01*
D02*
G37*
D17*
X0149642Y0025000D02*
D03*
X0157358D02*
D03*
D18*
X0149760Y0016000D02*
D03*
X0157240D02*
D03*
X0149260Y0057500D02*
D03*
X0156740D02*
D03*
X0149260Y0115100D02*
D03*
X0156740D02*
D03*
X0156812Y0076700D02*
D03*
X0149331D02*
D03*
X0149260Y0095900D02*
D03*
X0156740D02*
D03*
D19*
X0240500Y0056500D02*
D03*
X0224500D02*
D03*
X0240500Y0061500D02*
D03*
X0224500D02*
D03*
X0240500Y0066500D02*
D03*
X0224500D02*
D03*
Y0071500D02*
D03*
X0240500Y0076500D02*
D03*
X0224500D02*
D03*
D20*
X0236500Y0041375D02*
D03*
Y0034625D02*
D03*
Y0096500D02*
D03*
Y0089750D02*
D03*
Y0111000D02*
D03*
Y0104250D02*
D03*
D21*
X0146193Y0135000D02*
D03*
X0157807D02*
D03*
D22*
X0235000Y0140000D02*
D03*
X0015000D02*
D03*
Y0015000D02*
D03*
X0235000D02*
D03*
D23*
X0121500Y0090008D02*
D03*
Y0100008D02*
D03*
Y0070008D02*
D03*
Y0080008D02*
D03*
Y0120008D02*
D03*
Y0130008D02*
D03*
Y0110008D02*
D03*
Y0050008D02*
D03*
Y0040008D02*
D03*
Y0060008D02*
D03*
X0028500Y0080000D02*
D03*
Y0060000D02*
D03*
Y0070000D02*
D03*
Y0110000D02*
D03*
Y0100000D02*
D03*
Y0020000D02*
D03*
Y0040000D02*
D03*
Y0050000D02*
D03*
Y0030000D02*
D03*
Y0090000D02*
D03*
X0193000Y0122500D02*
D03*
Y0112500D02*
D03*
Y0092500D02*
D03*
Y0082500D02*
D03*
Y0102500D02*
D03*
Y0072500D02*
D03*
Y0062500D02*
D03*
Y0042500D02*
D03*
Y0052500D02*
D03*
X0183000Y0112500D02*
D03*
Y0122500D02*
D03*
Y0092500D02*
D03*
Y0082500D02*
D03*
Y0102500D02*
D03*
Y0062500D02*
D03*
Y0072500D02*
D03*
Y0032500D02*
D03*
Y0042500D02*
D03*
Y0052500D02*
D03*
D24*
X0121500Y0030008D02*
D03*
X0028500Y0120000D02*
D03*
D25*
X0121500Y0020008D02*
D03*
X0028500Y0130000D02*
D03*
D26*
X0110000Y0120000D02*
D03*
Y0110000D02*
D03*
Y0130000D02*
D03*
Y0100000D02*
D03*
Y0070000D02*
D03*
Y0050000D02*
D03*
Y0060000D02*
D03*
Y0040000D02*
D03*
Y0020000D02*
D03*
Y0030000D02*
D03*
Y0080000D02*
D03*
Y0090000D02*
D03*
X0040000Y0110000D02*
D03*
Y0120000D02*
D03*
Y0100000D02*
D03*
Y0090000D02*
D03*
Y0080000D02*
D03*
Y0040000D02*
D03*
Y0050000D02*
D03*
Y0060000D02*
D03*
Y0070000D02*
D03*
Y0030000D02*
D03*
Y0020000D02*
D03*
D27*
Y0130000D02*
D03*
D28*
X0193000Y0032500D02*
D03*
M02*
