M48
;Layer_Color=9474304
;FILE_FORMAT=2:5
INCH
;TYPE=PLATED
T1F00S00C0.01500
T2F00S00C0.03740
T3F00S00C0.03937
;TYPE=NON_PLATED
T4F00S00C0.12598
%
T01
X0199500Y0030000
X0209500Y0050000
X0229500
X0240500Y0071500
X0214000
X0209500Y0090000
X0229500
X0222000Y0098000
X0135500Y0076500
X0139500Y0070000
X0135000Y0066000
X0099500Y0070000
X0094500Y0074750
X0089500Y0090000
Y0050000
X0069500
X0049500
X0059500Y0070000
X0049500Y0090000
X0139500Y0030000
X0009500Y0050000
X0019500Y0070000
Y0110000
X0009500Y0130000
X0049500
X0069500
X0089500
X0099500Y0110000
X0139500
X0159500
X0169500Y0130000
X0149500
X0129500
X0209500
X0229500
X0222968Y0107050
T02
X0183000Y0032500
X0193000
Y0042500
Y0052500
Y0062500
Y0072500
Y0082500
Y0092500
X0183000
Y0082500
Y0072500
Y0062500
Y0052500
Y0042500
X0121500Y0040008
Y0050008
Y0060008
Y0070008
Y0080008
Y0090008
Y0100008
X0028500Y0100000
Y0090000
Y0080000
Y0070000
Y0060000
Y0050000
Y0040000
Y0030000
Y0020000
Y0110000
X0121500Y0110008
Y0120008
Y0130008
X0183000Y0122500
X0193000
Y0112500
Y0102500
X0183000
Y0112500
T03
X0040000Y0020000
Y0030000
Y0040000
Y0050000
Y0060000
Y0070000
Y0080000
Y0090000
Y0100000
X0110000
Y0090000
Y0080000
Y0070000
Y0060000
Y0050000
Y0040000
Y0030000
Y0020000
X0121500Y0020008
Y0030008
X0110000Y0110000
Y0120000
Y0130000
X0040000
Y0120000
Y0110000
X0028500Y0120000
Y0130000
T04
X0235000Y0015000
X0015000
Y0140000
X0235000
M30
