G04*
G04 #@! TF.GenerationSoftware,Altium Limited,Altium Designer,20.1.11 (218)*
G04*
G04 Layer_Physical_Order=2*
G04 Layer_Color=16711680*
%FSAX25Y25*%
%MOIN*%
G70*
G04*
G04 #@! TF.SameCoordinates,33997834-81F2-4769-9C1A-FA938185F8BD*
G04*
G04*
G04 #@! TF.FilePolarity,Positive*
G04*
G01*
G75*
%ADD23C,0.01500*%
%ADD25C,0.06299*%
G04:AMPARAMS|DCode=26|XSize=62.99mil|YSize=62.99mil|CornerRadius=15.75mil|HoleSize=0mil|Usage=FLASHONLY|Rotation=0.000|XOffset=0mil|YOffset=0mil|HoleType=Round|Shape=RoundedRectangle|*
%AMROUNDEDRECTD26*
21,1,0.06299,0.03150,0,0,0.0*
21,1,0.03150,0.06299,0,0,0.0*
1,1,0.03150,0.01575,-0.01575*
1,1,0.03150,-0.01575,-0.01575*
1,1,0.03150,-0.01575,0.01575*
1,1,0.03150,0.01575,0.01575*
%
%ADD26ROUNDEDRECTD26*%
%ADD27C,0.02700*%
G36*
X0083475Y0127478D02*
X0082975Y0127308D01*
X0082678Y0127694D01*
X0081895Y0128295D01*
X0080983Y0128673D01*
X0080004Y0128802D01*
X0079025Y0128673D01*
X0078113Y0128295D01*
X0077330Y0127694D01*
X0076729Y0126911D01*
X0076351Y0125999D01*
X0076222Y0125020D01*
X0076351Y0124041D01*
X0076564Y0123527D01*
X0064287Y0111250D01*
X0063989Y0110803D01*
X0063884Y0110276D01*
Y0081286D01*
X0063854Y0081266D01*
X0063423Y0080621D01*
X0063395Y0080478D01*
X0062916Y0080332D01*
X0041884Y0101365D01*
X0041890Y0101400D01*
X0041739Y0102161D01*
X0041308Y0102806D01*
X0040663Y0103237D01*
X0039902Y0103388D01*
X0039141Y0103237D01*
X0038496Y0102806D01*
X0038065Y0102161D01*
X0037914Y0101400D01*
X0038065Y0100639D01*
X0038496Y0099994D01*
X0039141Y0099563D01*
X0039902Y0099412D01*
X0039937Y0099419D01*
X0074852Y0064504D01*
X0074852Y0064504D01*
X0075298Y0064206D01*
X0075825Y0064101D01*
X0075825Y0064101D01*
X0076343D01*
X0076351Y0064041D01*
X0076729Y0063129D01*
X0077330Y0062346D01*
X0078113Y0061745D01*
X0079025Y0061367D01*
X0080004Y0061238D01*
X0080983Y0061367D01*
X0081895Y0061745D01*
X0082678Y0062346D01*
X0082975Y0062732D01*
X0083475Y0062562D01*
Y0057478D01*
X0082975Y0057308D01*
X0082678Y0057694D01*
X0081895Y0058295D01*
X0080983Y0058673D01*
X0080004Y0058802D01*
X0079025Y0058673D01*
X0078113Y0058295D01*
X0077330Y0057694D01*
X0076729Y0056911D01*
X0076351Y0055999D01*
X0076222Y0055020D01*
X0076351Y0054041D01*
X0076729Y0053129D01*
X0077330Y0052346D01*
X0078113Y0051745D01*
X0079025Y0051367D01*
X0080004Y0051238D01*
X0080983Y0051367D01*
X0081895Y0051745D01*
X0082678Y0052346D01*
X0082975Y0052732D01*
X0083475Y0052562D01*
Y0047478D01*
X0082975Y0047308D01*
X0082678Y0047694D01*
X0081895Y0048295D01*
X0080983Y0048673D01*
X0080004Y0048802D01*
X0079025Y0048673D01*
X0078113Y0048295D01*
X0077330Y0047694D01*
X0076729Y0046911D01*
X0076351Y0045999D01*
X0076222Y0045020D01*
X0076351Y0044041D01*
X0076729Y0043129D01*
X0077330Y0042346D01*
X0078113Y0041745D01*
X0079025Y0041367D01*
X0080004Y0041238D01*
X0080983Y0041367D01*
X0081895Y0041745D01*
X0082678Y0042346D01*
X0082975Y0042732D01*
X0083475Y0042562D01*
Y0037478D01*
X0082975Y0037308D01*
X0082678Y0037694D01*
X0081895Y0038295D01*
X0080983Y0038673D01*
X0080004Y0038802D01*
X0079025Y0038673D01*
X0078113Y0038295D01*
X0077330Y0037694D01*
X0076729Y0036911D01*
X0076351Y0035999D01*
X0076222Y0035020D01*
X0076351Y0034041D01*
X0076729Y0033129D01*
X0077330Y0032346D01*
X0078113Y0031745D01*
X0079025Y0031367D01*
X0080004Y0031238D01*
X0080983Y0031367D01*
X0081895Y0031745D01*
X0082678Y0032346D01*
X0082975Y0032732D01*
X0083475Y0032562D01*
Y0027478D01*
X0082975Y0027308D01*
X0082678Y0027694D01*
X0081895Y0028295D01*
X0080983Y0028673D01*
X0080004Y0028802D01*
X0079025Y0028673D01*
X0078113Y0028295D01*
X0077330Y0027694D01*
X0076729Y0026911D01*
X0076351Y0025999D01*
X0076222Y0025020D01*
X0076351Y0024041D01*
X0076729Y0023129D01*
X0077330Y0022346D01*
X0078113Y0021745D01*
X0079025Y0021367D01*
X0080004Y0021238D01*
X0080983Y0021367D01*
X0081895Y0021745D01*
X0082678Y0022346D01*
X0082975Y0022732D01*
X0083475Y0022562D01*
Y0017478D01*
X0082975Y0017308D01*
X0082678Y0017694D01*
X0081895Y0018295D01*
X0080983Y0018673D01*
X0080004Y0018802D01*
X0079025Y0018673D01*
X0078113Y0018295D01*
X0077330Y0017694D01*
X0076729Y0016911D01*
X0076351Y0015999D01*
X0076222Y0015020D01*
X0076351Y0014041D01*
X0076729Y0013129D01*
X0077330Y0012346D01*
X0078113Y0011745D01*
X0079025Y0011367D01*
X0080004Y0011238D01*
X0080983Y0011367D01*
X0081895Y0011745D01*
X0082678Y0012346D01*
X0082975Y0012732D01*
X0083475Y0012562D01*
Y0010637D01*
X0074366Y0001529D01*
X0070653D01*
X0070653Y0040020D01*
X0070463Y0040479D01*
X0070004Y0040670D01*
X0058923D01*
X0058891Y0041170D01*
X0059479Y0041247D01*
X0060391Y0041625D01*
X0061174Y0042226D01*
X0061775Y0043009D01*
X0062153Y0043921D01*
X0062282Y0044900D01*
X0062153Y0045879D01*
X0061775Y0046791D01*
X0061174Y0047574D01*
X0060391Y0048175D01*
X0059479Y0048553D01*
X0058500Y0048682D01*
X0057521Y0048553D01*
X0056609Y0048175D01*
X0055826Y0047574D01*
X0055225Y0046791D01*
X0054847Y0045879D01*
X0054718Y0044900D01*
X0054847Y0043921D01*
X0055225Y0043009D01*
X0055826Y0042226D01*
X0056609Y0041625D01*
X0057521Y0041247D01*
X0058109Y0041170D01*
X0058077Y0040670D01*
X0006533Y0040670D01*
Y0042562D01*
X0007033Y0042732D01*
X0007330Y0042346D01*
X0008113Y0041745D01*
X0009025Y0041367D01*
X0010004Y0041238D01*
X0010983Y0041367D01*
X0011895Y0041745D01*
X0012678Y0042346D01*
X0013279Y0043129D01*
X0013657Y0044041D01*
X0013786Y0045020D01*
X0013657Y0045999D01*
X0013279Y0046911D01*
X0012678Y0047694D01*
X0011895Y0048295D01*
X0010983Y0048673D01*
X0010004Y0048802D01*
X0009025Y0048673D01*
X0008113Y0048295D01*
X0007330Y0047694D01*
X0007033Y0047308D01*
X0006533Y0047478D01*
Y0052562D01*
X0007033Y0052732D01*
X0007330Y0052346D01*
X0008113Y0051745D01*
X0009025Y0051367D01*
X0010004Y0051238D01*
X0010983Y0051367D01*
X0011895Y0051745D01*
X0012678Y0052346D01*
X0013279Y0053129D01*
X0013657Y0054041D01*
X0013786Y0055020D01*
X0013657Y0055999D01*
X0013279Y0056911D01*
X0012678Y0057694D01*
X0011895Y0058295D01*
X0010983Y0058673D01*
X0010004Y0058802D01*
X0009025Y0058673D01*
X0008113Y0058295D01*
X0007330Y0057694D01*
X0007033Y0057308D01*
X0006533Y0057478D01*
Y0062562D01*
X0007033Y0062732D01*
X0007330Y0062346D01*
X0008113Y0061745D01*
X0009025Y0061367D01*
X0010004Y0061238D01*
X0010983Y0061367D01*
X0011895Y0061745D01*
X0012678Y0062346D01*
X0013279Y0063129D01*
X0013657Y0064041D01*
X0013786Y0065020D01*
X0013657Y0065999D01*
X0013279Y0066911D01*
X0012678Y0067694D01*
X0011895Y0068295D01*
X0010983Y0068673D01*
X0010004Y0068802D01*
X0009025Y0068673D01*
X0008113Y0068295D01*
X0007330Y0067694D01*
X0007033Y0067308D01*
X0006533Y0067478D01*
Y0072562D01*
X0007033Y0072732D01*
X0007330Y0072346D01*
X0008113Y0071745D01*
X0009025Y0071367D01*
X0010004Y0071238D01*
X0010983Y0071367D01*
X0011895Y0071745D01*
X0012678Y0072346D01*
X0013279Y0073129D01*
X0013657Y0074041D01*
X0013786Y0075020D01*
X0013657Y0075999D01*
X0013279Y0076911D01*
X0012678Y0077694D01*
X0011895Y0078295D01*
X0010983Y0078673D01*
X0010004Y0078802D01*
X0009025Y0078673D01*
X0008113Y0078295D01*
X0007330Y0077694D01*
X0007033Y0077308D01*
X0006533Y0077478D01*
Y0082562D01*
X0007033Y0082732D01*
X0007330Y0082346D01*
X0008113Y0081745D01*
X0009025Y0081367D01*
X0010004Y0081238D01*
X0010983Y0081367D01*
X0011895Y0081745D01*
X0012678Y0082346D01*
X0013279Y0083129D01*
X0013657Y0084041D01*
X0013786Y0085020D01*
X0013657Y0085999D01*
X0013279Y0086911D01*
X0012678Y0087694D01*
X0011895Y0088295D01*
X0010983Y0088673D01*
X0010004Y0088802D01*
X0009025Y0088673D01*
X0008113Y0088295D01*
X0007330Y0087694D01*
X0007033Y0087308D01*
X0006533Y0087478D01*
Y0092562D01*
X0007033Y0092732D01*
X0007330Y0092346D01*
X0008113Y0091745D01*
X0009025Y0091367D01*
X0010004Y0091238D01*
X0010983Y0091367D01*
X0011895Y0091745D01*
X0012678Y0092346D01*
X0013279Y0093129D01*
X0013657Y0094041D01*
X0013786Y0095020D01*
X0013657Y0095999D01*
X0013279Y0096911D01*
X0012678Y0097694D01*
X0011895Y0098295D01*
X0010983Y0098673D01*
X0010004Y0098802D01*
X0009025Y0098673D01*
X0008113Y0098295D01*
X0007330Y0097694D01*
X0007033Y0097308D01*
X0006533Y0097478D01*
Y0102562D01*
X0007033Y0102732D01*
X0007330Y0102346D01*
X0008113Y0101745D01*
X0009025Y0101367D01*
X0010004Y0101238D01*
X0010983Y0101367D01*
X0011895Y0101745D01*
X0012678Y0102346D01*
X0013279Y0103129D01*
X0013657Y0104041D01*
X0013786Y0105020D01*
X0013657Y0105999D01*
X0013279Y0106911D01*
X0012678Y0107694D01*
X0011895Y0108295D01*
X0010983Y0108673D01*
X0010004Y0108802D01*
X0009025Y0108673D01*
X0008113Y0108295D01*
X0007330Y0107694D01*
X0007033Y0107308D01*
X0006533Y0107478D01*
Y0112234D01*
X0007033Y0112404D01*
X0007187Y0112203D01*
X0008012Y0111570D01*
X0008973Y0111172D01*
X0009404Y0111115D01*
Y0115020D01*
Y0118925D01*
X0008973Y0118868D01*
X0008012Y0118470D01*
X0007187Y0117837D01*
X0007033Y0117637D01*
X0006533Y0117806D01*
Y0121537D01*
X0007033Y0121762D01*
X0007581Y0121397D01*
X0008429Y0121228D01*
X0011579D01*
X0012427Y0121397D01*
X0013147Y0121877D01*
X0013627Y0122597D01*
X0013796Y0123445D01*
Y0126595D01*
X0013627Y0127443D01*
X0013147Y0128163D01*
X0012427Y0128644D01*
X0011579Y0128812D01*
X0008429D01*
X0007581Y0128644D01*
X0007033Y0128278D01*
X0006533Y0128504D01*
Y0144298D01*
X0083475D01*
Y0127478D01*
D02*
G37*
G36*
Y0122562D02*
Y0117478D01*
X0082975Y0117308D01*
X0082678Y0117694D01*
X0081895Y0118295D01*
X0080983Y0118673D01*
X0080004Y0118802D01*
X0079025Y0118673D01*
X0078113Y0118295D01*
X0077330Y0117694D01*
X0076729Y0116911D01*
X0076351Y0115999D01*
X0076222Y0115020D01*
X0076351Y0114041D01*
X0076729Y0113129D01*
X0077330Y0112346D01*
X0078113Y0111745D01*
X0079025Y0111367D01*
X0080004Y0111238D01*
X0080983Y0111367D01*
X0081895Y0111745D01*
X0082678Y0112346D01*
X0082975Y0112732D01*
X0083475Y0112562D01*
Y0107478D01*
X0082975Y0107308D01*
X0082678Y0107694D01*
X0081895Y0108295D01*
X0080983Y0108673D01*
X0080004Y0108802D01*
X0079025Y0108673D01*
X0078113Y0108295D01*
X0077330Y0107694D01*
X0076729Y0106911D01*
X0076351Y0105999D01*
X0076222Y0105020D01*
X0076351Y0104041D01*
X0076729Y0103129D01*
X0077330Y0102346D01*
X0078113Y0101745D01*
X0079025Y0101367D01*
X0080004Y0101238D01*
X0080983Y0101367D01*
X0081895Y0101745D01*
X0082678Y0102346D01*
X0082975Y0102732D01*
X0083475Y0102562D01*
Y0097806D01*
X0082975Y0097636D01*
X0082821Y0097837D01*
X0081996Y0098470D01*
X0081035Y0098868D01*
X0080604Y0098925D01*
Y0095020D01*
Y0091115D01*
X0081035Y0091172D01*
X0081996Y0091570D01*
X0082821Y0092203D01*
X0082975Y0092404D01*
X0083475Y0092234D01*
Y0087478D01*
X0082975Y0087308D01*
X0082678Y0087694D01*
X0081895Y0088295D01*
X0080983Y0088673D01*
X0080004Y0088802D01*
X0079025Y0088673D01*
X0078113Y0088295D01*
X0077330Y0087694D01*
X0076729Y0086911D01*
X0076351Y0085999D01*
X0076222Y0085020D01*
X0076351Y0084041D01*
X0076729Y0083129D01*
X0077330Y0082346D01*
X0078113Y0081745D01*
X0079025Y0081367D01*
X0080004Y0081238D01*
X0080983Y0081367D01*
X0081895Y0081745D01*
X0082678Y0082346D01*
X0082975Y0082732D01*
X0083475Y0082562D01*
Y0077478D01*
X0082975Y0077308D01*
X0082678Y0077694D01*
X0081895Y0078295D01*
X0080983Y0078673D01*
X0080004Y0078802D01*
X0079025Y0078673D01*
X0078113Y0078295D01*
X0077330Y0077694D01*
X0076729Y0076911D01*
X0076351Y0075999D01*
X0076222Y0075020D01*
X0076351Y0074041D01*
X0076729Y0073129D01*
X0077330Y0072346D01*
X0078113Y0071745D01*
X0079025Y0071367D01*
X0080004Y0071238D01*
X0080983Y0071367D01*
X0081895Y0071745D01*
X0082678Y0072346D01*
X0082975Y0072732D01*
X0083475Y0072562D01*
Y0067478D01*
X0082975Y0067308D01*
X0082678Y0067694D01*
X0081895Y0068295D01*
X0080983Y0068673D01*
X0080004Y0068802D01*
X0079025Y0068673D01*
X0078113Y0068295D01*
X0077330Y0067694D01*
X0076821Y0067032D01*
X0076341Y0066987D01*
X0076243Y0067006D01*
X0065732Y0077516D01*
X0065878Y0077995D01*
X0066021Y0078023D01*
X0066666Y0078454D01*
X0067097Y0079100D01*
X0067248Y0079860D01*
X0067097Y0080621D01*
X0066666Y0081266D01*
X0066637Y0081286D01*
Y0109706D01*
X0078511Y0121580D01*
X0079025Y0121367D01*
X0080004Y0121238D01*
X0080983Y0121367D01*
X0081895Y0121745D01*
X0082678Y0122346D01*
X0082975Y0122732D01*
X0083475Y0122562D01*
D02*
G37*
%LPC*%
G36*
X0010604Y0118925D02*
Y0115620D01*
X0013909D01*
X0013852Y0116051D01*
X0013454Y0117012D01*
X0012821Y0117837D01*
X0011996Y0118470D01*
X0011035Y0118868D01*
X0010604Y0118925D01*
D02*
G37*
G36*
X0013909Y0114420D02*
X0010604D01*
Y0111115D01*
X0011035Y0111172D01*
X0011996Y0111570D01*
X0012821Y0112203D01*
X0013454Y0113028D01*
X0013852Y0113989D01*
X0013909Y0114420D01*
D02*
G37*
G36*
X0044944Y0084833D02*
X0044800Y0084809D01*
X0044656Y0084833D01*
X0044565Y0084768D01*
X0044454Y0084750D01*
X0044453Y0084748D01*
X0044370Y0084631D01*
X0044250Y0084546D01*
X0044250Y0084544D01*
X0044232Y0084435D01*
X0044167Y0084344D01*
X0043187Y0080032D01*
X0042897Y0079839D01*
X0042726Y0079773D01*
X0042677Y0079769D01*
X0039056Y0082143D01*
X0038944Y0082164D01*
X0038852Y0082231D01*
X0038709Y0082209D01*
X0038568Y0082236D01*
X0038473Y0082172D01*
X0038361Y0082154D01*
X0038276Y0082037D01*
X0038157Y0081956D01*
X0038136Y0081844D01*
X0038069Y0081752D01*
X0038091Y0081609D01*
X0038064Y0081468D01*
X0038128Y0081373D01*
X0038146Y0081261D01*
X0040504Y0077414D01*
X0040502Y0077384D01*
X0040238Y0076891D01*
X0035875Y0076037D01*
X0035766Y0075965D01*
X0035638Y0075939D01*
X0035567Y0075833D01*
X0035464Y0075764D01*
X0035461Y0075762D01*
X0035435Y0075634D01*
X0035364Y0075527D01*
X0035363Y0075525D01*
X0035388Y0075400D01*
X0035363Y0075275D01*
X0035364Y0075273D01*
X0035435Y0075166D01*
X0035461Y0075037D01*
X0035462Y0075037D01*
X0035567Y0074967D01*
X0035638Y0074861D01*
X0035766Y0074835D01*
X0035875Y0074763D01*
X0040200Y0073917D01*
X0040457Y0073388D01*
X0038151Y0069748D01*
X0038132Y0069638D01*
X0038067Y0069547D01*
X0038091Y0069402D01*
X0038066Y0069258D01*
X0038131Y0069167D01*
X0038148Y0069059D01*
X0038149Y0069057D01*
X0038268Y0068971D01*
X0038353Y0068851D01*
X0038462Y0068832D01*
X0038553Y0068767D01*
X0038555Y0068768D01*
X0038698Y0068791D01*
X0038842Y0068766D01*
X0038933Y0068831D01*
X0039043Y0068849D01*
X0042681Y0071115D01*
X0042754Y0071107D01*
X0043210Y0070855D01*
X0044165Y0066462D01*
X0044233Y0066365D01*
X0044253Y0066252D01*
X0044254Y0066249D01*
X0044369Y0066169D01*
X0044447Y0066056D01*
X0044449Y0066054D01*
X0044565Y0066033D01*
X0044662Y0065965D01*
X0044800Y0065990D01*
X0044938Y0065965D01*
X0045035Y0066033D01*
X0045151Y0066054D01*
X0045153Y0066056D01*
X0045231Y0066169D01*
X0045346Y0066249D01*
X0045347Y0066252D01*
X0045367Y0066365D01*
X0045435Y0066462D01*
X0046378Y0070803D01*
X0046903Y0071056D01*
X0046906Y0071056D01*
X0050446Y0068756D01*
X0050559Y0068734D01*
X0050653Y0068667D01*
X0050794Y0068691D01*
X0050932Y0068665D01*
X0050935Y0068665D01*
X0051030Y0068730D01*
X0051140Y0068748D01*
X0051143Y0068749D01*
X0051227Y0068865D01*
X0051345Y0068946D01*
X0051345Y0068948D01*
X0051366Y0069059D01*
X0051433Y0069153D01*
X0051432Y0069155D01*
X0051409Y0069294D01*
X0051435Y0069435D01*
X0051370Y0069530D01*
X0051351Y0069643D01*
X0049027Y0073374D01*
X0049056Y0073511D01*
X0049291Y0073897D01*
X0053530Y0074764D01*
X0053634Y0074834D01*
X0053758Y0074858D01*
X0053832Y0074968D01*
X0053939Y0075041D01*
X0053942Y0075042D01*
X0053966Y0075166D01*
X0054036Y0075270D01*
X0054011Y0075400D01*
X0054036Y0075530D01*
X0053966Y0075634D01*
X0053942Y0075758D01*
X0053832Y0075832D01*
X0053758Y0075942D01*
X0053756Y0075942D01*
X0053634Y0075966D01*
X0053530Y0076036D01*
X0049313Y0076899D01*
X0049070Y0077320D01*
X0049054Y0077423D01*
X0051548Y0081352D01*
X0051569Y0081471D01*
X0051636Y0081570D01*
X0051610Y0081706D01*
X0051633Y0081839D01*
X0051634Y0081841D01*
X0051565Y0081940D01*
X0051542Y0082058D01*
X0051428Y0082135D01*
X0051348Y0082248D01*
X0051346Y0082249D01*
X0051230Y0082269D01*
X0051130Y0082336D01*
X0050994Y0082310D01*
X0050858Y0082334D01*
X0050760Y0082265D01*
X0050642Y0082242D01*
X0046926Y0079784D01*
X0046877Y0079787D01*
X0046719Y0079843D01*
X0046411Y0080043D01*
X0045433Y0084344D01*
X0045368Y0084435D01*
X0045350Y0084546D01*
X0045230Y0084630D01*
X0045148Y0084747D01*
X0045146Y0084750D01*
X0045035Y0084768D01*
X0044946Y0084832D01*
X0044944Y0084833D01*
D02*
G37*
%LPD*%
G36*
X0045800Y0079800D02*
X0044800Y0079100D01*
X0043800Y0079800D01*
X0044800Y0084200D01*
X0045800Y0079800D01*
D02*
G37*
G36*
X0047000Y0075400D02*
X0050800Y0069300D01*
X0044800Y0073200D01*
X0038700Y0069400D01*
X0042500Y0075400D01*
X0038700Y0081600D01*
X0044800Y0077600D01*
X0051000Y0081700D01*
X0047000Y0075400D01*
D02*
G37*
G36*
X0053400D02*
X0049000Y0074500D01*
X0048400Y0075400D01*
X0049000Y0076300D01*
X0053400Y0075400D01*
D02*
G37*
G36*
X0041200D02*
X0040600Y0074500D01*
X0036000Y0075400D01*
X0040600Y0076300D01*
X0041200Y0075400D01*
D02*
G37*
G36*
X0045800Y0071200D02*
X0044800Y0066600D01*
X0043800Y0071200D01*
X0044800Y0071800D01*
X0045800Y0071200D01*
D02*
G37*
%LPC*%
G36*
X0079404Y0098925D02*
X0078973Y0098868D01*
X0078012Y0098470D01*
X0077187Y0097837D01*
X0076554Y0097012D01*
X0076156Y0096051D01*
X0076099Y0095620D01*
X0079404D01*
Y0098925D01*
D02*
G37*
G36*
Y0094420D02*
X0076099D01*
X0076156Y0093989D01*
X0076554Y0093028D01*
X0077187Y0092203D01*
X0078012Y0091570D01*
X0078973Y0091172D01*
X0079404Y0091115D01*
Y0094420D01*
D02*
G37*
%LPD*%
D23*
X0065260Y0110276D02*
X0080004Y0125020D01*
X0065260Y0079860D02*
Y0110276D01*
X0039902Y0101400D02*
X0039902D01*
X0079547Y0065477D02*
X0080004Y0065020D01*
X0075825Y0065477D02*
X0079547D01*
X0039902Y0101400D02*
X0075825Y0065477D01*
D25*
X0058500Y0044900D02*
D03*
X0010004Y0115020D02*
D03*
Y0105020D02*
D03*
Y0095020D02*
D03*
Y0085020D02*
D03*
Y0075020D02*
D03*
Y0065020D02*
D03*
Y0055020D02*
D03*
Y0045020D02*
D03*
Y0035020D02*
D03*
Y0025020D02*
D03*
Y0015020D02*
D03*
X0080004D02*
D03*
Y0025020D02*
D03*
Y0035020D02*
D03*
Y0045020D02*
D03*
Y0055020D02*
D03*
Y0065020D02*
D03*
Y0075020D02*
D03*
Y0085020D02*
D03*
Y0095020D02*
D03*
Y0105020D02*
D03*
Y0115020D02*
D03*
Y0125020D02*
D03*
D26*
X0010004D02*
D03*
D27*
X0076900Y0070100D02*
D03*
X0077400Y0040000D02*
D03*
X0077000Y0080000D02*
D03*
X0065260Y0079860D02*
D03*
X0039902Y0101400D02*
D03*
X0035000Y0098500D02*
D03*
X0062500Y0070500D02*
D03*
X0061500Y0099500D02*
D03*
X0017400Y0100000D02*
D03*
X0072200Y0134100D02*
D03*
M02*
