M48
;Layer_Color=9474304
;FILE_FORMAT=2:5
INCH
;TYPE=PLATED
T1F00S00C0.01300
T2F00S00C0.03937
%
T01
X0077400Y0040000
X0076900Y0070100
X0077000Y0080000
X0065260Y0079860
X0062500Y0070500
X0061500Y0099500
X0039902Y0101400
X0035000Y0098500
X0017400Y0100000
X0072200Y0134100
T02
X0010004Y0015020
Y0025020
Y0035020
Y0045020
Y0055020
Y0065020
Y0075020
Y0085020
Y0095020
Y0105020
X0080004
Y0095020
Y0085020
Y0075020
Y0065020
Y0055020
Y0045020
Y0035020
Y0025020
Y0015020
X0058500Y0044900
X0080004Y0115020
Y0125020
X0010004
Y0115020
M30
