G04*
G04 #@! TF.GenerationSoftware,Altium Limited,Altium Designer,20.1.11 (218)*
G04*
G04 Layer_Physical_Order=1*
G04 Layer_Color=255*
%FSAX25Y25*%
%MOIN*%
G70*
G04*
G04 #@! TF.SameCoordinates,33997834-81F2-4769-9C1A-FA938185F8BD*
G04*
G04*
G04 #@! TF.FilePolarity,Positive*
G04*
G01*
G75*
G04:AMPARAMS|DCode=20|XSize=29.13mil|YSize=109.84mil|CornerRadius=7.28mil|HoleSize=0mil|Usage=FLASHONLY|Rotation=180.000|XOffset=0mil|YOffset=0mil|HoleType=Round|Shape=RoundedRectangle|*
%AMROUNDEDRECTD20*
21,1,0.02913,0.09528,0,0,180.0*
21,1,0.01457,0.10984,0,0,180.0*
1,1,0.01457,-0.00728,0.04764*
1,1,0.01457,0.00728,0.04764*
1,1,0.01457,0.00728,-0.04764*
1,1,0.01457,-0.00728,-0.04764*
%
%ADD20ROUNDEDRECTD20*%
G04:AMPARAMS|DCode=21|XSize=29.5mil|YSize=109.84mil|CornerRadius=7.38mil|HoleSize=0mil|Usage=FLASHONLY|Rotation=180.000|XOffset=0mil|YOffset=0mil|HoleType=Round|Shape=RoundedRectangle|*
%AMROUNDEDRECTD21*
21,1,0.02950,0.09509,0,0,180.0*
21,1,0.01475,0.10984,0,0,180.0*
1,1,0.01475,-0.00738,0.04755*
1,1,0.01475,0.00738,0.04755*
1,1,0.01475,0.00738,-0.04755*
1,1,0.01475,-0.00738,-0.04755*
%
%ADD21ROUNDEDRECTD21*%
G04:AMPARAMS|DCode=22|XSize=39mil|YSize=43mil|CornerRadius=9.75mil|HoleSize=0mil|Usage=FLASHONLY|Rotation=180.000|XOffset=0mil|YOffset=0mil|HoleType=Round|Shape=RoundedRectangle|*
%AMROUNDEDRECTD22*
21,1,0.03900,0.02350,0,0,180.0*
21,1,0.01950,0.04300,0,0,180.0*
1,1,0.01950,-0.00975,0.01175*
1,1,0.01950,0.00975,0.01175*
1,1,0.01950,0.00975,-0.01175*
1,1,0.01950,-0.00975,-0.01175*
%
%ADD22ROUNDEDRECTD22*%
%ADD23C,0.01500*%
%ADD24C,0.02500*%
%ADD25C,0.06299*%
G04:AMPARAMS|DCode=26|XSize=62.99mil|YSize=62.99mil|CornerRadius=15.75mil|HoleSize=0mil|Usage=FLASHONLY|Rotation=0.000|XOffset=0mil|YOffset=0mil|HoleType=Round|Shape=RoundedRectangle|*
%AMROUNDEDRECTD26*
21,1,0.06299,0.03150,0,0,0.0*
21,1,0.03150,0.06299,0,0,0.0*
1,1,0.03150,0.01575,-0.01575*
1,1,0.03150,-0.01575,-0.01575*
1,1,0.03150,-0.01575,0.01575*
1,1,0.03150,0.01575,0.01575*
%
%ADD26ROUNDEDRECTD26*%
%ADD27C,0.02700*%
G36*
X0083475Y0127478D02*
X0082975Y0127308D01*
X0082678Y0127694D01*
X0081895Y0128295D01*
X0081380Y0128508D01*
Y0134996D01*
X0081276Y0135523D01*
X0080977Y0135969D01*
X0080977Y0135969D01*
X0077971Y0138975D01*
X0077525Y0139274D01*
X0076998Y0139378D01*
X0056606D01*
X0056606Y0139378D01*
X0056079Y0139274D01*
X0055632Y0138975D01*
X0053727Y0137069D01*
X0053428Y0136623D01*
X0053324Y0136096D01*
Y0132828D01*
X0053014Y0132621D01*
X0052721Y0132182D01*
X0052618Y0131664D01*
Y0122136D01*
X0052721Y0121618D01*
X0053014Y0121179D01*
X0053453Y0120885D01*
X0053972Y0120782D01*
X0055428D01*
X0055946Y0120885D01*
X0056386Y0121179D01*
X0056679Y0121618D01*
X0056783Y0122136D01*
Y0131664D01*
X0056679Y0132182D01*
X0056386Y0132621D01*
X0056076Y0132828D01*
Y0135526D01*
X0057176Y0136626D01*
X0076428D01*
X0078628Y0134426D01*
Y0128508D01*
X0078113Y0128295D01*
X0077330Y0127694D01*
X0076729Y0126911D01*
X0076351Y0125999D01*
X0076222Y0125020D01*
X0076351Y0124041D01*
X0076729Y0123129D01*
X0077330Y0122346D01*
X0078113Y0121745D01*
X0079025Y0121367D01*
X0080004Y0121238D01*
X0080983Y0121367D01*
X0081895Y0121745D01*
X0082678Y0122346D01*
X0082975Y0122732D01*
X0083475Y0122562D01*
Y0117478D01*
X0082975Y0117308D01*
X0082678Y0117694D01*
X0081895Y0118295D01*
X0080983Y0118673D01*
X0080004Y0118802D01*
X0079025Y0118673D01*
X0078113Y0118295D01*
X0077330Y0117694D01*
X0076729Y0116911D01*
X0076516Y0116396D01*
X0069663D01*
X0067344Y0118715D01*
X0066897Y0119014D01*
X0066371Y0119118D01*
X0035579D01*
X0035052Y0119014D01*
X0034605Y0118715D01*
X0033727Y0117837D01*
X0033428Y0117390D01*
X0033324Y0116863D01*
Y0116836D01*
X0032998Y0116619D01*
X0032703Y0116176D01*
X0032599Y0115655D01*
Y0106146D01*
X0032703Y0105624D01*
X0032998Y0105181D01*
X0033441Y0104886D01*
X0033963Y0104782D01*
X0035438D01*
X0035959Y0104886D01*
X0036402Y0105181D01*
X0036697Y0105624D01*
X0036801Y0106146D01*
Y0115655D01*
X0037189Y0116053D01*
X0037228Y0116053D01*
X0037523Y0115758D01*
X0037617Y0115595D01*
Y0106136D01*
X0037721Y0105618D01*
X0038014Y0105179D01*
X0038425Y0104904D01*
Y0102699D01*
X0038065Y0102161D01*
X0037914Y0101400D01*
X0038065Y0100639D01*
X0038496Y0099994D01*
X0039141Y0099563D01*
X0039902Y0099412D01*
X0040663Y0099563D01*
X0041308Y0099994D01*
X0041739Y0100639D01*
X0041890Y0101400D01*
X0041739Y0102161D01*
X0041308Y0102806D01*
X0041178Y0102893D01*
Y0105040D01*
X0041386Y0105179D01*
X0041679Y0105618D01*
X0041783Y0106136D01*
Y0115664D01*
X0042166Y0116064D01*
X0042234D01*
X0042551Y0115733D01*
X0042617Y0115608D01*
Y0106136D01*
X0042721Y0105618D01*
X0043014Y0105179D01*
X0043324Y0104972D01*
Y0078953D01*
X0043428Y0078427D01*
X0043727Y0077980D01*
X0065919Y0055788D01*
Y0053778D01*
X0066041Y0053164D01*
X0066390Y0052643D01*
X0066910Y0052295D01*
X0067525Y0052173D01*
X0069475D01*
X0070090Y0052295D01*
X0070610Y0052643D01*
X0070959Y0053164D01*
X0071047Y0053610D01*
X0076529D01*
X0076729Y0053129D01*
X0077330Y0052346D01*
X0078113Y0051745D01*
X0079025Y0051367D01*
X0080004Y0051238D01*
X0080983Y0051367D01*
X0081895Y0051745D01*
X0082678Y0052346D01*
X0082975Y0052732D01*
X0083475Y0052562D01*
Y0047478D01*
X0082975Y0047308D01*
X0082678Y0047694D01*
X0081895Y0048295D01*
X0080983Y0048673D01*
X0080004Y0048802D01*
X0079025Y0048673D01*
X0078113Y0048295D01*
X0077330Y0047694D01*
X0076729Y0046911D01*
X0076508Y0046377D01*
X0061980Y0046296D01*
X0061775Y0046791D01*
X0061174Y0047574D01*
X0060391Y0048175D01*
X0059479Y0048553D01*
X0058500Y0048682D01*
X0057521Y0048553D01*
X0056609Y0048175D01*
X0055826Y0047574D01*
X0055225Y0046791D01*
X0054847Y0045879D01*
X0054718Y0044900D01*
X0054847Y0043921D01*
X0055225Y0043009D01*
X0055826Y0042226D01*
X0056609Y0041625D01*
X0057521Y0041247D01*
X0058109Y0041170D01*
X0058077Y0040670D01*
X0006533Y0040670D01*
Y0042562D01*
X0007033Y0042732D01*
X0007330Y0042346D01*
X0008113Y0041745D01*
X0009025Y0041367D01*
X0010004Y0041238D01*
X0010983Y0041367D01*
X0011895Y0041745D01*
X0012678Y0042346D01*
X0013279Y0043129D01*
X0013657Y0044041D01*
X0013786Y0045020D01*
X0013657Y0045999D01*
X0013279Y0046911D01*
X0012678Y0047694D01*
X0011895Y0048295D01*
X0010983Y0048673D01*
X0010004Y0048802D01*
X0009025Y0048673D01*
X0008113Y0048295D01*
X0007330Y0047694D01*
X0007033Y0047308D01*
X0006533Y0047478D01*
Y0052562D01*
X0007033Y0052732D01*
X0007330Y0052346D01*
X0008113Y0051745D01*
X0009025Y0051367D01*
X0010004Y0051238D01*
X0010983Y0051367D01*
X0011895Y0051745D01*
X0012678Y0052346D01*
X0013279Y0053129D01*
X0013657Y0054041D01*
X0013786Y0055020D01*
X0013657Y0055999D01*
X0013279Y0056911D01*
X0012678Y0057694D01*
X0011895Y0058295D01*
X0010983Y0058673D01*
X0010004Y0058802D01*
X0009025Y0058673D01*
X0008113Y0058295D01*
X0007330Y0057694D01*
X0007033Y0057308D01*
X0006533Y0057478D01*
Y0062562D01*
X0007033Y0062732D01*
X0007330Y0062346D01*
X0008113Y0061745D01*
X0009025Y0061367D01*
X0010004Y0061238D01*
X0010983Y0061367D01*
X0011895Y0061745D01*
X0012678Y0062346D01*
X0013279Y0063129D01*
X0013657Y0064041D01*
X0013786Y0065020D01*
X0013657Y0065999D01*
X0013279Y0066911D01*
X0012678Y0067694D01*
X0011895Y0068295D01*
X0010983Y0068673D01*
X0010004Y0068802D01*
X0009025Y0068673D01*
X0008113Y0068295D01*
X0007330Y0067694D01*
X0007033Y0067308D01*
X0006533Y0067478D01*
Y0072562D01*
X0007033Y0072732D01*
X0007330Y0072346D01*
X0008113Y0071745D01*
X0009025Y0071367D01*
X0010004Y0071238D01*
X0010983Y0071367D01*
X0011895Y0071745D01*
X0012678Y0072346D01*
X0013279Y0073129D01*
X0013657Y0074041D01*
X0013786Y0075020D01*
X0013657Y0075999D01*
X0013279Y0076911D01*
X0012678Y0077694D01*
X0011895Y0078295D01*
X0010983Y0078673D01*
X0010004Y0078802D01*
X0009025Y0078673D01*
X0008113Y0078295D01*
X0007330Y0077694D01*
X0007033Y0077308D01*
X0006533Y0077478D01*
Y0082562D01*
X0007033Y0082732D01*
X0007330Y0082346D01*
X0008113Y0081745D01*
X0009025Y0081367D01*
X0010004Y0081238D01*
X0010983Y0081367D01*
X0011895Y0081745D01*
X0012678Y0082346D01*
X0013279Y0083129D01*
X0013657Y0084041D01*
X0013786Y0085020D01*
X0013657Y0085999D01*
X0013279Y0086911D01*
X0012678Y0087694D01*
X0011895Y0088295D01*
X0010983Y0088673D01*
X0010004Y0088802D01*
X0009025Y0088673D01*
X0008113Y0088295D01*
X0007330Y0087694D01*
X0007033Y0087308D01*
X0006533Y0087478D01*
Y0092562D01*
X0007033Y0092732D01*
X0007330Y0092346D01*
X0008113Y0091745D01*
X0009025Y0091367D01*
X0010004Y0091238D01*
X0010983Y0091367D01*
X0011895Y0091745D01*
X0012678Y0092346D01*
X0013279Y0093129D01*
X0013492Y0093644D01*
X0024920D01*
X0025447Y0093748D01*
X0025893Y0094047D01*
X0030673Y0098827D01*
X0030673Y0098827D01*
X0030972Y0099273D01*
X0031076Y0099800D01*
Y0104964D01*
X0031402Y0105181D01*
X0031697Y0105624D01*
X0031801Y0106146D01*
Y0115655D01*
X0031697Y0116176D01*
X0031402Y0116619D01*
X0030959Y0116914D01*
X0030437Y0117018D01*
X0028962D01*
X0028725Y0116971D01*
X0028478Y0117432D01*
X0030673Y0119627D01*
X0030673Y0119627D01*
X0030972Y0120073D01*
X0031076Y0120600D01*
Y0120964D01*
X0031402Y0121181D01*
X0031697Y0121624D01*
X0031801Y0122145D01*
Y0131655D01*
X0031697Y0132176D01*
X0031402Y0132619D01*
X0030959Y0132914D01*
X0030437Y0133018D01*
X0028962D01*
X0028441Y0132914D01*
X0027998Y0132619D01*
X0027703Y0132176D01*
X0027599Y0131655D01*
Y0122145D01*
X0027703Y0121624D01*
X0027998Y0121181D01*
X0028028Y0120875D01*
X0013884Y0106730D01*
X0013321Y0106810D01*
X0013279Y0106911D01*
X0012678Y0107694D01*
X0011895Y0108295D01*
X0010983Y0108673D01*
X0010004Y0108802D01*
X0009025Y0108673D01*
X0008113Y0108295D01*
X0007330Y0107694D01*
X0007033Y0107308D01*
X0006533Y0107478D01*
Y0112234D01*
X0007033Y0112404D01*
X0007187Y0112203D01*
X0008012Y0111570D01*
X0008973Y0111172D01*
X0009404Y0111115D01*
Y0115020D01*
Y0118925D01*
X0008973Y0118868D01*
X0008012Y0118470D01*
X0007187Y0117837D01*
X0007033Y0117637D01*
X0006533Y0117806D01*
Y0121537D01*
X0007033Y0121762D01*
X0007581Y0121397D01*
X0008429Y0121228D01*
X0011579D01*
X0012427Y0121397D01*
X0013147Y0121877D01*
X0013627Y0122597D01*
X0013796Y0123445D01*
Y0126595D01*
X0013627Y0127443D01*
X0013147Y0128163D01*
X0012427Y0128644D01*
X0011579Y0128812D01*
X0008429D01*
X0007581Y0128644D01*
X0007033Y0128278D01*
X0006533Y0128504D01*
Y0144298D01*
X0083475D01*
Y0127478D01*
D02*
G37*
G36*
X0068119Y0114047D02*
X0068566Y0113748D01*
X0069093Y0113644D01*
X0076516D01*
X0076729Y0113129D01*
X0077330Y0112346D01*
X0078113Y0111745D01*
X0079025Y0111367D01*
X0080004Y0111238D01*
X0080983Y0111367D01*
X0081895Y0111745D01*
X0082678Y0112346D01*
X0082975Y0112732D01*
X0083475Y0112562D01*
Y0107478D01*
X0082975Y0107308D01*
X0082678Y0107694D01*
X0081895Y0108295D01*
X0080983Y0108673D01*
X0080004Y0108802D01*
X0079025Y0108673D01*
X0078113Y0108295D01*
X0077330Y0107694D01*
X0076729Y0106911D01*
X0076351Y0105999D01*
X0076222Y0105020D01*
X0076351Y0104041D01*
X0076729Y0103129D01*
X0077330Y0102346D01*
X0078113Y0101745D01*
X0079025Y0101367D01*
X0080004Y0101238D01*
X0080983Y0101367D01*
X0081895Y0101745D01*
X0082678Y0102346D01*
X0082975Y0102732D01*
X0083475Y0102562D01*
Y0097806D01*
X0082975Y0097636D01*
X0082821Y0097837D01*
X0081996Y0098470D01*
X0081035Y0098868D01*
X0080604Y0098925D01*
Y0095020D01*
Y0091115D01*
X0081035Y0091172D01*
X0081996Y0091570D01*
X0082821Y0092203D01*
X0082975Y0092404D01*
X0083475Y0092234D01*
Y0087478D01*
X0082975Y0087308D01*
X0082678Y0087694D01*
X0081895Y0088295D01*
X0080983Y0088673D01*
X0080004Y0088802D01*
X0079025Y0088673D01*
X0078113Y0088295D01*
X0077330Y0087694D01*
X0076729Y0086911D01*
X0076516Y0086396D01*
X0072050D01*
X0056076Y0102370D01*
Y0104972D01*
X0056386Y0105179D01*
X0056679Y0105618D01*
X0056783Y0106136D01*
Y0115664D01*
X0057166Y0116064D01*
X0057234D01*
X0057551Y0115733D01*
X0057617Y0115608D01*
Y0106136D01*
X0057721Y0105618D01*
X0058014Y0105179D01*
X0058454Y0104885D01*
X0058972Y0104782D01*
X0060428D01*
X0060947Y0104885D01*
X0061386Y0105179D01*
X0061679Y0105618D01*
X0061782Y0106136D01*
Y0115664D01*
X0061742Y0115866D01*
X0062112Y0116366D01*
X0065800D01*
X0068119Y0114047D01*
D02*
G37*
G36*
X0027646Y0115892D02*
X0027599Y0115655D01*
Y0106146D01*
X0027703Y0105624D01*
X0027998Y0105181D01*
X0028324Y0104964D01*
Y0100370D01*
X0024350Y0096396D01*
X0013492D01*
X0013279Y0096911D01*
X0012678Y0097694D01*
X0011895Y0098295D01*
X0010983Y0098673D01*
X0010004Y0098802D01*
X0009025Y0098673D01*
X0008113Y0098295D01*
X0007330Y0097694D01*
X0007033Y0097308D01*
X0006533Y0097478D01*
Y0102562D01*
X0007033Y0102732D01*
X0007330Y0102346D01*
X0008113Y0101745D01*
X0009025Y0101367D01*
X0010004Y0101238D01*
X0010983Y0101367D01*
X0011895Y0101745D01*
X0012678Y0102346D01*
X0013279Y0103129D01*
X0013563Y0103814D01*
X0014290D01*
X0014817Y0103918D01*
X0015263Y0104217D01*
X0027185Y0116139D01*
X0027646Y0115892D01*
D02*
G37*
G36*
X0052551Y0115733D02*
X0052618Y0115608D01*
Y0106136D01*
X0052721Y0105618D01*
X0053014Y0105179D01*
X0053324Y0104972D01*
Y0101800D01*
X0053428Y0101273D01*
X0053727Y0100827D01*
X0070507Y0084047D01*
X0070507Y0084047D01*
X0070953Y0083748D01*
X0071480Y0083644D01*
X0071480Y0083644D01*
X0076516D01*
X0076729Y0083129D01*
X0077330Y0082346D01*
X0078113Y0081745D01*
X0079025Y0081367D01*
X0080004Y0081238D01*
X0080983Y0081367D01*
X0081895Y0081745D01*
X0082678Y0082346D01*
X0082975Y0082732D01*
X0083475Y0082562D01*
Y0077478D01*
X0082975Y0077308D01*
X0082678Y0077694D01*
X0081895Y0078295D01*
X0080983Y0078673D01*
X0080004Y0078802D01*
X0079025Y0078673D01*
X0078113Y0078295D01*
X0077330Y0077694D01*
X0077004Y0077270D01*
X0076409Y0077238D01*
X0051076Y0102570D01*
Y0104972D01*
X0051386Y0105179D01*
X0051679Y0105618D01*
X0051783Y0106136D01*
Y0115664D01*
X0052166Y0116064D01*
X0052234D01*
X0052551Y0115733D01*
D02*
G37*
G36*
X0047551D02*
X0047618Y0115608D01*
Y0106136D01*
X0047721Y0105618D01*
X0048014Y0105179D01*
X0048324Y0104972D01*
Y0102000D01*
X0048428Y0101473D01*
X0048727Y0101027D01*
X0075050Y0074703D01*
X0075051Y0074703D01*
X0075497Y0074405D01*
X0076024Y0074300D01*
X0076317D01*
X0076351Y0074041D01*
X0076729Y0073129D01*
X0077330Y0072346D01*
X0078113Y0071745D01*
X0079025Y0071367D01*
X0080004Y0071238D01*
X0080983Y0071367D01*
X0081895Y0071745D01*
X0082678Y0072346D01*
X0082975Y0072732D01*
X0083475Y0072562D01*
Y0067478D01*
X0082975Y0067308D01*
X0082678Y0067694D01*
X0081895Y0068295D01*
X0080983Y0068673D01*
X0080004Y0068802D01*
X0079025Y0068673D01*
X0078113Y0068295D01*
X0077330Y0067694D01*
X0076729Y0066911D01*
X0076351Y0065999D01*
X0076222Y0065020D01*
X0076351Y0064041D01*
X0076729Y0063129D01*
X0077330Y0062346D01*
X0078113Y0061745D01*
X0079025Y0061367D01*
X0080004Y0061238D01*
X0080983Y0061367D01*
X0081895Y0061745D01*
X0082678Y0062346D01*
X0082975Y0062732D01*
X0083475Y0062562D01*
Y0057478D01*
X0082975Y0057308D01*
X0082678Y0057694D01*
X0081895Y0058295D01*
X0080983Y0058673D01*
X0080004Y0058802D01*
X0079025Y0058673D01*
X0078113Y0058295D01*
X0077330Y0057694D01*
X0076729Y0056911D01*
X0076502Y0056363D01*
X0071034D01*
X0070959Y0056743D01*
X0070610Y0057264D01*
X0070090Y0057612D01*
X0069475Y0057734D01*
X0067866D01*
X0067175Y0058425D01*
X0067421Y0058886D01*
X0067525Y0058866D01*
X0069475D01*
X0070090Y0058988D01*
X0070610Y0059336D01*
X0070959Y0059857D01*
X0071081Y0060471D01*
Y0062822D01*
X0070959Y0063436D01*
X0070610Y0063957D01*
X0070090Y0064305D01*
X0069876Y0064347D01*
Y0076621D01*
X0069876Y0076621D01*
X0069772Y0077147D01*
X0069473Y0077594D01*
X0067242Y0079826D01*
X0067248Y0079860D01*
X0067097Y0080621D01*
X0066666Y0081266D01*
X0066021Y0081697D01*
X0065260Y0081849D01*
X0064499Y0081697D01*
X0063854Y0081266D01*
X0063423Y0080621D01*
X0063272Y0079860D01*
X0063423Y0079100D01*
X0063854Y0078454D01*
X0064499Y0078023D01*
X0065260Y0077872D01*
X0065295Y0077879D01*
X0067124Y0076051D01*
Y0064347D01*
X0066910Y0064305D01*
X0066390Y0063957D01*
X0066041Y0063436D01*
X0065919Y0062822D01*
Y0060471D01*
X0065940Y0060367D01*
X0065479Y0060121D01*
X0046076Y0079524D01*
Y0104972D01*
X0046386Y0105179D01*
X0046679Y0105618D01*
X0046782Y0106136D01*
Y0115664D01*
X0047166Y0116064D01*
X0047234D01*
X0047551Y0115733D01*
D02*
G37*
G36*
X0076729Y0043129D02*
X0077330Y0042346D01*
X0078113Y0041745D01*
X0079025Y0041367D01*
X0080004Y0041238D01*
X0080983Y0041367D01*
X0081895Y0041745D01*
X0082678Y0042346D01*
X0082975Y0042732D01*
X0083475Y0042562D01*
Y0037478D01*
X0082975Y0037308D01*
X0082678Y0037694D01*
X0081895Y0038295D01*
X0080983Y0038673D01*
X0080004Y0038802D01*
X0079025Y0038673D01*
X0078113Y0038295D01*
X0077330Y0037694D01*
X0076729Y0036911D01*
X0076351Y0035999D01*
X0076222Y0035020D01*
X0076351Y0034041D01*
X0076729Y0033129D01*
X0077330Y0032346D01*
X0078113Y0031745D01*
X0079025Y0031367D01*
X0080004Y0031238D01*
X0080983Y0031367D01*
X0081895Y0031745D01*
X0082678Y0032346D01*
X0082975Y0032732D01*
X0083475Y0032562D01*
Y0027478D01*
X0082975Y0027308D01*
X0082678Y0027694D01*
X0081895Y0028295D01*
X0080983Y0028673D01*
X0080004Y0028802D01*
X0079025Y0028673D01*
X0078113Y0028295D01*
X0077330Y0027694D01*
X0076729Y0026911D01*
X0076351Y0025999D01*
X0076222Y0025020D01*
X0076351Y0024041D01*
X0076729Y0023129D01*
X0077330Y0022346D01*
X0078113Y0021745D01*
X0079025Y0021367D01*
X0080004Y0021238D01*
X0080983Y0021367D01*
X0081895Y0021745D01*
X0082678Y0022346D01*
X0082975Y0022732D01*
X0083475Y0022562D01*
Y0017478D01*
X0082975Y0017308D01*
X0082678Y0017694D01*
X0081895Y0018295D01*
X0080983Y0018673D01*
X0080004Y0018802D01*
X0079025Y0018673D01*
X0078113Y0018295D01*
X0077330Y0017694D01*
X0076729Y0016911D01*
X0076351Y0015999D01*
X0076222Y0015020D01*
X0076351Y0014041D01*
X0076729Y0013129D01*
X0077330Y0012346D01*
X0078113Y0011745D01*
X0079025Y0011367D01*
X0080004Y0011238D01*
X0080983Y0011367D01*
X0081895Y0011745D01*
X0082678Y0012346D01*
X0082975Y0012732D01*
X0083475Y0012562D01*
Y0010637D01*
X0074366Y0001529D01*
X0070653D01*
X0070653Y0040020D01*
X0070463Y0040479D01*
X0070004Y0040670D01*
X0058923D01*
X0058891Y0041170D01*
X0059479Y0041247D01*
X0060391Y0041625D01*
X0061174Y0042226D01*
X0061775Y0043009D01*
X0061997Y0043543D01*
X0076524Y0043624D01*
X0076729Y0043129D01*
D02*
G37*
%LPC*%
G36*
X0049200Y0133222D02*
X0048972D01*
X0048375Y0133103D01*
X0047870Y0132766D01*
X0047532Y0132260D01*
X0047455Y0131872D01*
X0046945D01*
X0046868Y0132260D01*
X0046530Y0132766D01*
X0046025Y0133103D01*
X0045428Y0133222D01*
X0045200D01*
Y0126900D01*
Y0120578D01*
X0045428D01*
X0046025Y0120697D01*
X0046530Y0121034D01*
X0046868Y0121540D01*
X0046945Y0121928D01*
X0047455D01*
X0047532Y0121540D01*
X0047870Y0121034D01*
X0048375Y0120697D01*
X0048972Y0120578D01*
X0049200D01*
Y0126900D01*
Y0133222D01*
D02*
G37*
G36*
X0050428D02*
X0050200D01*
Y0127400D01*
X0051986D01*
Y0131664D01*
X0051868Y0132260D01*
X0051530Y0132766D01*
X0051025Y0133103D01*
X0050428Y0133222D01*
D02*
G37*
G36*
X0035438Y0133222D02*
X0035200D01*
Y0127400D01*
X0037005D01*
Y0131655D01*
X0036886Y0132254D01*
X0036546Y0132763D01*
X0036037Y0133103D01*
X0035438Y0133222D01*
D02*
G37*
G36*
X0044200Y0133222D02*
X0043972D01*
X0043376Y0133103D01*
X0042870Y0132766D01*
X0042532Y0132260D01*
X0042414Y0131664D01*
Y0127400D01*
X0044200D01*
Y0133222D01*
D02*
G37*
G36*
X0034200Y0133222D02*
X0033963D01*
X0033363Y0133103D01*
X0032854Y0132763D01*
X0032514Y0132254D01*
X0032395Y0131655D01*
Y0127400D01*
X0034200D01*
Y0133222D01*
D02*
G37*
G36*
X0060428Y0133018D02*
X0058972D01*
X0058454Y0132915D01*
X0058014Y0132621D01*
X0057721Y0132182D01*
X0057617Y0131664D01*
Y0122136D01*
X0057721Y0121618D01*
X0058014Y0121179D01*
X0058454Y0120885D01*
X0058972Y0120782D01*
X0060428D01*
X0060947Y0120885D01*
X0061386Y0121179D01*
X0061679Y0121618D01*
X0061782Y0122136D01*
Y0131664D01*
X0061679Y0132182D01*
X0061386Y0132621D01*
X0060947Y0132915D01*
X0060428Y0133018D01*
D02*
G37*
G36*
X0040428D02*
X0038972D01*
X0038454Y0132915D01*
X0038014Y0132621D01*
X0037721Y0132182D01*
X0037617Y0131664D01*
Y0122136D01*
X0037721Y0121618D01*
X0038014Y0121179D01*
X0038454Y0120885D01*
X0038972Y0120782D01*
X0040428D01*
X0040946Y0120885D01*
X0041386Y0121179D01*
X0041679Y0121618D01*
X0041783Y0122136D01*
Y0131664D01*
X0041679Y0132182D01*
X0041386Y0132621D01*
X0040946Y0132915D01*
X0040428Y0133018D01*
D02*
G37*
G36*
X0051986Y0126400D02*
X0050200D01*
Y0120578D01*
X0050428D01*
X0051025Y0120697D01*
X0051530Y0121034D01*
X0051868Y0121540D01*
X0051986Y0122136D01*
Y0126400D01*
D02*
G37*
G36*
X0044200D02*
X0042414D01*
Y0122136D01*
X0042532Y0121540D01*
X0042870Y0121034D01*
X0043376Y0120697D01*
X0043972Y0120578D01*
X0044200D01*
Y0126400D01*
D02*
G37*
G36*
X0037005D02*
X0035200D01*
Y0120578D01*
X0035438D01*
X0036037Y0120697D01*
X0036546Y0121037D01*
X0036886Y0121546D01*
X0037005Y0122145D01*
Y0126400D01*
D02*
G37*
G36*
X0034200D02*
X0032395D01*
Y0122145D01*
X0032514Y0121546D01*
X0032854Y0121037D01*
X0033363Y0120697D01*
X0033963Y0120578D01*
X0034200D01*
Y0126400D01*
D02*
G37*
G36*
X0010604Y0118925D02*
Y0115620D01*
X0013909D01*
X0013852Y0116051D01*
X0013454Y0117012D01*
X0012821Y0117837D01*
X0011996Y0118470D01*
X0011035Y0118868D01*
X0010604Y0118925D01*
D02*
G37*
G36*
X0013909Y0114420D02*
X0010604D01*
Y0111115D01*
X0011035Y0111172D01*
X0011996Y0111570D01*
X0012821Y0112203D01*
X0013454Y0113028D01*
X0013852Y0113989D01*
X0013909Y0114420D01*
D02*
G37*
G36*
X0079404Y0098925D02*
X0078973Y0098868D01*
X0078012Y0098470D01*
X0077187Y0097837D01*
X0076554Y0097012D01*
X0076156Y0096051D01*
X0076099Y0095620D01*
X0079404D01*
Y0098925D01*
D02*
G37*
G36*
Y0094420D02*
X0076099D01*
X0076156Y0093989D01*
X0076554Y0093028D01*
X0077187Y0092203D01*
X0078012Y0091570D01*
X0078973Y0091172D01*
X0079404Y0091115D01*
Y0094420D01*
D02*
G37*
%LPD*%
D20*
X0059700Y0126900D02*
D03*
X0054700D02*
D03*
X0049700D02*
D03*
X0059700Y0110900D02*
D03*
X0054700D02*
D03*
X0049700D02*
D03*
X0044700Y0126900D02*
D03*
X0039700D02*
D03*
X0044700Y0110900D02*
D03*
X0039700D02*
D03*
D21*
X0034700Y0126900D02*
D03*
X0029700D02*
D03*
X0034700Y0110900D02*
D03*
X0029700D02*
D03*
D22*
X0068500Y0054953D02*
D03*
Y0061646D02*
D03*
D23*
X0058500Y0044900D02*
X0080004Y0045020D01*
X0044700Y0078953D02*
Y0110900D01*
X0068500Y0054953D02*
Y0055154D01*
X0044700Y0078953D02*
X0068500Y0055154D01*
X0044700Y0126900D02*
X0049700D01*
X0029700Y0120600D02*
Y0126900D01*
X0010174Y0105190D02*
X0014290D01*
X0029700Y0120600D01*
X0010004Y0105020D02*
X0010174Y0105190D01*
X0024920Y0095020D02*
X0029700Y0099800D01*
X0010004Y0095020D02*
X0024920D01*
X0029700Y0099800D02*
Y0110900D01*
X0034700Y0116863D02*
X0035579Y0117742D01*
X0066371D01*
X0034700Y0110900D02*
Y0116863D01*
X0066371Y0117742D02*
X0069093Y0115020D01*
X0080004D01*
X0054700Y0136096D02*
X0056606Y0138002D01*
X0076998D02*
X0080004Y0134996D01*
X0056606Y0138002D02*
X0076998D01*
X0054700Y0126900D02*
Y0136096D01*
X0068500Y0061646D02*
Y0076621D01*
X0065260Y0079860D02*
X0068500Y0076621D01*
X0080004Y0125020D02*
Y0134996D01*
X0079348Y0075676D02*
X0080004Y0075020D01*
X0049700Y0102000D02*
X0076024Y0075676D01*
X0049700Y0102000D02*
Y0110900D01*
X0076024Y0075676D02*
X0079348D01*
X0079971Y0054987D02*
X0080004Y0055020D01*
X0068533Y0054987D02*
X0079971D01*
X0068500Y0054953D02*
X0068533Y0054987D01*
X0071480Y0085020D02*
X0080004D01*
X0054700Y0101800D02*
X0071480Y0085020D01*
X0054700Y0101800D02*
Y0110900D01*
X0039700D02*
X0039801Y0110799D01*
Y0101501D02*
Y0110799D01*
Y0101501D02*
X0039902Y0101400D01*
D24*
X0010002Y0125022D02*
X0010004Y0125020D01*
D25*
X0058500Y0044900D02*
D03*
X0010004Y0115020D02*
D03*
Y0105020D02*
D03*
Y0095020D02*
D03*
Y0085020D02*
D03*
Y0075020D02*
D03*
Y0065020D02*
D03*
Y0055020D02*
D03*
Y0045020D02*
D03*
Y0035020D02*
D03*
Y0025020D02*
D03*
Y0015020D02*
D03*
X0080004D02*
D03*
Y0025020D02*
D03*
Y0035020D02*
D03*
Y0045020D02*
D03*
Y0055020D02*
D03*
Y0065020D02*
D03*
Y0075020D02*
D03*
Y0085020D02*
D03*
Y0095020D02*
D03*
Y0105020D02*
D03*
Y0115020D02*
D03*
Y0125020D02*
D03*
D26*
X0010004D02*
D03*
D27*
X0076900Y0070100D02*
D03*
X0077400Y0040000D02*
D03*
X0077000Y0080000D02*
D03*
X0065260Y0079860D02*
D03*
X0039902Y0101400D02*
D03*
X0035000Y0098500D02*
D03*
X0062500Y0070500D02*
D03*
X0061500Y0099500D02*
D03*
X0017400Y0100000D02*
D03*
X0072200Y0134100D02*
D03*
M02*
