G04*
G04 #@! TF.GenerationSoftware,Altium Limited,Altium Designer,20.1.11 (218)*
G04*
G04 Layer_Color=65535*
%FSAX25Y25*%
%MOIN*%
G70*
G04*
G04 #@! TF.SameCoordinates,33997834-81F2-4769-9C1A-FA938185F8BD*
G04*
G04*
G04 #@! TF.FilePolarity,Positive*
G04*
G01*
G75*
%ADD10C,0.00400*%
%ADD11C,0.01200*%
%ADD12C,0.00800*%
%ADD13C,0.00787*%
%ADD14C,0.00500*%
G36*
X0064641Y0035585D02*
X0064664Y0035581D01*
X0064713Y0035563D01*
X0064740Y0035549D01*
X0064767Y0035527D01*
X0064772Y0035522D01*
X0064776Y0035513D01*
X0064790Y0035500D01*
X0064803Y0035477D01*
X0064812Y0035450D01*
X0064826Y0035419D01*
X0064830Y0035378D01*
X0064835Y0035333D01*
Y0035328D01*
Y0035310D01*
X0064830Y0035288D01*
X0064826Y0035261D01*
X0064817Y0035229D01*
X0064808Y0035198D01*
X0064790Y0035166D01*
X0064767Y0035139D01*
X0064763Y0035135D01*
X0064754Y0035130D01*
X0064740Y0035121D01*
X0064722Y0035107D01*
X0064673Y0035085D01*
X0064641Y0035080D01*
X0064609Y0035076D01*
X0064591D01*
X0064573Y0035080D01*
X0064551Y0035085D01*
X0064497Y0035103D01*
X0064470Y0035116D01*
X0064443Y0035139D01*
X0064438Y0035144D01*
X0064434Y0035153D01*
X0064425Y0035166D01*
X0064411Y0035189D01*
X0064398Y0035216D01*
X0064389Y0035247D01*
X0064384Y0035288D01*
X0064380Y0035333D01*
Y0035337D01*
Y0035355D01*
X0064384Y0035378D01*
X0064389Y0035405D01*
X0064407Y0035468D01*
X0064420Y0035500D01*
X0064443Y0035527D01*
X0064447Y0035531D01*
X0064456Y0035536D01*
X0064470Y0035545D01*
X0064488Y0035558D01*
X0064515Y0035572D01*
X0064542Y0035581D01*
X0064573Y0035585D01*
X0064609Y0035590D01*
X0064623D01*
X0064641Y0035585D01*
D02*
G37*
G36*
X0027001Y0035585D02*
X0027023Y0035581D01*
X0027073Y0035563D01*
X0027100Y0035549D01*
X0027127Y0035527D01*
X0027131Y0035522D01*
X0027136Y0035513D01*
X0027149Y0035500D01*
X0027163Y0035477D01*
X0027172Y0035450D01*
X0027185Y0035419D01*
X0027190Y0035378D01*
X0027194Y0035333D01*
Y0035328D01*
Y0035310D01*
X0027190Y0035288D01*
X0027185Y0035261D01*
X0027176Y0035229D01*
X0027167Y0035198D01*
X0027149Y0035166D01*
X0027127Y0035139D01*
X0027122Y0035135D01*
X0027113Y0035130D01*
X0027100Y0035121D01*
X0027082Y0035107D01*
X0027032Y0035085D01*
X0027001Y0035080D01*
X0026969Y0035076D01*
X0026951D01*
X0026933Y0035080D01*
X0026910Y0035085D01*
X0026856Y0035103D01*
X0026829Y0035116D01*
X0026802Y0035139D01*
X0026798Y0035144D01*
X0026793Y0035153D01*
X0026784Y0035166D01*
X0026771Y0035189D01*
X0026757Y0035216D01*
X0026748Y0035247D01*
X0026744Y0035288D01*
X0026739Y0035333D01*
Y0035337D01*
Y0035355D01*
X0026744Y0035378D01*
X0026748Y0035405D01*
X0026766Y0035468D01*
X0026780Y0035500D01*
X0026802Y0035527D01*
X0026807Y0035531D01*
X0026816Y0035536D01*
X0026829Y0035545D01*
X0026847Y0035558D01*
X0026874Y0035572D01*
X0026901Y0035581D01*
X0026933Y0035585D01*
X0026969Y0035590D01*
X0026983D01*
X0027001Y0035585D01*
D02*
G37*
G36*
X0022869D02*
X0022892Y0035581D01*
X0022942Y0035563D01*
X0022969Y0035549D01*
X0022996Y0035527D01*
X0023000Y0035522D01*
X0023005Y0035513D01*
X0023018Y0035500D01*
X0023032Y0035477D01*
X0023041Y0035450D01*
X0023054Y0035419D01*
X0023059Y0035378D01*
X0023063Y0035333D01*
Y0035328D01*
Y0035310D01*
X0023059Y0035288D01*
X0023054Y0035261D01*
X0023045Y0035229D01*
X0023036Y0035198D01*
X0023018Y0035166D01*
X0022996Y0035139D01*
X0022991Y0035135D01*
X0022982Y0035130D01*
X0022969Y0035121D01*
X0022951Y0035107D01*
X0022901Y0035085D01*
X0022869Y0035080D01*
X0022838Y0035076D01*
X0022820D01*
X0022802Y0035080D01*
X0022779Y0035085D01*
X0022725Y0035103D01*
X0022698Y0035116D01*
X0022671Y0035139D01*
X0022667Y0035144D01*
X0022662Y0035153D01*
X0022653Y0035166D01*
X0022639Y0035189D01*
X0022626Y0035216D01*
X0022617Y0035247D01*
X0022612Y0035288D01*
X0022608Y0035333D01*
Y0035337D01*
Y0035355D01*
X0022612Y0035378D01*
X0022617Y0035405D01*
X0022635Y0035468D01*
X0022648Y0035500D01*
X0022671Y0035527D01*
X0022675Y0035531D01*
X0022684Y0035536D01*
X0022698Y0035545D01*
X0022716Y0035558D01*
X0022743Y0035572D01*
X0022770Y0035581D01*
X0022802Y0035585D01*
X0022838Y0035590D01*
X0022851D01*
X0022869Y0035585D01*
D02*
G37*
G36*
X0059915Y0035536D02*
X0059960D01*
X0060009Y0035531D01*
X0060072Y0035527D01*
X0060136Y0035518D01*
X0060203Y0035509D01*
X0060280Y0035495D01*
X0060438Y0035459D01*
X0060600Y0035414D01*
X0060763Y0035351D01*
X0060641Y0035008D01*
X0060636D01*
X0060623Y0035017D01*
X0060600Y0035026D01*
X0060568Y0035035D01*
X0060532Y0035049D01*
X0060487Y0035067D01*
X0060433Y0035080D01*
X0060379Y0035098D01*
X0060321Y0035116D01*
X0060253Y0035130D01*
X0060118Y0035162D01*
X0059969Y0035180D01*
X0059820Y0035189D01*
X0059766D01*
X0059743Y0035184D01*
X0059712Y0035180D01*
X0059640Y0035171D01*
X0059563Y0035153D01*
X0059482Y0035130D01*
X0059400Y0035094D01*
X0059328Y0035049D01*
X0059319Y0035044D01*
X0059301Y0035026D01*
X0059274Y0034995D01*
X0059243Y0034950D01*
X0059206Y0034900D01*
X0059179Y0034832D01*
X0059161Y0034760D01*
X0059152Y0034675D01*
Y0034666D01*
Y0034647D01*
X0059157Y0034611D01*
X0059161Y0034571D01*
X0059166Y0034526D01*
X0059179Y0034481D01*
X0059193Y0034431D01*
X0059215Y0034386D01*
X0059220Y0034381D01*
X0059229Y0034368D01*
X0059247Y0034345D01*
X0059270Y0034318D01*
X0059301Y0034287D01*
X0059337Y0034251D01*
X0059382Y0034214D01*
X0059437Y0034178D01*
X0059446Y0034174D01*
X0059464Y0034160D01*
X0059504Y0034142D01*
X0059554Y0034115D01*
X0059621Y0034088D01*
X0059703Y0034052D01*
X0059797Y0034012D01*
X0059910Y0033971D01*
X0059915D01*
X0059933Y0033962D01*
X0059960Y0033953D01*
X0059996Y0033939D01*
X0060041Y0033921D01*
X0060091Y0033899D01*
X0060145Y0033876D01*
X0060203Y0033849D01*
X0060325Y0033786D01*
X0060447Y0033718D01*
X0060505Y0033682D01*
X0060555Y0033642D01*
X0060605Y0033601D01*
X0060645Y0033560D01*
X0060650Y0033556D01*
X0060654Y0033551D01*
X0060663Y0033538D01*
X0060677Y0033520D01*
X0060690Y0033502D01*
X0060708Y0033475D01*
X0060749Y0033407D01*
X0060785Y0033326D01*
X0060817Y0033231D01*
X0060839Y0033119D01*
X0060848Y0033055D01*
Y0032992D01*
Y0032988D01*
Y0032974D01*
Y0032952D01*
X0060844Y0032920D01*
X0060839Y0032879D01*
X0060830Y0032839D01*
X0060821Y0032789D01*
X0060808Y0032740D01*
X0060790Y0032681D01*
X0060767Y0032627D01*
X0060740Y0032568D01*
X0060708Y0032510D01*
X0060672Y0032451D01*
X0060627Y0032397D01*
X0060577Y0032343D01*
X0060519Y0032293D01*
X0060514Y0032289D01*
X0060505Y0032284D01*
X0060487Y0032271D01*
X0060460Y0032253D01*
X0060429Y0032235D01*
X0060388Y0032217D01*
X0060338Y0032194D01*
X0060289Y0032171D01*
X0060226Y0032144D01*
X0060163Y0032122D01*
X0060091Y0032104D01*
X0060009Y0032086D01*
X0059928Y0032068D01*
X0059838Y0032054D01*
X0059739Y0032050D01*
X0059640Y0032045D01*
X0059581D01*
X0059540Y0032050D01*
X0059491D01*
X0059432Y0032054D01*
X0059364Y0032059D01*
X0059297Y0032063D01*
X0059143Y0032081D01*
X0058990Y0032108D01*
X0058841Y0032149D01*
X0058769Y0032171D01*
X0058706Y0032199D01*
Y0032582D01*
X0058710D01*
X0058715Y0032577D01*
X0058742Y0032568D01*
X0058787Y0032550D01*
X0058841Y0032532D01*
X0058909Y0032510D01*
X0058986Y0032487D01*
X0059071Y0032465D01*
X0059161Y0032442D01*
X0059175D01*
X0059184Y0032438D01*
X0059202Y0032433D01*
X0059252Y0032429D01*
X0059315Y0032419D01*
X0059391Y0032410D01*
X0059473Y0032401D01*
X0059563Y0032397D01*
X0059653Y0032392D01*
X0059689D01*
X0059716Y0032397D01*
X0059752D01*
X0059788Y0032401D01*
X0059874Y0032410D01*
X0059969Y0032429D01*
X0060068Y0032456D01*
X0060163Y0032492D01*
X0060203Y0032514D01*
X0060244Y0032541D01*
X0060248D01*
X0060253Y0032550D01*
X0060275Y0032568D01*
X0060307Y0032604D01*
X0060347Y0032649D01*
X0060384Y0032708D01*
X0060415Y0032780D01*
X0060438Y0032862D01*
X0060447Y0032907D01*
Y0032956D01*
Y0032965D01*
Y0032988D01*
X0060442Y0033019D01*
X0060438Y0033060D01*
X0060429Y0033105D01*
X0060415Y0033150D01*
X0060397Y0033200D01*
X0060375Y0033245D01*
X0060370Y0033249D01*
X0060361Y0033263D01*
X0060343Y0033285D01*
X0060321Y0033312D01*
X0060289Y0033344D01*
X0060248Y0033380D01*
X0060199Y0033416D01*
X0060140Y0033452D01*
X0060131Y0033457D01*
X0060109Y0033470D01*
X0060068Y0033488D01*
X0060014Y0033515D01*
X0059942Y0033547D01*
X0059856Y0033588D01*
X0059752Y0033628D01*
X0059635Y0033669D01*
X0059630D01*
X0059612Y0033678D01*
X0059590Y0033687D01*
X0059558Y0033700D01*
X0059518Y0033714D01*
X0059473Y0033736D01*
X0059423Y0033759D01*
X0059369Y0033781D01*
X0059261Y0033840D01*
X0059148Y0033912D01*
X0059040Y0033989D01*
X0058995Y0034030D01*
X0058954Y0034070D01*
Y0034075D01*
X0058945Y0034079D01*
X0058936Y0034093D01*
X0058922Y0034111D01*
X0058909Y0034138D01*
X0058891Y0034165D01*
X0058873Y0034196D01*
X0058855Y0034233D01*
X0058814Y0034323D01*
X0058783Y0034426D01*
X0058760Y0034544D01*
X0058755Y0034611D01*
X0058751Y0034679D01*
Y0034683D01*
Y0034697D01*
Y0034715D01*
X0058755Y0034742D01*
X0058760Y0034778D01*
X0058764Y0034814D01*
X0058787Y0034905D01*
X0058823Y0035004D01*
X0058846Y0035058D01*
X0058873Y0035107D01*
X0058909Y0035162D01*
X0058949Y0035211D01*
X0058995Y0035261D01*
X0059044Y0035306D01*
X0059049Y0035310D01*
X0059058Y0035315D01*
X0059076Y0035328D01*
X0059098Y0035342D01*
X0059130Y0035360D01*
X0059166Y0035378D01*
X0059206Y0035401D01*
X0059256Y0035423D01*
X0059306Y0035446D01*
X0059369Y0035468D01*
X0059432Y0035486D01*
X0059500Y0035504D01*
X0059576Y0035518D01*
X0059658Y0035531D01*
X0059739Y0035536D01*
X0059829Y0035540D01*
X0059878D01*
X0059915Y0035536D01*
D02*
G37*
G36*
X0071600Y0032090D02*
X0071284D01*
X0071235Y0032433D01*
X0071212D01*
X0071208Y0032429D01*
X0071199Y0032415D01*
X0071185Y0032397D01*
X0071162Y0032374D01*
X0071135Y0032343D01*
X0071099Y0032311D01*
X0071059Y0032275D01*
X0071014Y0032239D01*
X0070960Y0032203D01*
X0070901Y0032167D01*
X0070833Y0032135D01*
X0070761Y0032104D01*
X0070684Y0032081D01*
X0070599Y0032063D01*
X0070509Y0032050D01*
X0070409Y0032045D01*
X0070387D01*
X0070360Y0032050D01*
X0070328D01*
X0070283Y0032054D01*
X0070238Y0032063D01*
X0070184Y0032072D01*
X0070125Y0032086D01*
X0070062Y0032104D01*
X0069999Y0032126D01*
X0069936Y0032153D01*
X0069868Y0032190D01*
X0069805Y0032226D01*
X0069742Y0032271D01*
X0069683Y0032325D01*
X0069629Y0032383D01*
X0069625Y0032388D01*
X0069616Y0032401D01*
X0069602Y0032419D01*
X0069589Y0032447D01*
X0069566Y0032483D01*
X0069543Y0032523D01*
X0069516Y0032577D01*
X0069494Y0032636D01*
X0069467Y0032699D01*
X0069440Y0032771D01*
X0069417Y0032852D01*
X0069399Y0032938D01*
X0069381Y0033033D01*
X0069367Y0033137D01*
X0069358Y0033245D01*
X0069354Y0033358D01*
Y0033367D01*
Y0033385D01*
Y0033416D01*
X0069358Y0033461D01*
X0069363Y0033515D01*
X0069367Y0033574D01*
X0069376Y0033642D01*
X0069390Y0033718D01*
X0069422Y0033876D01*
X0069444Y0033957D01*
X0069471Y0034039D01*
X0069503Y0034115D01*
X0069543Y0034196D01*
X0069584Y0034269D01*
X0069634Y0034336D01*
X0069638Y0034341D01*
X0069647Y0034350D01*
X0069661Y0034368D01*
X0069683Y0034390D01*
X0069715Y0034417D01*
X0069746Y0034449D01*
X0069787Y0034481D01*
X0069837Y0034512D01*
X0069886Y0034544D01*
X0069945Y0034575D01*
X0070008Y0034607D01*
X0070080Y0034634D01*
X0070152Y0034657D01*
X0070234Y0034675D01*
X0070319Y0034683D01*
X0070409Y0034688D01*
X0070432D01*
X0070459Y0034683D01*
X0070495D01*
X0070540Y0034675D01*
X0070590Y0034670D01*
X0070644Y0034657D01*
X0070702Y0034643D01*
X0070766Y0034620D01*
X0070833Y0034598D01*
X0070901Y0034566D01*
X0070964Y0034530D01*
X0071032Y0034485D01*
X0071095Y0034435D01*
X0071153Y0034377D01*
X0071208Y0034309D01*
X0071239D01*
X0071221Y0034494D01*
X0071212Y0034670D01*
Y0035712D01*
X0071600D01*
Y0032090D01*
D02*
G37*
G36*
X0025129Y0034683D02*
X0025165D01*
X0025210Y0034675D01*
X0025260Y0034670D01*
X0025309Y0034661D01*
X0025422Y0034634D01*
X0025539Y0034593D01*
X0025594Y0034566D01*
X0025648Y0034539D01*
X0025697Y0034503D01*
X0025742Y0034462D01*
X0025747Y0034458D01*
X0025751Y0034453D01*
X0025765Y0034440D01*
X0025778Y0034422D01*
X0025796Y0034395D01*
X0025815Y0034368D01*
X0025837Y0034332D01*
X0025860Y0034291D01*
X0025882Y0034246D01*
X0025905Y0034192D01*
X0025923Y0034133D01*
X0025941Y0034070D01*
X0025954Y0034003D01*
X0025968Y0033926D01*
X0025972Y0033845D01*
X0025977Y0033754D01*
Y0032090D01*
X0025594D01*
Y0033736D01*
Y0033741D01*
Y0033750D01*
Y0033768D01*
Y0033786D01*
X0025589Y0033813D01*
X0025585Y0033845D01*
X0025575Y0033912D01*
X0025557Y0033989D01*
X0025535Y0034066D01*
X0025499Y0034138D01*
X0025449Y0034201D01*
X0025445Y0034210D01*
X0025422Y0034228D01*
X0025390Y0034251D01*
X0025341Y0034282D01*
X0025278Y0034309D01*
X0025206Y0034336D01*
X0025111Y0034354D01*
X0025007Y0034359D01*
X0024971D01*
X0024939Y0034354D01*
X0024908D01*
X0024872Y0034350D01*
X0024782Y0034332D01*
X0024687Y0034305D01*
X0024588Y0034269D01*
X0024498Y0034214D01*
X0024452Y0034178D01*
X0024416Y0034142D01*
Y0034138D01*
X0024407Y0034133D01*
X0024398Y0034120D01*
X0024389Y0034102D01*
X0024376Y0034079D01*
X0024358Y0034048D01*
X0024340Y0034012D01*
X0024326Y0033971D01*
X0024308Y0033926D01*
X0024290Y0033872D01*
X0024277Y0033813D01*
X0024259Y0033750D01*
X0024250Y0033678D01*
X0024240Y0033601D01*
X0024231Y0033515D01*
Y0033425D01*
Y0032090D01*
X0023844D01*
Y0034643D01*
X0024159D01*
X0024222Y0034291D01*
X0024240D01*
X0024245Y0034300D01*
X0024263Y0034323D01*
X0024290Y0034359D01*
X0024326Y0034399D01*
X0024371Y0034444D01*
X0024430Y0034494D01*
X0024493Y0034544D01*
X0024570Y0034584D01*
X0024574D01*
X0024579Y0034589D01*
X0024592Y0034593D01*
X0024606Y0034602D01*
X0024651Y0034616D01*
X0024710Y0034638D01*
X0024782Y0034656D01*
X0024863Y0034670D01*
X0024953Y0034683D01*
X0025052Y0034688D01*
X0025097D01*
X0025129Y0034683D01*
D02*
G37*
G36*
X0051413Y0034683D02*
X0051449D01*
X0051490Y0034675D01*
X0051585Y0034661D01*
X0051688Y0034634D01*
X0051797Y0034593D01*
X0051851Y0034566D01*
X0051900Y0034539D01*
X0051950Y0034503D01*
X0051990Y0034462D01*
X0051995Y0034458D01*
X0051999Y0034453D01*
X0052008Y0034440D01*
X0052027Y0034422D01*
X0052040Y0034395D01*
X0052058Y0034368D01*
X0052081Y0034332D01*
X0052099Y0034291D01*
X0052121Y0034246D01*
X0052139Y0034192D01*
X0052157Y0034133D01*
X0052175Y0034070D01*
X0052189Y0034003D01*
X0052198Y0033926D01*
X0052202Y0033845D01*
X0052207Y0033755D01*
Y0032090D01*
X0051819D01*
Y0033745D01*
Y0033750D01*
Y0033759D01*
Y0033777D01*
Y0033795D01*
X0051815Y0033849D01*
X0051801Y0033917D01*
X0051788Y0033994D01*
X0051765Y0034070D01*
X0051733Y0034142D01*
X0051688Y0034205D01*
X0051684Y0034210D01*
X0051666Y0034228D01*
X0051634Y0034255D01*
X0051589Y0034282D01*
X0051535Y0034309D01*
X0051463Y0034336D01*
X0051382Y0034354D01*
X0051287Y0034359D01*
X0051251D01*
X0051228Y0034354D01*
X0051197D01*
X0051165Y0034350D01*
X0051084Y0034332D01*
X0050998Y0034309D01*
X0050908Y0034273D01*
X0050822Y0034219D01*
X0050786Y0034187D01*
X0050750Y0034151D01*
Y0034147D01*
X0050741Y0034142D01*
X0050737Y0034129D01*
X0050723Y0034111D01*
X0050710Y0034088D01*
X0050696Y0034061D01*
X0050683Y0034030D01*
X0050665Y0033994D01*
X0050647Y0033953D01*
X0050633Y0033903D01*
X0050620Y0033854D01*
X0050606Y0033795D01*
X0050597Y0033732D01*
X0050588Y0033664D01*
X0050579Y0033588D01*
Y0033511D01*
Y0032090D01*
X0050195D01*
Y0033745D01*
Y0033750D01*
Y0033759D01*
Y0033777D01*
Y0033795D01*
X0050191Y0033849D01*
X0050178Y0033917D01*
X0050164Y0033994D01*
X0050141Y0034070D01*
X0050110Y0034142D01*
X0050065Y0034205D01*
X0050060Y0034210D01*
X0050042Y0034228D01*
X0050011Y0034255D01*
X0049966Y0034282D01*
X0049907Y0034309D01*
X0049835Y0034336D01*
X0049753Y0034354D01*
X0049654Y0034359D01*
X0049618D01*
X0049596Y0034354D01*
X0049564D01*
X0049532Y0034345D01*
X0049451Y0034332D01*
X0049366Y0034305D01*
X0049280Y0034264D01*
X0049235Y0034242D01*
X0049194Y0034210D01*
X0049158Y0034178D01*
X0049122Y0034138D01*
Y0034133D01*
X0049113Y0034129D01*
X0049109Y0034115D01*
X0049095Y0034097D01*
X0049082Y0034075D01*
X0049068Y0034043D01*
X0049055Y0034007D01*
X0049041Y0033966D01*
X0049023Y0033921D01*
X0049009Y0033867D01*
X0048996Y0033809D01*
X0048982Y0033745D01*
X0048969Y0033673D01*
X0048964Y0033597D01*
X0048955Y0033515D01*
Y0033425D01*
Y0032090D01*
X0048567D01*
Y0034643D01*
X0048883D01*
X0048946Y0034291D01*
X0048964D01*
X0048969Y0034300D01*
X0048982Y0034323D01*
X0049009Y0034354D01*
X0049046Y0034395D01*
X0049086Y0034444D01*
X0049140Y0034490D01*
X0049199Y0034539D01*
X0049271Y0034580D01*
X0049275D01*
X0049280Y0034584D01*
X0049307Y0034598D01*
X0049348Y0034616D01*
X0049402Y0034634D01*
X0049469Y0034652D01*
X0049546Y0034670D01*
X0049627Y0034683D01*
X0049718Y0034688D01*
X0049744D01*
X0049776Y0034683D01*
X0049812D01*
X0049862Y0034675D01*
X0049916Y0034666D01*
X0049979Y0034652D01*
X0050042Y0034634D01*
X0050105Y0034611D01*
X0050173Y0034580D01*
X0050241Y0034548D01*
X0050304Y0034503D01*
X0050362Y0034453D01*
X0050416Y0034395D01*
X0050462Y0034327D01*
X0050502Y0034251D01*
X0050520D01*
Y0034255D01*
X0050525Y0034260D01*
X0050543Y0034282D01*
X0050565Y0034323D01*
X0050606Y0034368D01*
X0050651Y0034417D01*
X0050705Y0034471D01*
X0050773Y0034526D01*
X0050849Y0034571D01*
X0050854D01*
X0050858Y0034575D01*
X0050872Y0034580D01*
X0050886Y0034589D01*
X0050931Y0034607D01*
X0050994Y0034629D01*
X0051066Y0034652D01*
X0051147Y0034670D01*
X0051242Y0034683D01*
X0051341Y0034688D01*
X0051382D01*
X0051413Y0034683D01*
D02*
G37*
G36*
X0046975D02*
X0047012D01*
X0047052Y0034675D01*
X0047147Y0034661D01*
X0047251Y0034634D01*
X0047359Y0034593D01*
X0047413Y0034566D01*
X0047462Y0034539D01*
X0047512Y0034503D01*
X0047553Y0034462D01*
X0047557Y0034458D01*
X0047562Y0034453D01*
X0047571Y0034440D01*
X0047589Y0034422D01*
X0047602Y0034395D01*
X0047620Y0034368D01*
X0047643Y0034332D01*
X0047661Y0034291D01*
X0047683Y0034246D01*
X0047701Y0034192D01*
X0047719Y0034133D01*
X0047738Y0034070D01*
X0047751Y0034003D01*
X0047760Y0033926D01*
X0047765Y0033845D01*
X0047769Y0033755D01*
Y0032090D01*
X0047381D01*
Y0033745D01*
Y0033750D01*
Y0033759D01*
Y0033777D01*
Y0033795D01*
X0047377Y0033849D01*
X0047363Y0033917D01*
X0047350Y0033994D01*
X0047327Y0034070D01*
X0047296Y0034142D01*
X0047251Y0034205D01*
X0047246Y0034210D01*
X0047228Y0034228D01*
X0047196Y0034255D01*
X0047151Y0034282D01*
X0047097Y0034309D01*
X0047025Y0034336D01*
X0046944Y0034354D01*
X0046849Y0034359D01*
X0046813D01*
X0046791Y0034354D01*
X0046759D01*
X0046727Y0034350D01*
X0046646Y0034332D01*
X0046560Y0034309D01*
X0046470Y0034273D01*
X0046385Y0034219D01*
X0046349Y0034187D01*
X0046312Y0034151D01*
Y0034147D01*
X0046303Y0034142D01*
X0046299Y0034129D01*
X0046285Y0034111D01*
X0046272Y0034088D01*
X0046258Y0034061D01*
X0046245Y0034030D01*
X0046227Y0033994D01*
X0046209Y0033953D01*
X0046195Y0033903D01*
X0046182Y0033854D01*
X0046168Y0033795D01*
X0046159Y0033732D01*
X0046150Y0033664D01*
X0046141Y0033588D01*
Y0033511D01*
Y0032090D01*
X0045758D01*
Y0033745D01*
Y0033750D01*
Y0033759D01*
Y0033777D01*
Y0033795D01*
X0045753Y0033849D01*
X0045740Y0033917D01*
X0045726Y0033994D01*
X0045704Y0034070D01*
X0045672Y0034142D01*
X0045627Y0034205D01*
X0045622Y0034210D01*
X0045604Y0034228D01*
X0045573Y0034255D01*
X0045528Y0034282D01*
X0045469Y0034309D01*
X0045397Y0034336D01*
X0045316Y0034354D01*
X0045217Y0034359D01*
X0045180D01*
X0045158Y0034354D01*
X0045126D01*
X0045095Y0034345D01*
X0045013Y0034332D01*
X0044928Y0034305D01*
X0044842Y0034264D01*
X0044797Y0034242D01*
X0044756Y0034210D01*
X0044720Y0034178D01*
X0044684Y0034138D01*
Y0034133D01*
X0044675Y0034129D01*
X0044671Y0034115D01*
X0044657Y0034097D01*
X0044644Y0034075D01*
X0044630Y0034043D01*
X0044617Y0034007D01*
X0044603Y0033966D01*
X0044585Y0033921D01*
X0044572Y0033867D01*
X0044558Y0033809D01*
X0044545Y0033745D01*
X0044531Y0033673D01*
X0044526Y0033597D01*
X0044517Y0033515D01*
Y0033425D01*
Y0032090D01*
X0044130D01*
Y0034643D01*
X0044445D01*
X0044508Y0034291D01*
X0044526D01*
X0044531Y0034300D01*
X0044545Y0034323D01*
X0044572Y0034354D01*
X0044608Y0034395D01*
X0044648Y0034444D01*
X0044702Y0034490D01*
X0044761Y0034539D01*
X0044833Y0034580D01*
X0044838D01*
X0044842Y0034584D01*
X0044869Y0034598D01*
X0044910Y0034616D01*
X0044964Y0034634D01*
X0045032Y0034652D01*
X0045108Y0034670D01*
X0045189Y0034683D01*
X0045280Y0034688D01*
X0045307D01*
X0045338Y0034683D01*
X0045374D01*
X0045424Y0034675D01*
X0045478Y0034666D01*
X0045541Y0034652D01*
X0045604Y0034634D01*
X0045667Y0034611D01*
X0045735Y0034580D01*
X0045803Y0034548D01*
X0045866Y0034503D01*
X0045924Y0034453D01*
X0045979Y0034395D01*
X0046024Y0034327D01*
X0046064Y0034251D01*
X0046082D01*
Y0034255D01*
X0046087Y0034260D01*
X0046105Y0034282D01*
X0046128Y0034323D01*
X0046168Y0034368D01*
X0046213Y0034417D01*
X0046267Y0034471D01*
X0046335Y0034526D01*
X0046412Y0034571D01*
X0046416D01*
X0046421Y0034575D01*
X0046434Y0034580D01*
X0046448Y0034589D01*
X0046493Y0034607D01*
X0046556Y0034629D01*
X0046628Y0034652D01*
X0046709Y0034670D01*
X0046804Y0034683D01*
X0046903Y0034688D01*
X0046944D01*
X0046975Y0034683D01*
D02*
G37*
G36*
X0056947D02*
X0056992Y0034679D01*
X0057046Y0034675D01*
X0057150Y0034657D01*
X0057096Y0034300D01*
X0057087D01*
X0057069Y0034305D01*
X0057042Y0034314D01*
X0057001Y0034318D01*
X0056960Y0034327D01*
X0056911Y0034332D01*
X0056816Y0034336D01*
X0056785D01*
X0056762Y0034332D01*
X0056739Y0034327D01*
X0056708Y0034323D01*
X0056631Y0034305D01*
X0056550Y0034273D01*
X0056460Y0034228D01*
X0056415Y0034201D01*
X0056370Y0034169D01*
X0056325Y0034129D01*
X0056284Y0034084D01*
X0056279Y0034079D01*
X0056275Y0034070D01*
X0056266Y0034057D01*
X0056252Y0034039D01*
X0056234Y0034016D01*
X0056216Y0033985D01*
X0056198Y0033948D01*
X0056176Y0033912D01*
X0056135Y0033818D01*
X0056104Y0033714D01*
X0056077Y0033592D01*
X0056072Y0033524D01*
X0056068Y0033457D01*
Y0032090D01*
X0055680D01*
Y0034643D01*
X0056000D01*
X0056045Y0034165D01*
X0056063D01*
Y0034169D01*
X0056068Y0034174D01*
X0056077Y0034187D01*
X0056090Y0034205D01*
X0056117Y0034251D01*
X0056158Y0034309D01*
X0056207Y0034372D01*
X0056266Y0034435D01*
X0056329Y0034499D01*
X0056401Y0034553D01*
X0056406D01*
X0056410Y0034557D01*
X0056437Y0034575D01*
X0056478Y0034598D01*
X0056532Y0034620D01*
X0056600Y0034647D01*
X0056672Y0034666D01*
X0056758Y0034683D01*
X0056843Y0034688D01*
X0056906D01*
X0056947Y0034683D01*
D02*
G37*
G36*
X0040797Y0034683D02*
X0040842Y0034679D01*
X0040896Y0034675D01*
X0041000Y0034656D01*
X0040946Y0034300D01*
X0040936D01*
X0040918Y0034305D01*
X0040891Y0034314D01*
X0040851Y0034318D01*
X0040810Y0034327D01*
X0040761Y0034332D01*
X0040666Y0034336D01*
X0040634D01*
X0040612Y0034332D01*
X0040589Y0034327D01*
X0040558Y0034323D01*
X0040481Y0034305D01*
X0040400Y0034273D01*
X0040310Y0034228D01*
X0040264Y0034201D01*
X0040219Y0034169D01*
X0040174Y0034129D01*
X0040134Y0034084D01*
X0040129Y0034079D01*
X0040125Y0034070D01*
X0040116Y0034057D01*
X0040102Y0034039D01*
X0040084Y0034016D01*
X0040066Y0033984D01*
X0040048Y0033948D01*
X0040025Y0033912D01*
X0039985Y0033818D01*
X0039953Y0033714D01*
X0039926Y0033592D01*
X0039922Y0033524D01*
X0039917Y0033457D01*
Y0032090D01*
X0039529D01*
Y0034643D01*
X0039850D01*
X0039895Y0034165D01*
X0039913D01*
Y0034169D01*
X0039917Y0034174D01*
X0039926Y0034187D01*
X0039940Y0034205D01*
X0039967Y0034251D01*
X0040007Y0034309D01*
X0040057Y0034372D01*
X0040116Y0034435D01*
X0040179Y0034499D01*
X0040251Y0034553D01*
X0040255D01*
X0040260Y0034557D01*
X0040287Y0034575D01*
X0040328Y0034598D01*
X0040382Y0034620D01*
X0040449Y0034647D01*
X0040522Y0034666D01*
X0040607Y0034683D01*
X0040693Y0034688D01*
X0040756D01*
X0040797Y0034683D01*
D02*
G37*
G36*
X0033355D02*
X0033400Y0034679D01*
X0033454Y0034675D01*
X0033558Y0034656D01*
X0033504Y0034300D01*
X0033495D01*
X0033477Y0034305D01*
X0033450Y0034314D01*
X0033409Y0034318D01*
X0033369Y0034327D01*
X0033319Y0034332D01*
X0033224Y0034336D01*
X0033193D01*
X0033170Y0034332D01*
X0033148Y0034327D01*
X0033116Y0034323D01*
X0033040Y0034305D01*
X0032958Y0034273D01*
X0032868Y0034228D01*
X0032823Y0034201D01*
X0032778Y0034169D01*
X0032733Y0034129D01*
X0032692Y0034084D01*
X0032688Y0034079D01*
X0032683Y0034070D01*
X0032674Y0034057D01*
X0032661Y0034039D01*
X0032643Y0034016D01*
X0032625Y0033984D01*
X0032607Y0033948D01*
X0032584Y0033912D01*
X0032543Y0033818D01*
X0032512Y0033714D01*
X0032485Y0033592D01*
X0032480Y0033524D01*
X0032476Y0033457D01*
Y0032090D01*
X0032088D01*
Y0034643D01*
X0032408D01*
X0032453Y0034165D01*
X0032471D01*
Y0034169D01*
X0032476Y0034174D01*
X0032485Y0034187D01*
X0032498Y0034205D01*
X0032525Y0034251D01*
X0032566Y0034309D01*
X0032616Y0034372D01*
X0032674Y0034435D01*
X0032737Y0034499D01*
X0032809Y0034553D01*
X0032814D01*
X0032818Y0034557D01*
X0032846Y0034575D01*
X0032886Y0034598D01*
X0032940Y0034620D01*
X0033008Y0034647D01*
X0033080Y0034666D01*
X0033166Y0034683D01*
X0033251Y0034688D01*
X0033315D01*
X0033355Y0034683D01*
D02*
G37*
G36*
X0037888D02*
X0037942Y0034679D01*
X0038001Y0034670D01*
X0038127Y0034643D01*
X0039006D01*
Y0034395D01*
X0038533Y0034341D01*
X0038537Y0034336D01*
X0038546Y0034327D01*
X0038555Y0034305D01*
X0038573Y0034282D01*
X0038591Y0034251D01*
X0038609Y0034214D01*
X0038632Y0034169D01*
X0038650Y0034124D01*
X0038654Y0034120D01*
X0038659Y0034102D01*
X0038668Y0034075D01*
X0038677Y0034039D01*
X0038686Y0033994D01*
X0038695Y0033944D01*
X0038704Y0033890D01*
Y0033831D01*
Y0033827D01*
Y0033813D01*
Y0033795D01*
X0038699Y0033768D01*
X0038695Y0033736D01*
X0038691Y0033700D01*
X0038673Y0033615D01*
X0038641Y0033520D01*
X0038623Y0033470D01*
X0038596Y0033421D01*
X0038564Y0033371D01*
X0038533Y0033321D01*
X0038492Y0033276D01*
X0038447Y0033231D01*
X0038443Y0033227D01*
X0038433Y0033222D01*
X0038420Y0033213D01*
X0038402Y0033195D01*
X0038375Y0033182D01*
X0038343Y0033164D01*
X0038307Y0033141D01*
X0038262Y0033123D01*
X0038217Y0033101D01*
X0038163Y0033083D01*
X0038104Y0033060D01*
X0038041Y0033046D01*
X0037973Y0033033D01*
X0037901Y0033019D01*
X0037825Y0033015D01*
X0037743Y0033010D01*
X0037703D01*
X0037676Y0033015D01*
X0037644D01*
X0037608Y0033019D01*
X0037531Y0033028D01*
X0037527D01*
X0037522Y0033024D01*
X0037491Y0033006D01*
X0037455Y0032979D01*
X0037410Y0032938D01*
X0037360Y0032888D01*
X0037324Y0032834D01*
X0037292Y0032771D01*
X0037288Y0032735D01*
X0037283Y0032699D01*
Y0032695D01*
Y0032681D01*
X0037288Y0032663D01*
X0037292Y0032640D01*
X0037306Y0032618D01*
X0037319Y0032591D01*
X0037342Y0032568D01*
X0037369Y0032546D01*
X0037374D01*
X0037387Y0032537D01*
X0037405Y0032532D01*
X0037437Y0032523D01*
X0037477Y0032514D01*
X0037527Y0032505D01*
X0037590Y0032501D01*
X0037662Y0032496D01*
X0038158D01*
X0038185Y0032492D01*
X0038221D01*
X0038258Y0032487D01*
X0038352Y0032474D01*
X0038451Y0032456D01*
X0038555Y0032424D01*
X0038659Y0032379D01*
X0038749Y0032320D01*
X0038754D01*
X0038758Y0032311D01*
X0038785Y0032289D01*
X0038821Y0032248D01*
X0038862Y0032190D01*
X0038903Y0032122D01*
X0038939Y0032032D01*
X0038966Y0031932D01*
X0038970Y0031874D01*
X0038975Y0031815D01*
Y0031811D01*
Y0031797D01*
Y0031775D01*
X0038970Y0031747D01*
X0038966Y0031711D01*
X0038957Y0031671D01*
X0038934Y0031576D01*
X0038916Y0031526D01*
X0038889Y0031472D01*
X0038862Y0031418D01*
X0038830Y0031364D01*
X0038790Y0031310D01*
X0038745Y0031260D01*
X0038691Y0031215D01*
X0038632Y0031170D01*
X0038627Y0031166D01*
X0038618Y0031161D01*
X0038596Y0031148D01*
X0038569Y0031134D01*
X0038533Y0031116D01*
X0038492Y0031098D01*
X0038438Y0031080D01*
X0038384Y0031058D01*
X0038316Y0031035D01*
X0038244Y0031017D01*
X0038163Y0030999D01*
X0038073Y0030981D01*
X0037978Y0030967D01*
X0037874Y0030954D01*
X0037762Y0030949D01*
X0037644Y0030945D01*
X0037595D01*
X0037563Y0030949D01*
X0037518D01*
X0037473Y0030954D01*
X0037419Y0030963D01*
X0037360Y0030967D01*
X0037238Y0030990D01*
X0037108Y0031026D01*
X0036986Y0031071D01*
X0036927Y0031103D01*
X0036873Y0031134D01*
X0036869Y0031139D01*
X0036859Y0031143D01*
X0036846Y0031152D01*
X0036832Y0031170D01*
X0036787Y0031211D01*
X0036738Y0031269D01*
X0036688Y0031346D01*
X0036643Y0031436D01*
X0036629Y0031486D01*
X0036616Y0031540D01*
X0036607Y0031599D01*
X0036602Y0031662D01*
Y0031666D01*
Y0031671D01*
Y0031684D01*
X0036607Y0031702D01*
X0036611Y0031743D01*
X0036620Y0031797D01*
X0036639Y0031860D01*
X0036665Y0031928D01*
X0036702Y0031995D01*
X0036751Y0032063D01*
X0036760Y0032072D01*
X0036778Y0032090D01*
X0036814Y0032117D01*
X0036859Y0032153D01*
X0036918Y0032190D01*
X0036990Y0032230D01*
X0037076Y0032262D01*
X0037171Y0032289D01*
X0037166Y0032293D01*
X0037153Y0032298D01*
X0037135Y0032307D01*
X0037112Y0032325D01*
X0037058Y0032365D01*
X0037004Y0032424D01*
X0036999Y0032429D01*
X0036995Y0032442D01*
X0036981Y0032460D01*
X0036972Y0032487D01*
X0036959Y0032519D01*
X0036945Y0032555D01*
X0036941Y0032595D01*
X0036936Y0032640D01*
Y0032645D01*
Y0032663D01*
X0036941Y0032690D01*
X0036945Y0032722D01*
X0036954Y0032762D01*
X0036968Y0032803D01*
X0036986Y0032843D01*
X0037008Y0032884D01*
X0037013Y0032888D01*
X0037022Y0032902D01*
X0037040Y0032925D01*
X0037067Y0032952D01*
X0037099Y0032983D01*
X0037144Y0033019D01*
X0037189Y0033055D01*
X0037247Y0033092D01*
X0037238Y0033096D01*
X0037216Y0033110D01*
X0037180Y0033128D01*
X0037135Y0033155D01*
X0037080Y0033195D01*
X0037026Y0033240D01*
X0036972Y0033299D01*
X0036923Y0033367D01*
Y0033371D01*
X0036918Y0033376D01*
X0036905Y0033403D01*
X0036882Y0033443D01*
X0036864Y0033497D01*
X0036841Y0033560D01*
X0036819Y0033637D01*
X0036805Y0033723D01*
X0036801Y0033813D01*
Y0033818D01*
Y0033831D01*
Y0033854D01*
X0036805Y0033881D01*
X0036810Y0033917D01*
X0036814Y0033957D01*
X0036832Y0034052D01*
X0036859Y0034156D01*
X0036905Y0034264D01*
X0036936Y0034314D01*
X0036968Y0034368D01*
X0037004Y0034413D01*
X0037049Y0034458D01*
X0037053Y0034462D01*
X0037062Y0034467D01*
X0037076Y0034481D01*
X0037094Y0034494D01*
X0037121Y0034512D01*
X0037153Y0034530D01*
X0037189Y0034553D01*
X0037234Y0034575D01*
X0037283Y0034593D01*
X0037333Y0034616D01*
X0037396Y0034634D01*
X0037459Y0034652D01*
X0037527Y0034666D01*
X0037604Y0034679D01*
X0037680Y0034683D01*
X0037766Y0034688D01*
X0037838D01*
X0037888Y0034683D01*
D02*
G37*
G36*
X0021760Y0032090D02*
X0021368D01*
Y0034282D01*
Y0034287D01*
Y0034300D01*
Y0034318D01*
Y0034350D01*
Y0034386D01*
Y0034426D01*
X0021372Y0034471D01*
Y0034526D01*
Y0034584D01*
X0021377Y0034647D01*
X0021381Y0034787D01*
X0021390Y0034941D01*
X0021399Y0035103D01*
X0021381D01*
X0020218Y0032090D01*
X0019897D01*
X0018743Y0035107D01*
X0018725D01*
Y0035103D01*
Y0035089D01*
X0018729Y0035071D01*
Y0035044D01*
X0018734Y0035008D01*
Y0034968D01*
X0018738Y0034918D01*
X0018743Y0034864D01*
Y0034805D01*
X0018747Y0034742D01*
Y0034670D01*
X0018752Y0034598D01*
X0018756Y0034431D01*
Y0034255D01*
Y0032090D01*
X0018391D01*
Y0035495D01*
X0018986D01*
X0020064Y0032686D01*
X0020082D01*
X0021169Y0035495D01*
X0021760D01*
Y0032090D01*
D02*
G37*
G36*
X0068678Y0032090D02*
X0068290D01*
Y0035712D01*
X0068678D01*
Y0032090D01*
D02*
G37*
G36*
X0064799D02*
X0064411D01*
Y0034643D01*
X0064799D01*
Y0032090D01*
D02*
G37*
G36*
X0061872Y0034616D02*
Y0034607D01*
Y0034584D01*
Y0034548D01*
Y0034499D01*
X0061867Y0034449D01*
X0061863Y0034395D01*
X0061858Y0034336D01*
X0061854Y0034287D01*
X0061876D01*
X0061881Y0034296D01*
X0061899Y0034318D01*
X0061922Y0034350D01*
X0061958Y0034390D01*
X0062007Y0034440D01*
X0062061Y0034485D01*
X0062125Y0034535D01*
X0062201Y0034575D01*
X0062206D01*
X0062210Y0034580D01*
X0062224Y0034584D01*
X0062237Y0034593D01*
X0062282Y0034611D01*
X0062341Y0034629D01*
X0062413Y0034647D01*
X0062494Y0034666D01*
X0062585Y0034679D01*
X0062684Y0034683D01*
X0062729D01*
X0062760Y0034679D01*
X0062801D01*
X0062846Y0034670D01*
X0062896Y0034666D01*
X0062945Y0034657D01*
X0063063Y0034629D01*
X0063175Y0034589D01*
X0063234Y0034562D01*
X0063288Y0034535D01*
X0063338Y0034499D01*
X0063383Y0034458D01*
X0063387Y0034453D01*
X0063392Y0034449D01*
X0063405Y0034435D01*
X0063419Y0034417D01*
X0063437Y0034390D01*
X0063455Y0034363D01*
X0063477Y0034327D01*
X0063500Y0034287D01*
X0063523Y0034242D01*
X0063545Y0034187D01*
X0063563Y0034133D01*
X0063581Y0034070D01*
X0063595Y0033998D01*
X0063608Y0033921D01*
X0063613Y0033840D01*
X0063617Y0033755D01*
Y0032090D01*
X0063234D01*
Y0033736D01*
Y0033741D01*
Y0033750D01*
Y0033768D01*
Y0033786D01*
X0063229Y0033813D01*
X0063225Y0033845D01*
X0063216Y0033912D01*
X0063198Y0033989D01*
X0063175Y0034066D01*
X0063139Y0034138D01*
X0063090Y0034201D01*
X0063085Y0034210D01*
X0063063Y0034228D01*
X0063031Y0034251D01*
X0062981Y0034282D01*
X0062918Y0034309D01*
X0062846Y0034336D01*
X0062751Y0034354D01*
X0062648Y0034359D01*
X0062607D01*
X0062580Y0034354D01*
X0062548D01*
X0062508Y0034345D01*
X0062422Y0034332D01*
X0062323Y0034305D01*
X0062228Y0034264D01*
X0062179Y0034242D01*
X0062134Y0034210D01*
X0062093Y0034178D01*
X0062057Y0034138D01*
Y0034133D01*
X0062048Y0034129D01*
X0062039Y0034115D01*
X0062030Y0034097D01*
X0062016Y0034075D01*
X0061998Y0034043D01*
X0061980Y0034007D01*
X0061967Y0033966D01*
X0061949Y0033921D01*
X0061931Y0033867D01*
X0061917Y0033809D01*
X0061899Y0033745D01*
X0061890Y0033673D01*
X0061881Y0033597D01*
X0061872Y0033511D01*
Y0033421D01*
Y0032090D01*
X0061484D01*
Y0035712D01*
X0061872D01*
Y0034616D01*
D02*
G37*
G36*
X0042515Y0034679D02*
X0042551D01*
X0042596Y0034675D01*
X0042641Y0034666D01*
X0042695Y0034656D01*
X0042804Y0034634D01*
X0042916Y0034598D01*
X0043025Y0034548D01*
X0043070Y0034517D01*
X0043115Y0034481D01*
X0043119D01*
X0043124Y0034471D01*
X0043137Y0034458D01*
X0043151Y0034440D01*
X0043164Y0034422D01*
X0043187Y0034395D01*
X0043205Y0034359D01*
X0043228Y0034323D01*
X0043246Y0034282D01*
X0043268Y0034233D01*
X0043286Y0034178D01*
X0043300Y0034120D01*
X0043318Y0034057D01*
X0043327Y0033989D01*
X0043331Y0033912D01*
X0043336Y0033831D01*
Y0032090D01*
X0043047D01*
X0042970Y0032451D01*
X0042952D01*
Y0032447D01*
X0042943Y0032442D01*
X0042921Y0032410D01*
X0042885Y0032370D01*
X0042835Y0032320D01*
X0042777Y0032266D01*
X0042713Y0032212D01*
X0042646Y0032167D01*
X0042574Y0032126D01*
X0042565Y0032122D01*
X0042538Y0032113D01*
X0042497Y0032099D01*
X0042443Y0032086D01*
X0042375Y0032072D01*
X0042294Y0032059D01*
X0042204Y0032050D01*
X0042100Y0032045D01*
X0042064D01*
X0042037Y0032050D01*
X0042005D01*
X0041969Y0032054D01*
X0041884Y0032068D01*
X0041789Y0032095D01*
X0041690Y0032126D01*
X0041590Y0032176D01*
X0041545Y0032203D01*
X0041505Y0032239D01*
X0041500Y0032244D01*
X0041496Y0032248D01*
X0041473Y0032275D01*
X0041437Y0032320D01*
X0041396Y0032383D01*
X0041356Y0032460D01*
X0041324Y0032555D01*
X0041297Y0032667D01*
X0041293Y0032726D01*
X0041288Y0032794D01*
Y0032798D01*
Y0032803D01*
X0041293Y0032825D01*
X0041297Y0032866D01*
X0041306Y0032916D01*
X0041324Y0032974D01*
X0041351Y0033042D01*
X0041392Y0033110D01*
X0041442Y0033186D01*
X0041509Y0033258D01*
X0041545Y0033294D01*
X0041590Y0033331D01*
X0041636Y0033367D01*
X0041690Y0033398D01*
X0041748Y0033430D01*
X0041811Y0033461D01*
X0041879Y0033488D01*
X0041951Y0033515D01*
X0042032Y0033538D01*
X0042118Y0033556D01*
X0042208Y0033574D01*
X0042307Y0033588D01*
X0042411Y0033597D01*
X0042524Y0033601D01*
X0042957Y0033619D01*
Y0033777D01*
Y0033781D01*
Y0033790D01*
Y0033804D01*
Y0033827D01*
X0042952Y0033881D01*
X0042939Y0033944D01*
X0042925Y0034016D01*
X0042903Y0034088D01*
X0042871Y0034160D01*
X0042826Y0034219D01*
X0042822Y0034223D01*
X0042804Y0034242D01*
X0042772Y0034264D01*
X0042727Y0034291D01*
X0042673Y0034318D01*
X0042601Y0034341D01*
X0042515Y0034359D01*
X0042416Y0034363D01*
X0042384D01*
X0042362Y0034359D01*
X0042330D01*
X0042294Y0034354D01*
X0042253Y0034345D01*
X0042204Y0034341D01*
X0042154Y0034327D01*
X0042100Y0034314D01*
X0041978Y0034278D01*
X0041838Y0034233D01*
X0041766Y0034201D01*
X0041694Y0034165D01*
X0041577Y0034462D01*
X0041586Y0034467D01*
X0041609Y0034481D01*
X0041649Y0034499D01*
X0041699Y0034521D01*
X0041757Y0034548D01*
X0041829Y0034575D01*
X0041906Y0034602D01*
X0041987Y0034625D01*
X0041992D01*
X0041996Y0034629D01*
X0042010D01*
X0042028Y0034634D01*
X0042068Y0034643D01*
X0042127Y0034656D01*
X0042195Y0034666D01*
X0042271Y0034675D01*
X0042353Y0034679D01*
X0042438Y0034683D01*
X0042483D01*
X0042515Y0034679D01*
D02*
G37*
G36*
X0030243Y0035491D02*
X0030275D01*
X0030315Y0035486D01*
X0030356Y0035482D01*
X0030451Y0035464D01*
X0030559Y0035441D01*
X0030676Y0035414D01*
X0030793Y0035373D01*
X0030911Y0035319D01*
X0031028Y0035252D01*
X0031136Y0035175D01*
X0031231Y0035076D01*
X0031272Y0035022D01*
X0031312Y0034963D01*
X0031348Y0034900D01*
X0031375Y0034832D01*
X0031398Y0034756D01*
X0031416Y0034679D01*
X0031425Y0034593D01*
X0031429Y0034503D01*
Y0034499D01*
Y0034481D01*
Y0034453D01*
X0031425Y0034417D01*
X0031420Y0034372D01*
X0031411Y0034323D01*
X0031398Y0034269D01*
X0031384Y0034210D01*
X0031366Y0034147D01*
X0031344Y0034079D01*
X0031317Y0034016D01*
X0031281Y0033948D01*
X0031240Y0033881D01*
X0031195Y0033818D01*
X0031141Y0033759D01*
X0031078Y0033705D01*
X0031073Y0033700D01*
X0031060Y0033691D01*
X0031042Y0033678D01*
X0031014Y0033664D01*
X0030978Y0033642D01*
X0030933Y0033619D01*
X0030879Y0033592D01*
X0030821Y0033569D01*
X0030753Y0033542D01*
X0030676Y0033515D01*
X0030595Y0033493D01*
X0030505Y0033475D01*
X0030406Y0033457D01*
X0030302Y0033443D01*
X0030189Y0033434D01*
X0030072Y0033430D01*
X0029671D01*
Y0032090D01*
X0029274D01*
Y0035495D01*
X0030212D01*
X0030243Y0035491D01*
D02*
G37*
G36*
X0027158Y0032090D02*
X0026771D01*
Y0034643D01*
X0027158D01*
Y0032090D01*
D02*
G37*
G36*
X0023027D02*
X0022639D01*
Y0034643D01*
X0023027D01*
Y0032090D01*
D02*
G37*
G36*
X0066675Y0034683D02*
X0066716Y0034679D01*
X0066761Y0034670D01*
X0066810Y0034661D01*
X0066869Y0034647D01*
X0066928Y0034629D01*
X0066991Y0034611D01*
X0067054Y0034584D01*
X0067117Y0034553D01*
X0067180Y0034517D01*
X0067239Y0034471D01*
X0067297Y0034426D01*
X0067352Y0034368D01*
X0067356Y0034363D01*
X0067365Y0034354D01*
X0067379Y0034336D01*
X0067397Y0034309D01*
X0067415Y0034278D01*
X0067442Y0034242D01*
X0067464Y0034196D01*
X0067491Y0034147D01*
X0067518Y0034088D01*
X0067541Y0034025D01*
X0067568Y0033957D01*
X0067586Y0033885D01*
X0067604Y0033804D01*
X0067618Y0033723D01*
X0067627Y0033633D01*
X0067631Y0033538D01*
Y0033294D01*
X0065877D01*
Y0033290D01*
Y0033276D01*
X0065881Y0033249D01*
Y0033222D01*
X0065886Y0033182D01*
X0065890Y0033141D01*
X0065899Y0033092D01*
X0065908Y0033042D01*
X0065935Y0032929D01*
X0065976Y0032816D01*
X0066030Y0032708D01*
X0066066Y0032658D01*
X0066102Y0032613D01*
X0066107Y0032609D01*
X0066111Y0032604D01*
X0066125Y0032591D01*
X0066143Y0032577D01*
X0066165Y0032559D01*
X0066193Y0032541D01*
X0066224Y0032519D01*
X0066260Y0032501D01*
X0066301Y0032478D01*
X0066346Y0032456D01*
X0066450Y0032419D01*
X0066571Y0032392D01*
X0066635Y0032388D01*
X0066707Y0032383D01*
X0066747D01*
X0066779Y0032388D01*
X0066815D01*
X0066860Y0032392D01*
X0066910Y0032397D01*
X0066964Y0032406D01*
X0067022Y0032415D01*
X0067090Y0032424D01*
X0067225Y0032456D01*
X0067374Y0032496D01*
X0067523Y0032555D01*
Y0032208D01*
X0067514Y0032203D01*
X0067487Y0032194D01*
X0067451Y0032181D01*
X0067397Y0032162D01*
X0067338Y0032140D01*
X0067275Y0032122D01*
X0067203Y0032099D01*
X0067135Y0032086D01*
X0067126D01*
X0067103Y0032081D01*
X0067063Y0032072D01*
X0067013Y0032068D01*
X0066950Y0032059D01*
X0066874Y0032050D01*
X0066788Y0032045D01*
X0066671D01*
X0066639Y0032050D01*
X0066598D01*
X0066553Y0032054D01*
X0066499Y0032063D01*
X0066436Y0032072D01*
X0066368Y0032090D01*
X0066301Y0032108D01*
X0066229Y0032131D01*
X0066152Y0032158D01*
X0066080Y0032190D01*
X0066003Y0032230D01*
X0065931Y0032275D01*
X0065863Y0032329D01*
X0065800Y0032388D01*
X0065796Y0032392D01*
X0065787Y0032406D01*
X0065769Y0032424D01*
X0065750Y0032451D01*
X0065724Y0032487D01*
X0065696Y0032528D01*
X0065669Y0032577D01*
X0065638Y0032636D01*
X0065606Y0032699D01*
X0065579Y0032771D01*
X0065552Y0032852D01*
X0065525Y0032938D01*
X0065507Y0033028D01*
X0065489Y0033128D01*
X0065480Y0033231D01*
X0065475Y0033344D01*
Y0033353D01*
Y0033371D01*
Y0033403D01*
X0065480Y0033448D01*
X0065484Y0033497D01*
X0065493Y0033560D01*
X0065503Y0033624D01*
X0065512Y0033700D01*
X0065548Y0033854D01*
X0065575Y0033935D01*
X0065602Y0034016D01*
X0065638Y0034097D01*
X0065678Y0034178D01*
X0065724Y0034251D01*
X0065778Y0034323D01*
X0065782Y0034327D01*
X0065791Y0034341D01*
X0065809Y0034359D01*
X0065832Y0034381D01*
X0065863Y0034408D01*
X0065904Y0034440D01*
X0065944Y0034471D01*
X0065994Y0034508D01*
X0066048Y0034539D01*
X0066111Y0034571D01*
X0066179Y0034602D01*
X0066251Y0034629D01*
X0066328Y0034657D01*
X0066413Y0034675D01*
X0066499Y0034683D01*
X0066594Y0034688D01*
X0066639D01*
X0066675Y0034683D01*
D02*
G37*
G36*
X0054065D02*
X0054106Y0034679D01*
X0054151Y0034670D01*
X0054200Y0034661D01*
X0054259Y0034647D01*
X0054318Y0034629D01*
X0054381Y0034611D01*
X0054444Y0034584D01*
X0054507Y0034553D01*
X0054570Y0034517D01*
X0054629Y0034471D01*
X0054688Y0034426D01*
X0054742Y0034368D01*
X0054746Y0034363D01*
X0054755Y0034354D01*
X0054769Y0034336D01*
X0054787Y0034309D01*
X0054805Y0034278D01*
X0054832Y0034242D01*
X0054854Y0034196D01*
X0054881Y0034147D01*
X0054909Y0034088D01*
X0054931Y0034025D01*
X0054958Y0033957D01*
X0054976Y0033885D01*
X0054994Y0033804D01*
X0055008Y0033723D01*
X0055017Y0033633D01*
X0055021Y0033538D01*
Y0033294D01*
X0053267D01*
Y0033290D01*
Y0033276D01*
X0053271Y0033249D01*
Y0033222D01*
X0053276Y0033182D01*
X0053280Y0033141D01*
X0053289Y0033092D01*
X0053298Y0033042D01*
X0053325Y0032929D01*
X0053366Y0032816D01*
X0053420Y0032708D01*
X0053456Y0032658D01*
X0053492Y0032613D01*
X0053497Y0032609D01*
X0053501Y0032604D01*
X0053515Y0032591D01*
X0053533Y0032577D01*
X0053556Y0032559D01*
X0053583Y0032541D01*
X0053614Y0032519D01*
X0053650Y0032501D01*
X0053691Y0032478D01*
X0053736Y0032456D01*
X0053840Y0032419D01*
X0053961Y0032392D01*
X0054024Y0032388D01*
X0054097Y0032383D01*
X0054137D01*
X0054169Y0032388D01*
X0054205D01*
X0054250Y0032392D01*
X0054300Y0032397D01*
X0054354Y0032406D01*
X0054412Y0032415D01*
X0054480Y0032424D01*
X0054615Y0032456D01*
X0054764Y0032496D01*
X0054913Y0032555D01*
Y0032208D01*
X0054904Y0032203D01*
X0054877Y0032194D01*
X0054841Y0032181D01*
X0054787Y0032162D01*
X0054728Y0032140D01*
X0054665Y0032122D01*
X0054593Y0032099D01*
X0054525Y0032086D01*
X0054516D01*
X0054494Y0032081D01*
X0054453Y0032072D01*
X0054403Y0032068D01*
X0054340Y0032059D01*
X0054264Y0032050D01*
X0054178Y0032045D01*
X0054061D01*
X0054029Y0032050D01*
X0053988D01*
X0053943Y0032054D01*
X0053889Y0032063D01*
X0053826Y0032072D01*
X0053758Y0032090D01*
X0053691Y0032108D01*
X0053619Y0032131D01*
X0053542Y0032158D01*
X0053470Y0032190D01*
X0053393Y0032230D01*
X0053321Y0032275D01*
X0053253Y0032329D01*
X0053190Y0032388D01*
X0053186Y0032392D01*
X0053177Y0032406D01*
X0053159Y0032424D01*
X0053140Y0032451D01*
X0053114Y0032487D01*
X0053086Y0032528D01*
X0053059Y0032577D01*
X0053028Y0032636D01*
X0052996Y0032699D01*
X0052969Y0032771D01*
X0052942Y0032852D01*
X0052915Y0032938D01*
X0052897Y0033028D01*
X0052879Y0033128D01*
X0052870Y0033231D01*
X0052865Y0033344D01*
Y0033353D01*
Y0033371D01*
Y0033403D01*
X0052870Y0033448D01*
X0052874Y0033497D01*
X0052883Y0033560D01*
X0052893Y0033624D01*
X0052902Y0033700D01*
X0052938Y0033854D01*
X0052965Y0033935D01*
X0052992Y0034016D01*
X0053028Y0034097D01*
X0053068Y0034178D01*
X0053114Y0034251D01*
X0053168Y0034323D01*
X0053172Y0034327D01*
X0053181Y0034341D01*
X0053199Y0034359D01*
X0053222Y0034381D01*
X0053253Y0034408D01*
X0053294Y0034440D01*
X0053334Y0034471D01*
X0053384Y0034508D01*
X0053438Y0034539D01*
X0053501Y0034571D01*
X0053569Y0034602D01*
X0053641Y0034629D01*
X0053718Y0034657D01*
X0053803Y0034675D01*
X0053889Y0034683D01*
X0053984Y0034688D01*
X0054029D01*
X0054065Y0034683D01*
D02*
G37*
G36*
X0035164Y0034683D02*
X0035209Y0034679D01*
X0035258Y0034670D01*
X0035317Y0034656D01*
X0035380Y0034643D01*
X0035443Y0034625D01*
X0035515Y0034602D01*
X0035583Y0034571D01*
X0035655Y0034539D01*
X0035727Y0034499D01*
X0035795Y0034449D01*
X0035858Y0034395D01*
X0035921Y0034332D01*
X0035926Y0034327D01*
X0035935Y0034314D01*
X0035948Y0034296D01*
X0035971Y0034269D01*
X0035993Y0034233D01*
X0036021Y0034187D01*
X0036052Y0034138D01*
X0036079Y0034079D01*
X0036111Y0034012D01*
X0036138Y0033939D01*
X0036165Y0033858D01*
X0036187Y0033773D01*
X0036210Y0033682D01*
X0036224Y0033583D01*
X0036233Y0033479D01*
X0036237Y0033367D01*
Y0033358D01*
Y0033340D01*
Y0033308D01*
X0036233Y0033263D01*
X0036228Y0033213D01*
X0036219Y0033150D01*
X0036210Y0033083D01*
X0036197Y0033010D01*
X0036183Y0032934D01*
X0036160Y0032857D01*
X0036133Y0032776D01*
X0036106Y0032695D01*
X0036066Y0032613D01*
X0036025Y0032537D01*
X0035976Y0032460D01*
X0035921Y0032392D01*
X0035917Y0032388D01*
X0035908Y0032379D01*
X0035890Y0032361D01*
X0035863Y0032338D01*
X0035831Y0032311D01*
X0035795Y0032284D01*
X0035750Y0032253D01*
X0035696Y0032221D01*
X0035637Y0032185D01*
X0035574Y0032153D01*
X0035502Y0032126D01*
X0035425Y0032099D01*
X0035340Y0032077D01*
X0035254Y0032059D01*
X0035155Y0032050D01*
X0035056Y0032045D01*
X0035024D01*
X0034997Y0032050D01*
X0034970D01*
X0034934Y0032054D01*
X0034852Y0032063D01*
X0034758Y0032086D01*
X0034654Y0032113D01*
X0034550Y0032149D01*
X0034447Y0032203D01*
X0034442D01*
X0034433Y0032212D01*
X0034420Y0032221D01*
X0034402Y0032235D01*
X0034356Y0032271D01*
X0034298Y0032320D01*
X0034235Y0032388D01*
X0034167Y0032465D01*
X0034099Y0032559D01*
X0034041Y0032663D01*
Y0032667D01*
X0034036Y0032677D01*
X0034027Y0032695D01*
X0034018Y0032717D01*
X0034009Y0032744D01*
X0033996Y0032780D01*
X0033982Y0032821D01*
X0033968Y0032866D01*
X0033955Y0032916D01*
X0033942Y0032970D01*
X0033919Y0033087D01*
X0033901Y0033222D01*
X0033896Y0033367D01*
Y0033376D01*
Y0033394D01*
Y0033425D01*
X0033901Y0033470D01*
X0033905Y0033520D01*
X0033914Y0033583D01*
X0033923Y0033651D01*
X0033937Y0033723D01*
X0033950Y0033799D01*
X0033973Y0033876D01*
X0033996Y0033957D01*
X0034027Y0034039D01*
X0034063Y0034120D01*
X0034104Y0034196D01*
X0034153Y0034269D01*
X0034208Y0034336D01*
X0034212Y0034341D01*
X0034221Y0034350D01*
X0034239Y0034368D01*
X0034266Y0034390D01*
X0034298Y0034417D01*
X0034334Y0034449D01*
X0034379Y0034481D01*
X0034433Y0034512D01*
X0034492Y0034544D01*
X0034555Y0034575D01*
X0034627Y0034607D01*
X0034704Y0034634D01*
X0034789Y0034656D01*
X0034875Y0034675D01*
X0034974Y0034683D01*
X0035074Y0034688D01*
X0035123D01*
X0035164Y0034683D01*
D02*
G37*
G36*
X0043198Y0030259D02*
X0043257Y0030255D01*
X0043325Y0030241D01*
X0043406Y0030228D01*
X0043496Y0030205D01*
X0043595Y0030178D01*
X0043496Y0029871D01*
X0043491D01*
X0043487Y0029876D01*
X0043460Y0029885D01*
X0043415Y0029894D01*
X0043365Y0029907D01*
X0043302Y0029921D01*
X0043239Y0029934D01*
X0043176Y0029939D01*
X0043113Y0029943D01*
X0043077D01*
X0043040Y0029934D01*
X0042991Y0029926D01*
X0042937Y0029907D01*
X0042883Y0029880D01*
X0042833Y0029844D01*
X0042788Y0029795D01*
X0042783Y0029790D01*
X0042770Y0029768D01*
X0042756Y0029732D01*
X0042738Y0029682D01*
X0042716Y0029619D01*
X0042702Y0029538D01*
X0042689Y0029443D01*
X0042684Y0029330D01*
Y0029163D01*
X0043334D01*
Y0028866D01*
X0042684D01*
Y0026615D01*
X0042301D01*
Y0028866D01*
X0041841D01*
Y0029037D01*
X0042301Y0029181D01*
Y0029321D01*
Y0029326D01*
Y0029330D01*
Y0029344D01*
Y0029362D01*
X0042305Y0029407D01*
X0042314Y0029470D01*
X0042328Y0029542D01*
X0042346Y0029619D01*
X0042368Y0029704D01*
X0042404Y0029795D01*
X0042445Y0029880D01*
X0042499Y0029966D01*
X0042567Y0030047D01*
X0042648Y0030115D01*
X0042743Y0030178D01*
X0042851Y0030223D01*
X0042910Y0030241D01*
X0042977Y0030255D01*
X0043045Y0030259D01*
X0043122Y0030264D01*
X0043158D01*
X0043198Y0030259D01*
D02*
G37*
G36*
X0047947Y0029208D02*
X0047992Y0029204D01*
X0048046Y0029199D01*
X0048150Y0029181D01*
X0048096Y0028825D01*
X0048087D01*
X0048069Y0028830D01*
X0048042Y0028839D01*
X0048001Y0028843D01*
X0047961Y0028852D01*
X0047911Y0028857D01*
X0047817Y0028861D01*
X0047785D01*
X0047762Y0028857D01*
X0047740Y0028852D01*
X0047708Y0028848D01*
X0047632Y0028830D01*
X0047550Y0028798D01*
X0047460Y0028753D01*
X0047415Y0028726D01*
X0047370Y0028694D01*
X0047325Y0028654D01*
X0047284Y0028609D01*
X0047280Y0028604D01*
X0047275Y0028595D01*
X0047266Y0028582D01*
X0047253Y0028563D01*
X0047235Y0028541D01*
X0047217Y0028509D01*
X0047199Y0028473D01*
X0047176Y0028437D01*
X0047135Y0028343D01*
X0047104Y0028239D01*
X0047077Y0028117D01*
X0047072Y0028049D01*
X0047068Y0027982D01*
Y0026615D01*
X0046680D01*
Y0029168D01*
X0047000D01*
X0047045Y0028690D01*
X0047063D01*
Y0028694D01*
X0047068Y0028699D01*
X0047077Y0028712D01*
X0047090Y0028730D01*
X0047117Y0028775D01*
X0047158Y0028834D01*
X0047208Y0028897D01*
X0047266Y0028960D01*
X0047329Y0029024D01*
X0047402Y0029078D01*
X0047406D01*
X0047411Y0029082D01*
X0047438Y0029100D01*
X0047478Y0029123D01*
X0047532Y0029145D01*
X0047600Y0029172D01*
X0047672Y0029190D01*
X0047758Y0029208D01*
X0047844Y0029213D01*
X0047907D01*
X0047947Y0029208D01*
D02*
G37*
G36*
X0044926D02*
X0044971Y0029204D01*
X0045020Y0029195D01*
X0045079Y0029181D01*
X0045142Y0029168D01*
X0045205Y0029150D01*
X0045277Y0029127D01*
X0045345Y0029096D01*
X0045417Y0029064D01*
X0045489Y0029024D01*
X0045557Y0028974D01*
X0045620Y0028920D01*
X0045683Y0028857D01*
X0045688Y0028852D01*
X0045697Y0028839D01*
X0045710Y0028820D01*
X0045733Y0028793D01*
X0045755Y0028757D01*
X0045783Y0028712D01*
X0045814Y0028663D01*
X0045841Y0028604D01*
X0045873Y0028536D01*
X0045900Y0028464D01*
X0045927Y0028383D01*
X0045949Y0028297D01*
X0045972Y0028207D01*
X0045985Y0028108D01*
X0045994Y0028004D01*
X0045999Y0027891D01*
Y0027882D01*
Y0027864D01*
Y0027833D01*
X0045994Y0027788D01*
X0045990Y0027738D01*
X0045981Y0027675D01*
X0045972Y0027607D01*
X0045958Y0027535D01*
X0045945Y0027459D01*
X0045922Y0027382D01*
X0045895Y0027301D01*
X0045868Y0027220D01*
X0045828Y0027138D01*
X0045787Y0027062D01*
X0045737Y0026985D01*
X0045683Y0026917D01*
X0045679Y0026913D01*
X0045670Y0026904D01*
X0045652Y0026886D01*
X0045625Y0026863D01*
X0045593Y0026836D01*
X0045557Y0026809D01*
X0045512Y0026777D01*
X0045458Y0026746D01*
X0045399Y0026710D01*
X0045336Y0026678D01*
X0045264Y0026651D01*
X0045187Y0026624D01*
X0045101Y0026602D01*
X0045016Y0026584D01*
X0044917Y0026575D01*
X0044817Y0026570D01*
X0044786D01*
X0044759Y0026575D01*
X0044732D01*
X0044696Y0026579D01*
X0044614Y0026588D01*
X0044520Y0026611D01*
X0044416Y0026638D01*
X0044312Y0026674D01*
X0044208Y0026728D01*
X0044204D01*
X0044195Y0026737D01*
X0044181Y0026746D01*
X0044163Y0026759D01*
X0044118Y0026796D01*
X0044060Y0026845D01*
X0043997Y0026913D01*
X0043929Y0026989D01*
X0043861Y0027084D01*
X0043803Y0027188D01*
Y0027192D01*
X0043798Y0027201D01*
X0043789Y0027220D01*
X0043780Y0027242D01*
X0043771Y0027269D01*
X0043758Y0027305D01*
X0043744Y0027346D01*
X0043730Y0027391D01*
X0043717Y0027440D01*
X0043703Y0027495D01*
X0043681Y0027612D01*
X0043663Y0027747D01*
X0043658Y0027891D01*
Y0027900D01*
Y0027918D01*
Y0027950D01*
X0043663Y0027995D01*
X0043667Y0028045D01*
X0043676Y0028108D01*
X0043685Y0028176D01*
X0043699Y0028248D01*
X0043712Y0028324D01*
X0043735Y0028401D01*
X0043758Y0028482D01*
X0043789Y0028563D01*
X0043825Y0028645D01*
X0043866Y0028721D01*
X0043915Y0028793D01*
X0043970Y0028861D01*
X0043974Y0028866D01*
X0043983Y0028875D01*
X0044001Y0028893D01*
X0044028Y0028915D01*
X0044060Y0028942D01*
X0044096Y0028974D01*
X0044141Y0029005D01*
X0044195Y0029037D01*
X0044254Y0029069D01*
X0044317Y0029100D01*
X0044389Y0029132D01*
X0044466Y0029159D01*
X0044551Y0029181D01*
X0044637Y0029199D01*
X0044736Y0029208D01*
X0044835Y0029213D01*
X0044885D01*
X0044926Y0029208D01*
D02*
G37*
G36*
X0017669Y0025713D02*
X0017715D01*
X0017764Y0025709D01*
X0017827Y0025704D01*
X0017890Y0025695D01*
X0017958Y0025686D01*
X0018035Y0025673D01*
X0018193Y0025636D01*
X0018355Y0025591D01*
X0018517Y0025528D01*
X0018395Y0025185D01*
X0018391D01*
X0018377Y0025194D01*
X0018355Y0025203D01*
X0018323Y0025212D01*
X0018287Y0025226D01*
X0018242Y0025244D01*
X0018188Y0025258D01*
X0018134Y0025276D01*
X0018075Y0025294D01*
X0018008Y0025307D01*
X0017872Y0025339D01*
X0017724Y0025357D01*
X0017575Y0025366D01*
X0017521D01*
X0017498Y0025361D01*
X0017467Y0025357D01*
X0017394Y0025348D01*
X0017318Y0025330D01*
X0017236Y0025307D01*
X0017155Y0025271D01*
X0017083Y0025226D01*
X0017074Y0025221D01*
X0017056Y0025203D01*
X0017029Y0025172D01*
X0016997Y0025127D01*
X0016961Y0025077D01*
X0016934Y0025010D01*
X0016916Y0024937D01*
X0016907Y0024852D01*
Y0024843D01*
Y0024825D01*
X0016912Y0024789D01*
X0016916Y0024748D01*
X0016921Y0024703D01*
X0016934Y0024658D01*
X0016948Y0024608D01*
X0016970Y0024563D01*
X0016975Y0024558D01*
X0016984Y0024545D01*
X0017002Y0024522D01*
X0017025Y0024495D01*
X0017056Y0024464D01*
X0017092Y0024428D01*
X0017137Y0024392D01*
X0017191Y0024356D01*
X0017200Y0024351D01*
X0017218Y0024338D01*
X0017259Y0024319D01*
X0017309Y0024293D01*
X0017376Y0024265D01*
X0017457Y0024229D01*
X0017552Y0024189D01*
X0017665Y0024148D01*
X0017669D01*
X0017687Y0024139D01*
X0017715Y0024130D01*
X0017751Y0024117D01*
X0017796Y0024099D01*
X0017845Y0024076D01*
X0017899Y0024053D01*
X0017958Y0024026D01*
X0018080Y0023963D01*
X0018202Y0023896D01*
X0018260Y0023859D01*
X0018310Y0023819D01*
X0018359Y0023778D01*
X0018400Y0023738D01*
X0018405Y0023733D01*
X0018409Y0023729D01*
X0018418Y0023715D01*
X0018432Y0023697D01*
X0018445Y0023679D01*
X0018463Y0023652D01*
X0018504Y0023584D01*
X0018540Y0023503D01*
X0018571Y0023408D01*
X0018594Y0023296D01*
X0018603Y0023233D01*
Y0023169D01*
Y0023165D01*
Y0023151D01*
Y0023129D01*
X0018598Y0023097D01*
X0018594Y0023057D01*
X0018585Y0023016D01*
X0018576Y0022966D01*
X0018562Y0022917D01*
X0018544Y0022858D01*
X0018522Y0022804D01*
X0018495Y0022746D01*
X0018463Y0022687D01*
X0018427Y0022628D01*
X0018382Y0022574D01*
X0018332Y0022520D01*
X0018274Y0022470D01*
X0018269Y0022466D01*
X0018260Y0022461D01*
X0018242Y0022448D01*
X0018215Y0022430D01*
X0018183Y0022412D01*
X0018143Y0022394D01*
X0018093Y0022371D01*
X0018044Y0022349D01*
X0017981Y0022322D01*
X0017917Y0022299D01*
X0017845Y0022281D01*
X0017764Y0022263D01*
X0017683Y0022245D01*
X0017593Y0022231D01*
X0017493Y0022227D01*
X0017394Y0022222D01*
X0017336D01*
X0017295Y0022227D01*
X0017245D01*
X0017187Y0022231D01*
X0017119Y0022236D01*
X0017052Y0022240D01*
X0016898Y0022258D01*
X0016745Y0022286D01*
X0016596Y0022326D01*
X0016524Y0022349D01*
X0016461Y0022376D01*
Y0022759D01*
X0016465D01*
X0016470Y0022755D01*
X0016497Y0022746D01*
X0016542Y0022727D01*
X0016596Y0022709D01*
X0016664Y0022687D01*
X0016740Y0022664D01*
X0016826Y0022642D01*
X0016916Y0022619D01*
X0016930D01*
X0016939Y0022615D01*
X0016957Y0022610D01*
X0017006Y0022606D01*
X0017070Y0022597D01*
X0017146Y0022588D01*
X0017227Y0022579D01*
X0017318Y0022574D01*
X0017408Y0022570D01*
X0017444D01*
X0017471Y0022574D01*
X0017507D01*
X0017543Y0022579D01*
X0017629Y0022588D01*
X0017724Y0022606D01*
X0017823Y0022633D01*
X0017917Y0022669D01*
X0017958Y0022691D01*
X0017999Y0022718D01*
X0018003D01*
X0018008Y0022727D01*
X0018030Y0022746D01*
X0018062Y0022782D01*
X0018102Y0022827D01*
X0018138Y0022885D01*
X0018170Y0022957D01*
X0018193Y0023039D01*
X0018202Y0023084D01*
Y0023133D01*
Y0023142D01*
Y0023165D01*
X0018197Y0023197D01*
X0018193Y0023237D01*
X0018183Y0023282D01*
X0018170Y0023327D01*
X0018152Y0023377D01*
X0018129Y0023422D01*
X0018125Y0023426D01*
X0018116Y0023440D01*
X0018098Y0023463D01*
X0018075Y0023490D01*
X0018044Y0023521D01*
X0018003Y0023557D01*
X0017954Y0023593D01*
X0017895Y0023629D01*
X0017886Y0023634D01*
X0017863Y0023648D01*
X0017823Y0023666D01*
X0017769Y0023693D01*
X0017696Y0023724D01*
X0017611Y0023765D01*
X0017507Y0023805D01*
X0017390Y0023846D01*
X0017385D01*
X0017367Y0023855D01*
X0017345Y0023864D01*
X0017313Y0023877D01*
X0017273Y0023891D01*
X0017227Y0023914D01*
X0017178Y0023936D01*
X0017124Y0023959D01*
X0017016Y0024017D01*
X0016903Y0024090D01*
X0016794Y0024166D01*
X0016749Y0024207D01*
X0016709Y0024247D01*
Y0024252D01*
X0016700Y0024256D01*
X0016691Y0024270D01*
X0016677Y0024288D01*
X0016664Y0024315D01*
X0016646Y0024342D01*
X0016628Y0024374D01*
X0016610Y0024410D01*
X0016569Y0024500D01*
X0016537Y0024604D01*
X0016515Y0024721D01*
X0016510Y0024789D01*
X0016506Y0024856D01*
Y0024861D01*
Y0024874D01*
Y0024892D01*
X0016510Y0024919D01*
X0016515Y0024955D01*
X0016519Y0024992D01*
X0016542Y0025082D01*
X0016578Y0025181D01*
X0016601Y0025235D01*
X0016628Y0025285D01*
X0016664Y0025339D01*
X0016704Y0025388D01*
X0016749Y0025438D01*
X0016799Y0025483D01*
X0016804Y0025488D01*
X0016813Y0025492D01*
X0016830Y0025506D01*
X0016853Y0025519D01*
X0016885Y0025537D01*
X0016921Y0025555D01*
X0016961Y0025578D01*
X0017011Y0025600D01*
X0017061Y0025623D01*
X0017124Y0025646D01*
X0017187Y0025664D01*
X0017255Y0025681D01*
X0017331Y0025695D01*
X0017412Y0025709D01*
X0017493Y0025713D01*
X0017584Y0025718D01*
X0017633D01*
X0017669Y0025713D01*
D02*
G37*
G36*
X0032115D02*
X0032160D01*
X0032214Y0025709D01*
X0032277Y0025700D01*
X0032345Y0025695D01*
X0032413Y0025681D01*
X0032489Y0025668D01*
X0032647Y0025632D01*
X0032809Y0025587D01*
X0032886Y0025555D01*
X0032963Y0025519D01*
X0032796Y0025181D01*
X0032791D01*
X0032778Y0025190D01*
X0032760Y0025199D01*
X0032728Y0025208D01*
X0032692Y0025226D01*
X0032652Y0025240D01*
X0032607Y0025258D01*
X0032552Y0025276D01*
X0032498Y0025289D01*
X0032435Y0025307D01*
X0032304Y0025339D01*
X0032164Y0025357D01*
X0032020Y0025366D01*
X0031998D01*
X0031966Y0025361D01*
X0031930D01*
X0031880Y0025352D01*
X0031826Y0025348D01*
X0031768Y0025334D01*
X0031700Y0025321D01*
X0031632Y0025298D01*
X0031560Y0025276D01*
X0031484Y0025244D01*
X0031411Y0025208D01*
X0031339Y0025167D01*
X0031267Y0025113D01*
X0031199Y0025059D01*
X0031136Y0024992D01*
X0031132Y0024987D01*
X0031123Y0024973D01*
X0031105Y0024951D01*
X0031087Y0024924D01*
X0031060Y0024883D01*
X0031032Y0024838D01*
X0031005Y0024784D01*
X0030974Y0024725D01*
X0030942Y0024653D01*
X0030915Y0024577D01*
X0030888Y0024491D01*
X0030861Y0024401D01*
X0030843Y0024302D01*
X0030825Y0024198D01*
X0030816Y0024085D01*
X0030812Y0023968D01*
Y0023959D01*
Y0023941D01*
Y0023905D01*
X0030816Y0023859D01*
X0030821Y0023801D01*
X0030830Y0023738D01*
X0030839Y0023666D01*
X0030852Y0023589D01*
X0030866Y0023508D01*
X0030888Y0023422D01*
X0030911Y0023336D01*
X0030942Y0023251D01*
X0030978Y0023165D01*
X0031019Y0023084D01*
X0031069Y0023007D01*
X0031123Y0022935D01*
X0031127Y0022930D01*
X0031136Y0022921D01*
X0031154Y0022903D01*
X0031181Y0022881D01*
X0031213Y0022849D01*
X0031253Y0022822D01*
X0031299Y0022786D01*
X0031353Y0022755D01*
X0031411Y0022723D01*
X0031479Y0022687D01*
X0031551Y0022660D01*
X0031632Y0022633D01*
X0031718Y0022606D01*
X0031813Y0022588D01*
X0031912Y0022579D01*
X0032016Y0022574D01*
X0032079D01*
X0032110Y0022579D01*
X0032151Y0022583D01*
X0032201D01*
X0032250Y0022592D01*
X0032309Y0022597D01*
X0032372Y0022606D01*
X0032440Y0022615D01*
X0032512Y0022628D01*
X0032665Y0022660D01*
X0032832Y0022700D01*
Y0022353D01*
X0032827D01*
X0032814Y0022349D01*
X0032796Y0022340D01*
X0032769Y0022335D01*
X0032733Y0022322D01*
X0032692Y0022313D01*
X0032643Y0022299D01*
X0032588Y0022290D01*
X0032530Y0022276D01*
X0032462Y0022263D01*
X0032390Y0022254D01*
X0032313Y0022245D01*
X0032232Y0022236D01*
X0032142Y0022227D01*
X0031957Y0022222D01*
X0031925D01*
X0031885Y0022227D01*
X0031835Y0022231D01*
X0031772Y0022236D01*
X0031696Y0022245D01*
X0031614Y0022258D01*
X0031529Y0022281D01*
X0031438Y0022304D01*
X0031344Y0022335D01*
X0031245Y0022371D01*
X0031150Y0022416D01*
X0031055Y0022466D01*
X0030960Y0022529D01*
X0030875Y0022597D01*
X0030793Y0022678D01*
X0030789Y0022682D01*
X0030775Y0022700D01*
X0030757Y0022727D01*
X0030730Y0022764D01*
X0030699Y0022809D01*
X0030667Y0022867D01*
X0030627Y0022935D01*
X0030591Y0023012D01*
X0030555Y0023097D01*
X0030518Y0023192D01*
X0030482Y0023300D01*
X0030451Y0023417D01*
X0030424Y0023539D01*
X0030406Y0023675D01*
X0030392Y0023819D01*
X0030388Y0023972D01*
Y0023977D01*
Y0023995D01*
Y0024022D01*
X0030392Y0024062D01*
Y0024108D01*
X0030397Y0024157D01*
X0030406Y0024220D01*
X0030410Y0024283D01*
X0030424Y0024356D01*
X0030437Y0024428D01*
X0030469Y0024581D01*
X0030518Y0024739D01*
X0030545Y0024816D01*
X0030582Y0024892D01*
X0030586Y0024897D01*
X0030591Y0024910D01*
X0030604Y0024928D01*
X0030618Y0024960D01*
X0030640Y0024992D01*
X0030663Y0025028D01*
X0030726Y0025118D01*
X0030807Y0025217D01*
X0030906Y0025316D01*
X0031019Y0025416D01*
X0031150Y0025501D01*
X0031154Y0025506D01*
X0031168Y0025510D01*
X0031186Y0025519D01*
X0031217Y0025537D01*
X0031253Y0025551D01*
X0031294Y0025569D01*
X0031344Y0025591D01*
X0031398Y0025609D01*
X0031461Y0025632D01*
X0031529Y0025650D01*
X0031601Y0025668D01*
X0031677Y0025686D01*
X0031844Y0025709D01*
X0031934Y0025713D01*
X0032025Y0025718D01*
X0032079D01*
X0032115Y0025713D01*
D02*
G37*
G36*
X0071077Y0024861D02*
X0071113D01*
X0071158Y0024852D01*
X0071208Y0024847D01*
X0071257Y0024838D01*
X0071370Y0024811D01*
X0071487Y0024770D01*
X0071541Y0024744D01*
X0071596Y0024716D01*
X0071645Y0024680D01*
X0071690Y0024640D01*
X0071695Y0024635D01*
X0071699Y0024631D01*
X0071713Y0024617D01*
X0071726Y0024599D01*
X0071744Y0024572D01*
X0071762Y0024545D01*
X0071785Y0024509D01*
X0071807Y0024468D01*
X0071830Y0024423D01*
X0071852Y0024369D01*
X0071871Y0024310D01*
X0071889Y0024247D01*
X0071902Y0024180D01*
X0071916Y0024103D01*
X0071920Y0024022D01*
X0071925Y0023932D01*
Y0022267D01*
X0071541D01*
Y0023914D01*
Y0023918D01*
Y0023927D01*
Y0023945D01*
Y0023963D01*
X0071537Y0023990D01*
X0071532Y0024022D01*
X0071523Y0024090D01*
X0071505Y0024166D01*
X0071483Y0024243D01*
X0071447Y0024315D01*
X0071397Y0024378D01*
X0071393Y0024387D01*
X0071370Y0024405D01*
X0071338Y0024428D01*
X0071289Y0024459D01*
X0071226Y0024486D01*
X0071153Y0024513D01*
X0071059Y0024532D01*
X0070955Y0024536D01*
X0070919D01*
X0070887Y0024532D01*
X0070856D01*
X0070820Y0024527D01*
X0070730Y0024509D01*
X0070635Y0024482D01*
X0070536Y0024446D01*
X0070445Y0024392D01*
X0070400Y0024356D01*
X0070364Y0024319D01*
Y0024315D01*
X0070355Y0024310D01*
X0070346Y0024297D01*
X0070337Y0024279D01*
X0070324Y0024256D01*
X0070306Y0024225D01*
X0070288Y0024189D01*
X0070274Y0024148D01*
X0070256Y0024103D01*
X0070238Y0024049D01*
X0070224Y0023990D01*
X0070206Y0023927D01*
X0070197Y0023855D01*
X0070188Y0023778D01*
X0070179Y0023693D01*
Y0023602D01*
Y0022267D01*
X0069792D01*
Y0024820D01*
X0070107D01*
X0070170Y0024468D01*
X0070188D01*
X0070193Y0024477D01*
X0070211Y0024500D01*
X0070238Y0024536D01*
X0070274Y0024577D01*
X0070319Y0024622D01*
X0070378Y0024671D01*
X0070441Y0024721D01*
X0070518Y0024761D01*
X0070522D01*
X0070527Y0024766D01*
X0070540Y0024770D01*
X0070554Y0024780D01*
X0070599Y0024793D01*
X0070657Y0024816D01*
X0070730Y0024834D01*
X0070811Y0024847D01*
X0070901Y0024861D01*
X0071000Y0024865D01*
X0071045D01*
X0071077Y0024861D01*
D02*
G37*
G36*
X0020511Y0024861D02*
X0020556Y0024856D01*
X0020605Y0024847D01*
X0020660Y0024838D01*
X0020718Y0024820D01*
X0020777Y0024802D01*
X0020840Y0024780D01*
X0020908Y0024753D01*
X0020971Y0024721D01*
X0021034Y0024680D01*
X0021097Y0024631D01*
X0021156Y0024581D01*
X0021210Y0024518D01*
X0021214Y0024513D01*
X0021223Y0024500D01*
X0021237Y0024482D01*
X0021255Y0024455D01*
X0021273Y0024419D01*
X0021300Y0024374D01*
X0021323Y0024324D01*
X0021350Y0024265D01*
X0021377Y0024202D01*
X0021399Y0024126D01*
X0021426Y0024049D01*
X0021444Y0023959D01*
X0021462Y0023868D01*
X0021476Y0023765D01*
X0021485Y0023656D01*
X0021489Y0023544D01*
Y0023535D01*
Y0023517D01*
Y0023485D01*
X0021485Y0023440D01*
X0021480Y0023386D01*
X0021476Y0023327D01*
X0021467Y0023260D01*
X0021453Y0023188D01*
X0021422Y0023030D01*
X0021399Y0022949D01*
X0021368Y0022867D01*
X0021336Y0022791D01*
X0021300Y0022709D01*
X0021255Y0022637D01*
X0021205Y0022570D01*
X0021201Y0022565D01*
X0021192Y0022556D01*
X0021178Y0022538D01*
X0021156Y0022515D01*
X0021124Y0022489D01*
X0021092Y0022461D01*
X0021052Y0022430D01*
X0021002Y0022398D01*
X0020953Y0022362D01*
X0020894Y0022331D01*
X0020831Y0022304D01*
X0020759Y0022276D01*
X0020687Y0022254D01*
X0020605Y0022236D01*
X0020520Y0022227D01*
X0020429Y0022222D01*
X0020389D01*
X0020339Y0022227D01*
X0020276Y0022236D01*
X0020209Y0022245D01*
X0020127Y0022258D01*
X0020051Y0022281D01*
X0019970Y0022313D01*
X0019961Y0022317D01*
X0019938Y0022331D01*
X0019897Y0022353D01*
X0019852Y0022380D01*
X0019798Y0022421D01*
X0019739Y0022470D01*
X0019681Y0022529D01*
X0019627Y0022597D01*
X0019600D01*
Y0022592D01*
Y0022588D01*
X0019604Y0022574D01*
Y0022561D01*
X0019609Y0022515D01*
X0019613Y0022461D01*
X0019618Y0022394D01*
X0019622Y0022326D01*
X0019627Y0022177D01*
Y0021122D01*
X0019239D01*
Y0024820D01*
X0019555D01*
X0019609Y0024468D01*
X0019627D01*
Y0024473D01*
X0019636Y0024477D01*
X0019654Y0024504D01*
X0019685Y0024541D01*
X0019726Y0024586D01*
X0019776Y0024635D01*
X0019834Y0024685D01*
X0019902Y0024730D01*
X0019974Y0024770D01*
X0019978D01*
X0019983Y0024775D01*
X0020010Y0024784D01*
X0020051Y0024802D01*
X0020105Y0024820D01*
X0020173Y0024834D01*
X0020249Y0024852D01*
X0020335Y0024861D01*
X0020429Y0024865D01*
X0020479D01*
X0020511Y0024861D01*
D02*
G37*
G36*
X0047819Y0024861D02*
X0047864Y0024856D01*
X0047918Y0024852D01*
X0048022Y0024834D01*
X0047968Y0024477D01*
X0047959D01*
X0047940Y0024482D01*
X0047914Y0024491D01*
X0047873Y0024495D01*
X0047832Y0024504D01*
X0047783Y0024509D01*
X0047688Y0024513D01*
X0047656D01*
X0047634Y0024509D01*
X0047611Y0024504D01*
X0047580Y0024500D01*
X0047503Y0024482D01*
X0047422Y0024450D01*
X0047332Y0024405D01*
X0047287Y0024378D01*
X0047242Y0024347D01*
X0047196Y0024306D01*
X0047156Y0024261D01*
X0047151Y0024256D01*
X0047147Y0024247D01*
X0047138Y0024234D01*
X0047124Y0024216D01*
X0047106Y0024193D01*
X0047088Y0024162D01*
X0047070Y0024126D01*
X0047047Y0024090D01*
X0047007Y0023995D01*
X0046975Y0023891D01*
X0046948Y0023769D01*
X0046944Y0023702D01*
X0046939Y0023634D01*
Y0022267D01*
X0046551D01*
Y0024820D01*
X0046872D01*
X0046917Y0024342D01*
X0046935D01*
Y0024347D01*
X0046939Y0024351D01*
X0046948Y0024365D01*
X0046962Y0024383D01*
X0046989Y0024428D01*
X0047030Y0024486D01*
X0047079Y0024550D01*
X0047138Y0024613D01*
X0047201Y0024676D01*
X0047273Y0024730D01*
X0047278D01*
X0047282Y0024735D01*
X0047309Y0024753D01*
X0047350Y0024775D01*
X0047404Y0024798D01*
X0047471Y0024825D01*
X0047544Y0024843D01*
X0047629Y0024861D01*
X0047715Y0024865D01*
X0047778D01*
X0047819Y0024861D01*
D02*
G37*
G36*
X0037662Y0024861D02*
X0037707Y0024856D01*
X0037762Y0024852D01*
X0037865Y0024834D01*
X0037811Y0024477D01*
X0037802D01*
X0037784Y0024482D01*
X0037757Y0024491D01*
X0037716Y0024495D01*
X0037676Y0024504D01*
X0037626Y0024509D01*
X0037531Y0024513D01*
X0037500D01*
X0037477Y0024509D01*
X0037455Y0024504D01*
X0037423Y0024500D01*
X0037347Y0024482D01*
X0037265Y0024450D01*
X0037175Y0024405D01*
X0037130Y0024378D01*
X0037085Y0024347D01*
X0037040Y0024306D01*
X0036999Y0024261D01*
X0036995Y0024256D01*
X0036990Y0024247D01*
X0036981Y0024234D01*
X0036968Y0024216D01*
X0036950Y0024193D01*
X0036932Y0024162D01*
X0036914Y0024126D01*
X0036891Y0024090D01*
X0036850Y0023995D01*
X0036819Y0023891D01*
X0036792Y0023769D01*
X0036787Y0023702D01*
X0036783Y0023634D01*
Y0022267D01*
X0036395D01*
Y0024820D01*
X0036715D01*
X0036760Y0024342D01*
X0036778D01*
Y0024347D01*
X0036783Y0024351D01*
X0036792Y0024365D01*
X0036805Y0024383D01*
X0036832Y0024428D01*
X0036873Y0024486D01*
X0036923Y0024550D01*
X0036981Y0024613D01*
X0037044Y0024676D01*
X0037117Y0024730D01*
X0037121D01*
X0037126Y0024734D01*
X0037153Y0024753D01*
X0037193Y0024775D01*
X0037247Y0024798D01*
X0037315Y0024825D01*
X0037387Y0024843D01*
X0037473Y0024861D01*
X0037558Y0024865D01*
X0037622D01*
X0037662Y0024861D01*
D02*
G37*
G36*
X0026081D02*
X0026126Y0024856D01*
X0026180Y0024852D01*
X0026283Y0024834D01*
X0026229Y0024477D01*
X0026220D01*
X0026202Y0024482D01*
X0026175Y0024491D01*
X0026135Y0024495D01*
X0026094Y0024504D01*
X0026044Y0024509D01*
X0025950Y0024513D01*
X0025918D01*
X0025896Y0024509D01*
X0025873Y0024504D01*
X0025842Y0024500D01*
X0025765Y0024482D01*
X0025684Y0024450D01*
X0025594Y0024405D01*
X0025548Y0024378D01*
X0025503Y0024347D01*
X0025458Y0024306D01*
X0025418Y0024261D01*
X0025413Y0024256D01*
X0025409Y0024247D01*
X0025400Y0024234D01*
X0025386Y0024216D01*
X0025368Y0024193D01*
X0025350Y0024162D01*
X0025332Y0024126D01*
X0025309Y0024090D01*
X0025269Y0023995D01*
X0025237Y0023891D01*
X0025210Y0023769D01*
X0025206Y0023702D01*
X0025201Y0023634D01*
Y0022267D01*
X0024813D01*
Y0024820D01*
X0025133D01*
X0025179Y0024342D01*
X0025197D01*
Y0024347D01*
X0025201Y0024351D01*
X0025210Y0024365D01*
X0025224Y0024383D01*
X0025251Y0024428D01*
X0025291Y0024486D01*
X0025341Y0024550D01*
X0025400Y0024613D01*
X0025463Y0024676D01*
X0025535Y0024730D01*
X0025539D01*
X0025544Y0024734D01*
X0025571Y0024753D01*
X0025611Y0024775D01*
X0025666Y0024798D01*
X0025733Y0024825D01*
X0025805Y0024843D01*
X0025891Y0024861D01*
X0025977Y0024865D01*
X0026040D01*
X0026081Y0024861D01*
D02*
G37*
G36*
X0050944Y0022267D02*
X0050552D01*
X0049334Y0025673D01*
X0049749D01*
X0050534Y0023467D01*
Y0023463D01*
X0050538Y0023449D01*
X0050547Y0023431D01*
X0050556Y0023404D01*
X0050570Y0023368D01*
X0050579Y0023327D01*
X0050597Y0023282D01*
X0050610Y0023233D01*
X0050647Y0023120D01*
X0050683Y0022994D01*
X0050714Y0022863D01*
X0050746Y0022727D01*
Y0022732D01*
X0050750Y0022746D01*
X0050755Y0022764D01*
X0050759Y0022791D01*
X0050768Y0022827D01*
X0050782Y0022867D01*
X0050791Y0022912D01*
X0050804Y0022962D01*
X0050836Y0023079D01*
X0050876Y0023206D01*
X0050917Y0023341D01*
X0050967Y0023481D01*
X0051742Y0025673D01*
X0052171D01*
X0050944Y0022267D01*
D02*
G37*
G36*
X0059806Y0024793D02*
Y0024784D01*
Y0024761D01*
Y0024725D01*
Y0024676D01*
X0059802Y0024626D01*
X0059797Y0024572D01*
X0059793Y0024513D01*
X0059788Y0024464D01*
X0059811D01*
X0059815Y0024473D01*
X0059833Y0024495D01*
X0059856Y0024527D01*
X0059892Y0024568D01*
X0059942Y0024617D01*
X0059996Y0024662D01*
X0060059Y0024712D01*
X0060136Y0024753D01*
X0060140D01*
X0060145Y0024757D01*
X0060158Y0024761D01*
X0060172Y0024770D01*
X0060217Y0024789D01*
X0060275Y0024807D01*
X0060347Y0024825D01*
X0060429Y0024843D01*
X0060519Y0024856D01*
X0060618Y0024861D01*
X0060663D01*
X0060695Y0024856D01*
X0060735D01*
X0060781Y0024847D01*
X0060830Y0024843D01*
X0060880Y0024834D01*
X0060997Y0024807D01*
X0061110Y0024766D01*
X0061168Y0024739D01*
X0061222Y0024712D01*
X0061272Y0024676D01*
X0061317Y0024635D01*
X0061322Y0024631D01*
X0061326Y0024626D01*
X0061340Y0024613D01*
X0061353Y0024595D01*
X0061371Y0024568D01*
X0061389Y0024541D01*
X0061412Y0024504D01*
X0061434Y0024464D01*
X0061457Y0024419D01*
X0061480Y0024365D01*
X0061498Y0024310D01*
X0061516Y0024247D01*
X0061529Y0024175D01*
X0061543Y0024099D01*
X0061547Y0024017D01*
X0061552Y0023932D01*
Y0022267D01*
X0061168D01*
Y0023914D01*
Y0023918D01*
Y0023927D01*
Y0023945D01*
Y0023963D01*
X0061164Y0023990D01*
X0061159Y0024022D01*
X0061150Y0024090D01*
X0061132Y0024166D01*
X0061110Y0024243D01*
X0061074Y0024315D01*
X0061024Y0024378D01*
X0061019Y0024387D01*
X0060997Y0024405D01*
X0060965Y0024428D01*
X0060916Y0024459D01*
X0060853Y0024486D01*
X0060781Y0024513D01*
X0060686Y0024532D01*
X0060582Y0024536D01*
X0060541D01*
X0060514Y0024532D01*
X0060483D01*
X0060442Y0024522D01*
X0060357Y0024509D01*
X0060257Y0024482D01*
X0060163Y0024441D01*
X0060113Y0024419D01*
X0060068Y0024387D01*
X0060027Y0024356D01*
X0059991Y0024315D01*
Y0024310D01*
X0059982Y0024306D01*
X0059973Y0024293D01*
X0059964Y0024274D01*
X0059951Y0024252D01*
X0059933Y0024220D01*
X0059915Y0024184D01*
X0059901Y0024144D01*
X0059883Y0024099D01*
X0059865Y0024044D01*
X0059851Y0023986D01*
X0059833Y0023923D01*
X0059824Y0023851D01*
X0059815Y0023774D01*
X0059806Y0023688D01*
Y0023598D01*
Y0022267D01*
X0059418D01*
Y0025889D01*
X0059806D01*
Y0024793D01*
D02*
G37*
G36*
X0057574Y0025668D02*
X0057605D01*
X0057646Y0025664D01*
X0057687Y0025659D01*
X0057781Y0025641D01*
X0057890Y0025618D01*
X0058007Y0025591D01*
X0058124Y0025551D01*
X0058241Y0025497D01*
X0058359Y0025429D01*
X0058467Y0025352D01*
X0058562Y0025253D01*
X0058602Y0025199D01*
X0058643Y0025140D01*
X0058679Y0025077D01*
X0058706Y0025010D01*
X0058728Y0024933D01*
X0058746Y0024856D01*
X0058755Y0024770D01*
X0058760Y0024680D01*
Y0024676D01*
Y0024658D01*
Y0024631D01*
X0058755Y0024595D01*
X0058751Y0024550D01*
X0058742Y0024500D01*
X0058728Y0024446D01*
X0058715Y0024387D01*
X0058697Y0024324D01*
X0058674Y0024256D01*
X0058647Y0024193D01*
X0058611Y0024126D01*
X0058571Y0024058D01*
X0058526Y0023995D01*
X0058471Y0023936D01*
X0058408Y0023882D01*
X0058404Y0023877D01*
X0058390Y0023868D01*
X0058372Y0023855D01*
X0058345Y0023842D01*
X0058309Y0023819D01*
X0058264Y0023796D01*
X0058210Y0023769D01*
X0058151Y0023747D01*
X0058083Y0023720D01*
X0058007Y0023693D01*
X0057926Y0023670D01*
X0057836Y0023652D01*
X0057736Y0023634D01*
X0057632Y0023620D01*
X0057520Y0023611D01*
X0057402Y0023607D01*
X0057001D01*
Y0022267D01*
X0056604D01*
Y0025673D01*
X0057542D01*
X0057574Y0025668D01*
D02*
G37*
G36*
X0053831Y0022267D02*
X0053456D01*
Y0024694D01*
Y0024698D01*
Y0024707D01*
Y0024725D01*
Y0024744D01*
Y0024770D01*
Y0024802D01*
X0053461Y0024879D01*
Y0024964D01*
X0053465Y0025064D01*
X0053470Y0025163D01*
X0053474Y0025267D01*
X0053465Y0025258D01*
X0053443Y0025235D01*
X0053407Y0025203D01*
X0053361Y0025163D01*
X0053357Y0025158D01*
X0053343Y0025149D01*
X0053334Y0025140D01*
X0053316Y0025127D01*
X0053298Y0025109D01*
X0053271Y0025086D01*
X0053240Y0025059D01*
X0053204Y0025028D01*
X0053159Y0024992D01*
X0053105Y0024951D01*
X0053046Y0024901D01*
X0052978Y0024847D01*
X0052897Y0024784D01*
X0052811Y0024712D01*
X0052604Y0024973D01*
X0053506Y0025673D01*
X0053831D01*
Y0022267D01*
D02*
G37*
G36*
X0027145Y0023968D02*
Y0023963D01*
Y0023945D01*
Y0023914D01*
Y0023873D01*
X0027140Y0023814D01*
X0027136Y0023751D01*
X0027131Y0023670D01*
X0027127Y0023575D01*
X0027145D01*
X0027149Y0023580D01*
X0027163Y0023602D01*
X0027185Y0023634D01*
X0027222Y0023675D01*
X0027262Y0023729D01*
X0027316Y0023792D01*
X0027379Y0023864D01*
X0027452Y0023945D01*
X0028272Y0024820D01*
X0028732D01*
X0027700Y0023729D01*
X0028805Y0022267D01*
X0028336D01*
X0027438Y0023476D01*
X0027145Y0023224D01*
Y0022267D01*
X0026762D01*
Y0025889D01*
X0027145D01*
Y0023968D01*
D02*
G37*
G36*
X0023199Y0024856D02*
X0023235D01*
X0023280Y0024852D01*
X0023325Y0024843D01*
X0023379Y0024834D01*
X0023487Y0024811D01*
X0023600Y0024775D01*
X0023708Y0024725D01*
X0023753Y0024694D01*
X0023799Y0024658D01*
X0023803D01*
X0023808Y0024649D01*
X0023821Y0024635D01*
X0023835Y0024617D01*
X0023848Y0024599D01*
X0023871Y0024572D01*
X0023889Y0024536D01*
X0023911Y0024500D01*
X0023929Y0024459D01*
X0023952Y0024410D01*
X0023970Y0024356D01*
X0023983Y0024297D01*
X0024001Y0024234D01*
X0024011Y0024166D01*
X0024015Y0024090D01*
X0024020Y0024008D01*
Y0022267D01*
X0023731D01*
X0023654Y0022628D01*
X0023636D01*
Y0022624D01*
X0023627Y0022619D01*
X0023605Y0022588D01*
X0023569Y0022547D01*
X0023519Y0022498D01*
X0023460Y0022443D01*
X0023397Y0022389D01*
X0023329Y0022344D01*
X0023257Y0022304D01*
X0023248Y0022299D01*
X0023221Y0022290D01*
X0023181Y0022276D01*
X0023126Y0022263D01*
X0023059Y0022249D01*
X0022978Y0022236D01*
X0022887Y0022227D01*
X0022784Y0022222D01*
X0022748D01*
X0022721Y0022227D01*
X0022689D01*
X0022653Y0022231D01*
X0022567Y0022245D01*
X0022473Y0022272D01*
X0022373Y0022304D01*
X0022274Y0022353D01*
X0022229Y0022380D01*
X0022188Y0022416D01*
X0022184Y0022421D01*
X0022179Y0022425D01*
X0022157Y0022452D01*
X0022121Y0022498D01*
X0022080Y0022561D01*
X0022040Y0022637D01*
X0022008Y0022732D01*
X0021981Y0022845D01*
X0021976Y0022903D01*
X0021972Y0022971D01*
Y0022975D01*
Y0022980D01*
X0021976Y0023003D01*
X0021981Y0023043D01*
X0021990Y0023093D01*
X0022008Y0023151D01*
X0022035Y0023219D01*
X0022076Y0023287D01*
X0022125Y0023363D01*
X0022193Y0023436D01*
X0022229Y0023472D01*
X0022274Y0023508D01*
X0022319Y0023544D01*
X0022373Y0023575D01*
X0022432Y0023607D01*
X0022495Y0023639D01*
X0022563Y0023666D01*
X0022635Y0023693D01*
X0022716Y0023715D01*
X0022802Y0023733D01*
X0022892Y0023751D01*
X0022991Y0023765D01*
X0023095Y0023774D01*
X0023208Y0023778D01*
X0023641Y0023796D01*
Y0023954D01*
Y0023959D01*
Y0023968D01*
Y0023981D01*
Y0024004D01*
X0023636Y0024058D01*
X0023623Y0024121D01*
X0023609Y0024193D01*
X0023586Y0024265D01*
X0023555Y0024338D01*
X0023510Y0024396D01*
X0023505Y0024401D01*
X0023487Y0024419D01*
X0023456Y0024441D01*
X0023411Y0024468D01*
X0023357Y0024495D01*
X0023284Y0024518D01*
X0023199Y0024536D01*
X0023099Y0024541D01*
X0023068D01*
X0023045Y0024536D01*
X0023014D01*
X0022978Y0024532D01*
X0022937Y0024522D01*
X0022887Y0024518D01*
X0022838Y0024504D01*
X0022784Y0024491D01*
X0022662Y0024455D01*
X0022522Y0024410D01*
X0022450Y0024378D01*
X0022378Y0024342D01*
X0022261Y0024640D01*
X0022270Y0024644D01*
X0022292Y0024658D01*
X0022333Y0024676D01*
X0022382Y0024698D01*
X0022441Y0024725D01*
X0022513Y0024753D01*
X0022590Y0024780D01*
X0022671Y0024802D01*
X0022675D01*
X0022680Y0024807D01*
X0022693D01*
X0022712Y0024811D01*
X0022752Y0024820D01*
X0022811Y0024834D01*
X0022878Y0024843D01*
X0022955Y0024852D01*
X0023036Y0024856D01*
X0023122Y0024861D01*
X0023167D01*
X0023199Y0024856D01*
D02*
G37*
G36*
X0068037Y0024861D02*
X0068082Y0024856D01*
X0068132Y0024847D01*
X0068190Y0024834D01*
X0068254Y0024820D01*
X0068317Y0024802D01*
X0068389Y0024780D01*
X0068457Y0024748D01*
X0068529Y0024716D01*
X0068601Y0024676D01*
X0068669Y0024626D01*
X0068732Y0024572D01*
X0068795Y0024509D01*
X0068799Y0024504D01*
X0068808Y0024491D01*
X0068822Y0024473D01*
X0068844Y0024446D01*
X0068867Y0024410D01*
X0068894Y0024365D01*
X0068925Y0024315D01*
X0068953Y0024256D01*
X0068984Y0024189D01*
X0069011Y0024117D01*
X0069038Y0024035D01*
X0069061Y0023950D01*
X0069083Y0023859D01*
X0069097Y0023760D01*
X0069106Y0023657D01*
X0069111Y0023544D01*
Y0023535D01*
Y0023517D01*
Y0023485D01*
X0069106Y0023440D01*
X0069101Y0023391D01*
X0069092Y0023327D01*
X0069083Y0023260D01*
X0069070Y0023188D01*
X0069056Y0023111D01*
X0069034Y0023034D01*
X0069007Y0022953D01*
X0068980Y0022872D01*
X0068939Y0022791D01*
X0068898Y0022714D01*
X0068849Y0022637D01*
X0068795Y0022570D01*
X0068790Y0022565D01*
X0068781Y0022556D01*
X0068763Y0022538D01*
X0068736Y0022515D01*
X0068705Y0022489D01*
X0068669Y0022461D01*
X0068623Y0022430D01*
X0068569Y0022398D01*
X0068511Y0022362D01*
X0068448Y0022331D01*
X0068375Y0022304D01*
X0068299Y0022276D01*
X0068213Y0022254D01*
X0068127Y0022236D01*
X0068028Y0022227D01*
X0067929Y0022222D01*
X0067897D01*
X0067870Y0022227D01*
X0067843D01*
X0067807Y0022231D01*
X0067726Y0022240D01*
X0067631Y0022263D01*
X0067527Y0022290D01*
X0067424Y0022326D01*
X0067320Y0022380D01*
X0067316D01*
X0067307Y0022389D01*
X0067293Y0022398D01*
X0067275Y0022412D01*
X0067230Y0022448D01*
X0067171Y0022498D01*
X0067108Y0022565D01*
X0067040Y0022642D01*
X0066973Y0022737D01*
X0066914Y0022840D01*
Y0022845D01*
X0066910Y0022854D01*
X0066901Y0022872D01*
X0066891Y0022894D01*
X0066882Y0022921D01*
X0066869Y0022957D01*
X0066856Y0022998D01*
X0066842Y0023043D01*
X0066828Y0023093D01*
X0066815Y0023147D01*
X0066792Y0023264D01*
X0066774Y0023400D01*
X0066770Y0023544D01*
Y0023553D01*
Y0023571D01*
Y0023602D01*
X0066774Y0023648D01*
X0066779Y0023697D01*
X0066788Y0023760D01*
X0066797Y0023828D01*
X0066810Y0023900D01*
X0066824Y0023977D01*
X0066846Y0024053D01*
X0066869Y0024135D01*
X0066901Y0024216D01*
X0066937Y0024297D01*
X0066977Y0024374D01*
X0067027Y0024446D01*
X0067081Y0024513D01*
X0067085Y0024518D01*
X0067094Y0024527D01*
X0067112Y0024545D01*
X0067140Y0024568D01*
X0067171Y0024595D01*
X0067207Y0024626D01*
X0067252Y0024658D01*
X0067307Y0024689D01*
X0067365Y0024721D01*
X0067428Y0024753D01*
X0067500Y0024784D01*
X0067577Y0024811D01*
X0067663Y0024834D01*
X0067748Y0024852D01*
X0067848Y0024861D01*
X0067947Y0024865D01*
X0067997D01*
X0068037Y0024861D01*
D02*
G37*
G36*
X0065642Y0024820D02*
X0066382D01*
Y0024518D01*
X0065642D01*
Y0023016D01*
Y0023012D01*
Y0023007D01*
Y0022980D01*
X0065647Y0022935D01*
X0065656Y0022885D01*
X0065669Y0022831D01*
X0065687Y0022773D01*
X0065714Y0022714D01*
X0065750Y0022664D01*
X0065755Y0022660D01*
X0065773Y0022646D01*
X0065796Y0022624D01*
X0065832Y0022606D01*
X0065872Y0022583D01*
X0065926Y0022561D01*
X0065985Y0022547D01*
X0066053Y0022543D01*
X0066116D01*
X0066179Y0022547D01*
X0066251Y0022556D01*
X0066256D01*
X0066269Y0022561D01*
X0066283D01*
X0066305Y0022565D01*
X0066355Y0022574D01*
X0066400Y0022588D01*
Y0022290D01*
X0066395D01*
X0066386Y0022286D01*
X0066373Y0022281D01*
X0066355Y0022276D01*
X0066328Y0022267D01*
X0066296Y0022258D01*
X0066260Y0022254D01*
X0066215Y0022245D01*
X0066211D01*
X0066193Y0022240D01*
X0066170Y0022236D01*
X0066143D01*
X0066071Y0022227D01*
X0065999Y0022222D01*
X0065967D01*
X0065931Y0022227D01*
X0065881Y0022236D01*
X0065827Y0022245D01*
X0065764Y0022263D01*
X0065696Y0022286D01*
X0065629Y0022322D01*
X0065557Y0022362D01*
X0065489Y0022412D01*
X0065426Y0022475D01*
X0065372Y0022552D01*
X0065322Y0022637D01*
X0065286Y0022741D01*
X0065263Y0022863D01*
X0065259Y0022926D01*
X0065254Y0022998D01*
Y0024518D01*
X0064894D01*
Y0024703D01*
X0065259Y0024865D01*
X0065421Y0025411D01*
X0065642D01*
Y0024820D01*
D02*
G37*
G36*
X0063473Y0024861D02*
X0063518Y0024856D01*
X0063568Y0024847D01*
X0063626Y0024834D01*
X0063689Y0024820D01*
X0063753Y0024802D01*
X0063825Y0024780D01*
X0063892Y0024748D01*
X0063964Y0024716D01*
X0064037Y0024676D01*
X0064104Y0024626D01*
X0064167Y0024572D01*
X0064231Y0024509D01*
X0064235Y0024504D01*
X0064244Y0024491D01*
X0064258Y0024473D01*
X0064280Y0024446D01*
X0064303Y0024410D01*
X0064330Y0024365D01*
X0064361Y0024315D01*
X0064389Y0024256D01*
X0064420Y0024189D01*
X0064447Y0024117D01*
X0064474Y0024035D01*
X0064497Y0023950D01*
X0064519Y0023859D01*
X0064533Y0023760D01*
X0064542Y0023657D01*
X0064546Y0023544D01*
Y0023535D01*
Y0023517D01*
Y0023485D01*
X0064542Y0023440D01*
X0064537Y0023391D01*
X0064528Y0023327D01*
X0064519Y0023260D01*
X0064506Y0023188D01*
X0064492Y0023111D01*
X0064470Y0023034D01*
X0064443Y0022953D01*
X0064416Y0022872D01*
X0064375Y0022791D01*
X0064334Y0022714D01*
X0064285Y0022637D01*
X0064231Y0022570D01*
X0064226Y0022565D01*
X0064217Y0022556D01*
X0064199Y0022538D01*
X0064172Y0022515D01*
X0064140Y0022489D01*
X0064104Y0022461D01*
X0064059Y0022430D01*
X0064005Y0022398D01*
X0063946Y0022362D01*
X0063883Y0022331D01*
X0063811Y0022304D01*
X0063735Y0022276D01*
X0063649Y0022254D01*
X0063563Y0022236D01*
X0063464Y0022227D01*
X0063365Y0022222D01*
X0063333D01*
X0063306Y0022227D01*
X0063279D01*
X0063243Y0022231D01*
X0063162Y0022240D01*
X0063067Y0022263D01*
X0062963Y0022290D01*
X0062860Y0022326D01*
X0062756Y0022380D01*
X0062751D01*
X0062742Y0022389D01*
X0062729Y0022398D01*
X0062711Y0022412D01*
X0062666Y0022448D01*
X0062607Y0022498D01*
X0062544Y0022565D01*
X0062476Y0022642D01*
X0062409Y0022737D01*
X0062350Y0022840D01*
Y0022845D01*
X0062345Y0022854D01*
X0062336Y0022872D01*
X0062327Y0022894D01*
X0062318Y0022921D01*
X0062305Y0022957D01*
X0062291Y0022998D01*
X0062278Y0023043D01*
X0062264Y0023093D01*
X0062251Y0023147D01*
X0062228Y0023264D01*
X0062210Y0023400D01*
X0062206Y0023544D01*
Y0023553D01*
Y0023571D01*
Y0023602D01*
X0062210Y0023648D01*
X0062215Y0023697D01*
X0062224Y0023760D01*
X0062233Y0023828D01*
X0062246Y0023900D01*
X0062260Y0023977D01*
X0062282Y0024053D01*
X0062305Y0024135D01*
X0062336Y0024216D01*
X0062372Y0024297D01*
X0062413Y0024374D01*
X0062463Y0024446D01*
X0062517Y0024513D01*
X0062521Y0024518D01*
X0062530Y0024527D01*
X0062548Y0024545D01*
X0062576Y0024568D01*
X0062607Y0024595D01*
X0062643Y0024626D01*
X0062688Y0024658D01*
X0062742Y0024689D01*
X0062801Y0024721D01*
X0062864Y0024753D01*
X0062936Y0024784D01*
X0063013Y0024811D01*
X0063099Y0024834D01*
X0063184Y0024852D01*
X0063283Y0024861D01*
X0063383Y0024865D01*
X0063432D01*
X0063473Y0024861D01*
D02*
G37*
G36*
X0044797D02*
X0044842Y0024856D01*
X0044892Y0024847D01*
X0044950Y0024834D01*
X0045013Y0024820D01*
X0045077Y0024802D01*
X0045149Y0024780D01*
X0045217Y0024748D01*
X0045289Y0024716D01*
X0045361Y0024676D01*
X0045428Y0024626D01*
X0045492Y0024572D01*
X0045555Y0024509D01*
X0045559Y0024504D01*
X0045568Y0024491D01*
X0045582Y0024473D01*
X0045604Y0024446D01*
X0045627Y0024410D01*
X0045654Y0024365D01*
X0045685Y0024315D01*
X0045713Y0024256D01*
X0045744Y0024189D01*
X0045771Y0024117D01*
X0045798Y0024035D01*
X0045821Y0023950D01*
X0045843Y0023859D01*
X0045857Y0023760D01*
X0045866Y0023657D01*
X0045870Y0023544D01*
Y0023535D01*
Y0023517D01*
Y0023485D01*
X0045866Y0023440D01*
X0045861Y0023391D01*
X0045852Y0023327D01*
X0045843Y0023260D01*
X0045830Y0023188D01*
X0045816Y0023111D01*
X0045794Y0023034D01*
X0045767Y0022953D01*
X0045740Y0022872D01*
X0045699Y0022791D01*
X0045658Y0022714D01*
X0045609Y0022637D01*
X0045555Y0022570D01*
X0045550Y0022565D01*
X0045541Y0022556D01*
X0045523Y0022538D01*
X0045496Y0022515D01*
X0045465Y0022489D01*
X0045428Y0022461D01*
X0045383Y0022430D01*
X0045329Y0022398D01*
X0045271Y0022362D01*
X0045208Y0022331D01*
X0045135Y0022304D01*
X0045059Y0022276D01*
X0044973Y0022254D01*
X0044887Y0022236D01*
X0044788Y0022227D01*
X0044689Y0022222D01*
X0044657D01*
X0044630Y0022227D01*
X0044603D01*
X0044567Y0022231D01*
X0044486Y0022240D01*
X0044391Y0022263D01*
X0044287Y0022290D01*
X0044184Y0022326D01*
X0044080Y0022380D01*
X0044076D01*
X0044066Y0022389D01*
X0044053Y0022398D01*
X0044035Y0022412D01*
X0043990Y0022448D01*
X0043931Y0022498D01*
X0043868Y0022565D01*
X0043800Y0022642D01*
X0043733Y0022737D01*
X0043674Y0022840D01*
Y0022845D01*
X0043670Y0022854D01*
X0043661Y0022872D01*
X0043652Y0022894D01*
X0043643Y0022921D01*
X0043629Y0022957D01*
X0043615Y0022998D01*
X0043602Y0023043D01*
X0043588Y0023093D01*
X0043575Y0023147D01*
X0043552Y0023264D01*
X0043534Y0023400D01*
X0043530Y0023544D01*
Y0023553D01*
Y0023571D01*
Y0023602D01*
X0043534Y0023648D01*
X0043539Y0023697D01*
X0043548Y0023760D01*
X0043557Y0023828D01*
X0043570Y0023900D01*
X0043584Y0023977D01*
X0043606Y0024053D01*
X0043629Y0024135D01*
X0043661Y0024216D01*
X0043697Y0024297D01*
X0043737Y0024374D01*
X0043787Y0024446D01*
X0043841Y0024513D01*
X0043845Y0024518D01*
X0043854Y0024527D01*
X0043872Y0024545D01*
X0043900Y0024568D01*
X0043931Y0024595D01*
X0043967Y0024626D01*
X0044012Y0024658D01*
X0044066Y0024689D01*
X0044125Y0024721D01*
X0044188Y0024753D01*
X0044260Y0024784D01*
X0044337Y0024811D01*
X0044423Y0024834D01*
X0044508Y0024852D01*
X0044608Y0024861D01*
X0044707Y0024865D01*
X0044756D01*
X0044797Y0024861D01*
D02*
G37*
G36*
X0039403Y0024861D02*
X0039444Y0024856D01*
X0039489Y0024847D01*
X0039538Y0024838D01*
X0039597Y0024825D01*
X0039656Y0024807D01*
X0039719Y0024789D01*
X0039782Y0024761D01*
X0039845Y0024730D01*
X0039908Y0024694D01*
X0039967Y0024649D01*
X0040025Y0024604D01*
X0040080Y0024545D01*
X0040084Y0024541D01*
X0040093Y0024532D01*
X0040107Y0024513D01*
X0040125Y0024486D01*
X0040143Y0024455D01*
X0040170Y0024419D01*
X0040192Y0024374D01*
X0040219Y0024324D01*
X0040246Y0024265D01*
X0040269Y0024202D01*
X0040296Y0024135D01*
X0040314Y0024062D01*
X0040332Y0023981D01*
X0040346Y0023900D01*
X0040355Y0023810D01*
X0040359Y0023715D01*
Y0023472D01*
X0038605D01*
Y0023467D01*
Y0023454D01*
X0038609Y0023426D01*
Y0023400D01*
X0038614Y0023359D01*
X0038618Y0023318D01*
X0038627Y0023269D01*
X0038636Y0023219D01*
X0038664Y0023106D01*
X0038704Y0022994D01*
X0038758Y0022885D01*
X0038794Y0022836D01*
X0038830Y0022791D01*
X0038835Y0022786D01*
X0038839Y0022782D01*
X0038853Y0022768D01*
X0038871Y0022755D01*
X0038893Y0022737D01*
X0038921Y0022718D01*
X0038952Y0022696D01*
X0038988Y0022678D01*
X0039029Y0022655D01*
X0039074Y0022633D01*
X0039178Y0022597D01*
X0039299Y0022570D01*
X0039362Y0022565D01*
X0039435Y0022561D01*
X0039475D01*
X0039507Y0022565D01*
X0039543D01*
X0039588Y0022570D01*
X0039638Y0022574D01*
X0039692Y0022583D01*
X0039750Y0022592D01*
X0039818Y0022601D01*
X0039953Y0022633D01*
X0040102Y0022673D01*
X0040251Y0022732D01*
Y0022385D01*
X0040242Y0022380D01*
X0040215Y0022371D01*
X0040179Y0022358D01*
X0040125Y0022340D01*
X0040066Y0022317D01*
X0040003Y0022299D01*
X0039931Y0022276D01*
X0039863Y0022263D01*
X0039854D01*
X0039832Y0022258D01*
X0039791Y0022249D01*
X0039741Y0022245D01*
X0039678Y0022236D01*
X0039601Y0022227D01*
X0039516Y0022222D01*
X0039399D01*
X0039367Y0022227D01*
X0039326D01*
X0039281Y0022231D01*
X0039227Y0022240D01*
X0039164Y0022249D01*
X0039096Y0022267D01*
X0039029Y0022286D01*
X0038957Y0022308D01*
X0038880Y0022335D01*
X0038808Y0022367D01*
X0038731Y0022407D01*
X0038659Y0022452D01*
X0038591Y0022506D01*
X0038528Y0022565D01*
X0038524Y0022570D01*
X0038515Y0022583D01*
X0038497Y0022601D01*
X0038478Y0022628D01*
X0038451Y0022664D01*
X0038424Y0022705D01*
X0038397Y0022755D01*
X0038366Y0022813D01*
X0038334Y0022876D01*
X0038307Y0022949D01*
X0038280Y0023030D01*
X0038253Y0023115D01*
X0038235Y0023205D01*
X0038217Y0023305D01*
X0038208Y0023408D01*
X0038203Y0023521D01*
Y0023530D01*
Y0023548D01*
Y0023580D01*
X0038208Y0023625D01*
X0038212Y0023675D01*
X0038221Y0023738D01*
X0038230Y0023801D01*
X0038239Y0023877D01*
X0038276Y0024031D01*
X0038303Y0024112D01*
X0038330Y0024193D01*
X0038366Y0024274D01*
X0038406Y0024356D01*
X0038451Y0024428D01*
X0038506Y0024500D01*
X0038510Y0024504D01*
X0038519Y0024518D01*
X0038537Y0024536D01*
X0038560Y0024558D01*
X0038591Y0024586D01*
X0038632Y0024617D01*
X0038673Y0024649D01*
X0038722Y0024685D01*
X0038776Y0024716D01*
X0038839Y0024748D01*
X0038907Y0024780D01*
X0038979Y0024807D01*
X0039056Y0024834D01*
X0039141Y0024852D01*
X0039227Y0024861D01*
X0039322Y0024865D01*
X0039367D01*
X0039403Y0024861D01*
D02*
G37*
G36*
X0034640D02*
X0034686Y0024856D01*
X0034735Y0024847D01*
X0034794Y0024834D01*
X0034857Y0024820D01*
X0034920Y0024802D01*
X0034992Y0024780D01*
X0035060Y0024748D01*
X0035132Y0024716D01*
X0035204Y0024676D01*
X0035272Y0024626D01*
X0035335Y0024572D01*
X0035398Y0024509D01*
X0035403Y0024504D01*
X0035412Y0024491D01*
X0035425Y0024473D01*
X0035448Y0024446D01*
X0035470Y0024410D01*
X0035497Y0024365D01*
X0035529Y0024315D01*
X0035556Y0024256D01*
X0035588Y0024189D01*
X0035615Y0024117D01*
X0035642Y0024035D01*
X0035664Y0023950D01*
X0035687Y0023859D01*
X0035700Y0023760D01*
X0035709Y0023656D01*
X0035714Y0023544D01*
Y0023535D01*
Y0023517D01*
Y0023485D01*
X0035709Y0023440D01*
X0035705Y0023391D01*
X0035696Y0023327D01*
X0035687Y0023260D01*
X0035673Y0023188D01*
X0035660Y0023111D01*
X0035637Y0023034D01*
X0035610Y0022953D01*
X0035583Y0022872D01*
X0035543Y0022791D01*
X0035502Y0022714D01*
X0035452Y0022637D01*
X0035398Y0022570D01*
X0035394Y0022565D01*
X0035385Y0022556D01*
X0035367Y0022538D01*
X0035340Y0022515D01*
X0035308Y0022489D01*
X0035272Y0022461D01*
X0035227Y0022430D01*
X0035173Y0022398D01*
X0035114Y0022362D01*
X0035051Y0022331D01*
X0034979Y0022304D01*
X0034902Y0022276D01*
X0034816Y0022254D01*
X0034731Y0022236D01*
X0034631Y0022227D01*
X0034532Y0022222D01*
X0034501D01*
X0034474Y0022227D01*
X0034447D01*
X0034411Y0022231D01*
X0034329Y0022240D01*
X0034235Y0022263D01*
X0034131Y0022290D01*
X0034027Y0022326D01*
X0033923Y0022380D01*
X0033919D01*
X0033910Y0022389D01*
X0033896Y0022398D01*
X0033878Y0022412D01*
X0033833Y0022448D01*
X0033775Y0022498D01*
X0033711Y0022565D01*
X0033644Y0022642D01*
X0033576Y0022737D01*
X0033518Y0022840D01*
Y0022845D01*
X0033513Y0022854D01*
X0033504Y0022872D01*
X0033495Y0022894D01*
X0033486Y0022921D01*
X0033472Y0022957D01*
X0033459Y0022998D01*
X0033445Y0023043D01*
X0033432Y0023093D01*
X0033418Y0023147D01*
X0033396Y0023264D01*
X0033378Y0023400D01*
X0033373Y0023544D01*
Y0023553D01*
Y0023571D01*
Y0023602D01*
X0033378Y0023648D01*
X0033382Y0023697D01*
X0033391Y0023760D01*
X0033400Y0023828D01*
X0033414Y0023900D01*
X0033427Y0023977D01*
X0033450Y0024053D01*
X0033472Y0024135D01*
X0033504Y0024216D01*
X0033540Y0024297D01*
X0033581Y0024374D01*
X0033630Y0024446D01*
X0033684Y0024513D01*
X0033689Y0024518D01*
X0033698Y0024527D01*
X0033716Y0024545D01*
X0033743Y0024568D01*
X0033775Y0024595D01*
X0033811Y0024626D01*
X0033856Y0024658D01*
X0033910Y0024689D01*
X0033968Y0024721D01*
X0034032Y0024753D01*
X0034104Y0024784D01*
X0034181Y0024811D01*
X0034266Y0024834D01*
X0034352Y0024852D01*
X0034451Y0024861D01*
X0034550Y0024865D01*
X0034600D01*
X0034640Y0024861D01*
D02*
G37*
G36*
X0072836Y0025668D02*
X0072845Y0025655D01*
X0072863Y0025632D01*
X0072890Y0025600D01*
X0072917Y0025560D01*
X0072948Y0025515D01*
X0072985Y0025461D01*
X0073025Y0025402D01*
X0073066Y0025334D01*
X0073111Y0025262D01*
X0073151Y0025181D01*
X0073197Y0025100D01*
X0073237Y0025010D01*
X0073278Y0024919D01*
X0073350Y0024721D01*
Y0024716D01*
X0073359Y0024698D01*
X0073368Y0024667D01*
X0073377Y0024626D01*
X0073390Y0024577D01*
X0073409Y0024518D01*
X0073422Y0024450D01*
X0073440Y0024378D01*
X0073458Y0024293D01*
X0073472Y0024202D01*
X0073490Y0024108D01*
X0073503Y0024008D01*
X0073521Y0023796D01*
X0073530Y0023571D01*
Y0023562D01*
Y0023544D01*
Y0023512D01*
X0073526Y0023467D01*
Y0023413D01*
X0073521Y0023350D01*
X0073517Y0023278D01*
X0073508Y0023201D01*
X0073499Y0023115D01*
X0073485Y0023025D01*
X0073454Y0022836D01*
X0073409Y0022633D01*
X0073350Y0022434D01*
Y0022430D01*
X0073341Y0022412D01*
X0073332Y0022385D01*
X0073318Y0022344D01*
X0073296Y0022299D01*
X0073273Y0022245D01*
X0073246Y0022186D01*
X0073219Y0022123D01*
X0073183Y0022051D01*
X0073142Y0021979D01*
X0073057Y0021825D01*
X0072953Y0021668D01*
X0072831Y0021514D01*
X0072457D01*
X0072461Y0021519D01*
X0072470Y0021532D01*
X0072488Y0021559D01*
X0072511Y0021591D01*
X0072538Y0021632D01*
X0072570Y0021681D01*
X0072601Y0021740D01*
X0072642Y0021803D01*
X0072682Y0021871D01*
X0072723Y0021947D01*
X0072764Y0022028D01*
X0072804Y0022114D01*
X0072881Y0022295D01*
X0072953Y0022489D01*
Y0022493D01*
X0072962Y0022511D01*
X0072971Y0022543D01*
X0072980Y0022579D01*
X0072994Y0022628D01*
X0073007Y0022687D01*
X0073021Y0022750D01*
X0073039Y0022822D01*
X0073057Y0022903D01*
X0073070Y0022989D01*
X0073084Y0023079D01*
X0073097Y0023169D01*
X0073115Y0023368D01*
X0073124Y0023575D01*
Y0023580D01*
Y0023602D01*
Y0023629D01*
X0073120Y0023675D01*
Y0023724D01*
X0073115Y0023783D01*
X0073111Y0023851D01*
X0073102Y0023927D01*
X0073093Y0024008D01*
X0073084Y0024094D01*
X0073070Y0024184D01*
X0073052Y0024283D01*
X0073012Y0024477D01*
X0072953Y0024680D01*
Y0024685D01*
X0072944Y0024703D01*
X0072935Y0024735D01*
X0072921Y0024770D01*
X0072903Y0024820D01*
X0072881Y0024874D01*
X0072858Y0024937D01*
X0072827Y0025010D01*
X0072795Y0025082D01*
X0072759Y0025158D01*
X0072673Y0025325D01*
X0072570Y0025501D01*
X0072452Y0025673D01*
X0072831D01*
X0072836Y0025668D01*
D02*
G37*
G36*
X0043115Y0025668D02*
X0043106Y0025655D01*
X0043088Y0025627D01*
X0043065Y0025596D01*
X0043038Y0025551D01*
X0043007Y0025501D01*
X0042970Y0025442D01*
X0042930Y0025379D01*
X0042889Y0025307D01*
X0042849Y0025231D01*
X0042808Y0025149D01*
X0042768Y0025064D01*
X0042686Y0024879D01*
X0042614Y0024680D01*
Y0024676D01*
X0042605Y0024658D01*
X0042601Y0024626D01*
X0042587Y0024586D01*
X0042574Y0024541D01*
X0042560Y0024482D01*
X0042547Y0024414D01*
X0042533Y0024342D01*
X0042515Y0024261D01*
X0042502Y0024175D01*
X0042488Y0024085D01*
X0042474Y0023986D01*
X0042456Y0023787D01*
X0042447Y0023575D01*
Y0023571D01*
Y0023553D01*
Y0023521D01*
X0042452Y0023481D01*
Y0023431D01*
X0042456Y0023372D01*
X0042461Y0023305D01*
X0042470Y0023233D01*
X0042479Y0023151D01*
X0042488Y0023066D01*
X0042502Y0022975D01*
X0042520Y0022881D01*
X0042560Y0022687D01*
X0042619Y0022489D01*
Y0022484D01*
X0042628Y0022466D01*
X0042637Y0022434D01*
X0042650Y0022398D01*
X0042668Y0022353D01*
X0042691Y0022299D01*
X0042718Y0022236D01*
X0042745Y0022168D01*
X0042777Y0022096D01*
X0042817Y0022015D01*
X0042898Y0021853D01*
X0043002Y0021681D01*
X0043115Y0021514D01*
X0042740D01*
X0042736Y0021519D01*
X0042727Y0021532D01*
X0042709Y0021555D01*
X0042686Y0021587D01*
X0042655Y0021622D01*
X0042623Y0021668D01*
X0042587Y0021722D01*
X0042547Y0021780D01*
X0042506Y0021844D01*
X0042461Y0021916D01*
X0042420Y0021992D01*
X0042375Y0022073D01*
X0042335Y0022159D01*
X0042294Y0022249D01*
X0042217Y0022439D01*
Y0022443D01*
X0042208Y0022461D01*
X0042199Y0022493D01*
X0042190Y0022529D01*
X0042177Y0022579D01*
X0042163Y0022637D01*
X0042145Y0022705D01*
X0042132Y0022777D01*
X0042114Y0022858D01*
X0042096Y0022949D01*
X0042082Y0023039D01*
X0042068Y0023138D01*
X0042050Y0023350D01*
X0042041Y0023571D01*
Y0023580D01*
Y0023598D01*
Y0023629D01*
X0042046Y0023675D01*
Y0023729D01*
X0042050Y0023796D01*
X0042055Y0023868D01*
X0042064Y0023945D01*
X0042073Y0024031D01*
X0042086Y0024126D01*
X0042118Y0024319D01*
X0042163Y0024522D01*
X0042222Y0024725D01*
Y0024730D01*
X0042231Y0024748D01*
X0042240Y0024780D01*
X0042253Y0024816D01*
X0042276Y0024865D01*
X0042298Y0024919D01*
X0042326Y0024978D01*
X0042353Y0025046D01*
X0042389Y0025118D01*
X0042429Y0025194D01*
X0042515Y0025352D01*
X0042623Y0025515D01*
X0042740Y0025673D01*
X0043119D01*
X0043115Y0025668D01*
D02*
G37*
G36*
X0055646Y0016229D02*
X0055668Y0016224D01*
X0055718Y0016206D01*
X0055745Y0016193D01*
X0055772Y0016170D01*
X0055777Y0016165D01*
X0055781Y0016156D01*
X0055795Y0016143D01*
X0055808Y0016120D01*
X0055817Y0016093D01*
X0055831Y0016062D01*
X0055835Y0016021D01*
X0055840Y0015976D01*
Y0015971D01*
Y0015954D01*
X0055835Y0015931D01*
X0055831Y0015904D01*
X0055822Y0015872D01*
X0055813Y0015841D01*
X0055795Y0015809D01*
X0055772Y0015782D01*
X0055768Y0015778D01*
X0055759Y0015773D01*
X0055745Y0015764D01*
X0055727Y0015751D01*
X0055677Y0015728D01*
X0055646Y0015723D01*
X0055614Y0015719D01*
X0055596D01*
X0055578Y0015723D01*
X0055556Y0015728D01*
X0055502Y0015746D01*
X0055475Y0015759D01*
X0055447Y0015782D01*
X0055443Y0015787D01*
X0055438Y0015796D01*
X0055429Y0015809D01*
X0055416Y0015832D01*
X0055402Y0015859D01*
X0055393Y0015890D01*
X0055389Y0015931D01*
X0055384Y0015976D01*
Y0015980D01*
Y0015999D01*
X0055389Y0016021D01*
X0055393Y0016048D01*
X0055411Y0016111D01*
X0055425Y0016143D01*
X0055447Y0016170D01*
X0055452Y0016174D01*
X0055461Y0016179D01*
X0055475Y0016188D01*
X0055493Y0016202D01*
X0055520Y0016215D01*
X0055547Y0016224D01*
X0055578Y0016229D01*
X0055614Y0016233D01*
X0055628D01*
X0055646Y0016229D01*
D02*
G37*
G36*
X0052759D02*
X0052782Y0016224D01*
X0052832Y0016206D01*
X0052859Y0016193D01*
X0052886Y0016170D01*
X0052890Y0016165D01*
X0052895Y0016156D01*
X0052908Y0016143D01*
X0052922Y0016120D01*
X0052931Y0016093D01*
X0052944Y0016062D01*
X0052949Y0016021D01*
X0052953Y0015976D01*
Y0015971D01*
Y0015954D01*
X0052949Y0015931D01*
X0052944Y0015904D01*
X0052935Y0015872D01*
X0052926Y0015841D01*
X0052908Y0015809D01*
X0052886Y0015782D01*
X0052881Y0015778D01*
X0052872Y0015773D01*
X0052859Y0015764D01*
X0052841Y0015751D01*
X0052791Y0015728D01*
X0052759Y0015723D01*
X0052728Y0015719D01*
X0052710D01*
X0052692Y0015723D01*
X0052669Y0015728D01*
X0052615Y0015746D01*
X0052588Y0015759D01*
X0052561Y0015782D01*
X0052557Y0015787D01*
X0052552Y0015796D01*
X0052543Y0015809D01*
X0052529Y0015832D01*
X0052516Y0015859D01*
X0052507Y0015890D01*
X0052502Y0015931D01*
X0052498Y0015976D01*
Y0015980D01*
Y0015999D01*
X0052502Y0016021D01*
X0052507Y0016048D01*
X0052525Y0016111D01*
X0052539Y0016143D01*
X0052561Y0016170D01*
X0052565Y0016174D01*
X0052574Y0016179D01*
X0052588Y0016188D01*
X0052606Y0016202D01*
X0052633Y0016215D01*
X0052660Y0016224D01*
X0052692Y0016229D01*
X0052728Y0016233D01*
X0052741D01*
X0052759Y0016229D01*
D02*
G37*
G36*
X0029564Y0016179D02*
X0029610D01*
X0029659Y0016174D01*
X0029722Y0016170D01*
X0029785Y0016161D01*
X0029853Y0016152D01*
X0029930Y0016138D01*
X0030088Y0016102D01*
X0030250Y0016057D01*
X0030412Y0015994D01*
X0030291Y0015651D01*
X0030286D01*
X0030273Y0015660D01*
X0030250Y0015669D01*
X0030218Y0015678D01*
X0030182Y0015692D01*
X0030137Y0015710D01*
X0030083Y0015723D01*
X0030029Y0015742D01*
X0029970Y0015759D01*
X0029903Y0015773D01*
X0029768Y0015805D01*
X0029619Y0015823D01*
X0029470Y0015832D01*
X0029416D01*
X0029393Y0015827D01*
X0029362Y0015823D01*
X0029289Y0015814D01*
X0029213Y0015796D01*
X0029132Y0015773D01*
X0029050Y0015737D01*
X0028978Y0015692D01*
X0028969Y0015687D01*
X0028951Y0015669D01*
X0028924Y0015638D01*
X0028892Y0015593D01*
X0028857Y0015543D01*
X0028829Y0015475D01*
X0028811Y0015403D01*
X0028802Y0015318D01*
Y0015308D01*
Y0015291D01*
X0028807Y0015254D01*
X0028811Y0015214D01*
X0028816Y0015169D01*
X0028829Y0015124D01*
X0028843Y0015074D01*
X0028866Y0015029D01*
X0028870Y0015024D01*
X0028879Y0015011D01*
X0028897Y0014988D01*
X0028920Y0014961D01*
X0028951Y0014930D01*
X0028987Y0014894D01*
X0029032Y0014857D01*
X0029087Y0014821D01*
X0029096Y0014817D01*
X0029114Y0014803D01*
X0029154Y0014785D01*
X0029204Y0014758D01*
X0029271Y0014731D01*
X0029353Y0014695D01*
X0029447Y0014655D01*
X0029560Y0014614D01*
X0029564D01*
X0029583Y0014605D01*
X0029610Y0014596D01*
X0029646Y0014582D01*
X0029691Y0014564D01*
X0029740Y0014542D01*
X0029794Y0014519D01*
X0029853Y0014492D01*
X0029975Y0014429D01*
X0030097Y0014361D01*
X0030155Y0014325D01*
X0030205Y0014285D01*
X0030255Y0014244D01*
X0030295Y0014204D01*
X0030300Y0014199D01*
X0030304Y0014195D01*
X0030313Y0014181D01*
X0030327Y0014163D01*
X0030340Y0014145D01*
X0030358Y0014118D01*
X0030399Y0014050D01*
X0030435Y0013969D01*
X0030466Y0013874D01*
X0030489Y0013762D01*
X0030498Y0013699D01*
Y0013635D01*
Y0013631D01*
Y0013617D01*
Y0013595D01*
X0030494Y0013563D01*
X0030489Y0013523D01*
X0030480Y0013482D01*
X0030471Y0013432D01*
X0030457Y0013383D01*
X0030439Y0013324D01*
X0030417Y0013270D01*
X0030390Y0013211D01*
X0030358Y0013153D01*
X0030322Y0013094D01*
X0030277Y0013040D01*
X0030228Y0012986D01*
X0030169Y0012936D01*
X0030164Y0012932D01*
X0030155Y0012927D01*
X0030137Y0012914D01*
X0030110Y0012896D01*
X0030079Y0012878D01*
X0030038Y0012860D01*
X0029989Y0012837D01*
X0029939Y0012814D01*
X0029876Y0012787D01*
X0029813Y0012765D01*
X0029740Y0012747D01*
X0029659Y0012729D01*
X0029578Y0012711D01*
X0029488Y0012697D01*
X0029389Y0012693D01*
X0029289Y0012688D01*
X0029231D01*
X0029190Y0012693D01*
X0029141D01*
X0029082Y0012697D01*
X0029014Y0012702D01*
X0028947Y0012706D01*
X0028793Y0012724D01*
X0028640Y0012751D01*
X0028491Y0012792D01*
X0028419Y0012814D01*
X0028356Y0012842D01*
Y0013225D01*
X0028360D01*
X0028365Y0013220D01*
X0028392Y0013211D01*
X0028437Y0013193D01*
X0028491Y0013175D01*
X0028559Y0013153D01*
X0028635Y0013130D01*
X0028721Y0013108D01*
X0028811Y0013085D01*
X0028825D01*
X0028834Y0013081D01*
X0028852Y0013076D01*
X0028902Y0013072D01*
X0028965Y0013063D01*
X0029041Y0013054D01*
X0029123Y0013045D01*
X0029213Y0013040D01*
X0029303Y0013036D01*
X0029339D01*
X0029366Y0013040D01*
X0029402D01*
X0029438Y0013045D01*
X0029524Y0013054D01*
X0029619Y0013072D01*
X0029718Y0013099D01*
X0029813Y0013135D01*
X0029853Y0013157D01*
X0029894Y0013184D01*
X0029898D01*
X0029903Y0013193D01*
X0029925Y0013211D01*
X0029957Y0013248D01*
X0029998Y0013293D01*
X0030034Y0013351D01*
X0030065Y0013423D01*
X0030088Y0013505D01*
X0030097Y0013550D01*
Y0013599D01*
Y0013608D01*
Y0013631D01*
X0030092Y0013662D01*
X0030088Y0013703D01*
X0030079Y0013748D01*
X0030065Y0013793D01*
X0030047Y0013843D01*
X0030024Y0013888D01*
X0030020Y0013892D01*
X0030011Y0013906D01*
X0029993Y0013928D01*
X0029970Y0013956D01*
X0029939Y0013987D01*
X0029898Y0014023D01*
X0029849Y0014059D01*
X0029790Y0014095D01*
X0029781Y0014100D01*
X0029759Y0014113D01*
X0029718Y0014131D01*
X0029664Y0014159D01*
X0029592Y0014190D01*
X0029506Y0014231D01*
X0029402Y0014271D01*
X0029285Y0014312D01*
X0029280D01*
X0029262Y0014321D01*
X0029240Y0014330D01*
X0029208Y0014343D01*
X0029168Y0014357D01*
X0029123Y0014379D01*
X0029073Y0014402D01*
X0029019Y0014425D01*
X0028911Y0014483D01*
X0028798Y0014555D01*
X0028690Y0014632D01*
X0028644Y0014673D01*
X0028604Y0014713D01*
Y0014718D01*
X0028595Y0014722D01*
X0028586Y0014736D01*
X0028572Y0014754D01*
X0028559Y0014781D01*
X0028541Y0014808D01*
X0028523Y0014840D01*
X0028505Y0014876D01*
X0028464Y0014966D01*
X0028433Y0015069D01*
X0028410Y0015187D01*
X0028405Y0015254D01*
X0028401Y0015322D01*
Y0015327D01*
Y0015340D01*
Y0015358D01*
X0028405Y0015385D01*
X0028410Y0015421D01*
X0028414Y0015457D01*
X0028437Y0015548D01*
X0028473Y0015647D01*
X0028496Y0015701D01*
X0028523Y0015751D01*
X0028559Y0015805D01*
X0028599Y0015854D01*
X0028644Y0015904D01*
X0028694Y0015949D01*
X0028699Y0015954D01*
X0028708Y0015958D01*
X0028726Y0015971D01*
X0028748Y0015985D01*
X0028780Y0016003D01*
X0028816Y0016021D01*
X0028857Y0016044D01*
X0028906Y0016066D01*
X0028956Y0016089D01*
X0029019Y0016111D01*
X0029082Y0016129D01*
X0029150Y0016147D01*
X0029226Y0016161D01*
X0029307Y0016174D01*
X0029389Y0016179D01*
X0029479Y0016183D01*
X0029528D01*
X0029564Y0016179D01*
D02*
G37*
G36*
X0038860D02*
X0038905D01*
X0038959Y0016174D01*
X0039022Y0016165D01*
X0039090Y0016161D01*
X0039157Y0016147D01*
X0039234Y0016134D01*
X0039392Y0016098D01*
X0039554Y0016053D01*
X0039631Y0016021D01*
X0039707Y0015985D01*
X0039541Y0015647D01*
X0039536D01*
X0039523Y0015656D01*
X0039505Y0015665D01*
X0039473Y0015674D01*
X0039437Y0015692D01*
X0039396Y0015705D01*
X0039351Y0015723D01*
X0039297Y0015742D01*
X0039243Y0015755D01*
X0039180Y0015773D01*
X0039049Y0015805D01*
X0038909Y0015823D01*
X0038765Y0015832D01*
X0038742D01*
X0038711Y0015827D01*
X0038675D01*
X0038625Y0015818D01*
X0038571Y0015814D01*
X0038512Y0015800D01*
X0038445Y0015787D01*
X0038377Y0015764D01*
X0038305Y0015742D01*
X0038228Y0015710D01*
X0038156Y0015674D01*
X0038084Y0015633D01*
X0038012Y0015579D01*
X0037944Y0015525D01*
X0037881Y0015457D01*
X0037876Y0015453D01*
X0037867Y0015439D01*
X0037849Y0015417D01*
X0037831Y0015390D01*
X0037804Y0015349D01*
X0037777Y0015304D01*
X0037750Y0015250D01*
X0037719Y0015191D01*
X0037687Y0015119D01*
X0037660Y0015042D01*
X0037633Y0014957D01*
X0037606Y0014867D01*
X0037588Y0014767D01*
X0037570Y0014664D01*
X0037561Y0014551D01*
X0037556Y0014434D01*
Y0014425D01*
Y0014406D01*
Y0014370D01*
X0037561Y0014325D01*
X0037565Y0014267D01*
X0037574Y0014204D01*
X0037583Y0014131D01*
X0037597Y0014055D01*
X0037610Y0013974D01*
X0037633Y0013888D01*
X0037655Y0013802D01*
X0037687Y0013716D01*
X0037723Y0013631D01*
X0037764Y0013550D01*
X0037813Y0013473D01*
X0037867Y0013401D01*
X0037872Y0013396D01*
X0037881Y0013387D01*
X0037899Y0013369D01*
X0037926Y0013347D01*
X0037958Y0013315D01*
X0037998Y0013288D01*
X0038043Y0013252D01*
X0038097Y0013220D01*
X0038156Y0013189D01*
X0038224Y0013153D01*
X0038296Y0013126D01*
X0038377Y0013099D01*
X0038463Y0013072D01*
X0038557Y0013054D01*
X0038657Y0013045D01*
X0038760Y0013040D01*
X0038824D01*
X0038855Y0013045D01*
X0038896Y0013049D01*
X0038945D01*
X0038995Y0013058D01*
X0039054Y0013063D01*
X0039117Y0013072D01*
X0039184Y0013081D01*
X0039257Y0013094D01*
X0039410Y0013126D01*
X0039577Y0013166D01*
Y0012819D01*
X0039572D01*
X0039559Y0012814D01*
X0039541Y0012806D01*
X0039514Y0012801D01*
X0039478Y0012787D01*
X0039437Y0012778D01*
X0039387Y0012765D01*
X0039333Y0012756D01*
X0039275Y0012742D01*
X0039207Y0012729D01*
X0039135Y0012720D01*
X0039058Y0012711D01*
X0038977Y0012702D01*
X0038887Y0012693D01*
X0038702Y0012688D01*
X0038670D01*
X0038630Y0012693D01*
X0038580Y0012697D01*
X0038517Y0012702D01*
X0038440Y0012711D01*
X0038359Y0012724D01*
X0038273Y0012747D01*
X0038183Y0012769D01*
X0038088Y0012801D01*
X0037989Y0012837D01*
X0037894Y0012882D01*
X0037800Y0012932D01*
X0037705Y0012995D01*
X0037619Y0013063D01*
X0037538Y0013144D01*
X0037534Y0013148D01*
X0037520Y0013166D01*
X0037502Y0013193D01*
X0037475Y0013229D01*
X0037444Y0013274D01*
X0037412Y0013333D01*
X0037371Y0013401D01*
X0037335Y0013477D01*
X0037299Y0013563D01*
X0037263Y0013658D01*
X0037227Y0013766D01*
X0037195Y0013883D01*
X0037168Y0014005D01*
X0037150Y0014141D01*
X0037137Y0014285D01*
X0037132Y0014438D01*
Y0014443D01*
Y0014461D01*
Y0014488D01*
X0037137Y0014528D01*
Y0014573D01*
X0037141Y0014623D01*
X0037150Y0014686D01*
X0037155Y0014749D01*
X0037168Y0014821D01*
X0037182Y0014894D01*
X0037214Y0015047D01*
X0037263Y0015205D01*
X0037290Y0015281D01*
X0037326Y0015358D01*
X0037331Y0015363D01*
X0037335Y0015376D01*
X0037349Y0015394D01*
X0037362Y0015426D01*
X0037385Y0015457D01*
X0037407Y0015494D01*
X0037471Y0015584D01*
X0037552Y0015683D01*
X0037651Y0015782D01*
X0037764Y0015881D01*
X0037894Y0015967D01*
X0037899Y0015971D01*
X0037912Y0015976D01*
X0037931Y0015985D01*
X0037962Y0016003D01*
X0037998Y0016017D01*
X0038039Y0016035D01*
X0038088Y0016057D01*
X0038142Y0016075D01*
X0038206Y0016098D01*
X0038273Y0016116D01*
X0038346Y0016134D01*
X0038422Y0016152D01*
X0038589Y0016174D01*
X0038679Y0016179D01*
X0038769Y0016183D01*
X0038824D01*
X0038860Y0016179D01*
D02*
G37*
G36*
X0051713Y0012733D02*
X0051397D01*
X0051348Y0013076D01*
X0051325D01*
X0051321Y0013072D01*
X0051312Y0013058D01*
X0051298Y0013040D01*
X0051276Y0013017D01*
X0051249Y0012986D01*
X0051213Y0012954D01*
X0051172Y0012918D01*
X0051127Y0012882D01*
X0051073Y0012846D01*
X0051014Y0012810D01*
X0050946Y0012778D01*
X0050874Y0012747D01*
X0050798Y0012724D01*
X0050712Y0012706D01*
X0050622Y0012693D01*
X0050523Y0012688D01*
X0050500D01*
X0050473Y0012693D01*
X0050441D01*
X0050396Y0012697D01*
X0050351Y0012706D01*
X0050297Y0012715D01*
X0050238Y0012729D01*
X0050175Y0012747D01*
X0050112Y0012769D01*
X0050049Y0012797D01*
X0049981Y0012833D01*
X0049918Y0012869D01*
X0049855Y0012914D01*
X0049796Y0012968D01*
X0049742Y0013026D01*
X0049738Y0013031D01*
X0049729Y0013045D01*
X0049715Y0013063D01*
X0049702Y0013090D01*
X0049679Y0013126D01*
X0049657Y0013166D01*
X0049630Y0013220D01*
X0049607Y0013279D01*
X0049580Y0013342D01*
X0049553Y0013414D01*
X0049530Y0013496D01*
X0049512Y0013581D01*
X0049494Y0013676D01*
X0049481Y0013780D01*
X0049472Y0013888D01*
X0049467Y0014001D01*
Y0014010D01*
Y0014028D01*
Y0014059D01*
X0049472Y0014104D01*
X0049476Y0014159D01*
X0049481Y0014217D01*
X0049490Y0014285D01*
X0049503Y0014361D01*
X0049535Y0014519D01*
X0049557Y0014601D01*
X0049584Y0014682D01*
X0049616Y0014758D01*
X0049657Y0014840D01*
X0049697Y0014912D01*
X0049747Y0014979D01*
X0049751Y0014984D01*
X0049760Y0014993D01*
X0049774Y0015011D01*
X0049796Y0015033D01*
X0049828Y0015060D01*
X0049859Y0015092D01*
X0049900Y0015124D01*
X0049950Y0015155D01*
X0049999Y0015187D01*
X0050058Y0015218D01*
X0050121Y0015250D01*
X0050193Y0015277D01*
X0050265Y0015300D01*
X0050347Y0015318D01*
X0050432Y0015327D01*
X0050523Y0015331D01*
X0050545D01*
X0050572Y0015327D01*
X0050608D01*
X0050653Y0015318D01*
X0050703Y0015313D01*
X0050757Y0015300D01*
X0050816Y0015286D01*
X0050879Y0015263D01*
X0050946Y0015241D01*
X0051014Y0015209D01*
X0051077Y0015173D01*
X0051145Y0015128D01*
X0051208Y0015078D01*
X0051267Y0015020D01*
X0051321Y0014952D01*
X0051352D01*
X0051334Y0015137D01*
X0051325Y0015313D01*
Y0016355D01*
X0051713D01*
Y0012733D01*
D02*
G37*
G36*
X0060787Y0015327D02*
X0060823D01*
X0060868Y0015318D01*
X0060918Y0015313D01*
X0060968Y0015304D01*
X0061080Y0015277D01*
X0061198Y0015236D01*
X0061252Y0015209D01*
X0061306Y0015182D01*
X0061356Y0015146D01*
X0061401Y0015106D01*
X0061405Y0015101D01*
X0061410Y0015097D01*
X0061423Y0015083D01*
X0061437Y0015065D01*
X0061455Y0015038D01*
X0061473Y0015011D01*
X0061495Y0014975D01*
X0061518Y0014934D01*
X0061540Y0014889D01*
X0061563Y0014835D01*
X0061581Y0014776D01*
X0061599Y0014713D01*
X0061613Y0014646D01*
X0061626Y0014569D01*
X0061631Y0014488D01*
X0061635Y0014398D01*
Y0012733D01*
X0061252D01*
Y0014379D01*
Y0014384D01*
Y0014393D01*
Y0014411D01*
Y0014429D01*
X0061247Y0014456D01*
X0061243Y0014488D01*
X0061234Y0014555D01*
X0061216Y0014632D01*
X0061193Y0014709D01*
X0061157Y0014781D01*
X0061107Y0014844D01*
X0061103Y0014853D01*
X0061080Y0014871D01*
X0061049Y0014894D01*
X0060999Y0014925D01*
X0060936Y0014952D01*
X0060864Y0014979D01*
X0060769Y0014997D01*
X0060666Y0015002D01*
X0060629D01*
X0060598Y0014997D01*
X0060566D01*
X0060530Y0014993D01*
X0060440Y0014975D01*
X0060345Y0014948D01*
X0060246Y0014912D01*
X0060156Y0014858D01*
X0060111Y0014821D01*
X0060075Y0014785D01*
Y0014781D01*
X0060066Y0014776D01*
X0060057Y0014763D01*
X0060048Y0014745D01*
X0060034Y0014722D01*
X0060016Y0014691D01*
X0059998Y0014655D01*
X0059984Y0014614D01*
X0059966Y0014569D01*
X0059948Y0014515D01*
X0059935Y0014456D01*
X0059917Y0014393D01*
X0059908Y0014321D01*
X0059899Y0014244D01*
X0059890Y0014159D01*
Y0014068D01*
Y0012733D01*
X0059502D01*
Y0015286D01*
X0059818D01*
X0059881Y0014934D01*
X0059899D01*
X0059903Y0014943D01*
X0059921Y0014966D01*
X0059948Y0015002D01*
X0059984Y0015043D01*
X0060030Y0015088D01*
X0060088Y0015137D01*
X0060151Y0015187D01*
X0060228Y0015227D01*
X0060233D01*
X0060237Y0015232D01*
X0060251Y0015236D01*
X0060264Y0015245D01*
X0060309Y0015259D01*
X0060368Y0015281D01*
X0060440Y0015300D01*
X0060521Y0015313D01*
X0060611Y0015327D01*
X0060711Y0015331D01*
X0060756D01*
X0060787Y0015327D01*
D02*
G37*
G36*
X0055804Y0012733D02*
X0055416D01*
Y0015286D01*
X0055804D01*
Y0012733D01*
D02*
G37*
G36*
X0052917D02*
X0052529D01*
Y0015286D01*
X0052917D01*
Y0012733D01*
D02*
G37*
G36*
X0048912Y0015787D02*
X0047411D01*
Y0014691D01*
X0048822D01*
Y0014343D01*
X0047411D01*
Y0013085D01*
X0048912D01*
Y0012733D01*
X0047014D01*
Y0016138D01*
X0048912D01*
Y0015787D01*
D02*
G37*
G36*
X0044700Y0013865D02*
X0045205D01*
Y0013514D01*
X0044700D01*
Y0012733D01*
X0044330D01*
Y0013514D01*
X0042680Y0013514D01*
Y0013847D01*
X0044294Y0016156D01*
X0044700D01*
Y0013865D01*
D02*
G37*
G36*
X0041511Y0012733D02*
X0041137D01*
Y0015160D01*
Y0015164D01*
Y0015173D01*
Y0015191D01*
Y0015209D01*
Y0015236D01*
Y0015268D01*
X0041142Y0015345D01*
Y0015430D01*
X0041146Y0015529D01*
X0041151Y0015629D01*
X0041155Y0015732D01*
X0041146Y0015723D01*
X0041124Y0015701D01*
X0041088Y0015669D01*
X0041043Y0015629D01*
X0041038Y0015624D01*
X0041024Y0015615D01*
X0041015Y0015606D01*
X0040997Y0015593D01*
X0040979Y0015575D01*
X0040952Y0015552D01*
X0040921Y0015525D01*
X0040885Y0015494D01*
X0040839Y0015457D01*
X0040785Y0015417D01*
X0040727Y0015367D01*
X0040659Y0015313D01*
X0040578Y0015250D01*
X0040492Y0015178D01*
X0040285Y0015439D01*
X0041187Y0016138D01*
X0041511D01*
Y0012733D01*
D02*
G37*
G36*
X0034954Y0016134D02*
X0035008D01*
X0035076Y0016125D01*
X0035152Y0016116D01*
X0035238Y0016102D01*
X0035328Y0016084D01*
X0035427Y0016062D01*
X0035527Y0016030D01*
X0035631Y0015994D01*
X0035730Y0015954D01*
X0035833Y0015899D01*
X0035928Y0015841D01*
X0036023Y0015773D01*
X0036108Y0015696D01*
X0036113Y0015692D01*
X0036127Y0015674D01*
X0036149Y0015651D01*
X0036176Y0015615D01*
X0036212Y0015570D01*
X0036248Y0015516D01*
X0036289Y0015453D01*
X0036329Y0015376D01*
X0036370Y0015295D01*
X0036411Y0015200D01*
X0036447Y0015101D01*
X0036483Y0014993D01*
X0036510Y0014871D01*
X0036533Y0014745D01*
X0036546Y0014609D01*
X0036551Y0014465D01*
Y0014461D01*
Y0014456D01*
Y0014429D01*
X0036546Y0014384D01*
X0036542Y0014325D01*
X0036537Y0014258D01*
X0036528Y0014176D01*
X0036510Y0014086D01*
X0036492Y0013987D01*
X0036469Y0013883D01*
X0036438Y0013780D01*
X0036402Y0013671D01*
X0036357Y0013563D01*
X0036303Y0013459D01*
X0036244Y0013360D01*
X0036172Y0013265D01*
X0036090Y0013175D01*
X0036086Y0013171D01*
X0036068Y0013157D01*
X0036041Y0013135D01*
X0036005Y0013108D01*
X0035960Y0013072D01*
X0035901Y0013036D01*
X0035833Y0012995D01*
X0035757Y0012954D01*
X0035667Y0012914D01*
X0035567Y0012873D01*
X0035459Y0012837D01*
X0035342Y0012801D01*
X0035216Y0012774D01*
X0035076Y0012751D01*
X0034931Y0012738D01*
X0034774Y0012733D01*
X0033831D01*
Y0016138D01*
X0034913D01*
X0034954Y0016134D01*
D02*
G37*
G36*
X0033321Y0015787D02*
X0032243D01*
Y0012733D01*
X0031847D01*
Y0015787D01*
X0030769D01*
Y0016138D01*
X0033321D01*
Y0015787D01*
D02*
G37*
G36*
X0057748Y0015327D02*
X0057793Y0015322D01*
X0057842Y0015313D01*
X0057901Y0015300D01*
X0057964Y0015286D01*
X0058027Y0015268D01*
X0058099Y0015245D01*
X0058167Y0015214D01*
X0058239Y0015182D01*
X0058311Y0015142D01*
X0058379Y0015092D01*
X0058442Y0015038D01*
X0058505Y0014975D01*
X0058510Y0014970D01*
X0058519Y0014957D01*
X0058532Y0014939D01*
X0058555Y0014912D01*
X0058577Y0014876D01*
X0058604Y0014830D01*
X0058636Y0014781D01*
X0058663Y0014722D01*
X0058695Y0014655D01*
X0058722Y0014582D01*
X0058749Y0014501D01*
X0058771Y0014416D01*
X0058794Y0014325D01*
X0058807Y0014226D01*
X0058816Y0014122D01*
X0058821Y0014010D01*
Y0014001D01*
Y0013983D01*
Y0013951D01*
X0058816Y0013906D01*
X0058812Y0013856D01*
X0058803Y0013793D01*
X0058794Y0013725D01*
X0058780Y0013653D01*
X0058767Y0013577D01*
X0058744Y0013500D01*
X0058717Y0013419D01*
X0058690Y0013338D01*
X0058649Y0013257D01*
X0058609Y0013180D01*
X0058559Y0013103D01*
X0058505Y0013036D01*
X0058501Y0013031D01*
X0058492Y0013022D01*
X0058474Y0013004D01*
X0058447Y0012981D01*
X0058415Y0012954D01*
X0058379Y0012927D01*
X0058334Y0012896D01*
X0058280Y0012864D01*
X0058221Y0012828D01*
X0058158Y0012797D01*
X0058086Y0012769D01*
X0058009Y0012742D01*
X0057923Y0012720D01*
X0057838Y0012702D01*
X0057739Y0012693D01*
X0057639Y0012688D01*
X0057608D01*
X0057581Y0012693D01*
X0057554D01*
X0057517Y0012697D01*
X0057436Y0012706D01*
X0057342Y0012729D01*
X0057238Y0012756D01*
X0057134Y0012792D01*
X0057030Y0012846D01*
X0057026D01*
X0057017Y0012855D01*
X0057003Y0012864D01*
X0056985Y0012878D01*
X0056940Y0012914D01*
X0056882Y0012963D01*
X0056818Y0013031D01*
X0056751Y0013108D01*
X0056683Y0013202D01*
X0056625Y0013306D01*
Y0013311D01*
X0056620Y0013320D01*
X0056611Y0013338D01*
X0056602Y0013360D01*
X0056593Y0013387D01*
X0056579Y0013423D01*
X0056566Y0013464D01*
X0056552Y0013509D01*
X0056539Y0013559D01*
X0056525Y0013613D01*
X0056503Y0013730D01*
X0056485Y0013865D01*
X0056480Y0014010D01*
Y0014019D01*
Y0014037D01*
Y0014068D01*
X0056485Y0014113D01*
X0056489Y0014163D01*
X0056498Y0014226D01*
X0056507Y0014294D01*
X0056521Y0014366D01*
X0056534Y0014443D01*
X0056557Y0014519D01*
X0056579Y0014601D01*
X0056611Y0014682D01*
X0056647Y0014763D01*
X0056688Y0014840D01*
X0056737Y0014912D01*
X0056791Y0014979D01*
X0056796Y0014984D01*
X0056805Y0014993D01*
X0056823Y0015011D01*
X0056850Y0015033D01*
X0056882Y0015060D01*
X0056918Y0015092D01*
X0056963Y0015124D01*
X0057017Y0015155D01*
X0057076Y0015187D01*
X0057139Y0015218D01*
X0057211Y0015250D01*
X0057288Y0015277D01*
X0057373Y0015300D01*
X0057459Y0015318D01*
X0057558Y0015327D01*
X0057657Y0015331D01*
X0057707D01*
X0057748Y0015327D01*
D02*
G37*
G36*
X0054149Y0015286D02*
X0054888D01*
Y0014984D01*
X0054149D01*
Y0013482D01*
Y0013477D01*
Y0013473D01*
Y0013446D01*
X0054153Y0013401D01*
X0054162Y0013351D01*
X0054176Y0013297D01*
X0054194Y0013239D01*
X0054221Y0013180D01*
X0054257Y0013130D01*
X0054261Y0013126D01*
X0054279Y0013112D01*
X0054302Y0013090D01*
X0054338Y0013072D01*
X0054378Y0013049D01*
X0054433Y0013026D01*
X0054491Y0013013D01*
X0054559Y0013008D01*
X0054622D01*
X0054685Y0013013D01*
X0054757Y0013022D01*
X0054762D01*
X0054775Y0013026D01*
X0054789D01*
X0054812Y0013031D01*
X0054861Y0013040D01*
X0054906Y0013054D01*
Y0012756D01*
X0054902D01*
X0054893Y0012751D01*
X0054879Y0012747D01*
X0054861Y0012742D01*
X0054834Y0012733D01*
X0054803Y0012724D01*
X0054766Y0012720D01*
X0054721Y0012711D01*
X0054717D01*
X0054699Y0012706D01*
X0054676Y0012702D01*
X0054649D01*
X0054577Y0012693D01*
X0054505Y0012688D01*
X0054473D01*
X0054437Y0012693D01*
X0054388Y0012702D01*
X0054334Y0012711D01*
X0054270Y0012729D01*
X0054203Y0012751D01*
X0054135Y0012788D01*
X0054063Y0012828D01*
X0053995Y0012878D01*
X0053932Y0012941D01*
X0053878Y0013017D01*
X0053828Y0013103D01*
X0053792Y0013207D01*
X0053770Y0013329D01*
X0053765Y0013392D01*
X0053761Y0013464D01*
Y0014984D01*
X0053400D01*
Y0015169D01*
X0053765Y0015331D01*
X0053927Y0015877D01*
X0054149D01*
Y0015286D01*
D02*
G37*
G36*
X0022826Y0121256D02*
X0023667D01*
Y0120858D01*
X0022826D01*
Y0119079D01*
X0022467D01*
X0019978Y0120819D01*
Y0121256D01*
X0022447D01*
Y0121800D01*
X0022826D01*
Y0121256D01*
D02*
G37*
G36*
X0023667Y0117417D02*
X0021053D01*
X0021048D01*
X0021038D01*
X0021019D01*
X0020999D01*
X0020970D01*
X0020936D01*
X0020853Y0117422D01*
X0020761D01*
X0020654Y0117426D01*
X0020547Y0117431D01*
X0020435Y0117436D01*
X0020445Y0117426D01*
X0020469Y0117402D01*
X0020503Y0117363D01*
X0020547Y0117315D01*
X0020552Y0117310D01*
X0020562Y0117295D01*
X0020571Y0117286D01*
X0020586Y0117266D01*
X0020605Y0117247D01*
X0020630Y0117217D01*
X0020659Y0117183D01*
X0020693Y0117145D01*
X0020732Y0117096D01*
X0020775Y0117038D01*
X0020829Y0116974D01*
X0020887Y0116902D01*
X0020955Y0116814D01*
X0021033Y0116722D01*
X0020751Y0116498D01*
X0019998Y0117470D01*
Y0117820D01*
X0023667D01*
Y0117417D01*
D02*
G37*
G36*
X0020528Y0115696D02*
Y0115691D01*
X0020518Y0115677D01*
X0020508Y0115657D01*
X0020498Y0115623D01*
X0020479Y0115585D01*
X0020464Y0115541D01*
X0020445Y0115492D01*
X0020425Y0115434D01*
X0020411Y0115375D01*
X0020391Y0115307D01*
X0020358Y0115166D01*
X0020338Y0115016D01*
X0020328Y0114860D01*
Y0114836D01*
X0020333Y0114802D01*
Y0114763D01*
X0020343Y0114710D01*
X0020348Y0114651D01*
X0020362Y0114588D01*
X0020377Y0114515D01*
X0020401Y0114442D01*
X0020425Y0114365D01*
X0020459Y0114282D01*
X0020498Y0114204D01*
X0020542Y0114127D01*
X0020601Y0114049D01*
X0020659Y0113976D01*
X0020732Y0113908D01*
X0020737Y0113903D01*
X0020751Y0113893D01*
X0020775Y0113874D01*
X0020805Y0113854D01*
X0020848Y0113825D01*
X0020897Y0113796D01*
X0020955Y0113767D01*
X0021019Y0113733D01*
X0021096Y0113699D01*
X0021179Y0113670D01*
X0021271Y0113640D01*
X0021368Y0113611D01*
X0021475Y0113592D01*
X0021587Y0113572D01*
X0021709Y0113563D01*
X0021835Y0113558D01*
X0021845D01*
X0021864D01*
X0021903D01*
X0021952Y0113563D01*
X0022015Y0113568D01*
X0022083Y0113577D01*
X0022161Y0113587D01*
X0022243Y0113602D01*
X0022331Y0113616D01*
X0022423Y0113640D01*
X0022515Y0113665D01*
X0022608Y0113699D01*
X0022700Y0113738D01*
X0022787Y0113781D01*
X0022870Y0113835D01*
X0022948Y0113893D01*
X0022953Y0113898D01*
X0022963Y0113908D01*
X0022982Y0113927D01*
X0023006Y0113956D01*
X0023040Y0113990D01*
X0023069Y0114034D01*
X0023108Y0114083D01*
X0023142Y0114141D01*
X0023176Y0114204D01*
X0023215Y0114277D01*
X0023244Y0114355D01*
X0023273Y0114442D01*
X0023303Y0114535D01*
X0023322Y0114637D01*
X0023332Y0114744D01*
X0023337Y0114856D01*
Y0114924D01*
X0023332Y0114957D01*
X0023327Y0115001D01*
Y0115055D01*
X0023317Y0115108D01*
X0023312Y0115171D01*
X0023303Y0115239D01*
X0023293Y0115312D01*
X0023278Y0115390D01*
X0023244Y0115555D01*
X0023201Y0115735D01*
X0023575D01*
Y0115730D01*
X0023580Y0115716D01*
X0023589Y0115696D01*
X0023594Y0115667D01*
X0023609Y0115628D01*
X0023618Y0115585D01*
X0023633Y0115531D01*
X0023643Y0115473D01*
X0023657Y0115410D01*
X0023672Y0115337D01*
X0023682Y0115259D01*
X0023692Y0115176D01*
X0023701Y0115089D01*
X0023711Y0114992D01*
X0023716Y0114792D01*
Y0114758D01*
X0023711Y0114715D01*
X0023706Y0114661D01*
X0023701Y0114593D01*
X0023692Y0114510D01*
X0023677Y0114423D01*
X0023653Y0114331D01*
X0023628Y0114233D01*
X0023594Y0114131D01*
X0023555Y0114024D01*
X0023507Y0113922D01*
X0023453Y0113820D01*
X0023385Y0113718D01*
X0023312Y0113626D01*
X0023225Y0113538D01*
X0023220Y0113534D01*
X0023201Y0113519D01*
X0023171Y0113499D01*
X0023133Y0113470D01*
X0023084Y0113436D01*
X0023021Y0113402D01*
X0022948Y0113359D01*
X0022865Y0113320D01*
X0022773Y0113281D01*
X0022671Y0113242D01*
X0022554Y0113203D01*
X0022428Y0113169D01*
X0022297Y0113140D01*
X0022151Y0113120D01*
X0021995Y0113106D01*
X0021830Y0113101D01*
X0021825D01*
X0021806D01*
X0021777D01*
X0021733Y0113106D01*
X0021684D01*
X0021631Y0113111D01*
X0021563Y0113120D01*
X0021495Y0113125D01*
X0021417Y0113140D01*
X0021339Y0113154D01*
X0021174Y0113189D01*
X0021004Y0113242D01*
X0020921Y0113271D01*
X0020839Y0113310D01*
X0020834Y0113315D01*
X0020819Y0113320D01*
X0020800Y0113334D01*
X0020766Y0113349D01*
X0020732Y0113373D01*
X0020693Y0113398D01*
X0020596Y0113465D01*
X0020489Y0113553D01*
X0020382Y0113660D01*
X0020275Y0113781D01*
X0020182Y0113922D01*
X0020178Y0113927D01*
X0020173Y0113942D01*
X0020163Y0113961D01*
X0020144Y0113995D01*
X0020129Y0114034D01*
X0020110Y0114078D01*
X0020085Y0114131D01*
X0020066Y0114190D01*
X0020042Y0114258D01*
X0020022Y0114331D01*
X0020003Y0114408D01*
X0019983Y0114491D01*
X0019959Y0114671D01*
X0019954Y0114768D01*
X0019949Y0114865D01*
Y0114924D01*
X0019954Y0114962D01*
Y0115011D01*
X0019959Y0115069D01*
X0019969Y0115137D01*
X0019974Y0115210D01*
X0019988Y0115283D01*
X0020003Y0115366D01*
X0020042Y0115536D01*
X0020090Y0115711D01*
X0020124Y0115794D01*
X0020163Y0115876D01*
X0020528Y0115696D01*
D02*
G37*
G36*
X0021888Y0112469D02*
X0021952Y0112464D01*
X0022025Y0112460D01*
X0022112Y0112450D01*
X0022209Y0112430D01*
X0022316Y0112411D01*
X0022428Y0112387D01*
X0022540Y0112353D01*
X0022656Y0112314D01*
X0022773Y0112265D01*
X0022885Y0112207D01*
X0022992Y0112144D01*
X0023094Y0112066D01*
X0023191Y0111978D01*
X0023196Y0111974D01*
X0023210Y0111954D01*
X0023235Y0111925D01*
X0023264Y0111886D01*
X0023303Y0111837D01*
X0023341Y0111774D01*
X0023385Y0111701D01*
X0023429Y0111619D01*
X0023473Y0111521D01*
X0023516Y0111415D01*
X0023555Y0111298D01*
X0023594Y0111172D01*
X0023623Y0111036D01*
X0023648Y0110885D01*
X0023662Y0110729D01*
X0023667Y0110559D01*
Y0109544D01*
X0019998D01*
Y0110710D01*
X0020003Y0110754D01*
Y0110812D01*
X0020012Y0110885D01*
X0020022Y0110968D01*
X0020037Y0111060D01*
X0020056Y0111157D01*
X0020080Y0111264D01*
X0020114Y0111371D01*
X0020153Y0111483D01*
X0020197Y0111590D01*
X0020255Y0111701D01*
X0020319Y0111803D01*
X0020391Y0111906D01*
X0020474Y0111998D01*
X0020479Y0112003D01*
X0020498Y0112017D01*
X0020523Y0112041D01*
X0020562Y0112071D01*
X0020610Y0112110D01*
X0020669Y0112148D01*
X0020737Y0112192D01*
X0020819Y0112236D01*
X0020907Y0112280D01*
X0021009Y0112323D01*
X0021116Y0112362D01*
X0021232Y0112401D01*
X0021363Y0112430D01*
X0021500Y0112455D01*
X0021645Y0112469D01*
X0021801Y0112474D01*
X0021806D01*
X0021811D01*
X0021840D01*
X0021888Y0112469D01*
D02*
G37*
G36*
X0020377Y0107833D02*
X0023667D01*
Y0107405D01*
X0020377D01*
Y0106244D01*
X0019998D01*
Y0108994D01*
X0020377D01*
Y0107833D01*
D02*
G37*
G36*
X0022773Y0105947D02*
X0022817Y0105942D01*
X0022860Y0105932D01*
X0022914Y0105923D01*
X0022967Y0105908D01*
X0023031Y0105889D01*
X0023089Y0105865D01*
X0023152Y0105835D01*
X0023215Y0105801D01*
X0023278Y0105762D01*
X0023337Y0105714D01*
X0023395Y0105660D01*
X0023448Y0105597D01*
X0023453Y0105592D01*
X0023458Y0105583D01*
X0023473Y0105563D01*
X0023492Y0105534D01*
X0023512Y0105500D01*
X0023531Y0105456D01*
X0023555Y0105403D01*
X0023580Y0105349D01*
X0023609Y0105281D01*
X0023633Y0105213D01*
X0023653Y0105136D01*
X0023672Y0105048D01*
X0023692Y0104961D01*
X0023706Y0104863D01*
X0023711Y0104756D01*
X0023716Y0104649D01*
Y0104586D01*
X0023711Y0104543D01*
Y0104489D01*
X0023706Y0104426D01*
X0023701Y0104353D01*
X0023696Y0104280D01*
X0023677Y0104115D01*
X0023648Y0103950D01*
X0023604Y0103789D01*
X0023580Y0103711D01*
X0023550Y0103644D01*
X0023137D01*
Y0103648D01*
X0023142Y0103653D01*
X0023152Y0103682D01*
X0023171Y0103731D01*
X0023191Y0103789D01*
X0023215Y0103862D01*
X0023239Y0103945D01*
X0023264Y0104037D01*
X0023288Y0104134D01*
Y0104149D01*
X0023293Y0104159D01*
X0023298Y0104178D01*
X0023303Y0104232D01*
X0023312Y0104300D01*
X0023322Y0104382D01*
X0023332Y0104470D01*
X0023337Y0104567D01*
X0023341Y0104664D01*
Y0104703D01*
X0023337Y0104732D01*
Y0104771D01*
X0023332Y0104810D01*
X0023322Y0104902D01*
X0023303Y0105004D01*
X0023273Y0105111D01*
X0023235Y0105213D01*
X0023210Y0105257D01*
X0023181Y0105301D01*
Y0105306D01*
X0023171Y0105310D01*
X0023152Y0105335D01*
X0023113Y0105369D01*
X0023065Y0105412D01*
X0023001Y0105451D01*
X0022924Y0105485D01*
X0022836Y0105510D01*
X0022787Y0105519D01*
X0022734D01*
X0022724D01*
X0022700D01*
X0022666Y0105515D01*
X0022622Y0105510D01*
X0022574Y0105500D01*
X0022525Y0105485D01*
X0022472Y0105466D01*
X0022423Y0105442D01*
X0022418Y0105437D01*
X0022404Y0105427D01*
X0022379Y0105408D01*
X0022350Y0105383D01*
X0022316Y0105349D01*
X0022277Y0105306D01*
X0022238Y0105252D01*
X0022199Y0105189D01*
X0022195Y0105179D01*
X0022180Y0105155D01*
X0022161Y0105111D01*
X0022131Y0105053D01*
X0022097Y0104975D01*
X0022054Y0104883D01*
X0022010Y0104771D01*
X0021966Y0104645D01*
Y0104640D01*
X0021956Y0104620D01*
X0021947Y0104596D01*
X0021932Y0104562D01*
X0021917Y0104518D01*
X0021893Y0104470D01*
X0021869Y0104416D01*
X0021845Y0104358D01*
X0021781Y0104241D01*
X0021704Y0104120D01*
X0021621Y0104003D01*
X0021577Y0103955D01*
X0021534Y0103911D01*
X0021529D01*
X0021524Y0103901D01*
X0021509Y0103891D01*
X0021490Y0103877D01*
X0021461Y0103862D01*
X0021431Y0103843D01*
X0021397Y0103823D01*
X0021359Y0103804D01*
X0021261Y0103760D01*
X0021150Y0103726D01*
X0021023Y0103702D01*
X0020950Y0103697D01*
X0020877Y0103692D01*
X0020873D01*
X0020858D01*
X0020839D01*
X0020809Y0103697D01*
X0020771Y0103702D01*
X0020732Y0103707D01*
X0020635Y0103731D01*
X0020528Y0103770D01*
X0020469Y0103794D01*
X0020416Y0103823D01*
X0020358Y0103862D01*
X0020304Y0103906D01*
X0020251Y0103955D01*
X0020202Y0104008D01*
X0020197Y0104013D01*
X0020192Y0104023D01*
X0020178Y0104042D01*
X0020163Y0104066D01*
X0020144Y0104100D01*
X0020124Y0104139D01*
X0020100Y0104183D01*
X0020076Y0104236D01*
X0020051Y0104290D01*
X0020027Y0104358D01*
X0020008Y0104426D01*
X0019988Y0104499D01*
X0019974Y0104581D01*
X0019959Y0104669D01*
X0019954Y0104756D01*
X0019949Y0104854D01*
Y0104907D01*
X0019954Y0104946D01*
Y0104994D01*
X0019959Y0105048D01*
X0019964Y0105116D01*
X0019974Y0105184D01*
X0019983Y0105257D01*
X0019998Y0105340D01*
X0020037Y0105510D01*
X0020085Y0105685D01*
X0020153Y0105860D01*
X0020523Y0105728D01*
Y0105724D01*
X0020513Y0105709D01*
X0020503Y0105685D01*
X0020494Y0105651D01*
X0020479Y0105612D01*
X0020459Y0105563D01*
X0020445Y0105505D01*
X0020425Y0105447D01*
X0020406Y0105383D01*
X0020391Y0105310D01*
X0020358Y0105165D01*
X0020338Y0105004D01*
X0020328Y0104844D01*
Y0104786D01*
X0020333Y0104761D01*
X0020338Y0104727D01*
X0020348Y0104649D01*
X0020367Y0104567D01*
X0020391Y0104479D01*
X0020430Y0104392D01*
X0020479Y0104314D01*
X0020484Y0104304D01*
X0020503Y0104285D01*
X0020537Y0104256D01*
X0020586Y0104222D01*
X0020639Y0104183D01*
X0020712Y0104154D01*
X0020790Y0104134D01*
X0020882Y0104125D01*
X0020892D01*
X0020911D01*
X0020950Y0104130D01*
X0020994Y0104134D01*
X0021043Y0104139D01*
X0021091Y0104154D01*
X0021145Y0104168D01*
X0021193Y0104193D01*
X0021198Y0104198D01*
X0021213Y0104207D01*
X0021237Y0104227D01*
X0021266Y0104251D01*
X0021300Y0104285D01*
X0021339Y0104324D01*
X0021378Y0104373D01*
X0021417Y0104431D01*
X0021422Y0104440D01*
X0021436Y0104460D01*
X0021456Y0104504D01*
X0021485Y0104557D01*
X0021514Y0104630D01*
X0021553Y0104718D01*
X0021597Y0104820D01*
X0021641Y0104941D01*
Y0104946D01*
X0021650Y0104965D01*
X0021660Y0104994D01*
X0021675Y0105033D01*
X0021694Y0105082D01*
X0021718Y0105136D01*
X0021743Y0105194D01*
X0021772Y0105257D01*
X0021840Y0105388D01*
X0021913Y0105519D01*
X0021952Y0105583D01*
X0021995Y0105636D01*
X0022039Y0105690D01*
X0022083Y0105733D01*
X0022088Y0105738D01*
X0022093Y0105743D01*
X0022107Y0105753D01*
X0022127Y0105767D01*
X0022146Y0105782D01*
X0022175Y0105801D01*
X0022248Y0105845D01*
X0022335Y0105884D01*
X0022438Y0105918D01*
X0022559Y0105942D01*
X0022627Y0105952D01*
X0022695D01*
X0022700D01*
X0022715D01*
X0022739D01*
X0022773Y0105947D01*
D02*
G37*
%LPC*%
G36*
X0070454Y0034363D02*
X0070423D01*
X0070400Y0034359D01*
X0070369Y0034354D01*
X0070337Y0034350D01*
X0070265Y0034332D01*
X0070179Y0034300D01*
X0070134Y0034278D01*
X0070094Y0034251D01*
X0070048Y0034219D01*
X0070008Y0034187D01*
X0069972Y0034142D01*
X0069936Y0034097D01*
Y0034093D01*
X0069927Y0034084D01*
X0069918Y0034070D01*
X0069909Y0034048D01*
X0069895Y0034021D01*
X0069877Y0033989D01*
X0069864Y0033948D01*
X0069846Y0033908D01*
X0069828Y0033858D01*
X0069814Y0033799D01*
X0069796Y0033741D01*
X0069782Y0033673D01*
X0069773Y0033601D01*
X0069764Y0033524D01*
X0069755Y0033443D01*
Y0033353D01*
Y0033349D01*
Y0033331D01*
Y0033308D01*
X0069760Y0033272D01*
Y0033231D01*
X0069764Y0033186D01*
X0069769Y0033132D01*
X0069778Y0033078D01*
X0069801Y0032961D01*
X0069828Y0032839D01*
X0069873Y0032722D01*
X0069900Y0032667D01*
X0069931Y0032618D01*
Y0032613D01*
X0069940Y0032609D01*
X0069963Y0032577D01*
X0070008Y0032541D01*
X0070067Y0032496D01*
X0070139Y0032447D01*
X0070229Y0032410D01*
X0070337Y0032379D01*
X0070396Y0032374D01*
X0070459Y0032370D01*
X0070495D01*
X0070522Y0032374D01*
X0070558D01*
X0070594Y0032383D01*
X0070680Y0032397D01*
X0070775Y0032424D01*
X0070869Y0032460D01*
X0070955Y0032514D01*
X0070996Y0032546D01*
X0071032Y0032582D01*
Y0032586D01*
X0071041Y0032591D01*
X0071050Y0032604D01*
X0071059Y0032622D01*
X0071072Y0032645D01*
X0071090Y0032677D01*
X0071104Y0032708D01*
X0071122Y0032749D01*
X0071140Y0032794D01*
X0071153Y0032848D01*
X0071171Y0032902D01*
X0071185Y0032965D01*
X0071194Y0033033D01*
X0071203Y0033110D01*
X0071212Y0033191D01*
Y0033276D01*
Y0033358D01*
Y0033362D01*
Y0033380D01*
Y0033407D01*
X0071208Y0033448D01*
Y0033488D01*
X0071203Y0033542D01*
X0071199Y0033597D01*
X0071190Y0033655D01*
X0071167Y0033786D01*
X0071135Y0033912D01*
X0071117Y0033971D01*
X0071090Y0034030D01*
X0071063Y0034084D01*
X0071032Y0034129D01*
Y0034133D01*
X0071023Y0034138D01*
X0070996Y0034165D01*
X0070978Y0034183D01*
X0070955Y0034201D01*
X0070924Y0034223D01*
X0070892Y0034246D01*
X0070856Y0034269D01*
X0070811Y0034291D01*
X0070766Y0034309D01*
X0070711Y0034327D01*
X0070657Y0034341D01*
X0070594Y0034354D01*
X0070527Y0034359D01*
X0070454Y0034363D01*
D02*
G37*
G36*
X0037748Y0034408D02*
X0037703D01*
X0037653Y0034399D01*
X0037595Y0034390D01*
X0037527Y0034372D01*
X0037455Y0034345D01*
X0037392Y0034309D01*
X0037328Y0034260D01*
X0037324Y0034251D01*
X0037306Y0034233D01*
X0037283Y0034196D01*
X0037256Y0034151D01*
X0037229Y0034088D01*
X0037207Y0034012D01*
X0037189Y0033926D01*
X0037184Y0033822D01*
Y0033818D01*
Y0033809D01*
Y0033795D01*
X0037189Y0033777D01*
X0037193Y0033732D01*
X0037202Y0033673D01*
X0037220Y0033606D01*
X0037247Y0033538D01*
X0037283Y0033475D01*
X0037333Y0033416D01*
X0037342Y0033412D01*
X0037360Y0033394D01*
X0037396Y0033376D01*
X0037446Y0033349D01*
X0037504Y0033326D01*
X0037576Y0033303D01*
X0037662Y0033285D01*
X0037757Y0033281D01*
X0037780D01*
X0037811Y0033285D01*
X0037847Y0033290D01*
X0037888Y0033299D01*
X0037937Y0033308D01*
X0037987Y0033326D01*
X0038041Y0033349D01*
X0038091Y0033380D01*
X0038140Y0033416D01*
X0038190Y0033461D01*
X0038235Y0033515D01*
X0038267Y0033574D01*
X0038298Y0033651D01*
X0038316Y0033736D01*
X0038321Y0033831D01*
Y0033836D01*
Y0033858D01*
X0038316Y0033885D01*
X0038312Y0033921D01*
X0038303Y0033966D01*
X0038289Y0034016D01*
X0038271Y0034066D01*
X0038249Y0034120D01*
X0038217Y0034174D01*
X0038181Y0034228D01*
X0038136Y0034273D01*
X0038077Y0034318D01*
X0038014Y0034354D01*
X0037937Y0034386D01*
X0037847Y0034404D01*
X0037748Y0034408D01*
D02*
G37*
G36*
X0038055Y0032149D02*
X0037486D01*
X0037441Y0032144D01*
X0037378Y0032135D01*
X0037315Y0032117D01*
X0037243Y0032099D01*
X0037175Y0032068D01*
X0037117Y0032027D01*
X0037112Y0032023D01*
X0037094Y0032005D01*
X0037071Y0031973D01*
X0037044Y0031937D01*
X0037017Y0031883D01*
X0036995Y0031820D01*
X0036977Y0031747D01*
X0036972Y0031666D01*
Y0031657D01*
X0036977Y0031630D01*
X0036981Y0031594D01*
X0036995Y0031549D01*
X0037017Y0031499D01*
X0037044Y0031445D01*
X0037089Y0031396D01*
X0037148Y0031351D01*
X0037157Y0031346D01*
X0037180Y0031333D01*
X0037220Y0031315D01*
X0037279Y0031297D01*
X0037347Y0031278D01*
X0037432Y0031260D01*
X0037536Y0031247D01*
X0037649Y0031242D01*
X0037694D01*
X0037730Y0031247D01*
X0037771D01*
X0037816Y0031251D01*
X0037865Y0031256D01*
X0037919Y0031260D01*
X0038037Y0031278D01*
X0038158Y0031306D01*
X0038271Y0031342D01*
X0038321Y0031364D01*
X0038366Y0031391D01*
X0038370D01*
X0038375Y0031400D01*
X0038402Y0031418D01*
X0038438Y0031450D01*
X0038483Y0031495D01*
X0038528Y0031549D01*
X0038564Y0031617D01*
X0038591Y0031698D01*
X0038596Y0031738D01*
X0038600Y0031784D01*
Y0031788D01*
Y0031793D01*
Y0031820D01*
X0038596Y0031856D01*
X0038587Y0031896D01*
X0038569Y0031946D01*
X0038546Y0031991D01*
X0038515Y0032036D01*
X0038474Y0032072D01*
X0038469Y0032077D01*
X0038447Y0032086D01*
X0038415Y0032095D01*
X0038366Y0032113D01*
X0038303Y0032126D01*
X0038262Y0032131D01*
X0038217Y0032135D01*
X0038167Y0032140D01*
X0038113Y0032144D01*
X0038055Y0032149D01*
D02*
G37*
G36*
X0042948Y0033344D02*
X0042560Y0033326D01*
X0042542D01*
X0042515Y0033321D01*
X0042483D01*
X0042447Y0033317D01*
X0042402Y0033312D01*
X0042303Y0033303D01*
X0042195Y0033281D01*
X0042086Y0033258D01*
X0041983Y0033222D01*
X0041938Y0033204D01*
X0041897Y0033182D01*
X0041888Y0033177D01*
X0041866Y0033159D01*
X0041834Y0033128D01*
X0041798Y0033087D01*
X0041757Y0033028D01*
X0041726Y0032965D01*
X0041703Y0032884D01*
X0041699Y0032839D01*
X0041694Y0032789D01*
Y0032780D01*
Y0032753D01*
X0041703Y0032717D01*
X0041712Y0032672D01*
X0041726Y0032622D01*
X0041748Y0032568D01*
X0041780Y0032519D01*
X0041820Y0032474D01*
X0041825Y0032469D01*
X0041843Y0032456D01*
X0041875Y0032438D01*
X0041911Y0032419D01*
X0041965Y0032401D01*
X0042023Y0032383D01*
X0042096Y0032370D01*
X0042177Y0032365D01*
X0042213D01*
X0042235Y0032370D01*
X0042267D01*
X0042303Y0032374D01*
X0042384Y0032388D01*
X0042474Y0032415D01*
X0042569Y0032447D01*
X0042659Y0032496D01*
X0042700Y0032523D01*
X0042740Y0032559D01*
X0042745Y0032564D01*
X0042750Y0032568D01*
X0042759Y0032582D01*
X0042772Y0032595D01*
X0042808Y0032640D01*
X0042844Y0032704D01*
X0042880Y0032780D01*
X0042916Y0032875D01*
X0042939Y0032988D01*
X0042948Y0033051D01*
Y0033114D01*
Y0033344D01*
D02*
G37*
G36*
X0030198Y0035153D02*
X0029671D01*
Y0033768D01*
X0030076D01*
X0030112Y0033773D01*
X0030158D01*
X0030203Y0033777D01*
X0030261Y0033781D01*
X0030320Y0033790D01*
X0030442Y0033809D01*
X0030568Y0033840D01*
X0030685Y0033881D01*
X0030739Y0033908D01*
X0030784Y0033935D01*
X0030789D01*
X0030793Y0033944D01*
X0030821Y0033966D01*
X0030861Y0034007D01*
X0030906Y0034066D01*
X0030947Y0034142D01*
X0030969Y0034187D01*
X0030987Y0034237D01*
X0031001Y0034291D01*
X0031014Y0034350D01*
X0031019Y0034413D01*
X0031023Y0034481D01*
Y0034485D01*
Y0034494D01*
Y0034512D01*
X0031019Y0034535D01*
Y0034566D01*
X0031010Y0034598D01*
X0030996Y0034670D01*
X0030969Y0034751D01*
X0030929Y0034837D01*
X0030906Y0034877D01*
X0030875Y0034918D01*
X0030843Y0034954D01*
X0030803Y0034986D01*
X0030798D01*
X0030793Y0034995D01*
X0030780Y0034999D01*
X0030762Y0035013D01*
X0030735Y0035026D01*
X0030708Y0035040D01*
X0030672Y0035053D01*
X0030636Y0035071D01*
X0030586Y0035085D01*
X0030536Y0035098D01*
X0030482Y0035112D01*
X0030419Y0035125D01*
X0030351Y0035139D01*
X0030275Y0035144D01*
X0030198Y0035153D01*
D02*
G37*
G36*
X0066644Y0034363D02*
X0066558D01*
X0066540Y0034359D01*
X0066513D01*
X0066481Y0034354D01*
X0066413Y0034336D01*
X0066337Y0034314D01*
X0066251Y0034278D01*
X0066170Y0034228D01*
X0066134Y0034196D01*
X0066098Y0034160D01*
X0066089Y0034151D01*
X0066080Y0034138D01*
X0066071Y0034124D01*
X0066039Y0034079D01*
X0066003Y0034016D01*
X0065967Y0033939D01*
X0065931Y0033845D01*
X0065904Y0033736D01*
X0065886Y0033610D01*
X0067216D01*
Y0033615D01*
Y0033628D01*
Y0033646D01*
X0067212Y0033669D01*
Y0033700D01*
X0067207Y0033736D01*
X0067198Y0033813D01*
X0067176Y0033903D01*
X0067149Y0033998D01*
X0067108Y0034084D01*
X0067054Y0034165D01*
Y0034169D01*
X0067045Y0034174D01*
X0067022Y0034196D01*
X0066986Y0034228D01*
X0066937Y0034264D01*
X0066869Y0034300D01*
X0066788Y0034332D01*
X0066698Y0034354D01*
X0066644Y0034363D01*
D02*
G37*
G36*
X0054033D02*
X0053948D01*
X0053930Y0034359D01*
X0053903D01*
X0053871Y0034354D01*
X0053803Y0034336D01*
X0053727Y0034314D01*
X0053641Y0034278D01*
X0053560Y0034228D01*
X0053524Y0034196D01*
X0053488Y0034160D01*
X0053479Y0034151D01*
X0053470Y0034138D01*
X0053461Y0034124D01*
X0053429Y0034079D01*
X0053393Y0034016D01*
X0053357Y0033939D01*
X0053321Y0033845D01*
X0053294Y0033736D01*
X0053276Y0033610D01*
X0054606D01*
Y0033615D01*
Y0033628D01*
Y0033646D01*
X0054602Y0033669D01*
Y0033700D01*
X0054597Y0033736D01*
X0054588Y0033813D01*
X0054566Y0033903D01*
X0054539Y0033998D01*
X0054498Y0034084D01*
X0054444Y0034165D01*
Y0034169D01*
X0054435Y0034174D01*
X0054412Y0034196D01*
X0054376Y0034228D01*
X0054327Y0034264D01*
X0054259Y0034300D01*
X0054178Y0034332D01*
X0054088Y0034354D01*
X0054033Y0034363D01*
D02*
G37*
G36*
X0035060Y0034359D02*
X0035024D01*
X0034997Y0034354D01*
X0034965Y0034350D01*
X0034929Y0034345D01*
X0034848Y0034327D01*
X0034753Y0034296D01*
X0034659Y0034251D01*
X0034613Y0034223D01*
X0034568Y0034192D01*
X0034528Y0034151D01*
X0034487Y0034106D01*
Y0034102D01*
X0034478Y0034093D01*
X0034469Y0034079D01*
X0034456Y0034061D01*
X0034442Y0034034D01*
X0034429Y0034003D01*
X0034411Y0033966D01*
X0034392Y0033921D01*
X0034374Y0033872D01*
X0034356Y0033818D01*
X0034343Y0033754D01*
X0034329Y0033691D01*
X0034316Y0033619D01*
X0034307Y0033538D01*
X0034302Y0033457D01*
X0034298Y0033367D01*
Y0033362D01*
Y0033344D01*
Y0033321D01*
X0034302Y0033285D01*
Y0033245D01*
X0034307Y0033200D01*
X0034316Y0033146D01*
X0034320Y0033092D01*
X0034347Y0032970D01*
X0034379Y0032848D01*
X0034429Y0032726D01*
X0034456Y0032672D01*
X0034492Y0032622D01*
X0034496Y0032618D01*
X0034501Y0032613D01*
X0034514Y0032600D01*
X0034528Y0032582D01*
X0034573Y0032541D01*
X0034636Y0032496D01*
X0034717Y0032451D01*
X0034816Y0032410D01*
X0034929Y0032379D01*
X0034997Y0032374D01*
X0035065Y0032370D01*
X0035100D01*
X0035128Y0032374D01*
X0035159Y0032379D01*
X0035195Y0032383D01*
X0035276Y0032401D01*
X0035371Y0032433D01*
X0035466Y0032478D01*
X0035511Y0032505D01*
X0035556Y0032541D01*
X0035601Y0032577D01*
X0035637Y0032622D01*
X0035642Y0032627D01*
X0035646Y0032636D01*
X0035655Y0032649D01*
X0035669Y0032667D01*
X0035682Y0032695D01*
X0035700Y0032726D01*
X0035718Y0032767D01*
X0035737Y0032812D01*
X0035754Y0032862D01*
X0035772Y0032916D01*
X0035791Y0032974D01*
X0035804Y0033042D01*
X0035818Y0033114D01*
X0035827Y0033195D01*
X0035836Y0033276D01*
Y0033367D01*
Y0033371D01*
Y0033389D01*
Y0033412D01*
X0035831Y0033448D01*
Y0033488D01*
X0035827Y0033533D01*
X0035818Y0033588D01*
X0035813Y0033642D01*
X0035786Y0033764D01*
X0035750Y0033885D01*
X0035705Y0034003D01*
X0035673Y0034057D01*
X0035637Y0034106D01*
Y0034111D01*
X0035628Y0034115D01*
X0035619Y0034129D01*
X0035601Y0034147D01*
X0035579Y0034165D01*
X0035556Y0034187D01*
X0035493Y0034233D01*
X0035412Y0034278D01*
X0035313Y0034318D01*
X0035195Y0034350D01*
X0035128Y0034354D01*
X0035060Y0034359D01*
D02*
G37*
G36*
X0044822Y0028884D02*
X0044786D01*
X0044759Y0028879D01*
X0044727Y0028875D01*
X0044691Y0028870D01*
X0044610Y0028852D01*
X0044515Y0028820D01*
X0044420Y0028775D01*
X0044375Y0028748D01*
X0044330Y0028717D01*
X0044290Y0028676D01*
X0044249Y0028631D01*
Y0028627D01*
X0044240Y0028618D01*
X0044231Y0028604D01*
X0044218Y0028586D01*
X0044204Y0028559D01*
X0044190Y0028527D01*
X0044172Y0028491D01*
X0044154Y0028446D01*
X0044136Y0028397D01*
X0044118Y0028343D01*
X0044105Y0028279D01*
X0044091Y0028216D01*
X0044078Y0028144D01*
X0044069Y0028063D01*
X0044064Y0027982D01*
X0044060Y0027891D01*
Y0027887D01*
Y0027869D01*
Y0027846D01*
X0044064Y0027810D01*
Y0027770D01*
X0044069Y0027725D01*
X0044078Y0027670D01*
X0044082Y0027616D01*
X0044109Y0027495D01*
X0044141Y0027373D01*
X0044190Y0027251D01*
X0044218Y0027197D01*
X0044254Y0027147D01*
X0044258Y0027143D01*
X0044263Y0027138D01*
X0044276Y0027125D01*
X0044290Y0027107D01*
X0044335Y0027066D01*
X0044398Y0027021D01*
X0044479Y0026976D01*
X0044578Y0026935D01*
X0044691Y0026904D01*
X0044759Y0026899D01*
X0044826Y0026895D01*
X0044862D01*
X0044890Y0026899D01*
X0044921Y0026904D01*
X0044957Y0026908D01*
X0045038Y0026926D01*
X0045133Y0026958D01*
X0045228Y0027003D01*
X0045273Y0027030D01*
X0045318Y0027066D01*
X0045363Y0027102D01*
X0045399Y0027147D01*
X0045404Y0027152D01*
X0045408Y0027161D01*
X0045417Y0027174D01*
X0045431Y0027192D01*
X0045444Y0027220D01*
X0045462Y0027251D01*
X0045480Y0027292D01*
X0045498Y0027337D01*
X0045516Y0027386D01*
X0045534Y0027440D01*
X0045553Y0027499D01*
X0045566Y0027567D01*
X0045579Y0027639D01*
X0045589Y0027720D01*
X0045598Y0027801D01*
Y0027891D01*
Y0027896D01*
Y0027914D01*
Y0027937D01*
X0045593Y0027973D01*
Y0028013D01*
X0045589Y0028058D01*
X0045579Y0028112D01*
X0045575Y0028167D01*
X0045548Y0028288D01*
X0045512Y0028410D01*
X0045467Y0028527D01*
X0045435Y0028582D01*
X0045399Y0028631D01*
Y0028636D01*
X0045390Y0028640D01*
X0045381Y0028654D01*
X0045363Y0028672D01*
X0045340Y0028690D01*
X0045318Y0028712D01*
X0045255Y0028757D01*
X0045174Y0028802D01*
X0045074Y0028843D01*
X0044957Y0028875D01*
X0044890Y0028879D01*
X0044822Y0028884D01*
D02*
G37*
G36*
X0020371Y0024536D02*
X0020335D01*
X0020308Y0024532D01*
X0020276D01*
X0020240Y0024527D01*
X0020154Y0024509D01*
X0020064Y0024482D01*
X0019970Y0024446D01*
X0019884Y0024392D01*
X0019843Y0024356D01*
X0019807Y0024319D01*
Y0024315D01*
X0019798Y0024310D01*
X0019789Y0024297D01*
X0019780Y0024279D01*
X0019767Y0024256D01*
X0019753Y0024225D01*
X0019735Y0024193D01*
X0019717Y0024153D01*
X0019703Y0024108D01*
X0019685Y0024058D01*
X0019672Y0023999D01*
X0019658Y0023936D01*
X0019645Y0023868D01*
X0019636Y0023796D01*
X0019631Y0023715D01*
X0019627Y0023629D01*
Y0023544D01*
Y0023539D01*
Y0023521D01*
Y0023494D01*
X0019631Y0023458D01*
Y0023413D01*
X0019636Y0023363D01*
X0019640Y0023305D01*
X0019649Y0023246D01*
X0019672Y0023120D01*
X0019703Y0022994D01*
X0019721Y0022935D01*
X0019748Y0022876D01*
X0019776Y0022822D01*
X0019807Y0022777D01*
X0019812Y0022773D01*
X0019816Y0022768D01*
X0019843Y0022741D01*
X0019884Y0022705D01*
X0019915Y0022682D01*
X0019947Y0022664D01*
X0019983Y0022642D01*
X0020028Y0022619D01*
X0020073Y0022601D01*
X0020123Y0022583D01*
X0020181Y0022570D01*
X0020245Y0022556D01*
X0020308Y0022552D01*
X0020380Y0022547D01*
X0020412D01*
X0020434Y0022552D01*
X0020461Y0022556D01*
X0020497Y0022561D01*
X0020569Y0022579D01*
X0020655Y0022610D01*
X0020696Y0022633D01*
X0020741Y0022660D01*
X0020781Y0022691D01*
X0020822Y0022727D01*
X0020863Y0022768D01*
X0020899Y0022813D01*
X0020903Y0022818D01*
X0020908Y0022827D01*
X0020917Y0022840D01*
X0020930Y0022863D01*
X0020944Y0022890D01*
X0020957Y0022921D01*
X0020975Y0022962D01*
X0020993Y0023007D01*
X0021011Y0023057D01*
X0021029Y0023111D01*
X0021043Y0023169D01*
X0021056Y0023237D01*
X0021070Y0023305D01*
X0021079Y0023381D01*
X0021088Y0023463D01*
Y0023548D01*
Y0023553D01*
Y0023571D01*
Y0023593D01*
X0021083Y0023625D01*
Y0023666D01*
X0021079Y0023715D01*
X0021074Y0023765D01*
X0021065Y0023819D01*
X0021043Y0023936D01*
X0021007Y0024058D01*
X0020962Y0024175D01*
X0020930Y0024229D01*
X0020899Y0024279D01*
Y0024283D01*
X0020889Y0024288D01*
X0020880Y0024302D01*
X0020863Y0024319D01*
X0020822Y0024360D01*
X0020763Y0024410D01*
X0020687Y0024455D01*
X0020596Y0024495D01*
X0020547Y0024513D01*
X0020493Y0024527D01*
X0020434Y0024532D01*
X0020371Y0024536D01*
D02*
G37*
G36*
X0057529Y0025330D02*
X0057001D01*
Y0023945D01*
X0057407D01*
X0057443Y0023950D01*
X0057488D01*
X0057533Y0023954D01*
X0057592Y0023959D01*
X0057651Y0023968D01*
X0057772Y0023986D01*
X0057899Y0024017D01*
X0058016Y0024058D01*
X0058070Y0024085D01*
X0058115Y0024112D01*
X0058120D01*
X0058124Y0024121D01*
X0058151Y0024144D01*
X0058192Y0024184D01*
X0058237Y0024243D01*
X0058277Y0024319D01*
X0058300Y0024365D01*
X0058318Y0024414D01*
X0058332Y0024468D01*
X0058345Y0024527D01*
X0058350Y0024590D01*
X0058354Y0024658D01*
Y0024662D01*
Y0024671D01*
Y0024689D01*
X0058350Y0024712D01*
Y0024744D01*
X0058341Y0024775D01*
X0058327Y0024847D01*
X0058300Y0024928D01*
X0058259Y0025014D01*
X0058237Y0025055D01*
X0058205Y0025095D01*
X0058174Y0025131D01*
X0058133Y0025163D01*
X0058129D01*
X0058124Y0025172D01*
X0058111Y0025176D01*
X0058092Y0025190D01*
X0058065Y0025203D01*
X0058038Y0025217D01*
X0058002Y0025231D01*
X0057966Y0025249D01*
X0057917Y0025262D01*
X0057867Y0025276D01*
X0057813Y0025289D01*
X0057750Y0025303D01*
X0057682Y0025316D01*
X0057605Y0025321D01*
X0057529Y0025330D01*
D02*
G37*
G36*
X0023632Y0023521D02*
X0023244Y0023503D01*
X0023226D01*
X0023199Y0023499D01*
X0023167D01*
X0023131Y0023494D01*
X0023086Y0023490D01*
X0022987Y0023481D01*
X0022878Y0023458D01*
X0022770Y0023436D01*
X0022667Y0023400D01*
X0022621Y0023381D01*
X0022581Y0023359D01*
X0022572Y0023354D01*
X0022549Y0023336D01*
X0022518Y0023305D01*
X0022482Y0023264D01*
X0022441Y0023205D01*
X0022409Y0023142D01*
X0022387Y0023061D01*
X0022382Y0023016D01*
X0022378Y0022966D01*
Y0022957D01*
Y0022930D01*
X0022387Y0022894D01*
X0022396Y0022849D01*
X0022409Y0022800D01*
X0022432Y0022746D01*
X0022464Y0022696D01*
X0022504Y0022651D01*
X0022509Y0022646D01*
X0022527Y0022633D01*
X0022558Y0022615D01*
X0022594Y0022597D01*
X0022648Y0022579D01*
X0022707Y0022561D01*
X0022779Y0022547D01*
X0022860Y0022543D01*
X0022896D01*
X0022919Y0022547D01*
X0022951D01*
X0022987Y0022552D01*
X0023068Y0022565D01*
X0023158Y0022592D01*
X0023253Y0022624D01*
X0023343Y0022673D01*
X0023384Y0022700D01*
X0023424Y0022737D01*
X0023429Y0022741D01*
X0023433Y0022746D01*
X0023442Y0022759D01*
X0023456Y0022773D01*
X0023492Y0022818D01*
X0023528Y0022881D01*
X0023564Y0022957D01*
X0023600Y0023052D01*
X0023623Y0023165D01*
X0023632Y0023228D01*
Y0023291D01*
Y0023521D01*
D02*
G37*
G36*
X0067933Y0024536D02*
X0067897D01*
X0067870Y0024532D01*
X0067839Y0024527D01*
X0067803Y0024522D01*
X0067721Y0024504D01*
X0067627Y0024473D01*
X0067532Y0024428D01*
X0067487Y0024401D01*
X0067442Y0024369D01*
X0067401Y0024329D01*
X0067361Y0024283D01*
Y0024279D01*
X0067352Y0024270D01*
X0067343Y0024256D01*
X0067329Y0024238D01*
X0067316Y0024211D01*
X0067302Y0024180D01*
X0067284Y0024144D01*
X0067266Y0024099D01*
X0067248Y0024049D01*
X0067230Y0023995D01*
X0067216Y0023932D01*
X0067203Y0023868D01*
X0067189Y0023796D01*
X0067180Y0023715D01*
X0067176Y0023634D01*
X0067171Y0023544D01*
Y0023539D01*
Y0023521D01*
Y0023499D01*
X0067176Y0023463D01*
Y0023422D01*
X0067180Y0023377D01*
X0067189Y0023323D01*
X0067194Y0023269D01*
X0067221Y0023147D01*
X0067252Y0023025D01*
X0067302Y0022903D01*
X0067329Y0022849D01*
X0067365Y0022800D01*
X0067370Y0022795D01*
X0067374Y0022791D01*
X0067388Y0022777D01*
X0067401Y0022759D01*
X0067446Y0022718D01*
X0067509Y0022673D01*
X0067591Y0022628D01*
X0067690Y0022588D01*
X0067803Y0022556D01*
X0067870Y0022552D01*
X0067938Y0022547D01*
X0067974D01*
X0068001Y0022552D01*
X0068033Y0022556D01*
X0068069Y0022561D01*
X0068150Y0022579D01*
X0068244Y0022610D01*
X0068339Y0022655D01*
X0068384Y0022682D01*
X0068429Y0022718D01*
X0068475Y0022755D01*
X0068511Y0022800D01*
X0068515Y0022804D01*
X0068520Y0022813D01*
X0068529Y0022827D01*
X0068542Y0022845D01*
X0068556Y0022872D01*
X0068574Y0022903D01*
X0068592Y0022944D01*
X0068610Y0022989D01*
X0068628Y0023039D01*
X0068646Y0023093D01*
X0068664Y0023151D01*
X0068678Y0023219D01*
X0068691Y0023291D01*
X0068700Y0023372D01*
X0068709Y0023454D01*
Y0023544D01*
Y0023548D01*
Y0023566D01*
Y0023589D01*
X0068705Y0023625D01*
Y0023666D01*
X0068700Y0023711D01*
X0068691Y0023765D01*
X0068686Y0023819D01*
X0068660Y0023941D01*
X0068623Y0024062D01*
X0068578Y0024180D01*
X0068547Y0024234D01*
X0068511Y0024283D01*
Y0024288D01*
X0068502Y0024293D01*
X0068493Y0024306D01*
X0068475Y0024324D01*
X0068452Y0024342D01*
X0068429Y0024365D01*
X0068366Y0024410D01*
X0068285Y0024455D01*
X0068186Y0024495D01*
X0068069Y0024527D01*
X0068001Y0024532D01*
X0067933Y0024536D01*
D02*
G37*
G36*
X0063369D02*
X0063333D01*
X0063306Y0024532D01*
X0063275Y0024527D01*
X0063238Y0024522D01*
X0063157Y0024504D01*
X0063063Y0024473D01*
X0062968Y0024428D01*
X0062923Y0024401D01*
X0062878Y0024369D01*
X0062837Y0024329D01*
X0062796Y0024283D01*
Y0024279D01*
X0062787Y0024270D01*
X0062778Y0024256D01*
X0062765Y0024238D01*
X0062751Y0024211D01*
X0062738Y0024180D01*
X0062720Y0024144D01*
X0062702Y0024099D01*
X0062684Y0024049D01*
X0062666Y0023995D01*
X0062652Y0023932D01*
X0062639Y0023868D01*
X0062625Y0023796D01*
X0062616Y0023715D01*
X0062612Y0023634D01*
X0062607Y0023544D01*
Y0023539D01*
Y0023521D01*
Y0023499D01*
X0062612Y0023463D01*
Y0023422D01*
X0062616Y0023377D01*
X0062625Y0023323D01*
X0062630Y0023269D01*
X0062657Y0023147D01*
X0062688Y0023025D01*
X0062738Y0022903D01*
X0062765Y0022849D01*
X0062801Y0022800D01*
X0062805Y0022795D01*
X0062810Y0022791D01*
X0062823Y0022777D01*
X0062837Y0022759D01*
X0062882Y0022718D01*
X0062945Y0022673D01*
X0063026Y0022628D01*
X0063126Y0022588D01*
X0063238Y0022556D01*
X0063306Y0022552D01*
X0063374Y0022547D01*
X0063410D01*
X0063437Y0022552D01*
X0063468Y0022556D01*
X0063504Y0022561D01*
X0063586Y0022579D01*
X0063680Y0022610D01*
X0063775Y0022655D01*
X0063820Y0022682D01*
X0063865Y0022718D01*
X0063910Y0022755D01*
X0063946Y0022800D01*
X0063951Y0022804D01*
X0063955Y0022813D01*
X0063964Y0022827D01*
X0063978Y0022845D01*
X0063992Y0022872D01*
X0064010Y0022903D01*
X0064028Y0022944D01*
X0064046Y0022989D01*
X0064064Y0023039D01*
X0064082Y0023093D01*
X0064100Y0023151D01*
X0064113Y0023219D01*
X0064127Y0023291D01*
X0064136Y0023372D01*
X0064145Y0023454D01*
Y0023544D01*
Y0023548D01*
Y0023566D01*
Y0023589D01*
X0064140Y0023625D01*
Y0023666D01*
X0064136Y0023711D01*
X0064127Y0023765D01*
X0064122Y0023819D01*
X0064095Y0023941D01*
X0064059Y0024062D01*
X0064014Y0024180D01*
X0063983Y0024234D01*
X0063946Y0024283D01*
Y0024288D01*
X0063937Y0024293D01*
X0063929Y0024306D01*
X0063910Y0024324D01*
X0063888Y0024342D01*
X0063865Y0024365D01*
X0063802Y0024410D01*
X0063721Y0024455D01*
X0063622Y0024495D01*
X0063504Y0024527D01*
X0063437Y0024532D01*
X0063369Y0024536D01*
D02*
G37*
G36*
X0044693D02*
X0044657D01*
X0044630Y0024532D01*
X0044599Y0024527D01*
X0044563Y0024522D01*
X0044481Y0024504D01*
X0044387Y0024473D01*
X0044292Y0024428D01*
X0044247Y0024401D01*
X0044202Y0024369D01*
X0044161Y0024329D01*
X0044120Y0024283D01*
Y0024279D01*
X0044111Y0024270D01*
X0044102Y0024256D01*
X0044089Y0024238D01*
X0044076Y0024211D01*
X0044062Y0024180D01*
X0044044Y0024144D01*
X0044026Y0024099D01*
X0044008Y0024049D01*
X0043990Y0023995D01*
X0043976Y0023932D01*
X0043963Y0023868D01*
X0043949Y0023796D01*
X0043940Y0023715D01*
X0043936Y0023634D01*
X0043931Y0023544D01*
Y0023539D01*
Y0023521D01*
Y0023499D01*
X0043936Y0023463D01*
Y0023422D01*
X0043940Y0023377D01*
X0043949Y0023323D01*
X0043954Y0023269D01*
X0043981Y0023147D01*
X0044012Y0023025D01*
X0044062Y0022903D01*
X0044089Y0022849D01*
X0044125Y0022800D01*
X0044130Y0022795D01*
X0044134Y0022791D01*
X0044148Y0022777D01*
X0044161Y0022759D01*
X0044206Y0022718D01*
X0044269Y0022673D01*
X0044351Y0022628D01*
X0044450Y0022588D01*
X0044563Y0022556D01*
X0044630Y0022552D01*
X0044698Y0022547D01*
X0044734D01*
X0044761Y0022552D01*
X0044793Y0022556D01*
X0044829Y0022561D01*
X0044910Y0022579D01*
X0045004Y0022610D01*
X0045099Y0022655D01*
X0045144Y0022682D01*
X0045189Y0022718D01*
X0045235Y0022755D01*
X0045271Y0022800D01*
X0045275Y0022804D01*
X0045280Y0022813D01*
X0045289Y0022827D01*
X0045302Y0022845D01*
X0045316Y0022872D01*
X0045334Y0022903D01*
X0045352Y0022944D01*
X0045370Y0022989D01*
X0045388Y0023039D01*
X0045406Y0023093D01*
X0045424Y0023151D01*
X0045437Y0023219D01*
X0045451Y0023291D01*
X0045460Y0023372D01*
X0045469Y0023454D01*
Y0023544D01*
Y0023548D01*
Y0023566D01*
Y0023589D01*
X0045465Y0023625D01*
Y0023666D01*
X0045460Y0023711D01*
X0045451Y0023765D01*
X0045447Y0023819D01*
X0045419Y0023941D01*
X0045383Y0024062D01*
X0045338Y0024180D01*
X0045307Y0024234D01*
X0045271Y0024283D01*
Y0024288D01*
X0045262Y0024293D01*
X0045253Y0024306D01*
X0045235Y0024324D01*
X0045212Y0024342D01*
X0045189Y0024365D01*
X0045126Y0024410D01*
X0045045Y0024455D01*
X0044946Y0024495D01*
X0044829Y0024527D01*
X0044761Y0024532D01*
X0044693Y0024536D01*
D02*
G37*
G36*
X0039371Y0024541D02*
X0039286D01*
X0039268Y0024536D01*
X0039241D01*
X0039209Y0024532D01*
X0039141Y0024513D01*
X0039065Y0024491D01*
X0038979Y0024455D01*
X0038898Y0024405D01*
X0038862Y0024374D01*
X0038826Y0024338D01*
X0038817Y0024329D01*
X0038808Y0024315D01*
X0038799Y0024302D01*
X0038767Y0024256D01*
X0038731Y0024193D01*
X0038695Y0024117D01*
X0038659Y0024022D01*
X0038632Y0023914D01*
X0038614Y0023787D01*
X0039944D01*
Y0023792D01*
Y0023805D01*
Y0023823D01*
X0039940Y0023846D01*
Y0023877D01*
X0039935Y0023914D01*
X0039926Y0023990D01*
X0039904Y0024081D01*
X0039877Y0024175D01*
X0039836Y0024261D01*
X0039782Y0024342D01*
Y0024347D01*
X0039773Y0024351D01*
X0039750Y0024374D01*
X0039714Y0024405D01*
X0039665Y0024441D01*
X0039597Y0024477D01*
X0039516Y0024509D01*
X0039426Y0024532D01*
X0039371Y0024541D01*
D02*
G37*
G36*
X0034537Y0024536D02*
X0034501D01*
X0034474Y0024532D01*
X0034442Y0024527D01*
X0034406Y0024522D01*
X0034325Y0024504D01*
X0034230Y0024473D01*
X0034135Y0024428D01*
X0034090Y0024401D01*
X0034045Y0024369D01*
X0034005Y0024329D01*
X0033964Y0024283D01*
Y0024279D01*
X0033955Y0024270D01*
X0033946Y0024256D01*
X0033933Y0024238D01*
X0033919Y0024211D01*
X0033905Y0024180D01*
X0033887Y0024144D01*
X0033869Y0024099D01*
X0033851Y0024049D01*
X0033833Y0023995D01*
X0033820Y0023932D01*
X0033806Y0023868D01*
X0033793Y0023796D01*
X0033784Y0023715D01*
X0033779Y0023634D01*
X0033775Y0023544D01*
Y0023539D01*
Y0023521D01*
Y0023499D01*
X0033779Y0023463D01*
Y0023422D01*
X0033784Y0023377D01*
X0033793Y0023323D01*
X0033797Y0023269D01*
X0033824Y0023147D01*
X0033856Y0023025D01*
X0033905Y0022903D01*
X0033933Y0022849D01*
X0033968Y0022800D01*
X0033973Y0022795D01*
X0033978Y0022791D01*
X0033991Y0022777D01*
X0034005Y0022759D01*
X0034050Y0022718D01*
X0034113Y0022673D01*
X0034194Y0022628D01*
X0034293Y0022588D01*
X0034406Y0022556D01*
X0034474Y0022552D01*
X0034541Y0022547D01*
X0034577D01*
X0034604Y0022552D01*
X0034636Y0022556D01*
X0034672Y0022561D01*
X0034753Y0022579D01*
X0034848Y0022610D01*
X0034943Y0022655D01*
X0034988Y0022682D01*
X0035033Y0022718D01*
X0035078Y0022755D01*
X0035114Y0022800D01*
X0035119Y0022804D01*
X0035123Y0022813D01*
X0035132Y0022827D01*
X0035146Y0022845D01*
X0035159Y0022872D01*
X0035177Y0022903D01*
X0035195Y0022944D01*
X0035213Y0022989D01*
X0035231Y0023039D01*
X0035249Y0023093D01*
X0035267Y0023151D01*
X0035281Y0023219D01*
X0035294Y0023291D01*
X0035304Y0023372D01*
X0035313Y0023454D01*
Y0023544D01*
Y0023548D01*
Y0023566D01*
Y0023589D01*
X0035308Y0023625D01*
Y0023666D01*
X0035304Y0023711D01*
X0035294Y0023765D01*
X0035290Y0023819D01*
X0035263Y0023941D01*
X0035227Y0024062D01*
X0035182Y0024180D01*
X0035150Y0024234D01*
X0035114Y0024283D01*
Y0024288D01*
X0035105Y0024293D01*
X0035096Y0024306D01*
X0035078Y0024324D01*
X0035056Y0024342D01*
X0035033Y0024365D01*
X0034970Y0024410D01*
X0034889Y0024455D01*
X0034789Y0024495D01*
X0034672Y0024527D01*
X0034604Y0024532D01*
X0034537Y0024536D01*
D02*
G37*
G36*
X0050568Y0015006D02*
X0050536D01*
X0050513Y0015002D01*
X0050482Y0014997D01*
X0050450Y0014993D01*
X0050378Y0014975D01*
X0050292Y0014943D01*
X0050247Y0014921D01*
X0050207Y0014894D01*
X0050162Y0014862D01*
X0050121Y0014830D01*
X0050085Y0014785D01*
X0050049Y0014740D01*
Y0014736D01*
X0050040Y0014727D01*
X0050031Y0014713D01*
X0050022Y0014691D01*
X0050008Y0014664D01*
X0049990Y0014632D01*
X0049977Y0014592D01*
X0049959Y0014551D01*
X0049941Y0014501D01*
X0049927Y0014443D01*
X0049909Y0014384D01*
X0049896Y0014316D01*
X0049887Y0014244D01*
X0049878Y0014167D01*
X0049869Y0014086D01*
Y0013996D01*
Y0013992D01*
Y0013974D01*
Y0013951D01*
X0049873Y0013915D01*
Y0013874D01*
X0049878Y0013829D01*
X0049882Y0013775D01*
X0049891Y0013721D01*
X0049914Y0013604D01*
X0049941Y0013482D01*
X0049986Y0013365D01*
X0050013Y0013311D01*
X0050044Y0013261D01*
Y0013257D01*
X0050054Y0013252D01*
X0050076Y0013220D01*
X0050121Y0013184D01*
X0050180Y0013139D01*
X0050252Y0013090D01*
X0050342Y0013054D01*
X0050450Y0013022D01*
X0050509Y0013017D01*
X0050572Y0013013D01*
X0050608D01*
X0050635Y0013017D01*
X0050671D01*
X0050707Y0013026D01*
X0050793Y0013040D01*
X0050888Y0013067D01*
X0050982Y0013103D01*
X0051068Y0013157D01*
X0051109Y0013189D01*
X0051145Y0013225D01*
Y0013229D01*
X0051154Y0013234D01*
X0051163Y0013248D01*
X0051172Y0013265D01*
X0051186Y0013288D01*
X0051204Y0013320D01*
X0051217Y0013351D01*
X0051235Y0013392D01*
X0051253Y0013437D01*
X0051267Y0013491D01*
X0051285Y0013545D01*
X0051298Y0013608D01*
X0051307Y0013676D01*
X0051316Y0013753D01*
X0051325Y0013834D01*
Y0013919D01*
Y0014001D01*
Y0014005D01*
Y0014023D01*
Y0014050D01*
X0051321Y0014091D01*
Y0014131D01*
X0051316Y0014186D01*
X0051312Y0014240D01*
X0051303Y0014298D01*
X0051280Y0014429D01*
X0051249Y0014555D01*
X0051231Y0014614D01*
X0051204Y0014673D01*
X0051176Y0014727D01*
X0051145Y0014772D01*
Y0014776D01*
X0051136Y0014781D01*
X0051109Y0014808D01*
X0051091Y0014826D01*
X0051068Y0014844D01*
X0051037Y0014867D01*
X0051005Y0014889D01*
X0050969Y0014912D01*
X0050924Y0014934D01*
X0050879Y0014952D01*
X0050825Y0014970D01*
X0050770Y0014984D01*
X0050707Y0014997D01*
X0050640Y0015002D01*
X0050568Y0015006D01*
D02*
G37*
G36*
X0044357Y0015751D02*
X0044335D01*
Y0015746D01*
X0044330Y0015742D01*
X0044317Y0015714D01*
X0044294Y0015669D01*
X0044267Y0015620D01*
X0044236Y0015561D01*
X0044204Y0015498D01*
X0044163Y0015435D01*
X0044127Y0015376D01*
X0043063Y0013865D01*
X0044330Y0013865D01*
Y0014997D01*
Y0015002D01*
Y0015011D01*
Y0015029D01*
Y0015056D01*
Y0015088D01*
Y0015124D01*
X0044335Y0015169D01*
Y0015218D01*
Y0015268D01*
Y0015327D01*
X0044344Y0015457D01*
X0044348Y0015597D01*
X0044357Y0015751D01*
D02*
G37*
G36*
X0034805Y0015796D02*
X0034228D01*
Y0013076D01*
X0034742D01*
X0034778Y0013081D01*
X0034828D01*
X0034886Y0013085D01*
X0034954Y0013094D01*
X0035031Y0013103D01*
X0035107Y0013121D01*
X0035193Y0013139D01*
X0035283Y0013162D01*
X0035369Y0013189D01*
X0035459Y0013225D01*
X0035545Y0013261D01*
X0035626Y0013311D01*
X0035703Y0013360D01*
X0035775Y0013423D01*
X0035779Y0013428D01*
X0035788Y0013441D01*
X0035806Y0013459D01*
X0035829Y0013487D01*
X0035856Y0013523D01*
X0035888Y0013568D01*
X0035919Y0013622D01*
X0035955Y0013680D01*
X0035987Y0013753D01*
X0036018Y0013829D01*
X0036050Y0013910D01*
X0036077Y0014005D01*
X0036099Y0014104D01*
X0036118Y0014213D01*
X0036127Y0014330D01*
X0036131Y0014452D01*
Y0014461D01*
Y0014483D01*
Y0014515D01*
X0036127Y0014560D01*
X0036122Y0014618D01*
X0036113Y0014682D01*
X0036104Y0014754D01*
X0036090Y0014826D01*
X0036072Y0014907D01*
X0036050Y0014993D01*
X0036023Y0015074D01*
X0035991Y0015160D01*
X0035951Y0015241D01*
X0035906Y0015318D01*
X0035856Y0015390D01*
X0035797Y0015457D01*
X0035793Y0015462D01*
X0035784Y0015471D01*
X0035761Y0015489D01*
X0035734Y0015511D01*
X0035698Y0015534D01*
X0035658Y0015566D01*
X0035608Y0015597D01*
X0035549Y0015629D01*
X0035482Y0015660D01*
X0035410Y0015687D01*
X0035328Y0015719D01*
X0035238Y0015742D01*
X0035143Y0015764D01*
X0035035Y0015782D01*
X0034927Y0015791D01*
X0034805Y0015796D01*
D02*
G37*
G36*
X0057644Y0015002D02*
X0057608D01*
X0057581Y0014997D01*
X0057549Y0014993D01*
X0057513Y0014988D01*
X0057432Y0014970D01*
X0057337Y0014939D01*
X0057242Y0014894D01*
X0057197Y0014867D01*
X0057152Y0014835D01*
X0057112Y0014794D01*
X0057071Y0014749D01*
Y0014745D01*
X0057062Y0014736D01*
X0057053Y0014722D01*
X0057039Y0014704D01*
X0057026Y0014677D01*
X0057012Y0014646D01*
X0056994Y0014609D01*
X0056976Y0014564D01*
X0056958Y0014515D01*
X0056940Y0014461D01*
X0056927Y0014398D01*
X0056913Y0014334D01*
X0056900Y0014262D01*
X0056891Y0014181D01*
X0056886Y0014100D01*
X0056882Y0014010D01*
Y0014005D01*
Y0013987D01*
Y0013965D01*
X0056886Y0013928D01*
Y0013888D01*
X0056891Y0013843D01*
X0056900Y0013789D01*
X0056904Y0013735D01*
X0056931Y0013613D01*
X0056963Y0013491D01*
X0057012Y0013369D01*
X0057039Y0013315D01*
X0057076Y0013265D01*
X0057080Y0013261D01*
X0057085Y0013257D01*
X0057098Y0013243D01*
X0057112Y0013225D01*
X0057157Y0013184D01*
X0057220Y0013139D01*
X0057301Y0013094D01*
X0057400Y0013054D01*
X0057513Y0013022D01*
X0057581Y0013017D01*
X0057648Y0013013D01*
X0057684D01*
X0057711Y0013017D01*
X0057743Y0013022D01*
X0057779Y0013026D01*
X0057860Y0013045D01*
X0057955Y0013076D01*
X0058050Y0013121D01*
X0058095Y0013148D01*
X0058140Y0013184D01*
X0058185Y0013220D01*
X0058221Y0013265D01*
X0058226Y0013270D01*
X0058230Y0013279D01*
X0058239Y0013293D01*
X0058253Y0013311D01*
X0058266Y0013338D01*
X0058284Y0013369D01*
X0058302Y0013410D01*
X0058320Y0013455D01*
X0058338Y0013505D01*
X0058356Y0013559D01*
X0058374Y0013617D01*
X0058388Y0013685D01*
X0058402Y0013757D01*
X0058411Y0013838D01*
X0058420Y0013919D01*
Y0014010D01*
Y0014014D01*
Y0014032D01*
Y0014055D01*
X0058415Y0014091D01*
Y0014131D01*
X0058411Y0014176D01*
X0058402Y0014231D01*
X0058397Y0014285D01*
X0058370Y0014406D01*
X0058334Y0014528D01*
X0058289Y0014646D01*
X0058257Y0014700D01*
X0058221Y0014749D01*
Y0014754D01*
X0058212Y0014758D01*
X0058203Y0014772D01*
X0058185Y0014790D01*
X0058162Y0014808D01*
X0058140Y0014830D01*
X0058077Y0014876D01*
X0057996Y0014921D01*
X0057896Y0014961D01*
X0057779Y0014993D01*
X0057711Y0014997D01*
X0057644Y0015002D01*
D02*
G37*
G36*
X0020416Y0120887D02*
Y0120862D01*
X0020421D01*
X0020425Y0120858D01*
X0020455Y0120843D01*
X0020503Y0120819D01*
X0020557Y0120790D01*
X0020620Y0120756D01*
X0020688Y0120721D01*
X0020756Y0120678D01*
X0020819Y0120639D01*
X0022447Y0119492D01*
Y0120858D01*
X0021227D01*
X0021223D01*
X0021213D01*
X0021193D01*
X0021164D01*
X0021130D01*
X0021091D01*
X0021043Y0120862D01*
X0020989D01*
X0020936D01*
X0020873D01*
X0020732Y0120872D01*
X0020581Y0120877D01*
X0020416Y0120887D01*
D02*
G37*
G36*
X0021815Y0112022D02*
X0021806D01*
X0021781D01*
X0021747D01*
X0021699Y0112017D01*
X0021636Y0112012D01*
X0021568Y0112003D01*
X0021490Y0111993D01*
X0021412Y0111978D01*
X0021325Y0111959D01*
X0021232Y0111935D01*
X0021145Y0111906D01*
X0021053Y0111871D01*
X0020965Y0111828D01*
X0020882Y0111779D01*
X0020805Y0111726D01*
X0020732Y0111662D01*
X0020727Y0111658D01*
X0020717Y0111648D01*
X0020698Y0111624D01*
X0020673Y0111594D01*
X0020649Y0111556D01*
X0020615Y0111512D01*
X0020581Y0111458D01*
X0020547Y0111395D01*
X0020513Y0111322D01*
X0020484Y0111244D01*
X0020450Y0111157D01*
X0020425Y0111060D01*
X0020401Y0110958D01*
X0020382Y0110841D01*
X0020372Y0110724D01*
X0020367Y0110593D01*
Y0109971D01*
X0023298D01*
Y0110525D01*
X0023293Y0110564D01*
Y0110618D01*
X0023288Y0110681D01*
X0023278Y0110754D01*
X0023269Y0110836D01*
X0023249Y0110919D01*
X0023230Y0111011D01*
X0023205Y0111108D01*
X0023176Y0111201D01*
X0023137Y0111298D01*
X0023099Y0111390D01*
X0023045Y0111478D01*
X0022992Y0111560D01*
X0022924Y0111638D01*
X0022919Y0111643D01*
X0022904Y0111653D01*
X0022885Y0111672D01*
X0022855Y0111697D01*
X0022817Y0111726D01*
X0022768Y0111760D01*
X0022710Y0111794D01*
X0022647Y0111833D01*
X0022569Y0111867D01*
X0022486Y0111901D01*
X0022399Y0111935D01*
X0022297Y0111964D01*
X0022190Y0111988D01*
X0022073Y0112007D01*
X0021947Y0112017D01*
X0021815Y0112022D01*
D02*
G37*
%LPD*%
D10*
X0064900Y0047300D02*
X0073000D01*
X0065709Y0046250D02*
Y0043750D01*
X0064876Y0046250D02*
X0066542D01*
X0066839D02*
Y0043750D01*
Y0046250D02*
X0067911D01*
X0068268Y0046131D01*
X0068387Y0046012D01*
X0068506Y0045774D01*
Y0045536D01*
X0068387Y0045298D01*
X0068268Y0045179D01*
X0067911Y0045059D01*
X0066839D01*
X0067673D02*
X0068506Y0043750D01*
X0070732Y0045893D02*
X0070494Y0046131D01*
X0070136Y0046250D01*
X0069660D01*
X0069303Y0046131D01*
X0069065Y0045893D01*
Y0045655D01*
X0069184Y0045417D01*
X0069303Y0045298D01*
X0069541Y0045179D01*
X0070256Y0044941D01*
X0070494Y0044822D01*
X0070613Y0044703D01*
X0070732Y0044464D01*
Y0044107D01*
X0070494Y0043869D01*
X0070136Y0043750D01*
X0069660D01*
X0069303Y0043869D01*
X0069065Y0044107D01*
X0072124Y0046250D02*
Y0043750D01*
X0071291Y0046250D02*
X0072957D01*
D11*
X0030004Y0136626D02*
X0060004D01*
Y0140020D02*
X0085004D01*
X0015004Y0000020D02*
X0075004D01*
X0030004Y0145020D02*
X0060004D01*
X0005004Y0140020D02*
X0030004D01*
X0075004Y0000020D02*
X0085004Y0010020D01*
X0005004D02*
X0015004Y0000020D01*
X0085004Y0130020D02*
Y0140020D01*
X0060004Y0136626D02*
Y0140020D01*
X0030004Y0136626D02*
Y0140020D01*
X0005004Y0130020D02*
Y0140020D01*
X0060004D02*
Y0145020D01*
X0030004Y0140020D02*
Y0145020D01*
D12*
X0075004Y0130020D02*
X0085004D01*
X0075004Y0010020D02*
X0085004D01*
X0005004Y0130020D02*
X0015004D01*
X0005004Y0010020D02*
X0015004D01*
X0085004D02*
Y0130020D01*
X0075004Y0010020D02*
Y0130020D01*
X0015004Y0010020D02*
Y0130020D01*
X0005004Y0010020D02*
Y0130020D01*
D13*
X0049698Y0134168D02*
X0063972D01*
Y0103632D02*
Y0134168D01*
X0025291D02*
X0039700D01*
X0025291Y0103632D02*
X0063972D01*
X0025291D02*
Y0134168D01*
D14*
X0065750Y0057100D02*
Y0059500D01*
X0071250Y0057100D02*
Y0059500D01*
M02*
